# This file uses centimeters as units for non-parametric coordinates.

g default
v 82.970116 121.947113 66.777916
v 83.354340 121.490562 66.994400
v 82.728180 121.542114 66.353203
v 83.112396 121.085564 66.569702
v 83.259155 123.566650 67.579025
v 83.281296 123.186195 66.815567
v 83.937950 123.112007 67.825272
v 83.960091 122.731560 67.061813
v 83.442093 122.983116 66.381058
v 83.192772 122.160118 67.240639
v 84.123497 122.164375 65.794792
v 83.874184 121.341377 66.654373
v 82.979187 122.312820 66.575966
v 83.430046 122.924904 67.464294
v 83.456543 121.336227 67.006599
v 83.907402 121.948311 67.894920
v 83.102272 122.984566 67.193451
v 84.058662 123.469353 67.659668
v 83.764702 122.165306 66.686455
v 84.721092 122.650093 67.152664
v 83.372551 122.355164 66.750389
v 82.746758 123.315742 66.979965
v 82.990089 121.868881 67.742508
v 82.364296 122.829468 67.972084
v 83.069389 122.956299 66.476891
v 83.303482 122.288483 66.932159
v 82.850075 122.447617 65.843498
v 83.084175 121.779800 66.298767
v 83.047249 122.138031 67.214661
v 83.385162 122.800140 66.666695
v 83.205818 121.511314 66.555176
v 83.543724 122.173424 66.007210
v 83.436508 123.056694 67.171577
v 83.254128 123.694313 67.414238
v 83.900269 123.356758 66.731628
v 83.717911 123.994392 66.974289
v 83.455849 122.885597 66.947189
v 83.359596 123.668755 67.204292
v 82.834854 122.986916 66.406067
v 82.738602 123.770073 66.663170
v 83.613831 123.150597 66.915916
v 83.040947 123.475510 67.207733
v 83.284904 122.512947 66.980148
v 82.712029 122.837860 67.271980
v 83.179710 122.475014 67.216743
v 83.327873 123.000244 66.945290
v 83.442375 122.165825 66.761871
v 83.590546 122.691055 66.490417
v 82.951233 122.403358 67.113861
v 83.368462 121.840714 66.512039
v 82.310349 121.757797 67.273071
v 82.727577 121.195152 66.671249
v 82.838127 122.164085 66.903152
v 83.307205 121.488327 66.720490
v 82.478050 121.742584 67.537773
v 82.947128 121.066826 67.355095
v 83.415840 121.586182 66.576332
v 82.863388 121.648064 67.192505
v 83.644554 120.839226 66.856407
v 83.092102 120.901100 67.472580
v 82.967171 119.657463 66.437698
v 83.146751 120.092186 66.961533
v 83.383591 119.158752 66.708839
v 83.563156 119.593475 67.232658
v 82.920921 120.006340 66.829544
v 83.046959 119.649971 66.667427
v 82.532112 119.912361 66.733849
v 82.658150 119.555992 66.571732
vt 0.989939 0.986945
vt 0.013123 0.986945
vt 0.013238 0.010014
vt 0.989824 0.010014
vt 0.989939 0.986945
vt 0.013123 0.986945
vt 0.013238 0.010014
vt 0.989824 0.010014
vt 0.989939 0.986945
vt 0.013123 0.986945
vt 0.013238 0.010014
vt 0.989824 0.010014
vt 0.989939 0.986945
vt 0.013123 0.986945
vt 0.013238 0.010014
vt 0.989824 0.010014
vt 0.989939 0.986945
vt 0.013123 0.986945
vt 0.013238 0.010014
vt 0.989824 0.010014
vt 0.989939 0.986945
vt 0.013123 0.986945
vt 0.013238 0.010014
vt 0.989824 0.010014
vt 0.989939 0.986945
vt 0.013123 0.986945
vt 0.013238 0.010014
vt 0.989824 0.010014
vt 0.989939 0.986945
vt 0.013123 0.986945
vt 0.013238 0.010014
vt 0.989824 0.010014
vt 0.989939 0.986945
vt 0.013123 0.986945
vt 0.013238 0.010014
vt 0.989824 0.010014
vt 0.989939 0.986945
vt 0.013123 0.986945
vt 0.013238 0.010014
vt 0.989824 0.010014
vt 0.989939 0.986945
vt 0.013123 0.986945
vt 0.013238 0.010014
vt 0.989824 0.010014
vt 0.989939 0.986945
vt 0.013123 0.986945
vt 0.013238 0.010014
vt 0.989824 0.010014
vt 0.989939 0.986945
vt 0.013123 0.986945
vt 0.013238 0.010014
vt 0.989824 0.010014
vt 0.989939 0.986945
vt 0.013123 0.986945
vt 0.013238 0.010014
vt 0.989824 0.010014
vt 0.989939 0.986945
vt 0.013123 0.986945
vt 0.013238 0.010014
vt 0.989824 0.010014
vt 0.989939 0.986945
vt 0.013123 0.986945
vt 0.013238 0.010014
vt 0.989824 0.010014
vt 0.989939 0.986945
vt 0.013123 0.986945
vt 0.013238 0.010014
vt 0.989824 0.010014
vn 0.698820 0.274980 -0.660331
vn 0.698820 0.274980 -0.660331
vn 0.698820 0.274980 -0.660331
vn 0.698820 0.274980 -0.660331
vn -0.605388 -0.719247 0.340865
vn -0.605388 -0.719247 0.340865
vn -0.605388 -0.719247 0.340865
vn -0.605388 -0.719247 0.340865
vn 0.802422 0.297327 0.517413
vn 0.802422 0.297327 0.517413
vn 0.802422 0.297327 0.517413
vn 0.802421 0.297327 0.517413
vn 0.827419 0.168164 -0.535817
vn 0.827419 0.168164 -0.535817
vn 0.827419 0.168164 -0.535817
vn 0.827419 0.168164 -0.535817
vn 0.099599 0.580605 -0.808070
vn 0.099599 0.580605 -0.808070
vn 0.099599 0.580605 -0.808070
vn 0.099599 0.580605 -0.808070
vn 0.778800 0.389940 0.491343
vn 0.778800 0.389940 0.491343
vn 0.778800 0.389940 0.491343
vn 0.778800 0.389940 0.491343
vn 0.924485 0.068402 -0.375032
vn 0.924485 0.068402 -0.375032
vn 0.924485 0.068402 -0.375032
vn 0.924485 0.068402 -0.375032
vn -0.914676 0.159420 -0.371420
vn -0.914676 0.159420 -0.371420
vn -0.914676 0.159420 -0.371420
vn -0.914676 0.159420 -0.371420
vn -0.708522 0.064782 -0.702709
vn -0.708522 0.064782 -0.702709
vn -0.708522 0.064782 -0.702709
vn -0.708522 0.064782 -0.702709
vn -0.653154 -0.307449 0.692000
vn -0.653154 -0.307449 0.692000
vn -0.653154 -0.307449 0.692000
vn -0.653154 -0.307449 0.692000
vn 0.398808 -0.114061 0.909913
vn 0.398808 -0.114061 0.909913
vn 0.398808 -0.114061 0.909913
vn 0.398808 -0.114061 0.909913
vn -0.869017 -0.010504 -0.494670
vn -0.869017 -0.010504 -0.494670
vn -0.869017 -0.010504 -0.494670
vn -0.869017 -0.010504 -0.494670
vn -0.560588 0.374364 -0.738643
vn -0.560588 0.374364 -0.738643
vn -0.560588 0.374364 -0.738643
vn -0.560588 0.374364 -0.738643
vn -0.712400 -0.326605 -0.621141
vn -0.712400 -0.326605 -0.621141
vn -0.712400 -0.326605 -0.621141
vn -0.712400 -0.326605 -0.621141
vn 0.693458 0.429290 0.578642
vn 0.693458 0.429290 0.578642
vn 0.693458 0.429290 0.578642
vn 0.693458 0.429290 0.578642
vn 0.764899 0.341872 -0.545943
vn 0.764899 0.341872 -0.545943
vn 0.764899 0.341872 -0.545943
vn 0.764899 0.341872 -0.545943
vn 0.111549 0.443906 -0.889103
vn 0.111549 0.443906 -0.889103
vn 0.111549 0.443906 -0.889103
vn 0.111549 0.443906 -0.889103
s off
g polySurface1424
f 1/1/1 2/2/2 4/3/3 3/4/4
f 5/5/5 6/6/6 8/7/7 7/8/8
f 9/9/9 10/10/10 12/11/11 11/12/12
f 13/13/13 14/14/14 16/15/15 15/16/16
f 17/17/17 18/18/18 20/19/19 19/20/20
f 21/21/21 22/22/22 24/23/23 23/24/24
f 25/25/25 26/26/26 28/27/27 27/28/28
f 29/29/29 30/30/30 32/31/31 31/32/32
f 33/33/33 34/34/34 36/35/35 35/36/36
f 37/37/37 38/38/38 40/39/39 39/40/40
f 41/41/41 42/42/42 44/43/43 43/44/44
f 45/45/45 46/46/46 48/47/47 47/48/48
f 49/49/49 50/50/50 52/51/51 51/52/52
f 53/53/53 54/54/54 56/55/55 55/56/56
f 57/57/57 58/58/58 60/59/59 59/60/60
f 61/61/61 62/62/62 64/63/63 63/64/64
f 65/65/65 66/66/66 68/67/67 67/68/68
