# This file uses centimeters as units for non-parametric coordinates.

g default
v 0.237137 -0.040550 0.410733
v 0.410733 -0.040550 0.237137
v 0.474274 -0.040550 -0.000000
v 0.410733 -0.040550 -0.237137
v 0.237137 -0.040550 -0.410733
v -0.000000 -0.040550 -0.474274
v -0.237137 -0.040550 -0.410733
v -0.410733 -0.040550 -0.237137
v -0.474273 -0.040550 0.000000
v -0.410733 -0.040550 0.237137
v -0.237137 -0.040550 0.410733
v -0.000000 -0.040550 0.474274
v 0.237137 0.040550 0.410733
v 0.410733 0.040550 0.237137
v 0.474274 0.040550 -0.000000
v 0.410733 0.040550 -0.237137
v 0.237137 0.040550 -0.410733
v -0.000000 0.040550 -0.474274
v -0.237137 0.040550 -0.410733
v -0.410733 0.040550 -0.237137
v -0.474273 0.040550 0.000000
v -0.410733 0.040550 0.237137
v -0.237137 0.040550 0.410733
v -0.000000 0.040550 0.474274
v -0.000000 -0.040550 -0.000000
v -0.000000 0.040550 -0.000000
vt 0.065240 0.855564
vt 0.169376 0.953106
vt 0.970593 0.241078
vt 0.892039 0.122003
vt 0.308331 0.985512
vt 0.979086 0.383478
vt 0.444873 0.944099
vt 0.915240 0.511045
vt 0.542415 0.839964
vt 0.796165 0.589600
vt 0.574821 0.701008
vt 0.653765 0.598092
vt 0.533408 0.564466
vt 0.526198 0.534247
vt 0.429272 0.466924
vt 0.447643 0.415171
vt 0.290317 0.434518
vt 0.439151 0.272772
vt 0.153776 0.475931
vt 0.502996 0.145204
vt 0.056233 0.580067
vt 0.622072 0.066650
vt 0.023827 0.719022
vt 0.764471 0.058157
vt 0.299324 0.710015
vt 0.709118 0.328125
vt 0.986992 0.010348
vt 0.018226 0.010348
vt 0.018226 0.037017
vt 0.986992 0.037017
vt 0.502609 0.037017
vt 0.583339 0.037017
vt 0.421878 0.037017
vt 0.341148 0.037017
vt 0.260417 0.037017
vt 0.179687 0.037017
vt 0.098956 0.037017
vt 0.906261 0.037017
vt 0.825531 0.037017
vt 0.744801 0.037017
vt 0.664070 0.037017
vt 0.502609 0.010348
vt 0.583339 0.010348
vt 0.421878 0.010348
vt 0.341148 0.010348
vt 0.260417 0.010348
vt 0.179687 0.010348
vt 0.098956 0.010348
vt 0.906261 0.010348
vt 0.825531 0.010348
vt 0.744801 0.010348
vt 0.664070 0.010348
vn 0.707108 0.000000 0.707106
vn 0.707108 0.000000 0.707106
vn 0.707108 0.000000 0.707106
vn 0.707108 0.000000 0.707106
vn 0.965926 0.000000 0.258820
vn 0.965926 0.000000 0.258820
vn 0.965926 0.000000 0.258820
vn 0.965926 0.000000 0.258820
vn 0.965926 0.000000 -0.258820
vn 0.965926 0.000000 -0.258820
vn 0.965926 0.000000 -0.258820
vn 0.965926 0.000000 -0.258820
vn 0.707106 0.000000 -0.707107
vn 0.707106 0.000000 -0.707107
vn 0.707106 0.000000 -0.707107
vn 0.707106 0.000000 -0.707107
vn 0.258821 0.000000 -0.965925
vn 0.258821 0.000000 -0.965925
vn 0.258821 0.000000 -0.965925
vn 0.258821 0.000000 -0.965925
vn -0.258821 0.000000 -0.965925
vn -0.258821 0.000000 -0.965925
vn -0.258821 0.000000 -0.965925
vn -0.258821 0.000000 -0.965925
vn -0.707106 0.000000 -0.707108
vn -0.707106 0.000000 -0.707108
vn -0.707106 0.000000 -0.707108
vn -0.707106 0.000000 -0.707108
vn -0.965926 0.000000 -0.258820
vn -0.965926 0.000000 -0.258820
vn -0.965926 0.000000 -0.258820
vn -0.965926 0.000000 -0.258820
vn -0.965926 0.000000 0.258820
vn -0.965926 0.000000 0.258820
vn -0.965926 0.000000 0.258820
vn -0.965926 0.000000 0.258820
vn -0.707108 0.000000 0.707106
vn -0.707108 0.000000 0.707106
vn -0.707108 0.000000 0.707106
vn -0.707108 0.000000 0.707106
vn -0.258820 0.000000 0.965926
vn -0.258820 0.000000 0.965926
vn -0.258820 0.000000 0.965926
vn -0.258820 0.000000 0.965926
vn 0.258819 0.000000 0.965926
vn 0.258819 0.000000 0.965926
vn 0.258819 0.000000 0.965926
vn 0.258819 0.000000 0.965926
vn 0.000001 -1.000000 -0.000000
vn 0.000001 -1.000000 -0.000000
vn 0.000000 -1.000000 -0.000000
vn 0.000000 -1.000000 0.000000
vn 0.000001 -1.000000 -0.000000
vn -0.000000 -1.000000 0.000000
vn -0.000000 -1.000000 0.000000
vn 0.000001 -1.000000 -0.000000
vn -0.000001 -1.000000 0.000000
vn 0.000000 -1.000000 0.000000
vn 0.000000 -1.000000 0.000000
vn 0.000000 -1.000000 0.000000
vn 0.000000 -1.000000 0.000000
vn 0.000000 1.000000 0.000000
vn 0.000000 1.000000 0.000000
vn -0.000000 1.000000 0.000000
vn 0.000000 1.000000 0.000000
vn 0.000001 1.000000 -0.000000
vn 0.000001 1.000000 -0.000000
vn 0.000000 1.000000 0.000000
vn 0.000000 1.000000 0.000000
vn 0.000000 1.000000 0.000000
vn 0.000000 1.000000 0.000000
vn -0.000001 1.000000 0.000000
vn -0.000001 1.000000 0.000000
vn 0.000000 1.000000 0.000000
s off
g polySurface72 pCube18
f 1/43/1 2/52/2 14/41/3 13/32/4
f 2/52/5 3/51/6 15/40/7 14/41/8
f 3/51/9 4/50/10 16/39/11 15/40/12
f 4/50/13 5/49/14 17/38/15 16/39/16
f 5/49/17 6/27/18 18/30/19 17/38/20
f 6/28/21 7/48/22 19/37/23 18/29/24
f 7/48/25 8/47/26 20/36/27 19/37/28
f 8/47/29 9/46/30 21/35/31 20/36/32
f 9/46/33 10/45/34 22/34/35 21/35/36
f 10/45/37 11/44/38 23/33/39 22/34/40
f 11/44/41 12/42/42 24/31/43 23/33/44
f 12/42/45 1/43/46 13/32/47 24/31/48
s 1
f 2/2/49 1/1/50 25/25/51
f 3/5/52 2/2/49 25/25/51
f 4/7/53 3/5/52 25/25/51
f 5/9/54 4/7/53 25/25/51
f 6/11/55 5/9/54 25/25/51
f 7/13/56 6/11/55 25/25/51
f 8/15/57 7/13/56 25/25/51
f 9/17/58 8/15/57 25/25/51
f 10/19/59 9/17/58 25/25/51
f 11/21/60 10/19/59 25/25/51
f 12/23/61 11/21/60 25/25/51
f 1/1/50 12/23/61 25/25/51
s 2
f 13/4/62 14/3/63 26/26/64
f 14/3/63 15/6/65 26/26/64
f 15/6/65 16/8/66 26/26/64
f 16/8/66 17/10/67 26/26/64
f 17/10/67 18/12/68 26/26/64
f 18/12/68 19/14/69 26/26/64
f 19/14/69 20/16/70 26/26/64
f 20/16/70 21/18/71 26/26/64
f 21/18/71 22/20/72 26/26/64
f 22/20/72 23/22/73 26/26/64
f 23/22/73 24/24/74 26/26/64
f 24/24/74 13/4/62 26/26/64
