# This file uses centimeters as units for non-parametric coordinates.

g default
v 114.371586 118.297132 73.895161
v 114.566498 118.164987 73.717207
v 114.648338 118.816257 73.374683
v 114.401625 118.746186 73.785308
v 114.885030 118.037754 73.498842
v 114.792816 118.378149 73.440028
v 114.730221 117.916617 73.202997
v 114.633599 117.940674 73.528132
v 114.887675 118.203729 73.120898
v 114.657071 118.479574 73.082908
v 114.533494 118.704683 73.019898
v 114.345518 119.021006 72.783409
v 114.389978 119.152751 72.855050
v 114.493557 119.166036 73.425723
v 114.392605 119.308848 72.923643
v 114.248680 119.694173 73.318849
v 113.931309 119.257842 73.762886
v 113.909119 118.780656 73.941634
v 113.929718 118.302210 74.242925
v 113.822255 118.957556 73.918954
v 113.584139 119.141019 73.678064
v 113.610767 118.960256 73.876923
v 113.589695 118.789215 73.932643
v 113.379488 118.455140 74.170148
v 113.217992 118.663806 73.729474
v 113.404456 118.819252 73.624199
v 113.245607 118.690132 73.415459
v 112.960455 118.505931 73.630102
v 113.414448 118.244212 74.240156
v 112.950302 118.359773 73.682511
v 113.818830 118.143531 74.297526
v 114.130112 118.066030 74.129458
v 114.448967 117.986643 73.704089
v 114.556602 117.959844 72.917438
v 114.696883 118.214347 72.875053
v 114.440376 118.508854 72.783786
v 114.051873 118.622888 72.453388
v 114.354483 118.010167 72.786532
v 114.097159 118.074234 72.291337
v 113.756629 118.159018 72.489984
v 113.405917 118.246336 72.267949
v 113.505744 118.544436 72.291496
v 113.086520 118.521782 72.465444
v 113.142577 118.311901 72.450939
v 113.937561 118.875568 72.495944
v 113.401536 118.813855 72.672894
v 113.639527 119.423994 72.550248
v 113.894857 119.489219 72.507692
v 114.320304 119.539585 72.493078
v 114.188471 119.674326 72.709348
v 113.891873 119.677950 72.630772
v 113.558392 119.363266 72.684591
v 113.744775 119.666535 73.318969
v 114.034515 119.649259 73.498705
v 113.359694 118.940221 73.328805
v 113.039450 118.509011 73.225499
v 113.145168 118.697397 72.973340
v 113.039119 118.337660 72.707881
v 113.112405 118.319413 73.340530
v 113.489031 118.347309 72.275142
v 113.396177 118.336743 72.262515
v 114.093760 119.234761 72.464468
v 114.167452 119.302307 72.444049
v 113.860002 118.585719 72.460797
v 113.497139 118.667968 74.031679
v 113.478816 118.630004 74.021535
v 113.554082 119.432149 73.304629
vt 0.190862 0.469034
vt 0.188898 0.385575
vt 0.386759 0.375796
vt 0.304890 0.479816
vt 0.292261 0.324443
vt 0.219957 0.291336
vt 0.234816 0.199175
vt 0.311691 0.241103
vt 0.390355 0.272230
vt 0.453067 0.296115
vt 0.573107 0.320149
vt 0.571021 0.360219
vt 0.574229 0.401029
vt 0.437217 0.443132
vt 0.407875 0.601962
vt 0.298634 0.619411
vt 0.158846 0.627494
vt 0.340965 0.639950
vt 0.424144 0.693964
vt 0.362190 0.692699
vt 0.324689 0.709218
vt 0.291597 0.735511
vt 0.453008 0.846806
vt 0.363568 0.826222
vt 0.406655 0.779396
vt 0.229130 0.771853
vt 0.367413 0.906580
vt 0.333150 0.929023
vt 0.169483 0.778117
vt 0.119070 0.660961
vt 0.109050 0.549033
vt 0.132276 0.382227
vt 0.160066 0.298202
vt 0.325604 0.135609
vt 0.365473 0.192818
vt 0.473699 0.212524
vt 0.607456 0.166906
vt 0.393316 0.099564
vt 0.531308 0.030646
vt 0.638889 0.025375
vt 0.737731 0.047994
vt 0.746394 0.099068
vt 0.805843 0.946447
vt 0.703852 0.938584
vt 0.691248 0.820871
vt 0.662605 0.222974
vt 0.696386 0.654780
vt 0.717147 0.584863
vt 0.699938 0.333402
vt 0.712421 0.451274
vt 0.527913 0.512188
vt 0.659089 0.495001
vt 0.671403 0.572697
vt 0.668619 0.686418
vt 0.539739 0.618020
vt 0.504114 0.563945
vt 0.530357 0.677033
vt 0.498408 0.794680
vt 0.488887 0.928709
vt 0.578298 0.883982
vt 0.637802 0.988759
vt 0.724792 0.985091
vt 0.444109 0.977249
vt 0.749435 0.015852
vt 0.653204 0.141712
vt 0.775265 0.540714
vt 0.284066 0.742386
vt 0.704485 0.363712
vt 0.783765 0.578867
vt 0.814161 0.968780
vt 0.760143 0.037937
vt 0.823166 0.699274
vt 0.806596 0.876920
vn 0.654328 0.169252 0.737027
vn 0.721729 -0.021673 0.691836
vn 0.948941 0.279002 0.147201
vn 0.618238 0.310350 0.722125
vn 0.900864 0.331361 0.280433
vn 0.939722 -0.188739 0.285131
vn 0.820251 -0.481238 -0.309190
vn 0.956193 -0.035516 -0.290573
vn 0.825641 0.411757 -0.385711
vn 0.847825 0.189586 -0.495226
vn 0.803040 0.061845 -0.592708
vn 0.929626 0.080859 -0.359524
vn 0.919177 0.381058 -0.099542
vn 0.806105 0.462704 0.368917
vn 0.043473 0.559809 0.827480
vn 0.279494 0.413926 0.866342
vn 0.266525 0.396208 0.878626
vn 0.028153 0.416277 0.908802
vn -0.573880 0.542212 0.613733
vn -0.431268 0.462843 0.774458
vn -0.356510 0.547625 0.756972
vn -0.356949 0.590370 0.723913
vn -0.765078 0.629212 0.136921
vn -0.578579 0.751043 0.318089
vn -0.741818 0.590307 0.318189
vn -0.353122 0.445102 0.822915
vn -0.917594 0.326483 0.226781
vn -0.904996 0.034235 0.424040
vn -0.355500 0.284529 0.890316
vn 0.044561 0.275910 0.960150
vn 0.644463 -0.015795 0.764472
vn 0.611485 -0.338967 0.714974
vn 0.424002 -0.643562 0.637221
vn 0.520638 -0.327317 -0.788543
vn 0.658766 -0.008087 -0.752305
vn 0.729443 0.131544 -0.671274
vn 0.501491 0.228882 -0.834338
vn 0.664164 -0.164372 -0.729293
vn 0.433716 0.152762 -0.888006
vn -0.079460 0.066840 -0.994595
vn 0.514686 -0.089318 -0.852714
vn -0.061688 0.498936 -0.864440
vn -0.400308 0.154478 -0.903266
vn -0.699333 0.541719 -0.466341
vn -0.639753 0.499199 -0.584394
vn -0.023249 0.108823 -0.993789
vn -0.552141 0.327043 -0.766931
vn -0.229798 0.112203 -0.966749
vn 0.208467 -0.235821 -0.949173
vn 0.707949 0.392254 -0.587320
vn 0.742375 0.643010 0.188196
vn 0.605022 0.792693 -0.074744
vn -0.424337 0.877116 -0.224955
vn -0.839366 0.523419 -0.146617
vn -0.430665 0.848173 0.308433
vn -0.124145 0.794271 0.594745
vn -0.866414 0.485230 0.117805
vn -0.901392 0.426958 0.072105
vn -0.976709 0.213185 -0.024313
vn -0.763531 0.638219 -0.098470
vn -0.982304 0.181031 -0.048033
vn -0.739860 -0.152762 -0.655188
vn -0.937013 -0.312098 -0.156847
vn 0.061676 -0.255994 -0.964709
vn 0.286576 -0.061414 -0.956087
vn 0.399997 -0.188571 -0.896908
vn -0.087584 0.588874 0.803466
s 1
g polySurface1218
f 1/1/1 2/2/2 3/3/3 4/4/4
f 6/5/5 2/2/2 5/6/6
f 3/3/3 2/2/2 6/5/5
f 5/6/6 7/7/7 6/5/5
f 7/7/7 9/8/8 6/5/5
f 9/8/8 10/9/9 6/5/5
f 11/10/10 3/3/3 6/5/5 10/9/9
f 3/3/3 11/10/10 12/11/11 13/12/12
f 15/13/13 3/3/3 13/12/12
f 14/14/14 4/4/4 3/3/3
f 17/15/15 4/4/4 14/14/14
f 4/4/4 18/16/16 19/17/17 1/1/1
f 4/4/4 20/18/18 18/16/16
f 17/15/15 20/18/18 4/4/4
f 20/18/18 17/15/15 21/19/19 22/20/20
f 20/18/18 22/20/20 23/21/21 18/16/16
f 23/21/21 65/22/22 18/16/16
f 27/23/23 25/24/24 26/25/25
f 24/26/26 25/24/24 28/27/27
f 30/28/28 29/29/29 24/26/26 28/27/27
f 29/29/29 31/30/30 19/17/17 24/26/26
f 32/31/31 19/17/17 31/30/30
f 32/31/31 33/32/32 2/2/2 1/1/1
f 33/32/32 8/33/33 5/6/6 2/2/2
f 8/33/33 7/7/7 5/6/6
f 7/7/7 34/34/34 35/35/35 9/8/8
f 35/35/35 36/36/36 10/9/9 9/8/8
f 36/36/36 11/10/10 10/9/9
f 37/37/37 12/11/11 11/10/10 36/36/36
f 38/38/38 36/36/36 35/35/35 34/34/34
f 39/39/39 36/36/36 38/38/38
f 37/37/37 39/39/39 40/40/40
f 40/40/40 60/41/41 42/42/42
f 60/41/41 61/71/43 42/42/42
f 61/43/43 43/44/44 42/73/42
f 46/45/45 45/72/46 42/73/42
f 46/45/45 42/73/42 43/44/44
f 46/45/45 47/47/47 48/48/48 45/72/46
f 62/49/49 12/11/11 45/46/46
f 45/46/46 12/11/11 37/37/37
f 13/12/12 49/50/50 15/13/13
f 16/51/51 14/14/14 15/13/13 50/52/52
f 50/52/52 15/13/13 49/50/50
f 51/53/53 49/50/50 48/48/48
f 47/47/47 51/53/53 48/48/48
f 52/54/54 53/55/55 51/53/53 47/47/47
f 53/55/55 50/52/52 51/53/53
f 16/51/51 50/52/52 54/56/56
f 53/55/55 54/56/56 50/52/52
f 53/55/55 21/19/19 17/15/15 54/56/56
f 54/56/56 17/15/15 16/51/51
f 53/55/55 52/54/54 67/57/57
f 26/25/25 55/58/58 27/23/23
f 67/57/57 21/19/19 53/55/55
f 22/20/20 26/25/25 23/21/21
f 22/20/20 21/19/19 26/25/25
f 25/24/24 27/23/23 56/59/59
f 56/59/59 27/23/23 57/60/60
f 55/58/58 46/45/45 57/60/60
f 46/45/45 52/54/54 47/47/47
f 58/61/61 57/60/60 43/44/44
f 44/62/62 58/61/61 43/44/44
f 58/61/61 59/63/63 56/59/59
f 59/63/63 30/28/28 28/27/27 56/59/59
f 40/40/40 41/64/64 60/41/41
f 41/64/64 61/71/43 60/41/41
f 44/62/62 61/43/43 41/70/64
f 44/62/62 43/44/44 61/43/43
f 48/48/48 62/69/49 45/72/46
f 12/11/11 49/50/50 13/12/12
f 15/13/13 14/14/14 3/3/3
f 55/58/58 52/54/54 46/45/45
f 43/44/44 57/60/60 46/45/45
f 58/61/61 56/59/59 57/60/60
f 25/24/24 56/59/59 28/27/27
f 26/25/25 25/24/24 23/21/21
f 17/15/15 14/14/14 16/51/51
f 36/36/36 39/39/39 37/37/37
f 42/42/42 45/46/46 64/65/65
f 57/60/60 27/23/23 55/58/58
f 21/19/19 55/58/58 26/25/25
f 32/31/31 1/1/1 19/17/17
f 25/24/24 65/22/22 23/21/21
f 49/50/50 63/66/66 48/48/48
f 49/50/50 12/11/11 63/68/66
f 63/68/66 12/11/11 62/49/49
f 48/48/48 63/66/66 62/69/49
f 40/40/40 42/42/42 64/65/65
f 64/65/65 45/46/46 37/37/37
f 40/40/40 64/65/65 37/37/37
f 25/24/24 66/67/67 65/22/22
f 18/16/16 65/22/22 66/67/67
f 24/26/26 66/67/67 25/24/24
f 18/16/16 66/67/67 24/26/26 19/17/17
f 67/57/57 52/54/54 55/58/58
f 55/58/58 21/19/19 67/57/57
f 51/53/53 50/52/52 49/50/50
