# This file uses centimeters as units for non-parametric coordinates.

g shu_001_F:default1
v -1.487747 1.978287 -0.678871
v -2.121445 2.504517 0.383514
v -1.853928 3.741562 -0.069633
v -1.220200 3.215332 -1.132011
v -1.473434 2.006729 -0.601501
v -2.690475 1.577652 -0.224838
v -3.233032 2.722961 -0.673225
v -2.015991 3.152023 -1.049896
v -1.759781 2.769592 -2.572456
v -0.815552 3.636337 -3.728325
v 0.494461 2.540421 -3.479965
v -0.449768 1.673660 -2.324097
v -0.851547 -0.958069 0.796158
v -1.460526 -1.868164 1.389175
v -0.450409 -2.592651 1.314606
v 0.158554 -1.682571 0.721588
v 0.995514 -0.046783 1.622154
v 1.102890 1.271103 0.512856
v 2.761673 1.491714 0.935493
v 2.654297 0.173828 2.044785
v 1.682510 -0.212601 1.861160
v 2.701843 1.069672 1.317497
v 3.935928 -0.074173 0.933472
v 2.916595 -1.356445 1.477135
v -1.685379 -1.191727 1.291687
v -2.705444 -1.318771 1.994583
v -2.330612 -2.457123 2.332832
v -1.310516 -2.330078 1.629936
v 2.458160 -0.384811 1.887596
v 4.143265 -0.378799 1.514458
v 4.078842 -2.073914 1.196159
v 2.393738 -2.079926 1.569298
v 2.799637 0.302368 1.198524
v 3.969757 0.371582 -0.068321
v 4.133621 -1.345596 -0.010803
v 2.963501 -1.414810 1.256050
v -0.537735 0.483093 0.492661
v 0.632385 0.552307 -0.774185
v 0.796249 -1.164871 -0.716667
v -0.373871 -1.234085 0.550186
v -0.436829 0.417038 -0.565353
v 1.282257 0.418503 -0.719025
v 1.310791 2.111328 -0.383812
v -0.408295 2.109863 -0.230141
v 0.536591 1.680603 -0.650871
v 1.638458 1.795975 -1.412270
v 1.544083 3.135330 -1.345901
v 0.442215 3.019958 -0.584488
v 0.435333 -0.763885 1.852707
v 1.082031 0.639359 2.621834
v 2.628342 -0.122116 2.710930
v 1.981628 -1.525345 1.941811
v -1.527740 2.929642 -1.667183
v -2.377838 3.910370 -2.117264
v -3.238663 2.948517 -2.587250
v -2.388550 1.967773 -2.137177
v 1.136139 -1.659012 1.766739
v 1.669968 -1.485703 0.467484
v 1.785202 -0.094482 0.700417
v 1.251389 -0.267776 1.999672
v 0.999329 -1.045990 0.786957
v 1.016632 0.650375 0.469292
v 1.182861 0.964935 2.158157
v 1.165558 -0.731430 2.475822
v -1.818604 4.283829 -2.672806
v -0.891479 3.431824 -3.853218
v -0.959869 2.008408 -2.879539
v -1.887009 2.860413 -1.699127
v -1.265579 4.066513 -2.625107
v -2.181152 5.403412 -3.219498
v -3.630951 4.668671 -2.638916
v -2.715393 3.331757 -2.044533
v -0.956009 3.736435 -2.489922
v -0.571716 5.337677 -3.006844
v -2.249176 5.743759 -2.996025
v -2.633469 4.142502 -2.479095
v -2.000900 3.857605 -3.143394
v -2.723755 5.418320 -3.000183
v -2.866837 5.195557 -1.294670
v -2.143982 3.634842 -1.437881
v -1.961304 3.231781 -2.191238
v -0.664597 3.524536 -1.705490
v -0.844009 4.886200 -2.047188
v -2.140701 4.593460 -2.532936
v -0.869217 3.288177 -1.868462
v 0.539093 3.332336 -2.865234
v 0.592819 1.607239 -2.865746
v -0.815491 1.563080 -1.868980
v -0.660065 2.928619 -2.428459
v 0.542252 3.552353 -2.018005
v 0.021988 4.810211 -2.405548
v -1.180328 4.186462 -2.816002
v 2.529800 -1.390015 1.768089
v 3.194550 -2.361465 2.174500
v 2.306931 -3.136978 1.772675
v 1.642166 -2.165527 1.366264
v -1.213806 0.348236 -0.267014
v -2.106277 0.737656 -1.692047
v -1.464859 -0.659973 -2.475693
v -0.572403 -1.049393 -1.050652
v -0.917511 2.192993 -1.363823
v -0.224457 3.268768 -1.775581
v -1.376099 3.926117 -1.996498
v -2.069138 2.850342 -1.584724
v 0.147583 1.251892 -0.773544
v 0.342545 1.034119 -2.085686
v 0.321594 2.359604 -2.308800
v 0.126633 2.577393 -0.996658
v -0.255142 1.424438 -0.989555
v -1.082809 1.106125 -1.999901
v -1.317459 2.411545 -2.218956
v -0.489792 2.729843 -1.208611
v -1.331589 2.159378 -0.321678
v -1.442322 0.937943 -0.872124
v -1.976563 1.484726 -1.977913
v -1.865829 2.706161 -1.427475
v -1.197906 -1.383301 -0.263222
v -0.623138 -0.948914 -1.831596
v -0.198669 0.616806 -1.242393
v -0.773438 0.182434 0.325981
v -1.666916 1.766876 1.999062
v -2.357147 3.191315 1.311043
v -3.694656 2.264984 0.734993
v -3.004410 0.840530 1.423012
v -2.224762 0.898315 1.600899
v -3.412033 0.743088 2.843933
v -3.212646 -0.971130 2.820313
v -2.025375 -0.815903 1.577271
v -1.355087 0.214951 0.923096
v -1.118469 0.090515 2.628197
v -2.128632 -1.308411 2.666290
v -2.365250 -1.183975 0.961182
v -2.535522 0.217651 1.863373
v -3.693710 0.424637 0.600578
v -3.154739 -1.041214 -0.134018
v -1.996567 -1.248230 1.128777
v -2.128632 0.818649 1.951836
v -2.608932 -0.239487 3.227974
v -2.194901 -1.602570 2.253578
v -1.714615 -0.544434 0.977432
v -1.746155 1.364746 1.430458
v -2.756210 0.517990 2.544762
v -2.273117 -0.982681 1.842300
v -1.263077 -0.135925 0.727997
v -2.785400 1.752548 2.626053
v -4.411728 1.200974 2.798492
v -3.945068 -0.356201 2.218552
v -2.318771 0.195389 2.046104
v -0.590256 -0.485275 0.818626
v -2.274979 -0.138992 0.962364
v -2.607422 -1.824615 1.126762
v -0.922684 -2.170898 0.983017
v -0.051193 -0.270416 0.461960
v -1.078934 0.310486 1.720993
v -1.780090 -1.259277 1.872940
v -0.752335 -1.840179 0.613907
v 0.981781 -0.702545 1.110703
v 0.861145 0.716827 2.085220
v 1.198135 -0.221725 3.493919
v 1.318771 -1.641098 2.519402
v -2.025696 3.092865 -2.065941
v -3.299057 2.994232 -1.560074
v -2.941360 1.854416 -0.881882
v -1.667984 1.953033 -1.387756
v -0.611115 0.093124 -0.632500
v -1.849045 1.207275 -1.085327
v -3.050919 0.084808 -0.561455
v -1.812973 -1.029343 -0.108635
v -1.712830 4.555695 -2.886383
v -3.138718 4.054230 -3.719627
v -3.207092 2.630814 -2.745949
v -1.781235 3.132278 -1.912704
v -0.145676 1.033081 -0.291283
v 1.385468 1.509277 -0.929749
v 0.865402 3.154877 -0.949615
v -0.665756 2.678665 -0.311157
v -1.116928 3.068130 -1.909828
v -2.134201 4.424484 -2.232819
v -3.321991 3.790848 -1.152740
v -2.304718 2.434509 -0.829750
v -0.546616 2.688126 -0.623077
v -0.277771 3.347412 0.949150
v 0.449966 1.863678 1.446899
v 0.181122 1.204376 -0.125328
v -0.464630 2.621170 0.209808
v -1.191101 3.594330 -1.016602
v -0.715347 2.443481 -2.211617
v 0.011108 1.470322 -0.985207
v 0.095291 2.659729 0.000893
v -0.372925 3.696136 -1.297379
v -1.275269 2.404938 -2.002701
v -0.807053 1.368546 -0.704422
v -0.450531 2.169373 -1.224754
v -0.919327 3.774796 -0.798470
v -0.111786 3.607986 0.717751
v 0.357010 2.002579 0.291458
v 1.163315 -0.660919 1.514267
v 2.860077 -0.555756 1.216316
v 3.031509 -2.229309 1.601852
v 1.334747 -2.334488 1.899796
v 1.649277 -1.659012 1.690811
v 2.927429 -1.485703 2.273346
v 2.690308 -0.094482 2.379707
v 1.412155 -0.267776 1.797180
v 2.310669 -0.702545 1.561356
v 1.341400 0.716827 1.403976
v -0.079025 -0.221725 1.687500
v 0.890228 -1.641098 1.844872
v -1.289581 -0.245056 -1.160011
v -2.370468 1.066498 -0.859421
v -2.394333 0.662308 0.818352
v -1.313431 -0.649246 0.517761
v -1.877960 1.757904 1.274567
v -3.065231 1.602692 2.517593
v -2.865860 -0.111526 2.493980
v -1.678574 0.043686 1.250938
v -1.063187 -0.924377 -0.272850
v 0.136993 -0.362396 0.223938
v -0.385391 0.936523 0.016594
v -1.585587 0.374527 -0.480194
v 0.547119 2.402786 -1.006683
v 0.078323 4.008209 -0.580399
v -1.109436 3.374573 0.499680
v -0.640656 1.769165 0.073387
v -1.999573 1.959366 1.711174
v -3.626572 2.518112 1.850952
v -4.179565 0.885574 1.939758
v -2.552551 0.326843 1.799988
v -1.694443 1.201859 0.421448
v -2.163239 2.807266 0.847733
v -2.137115 2.371506 2.517555
v -1.668320 0.766098 2.091263
v -1.956635 3.195496 -2.328232
v -3.382507 2.694046 -3.161476
v -3.450912 1.270630 -2.187798
v -2.025040 1.772079 -1.354553
v -1.376160 0.577240 0.251717
v -1.100311 1.761337 0.288322
v -1.177307 1.741745 1.502060
v -1.453171 0.557663 1.465462
v -0.515182 2.412766 -0.844719
v -1.241791 3.093643 0.565002
v -0.891541 1.649582 1.442993
v -0.164948 0.968704 0.033272
v -0.224991 -0.160095 -0.533157
v -0.266922 1.526260 -0.898338
v -1.991257 1.498291 -0.829453
v -1.949326 -0.188034 -0.464272
v 2.633514 -1.045990 1.591118
v 2.950302 0.650375 1.620415
v 1.256363 0.964935 1.722725
v 0.939575 -0.731430 1.693428
v 1.589828 -0.763885 0.987251
v 0.796814 0.639359 1.604431
v 0.649353 -0.122116 3.146278
v 1.442368 -1.525345 2.529091
vt 0.007908 0.007430
vt 0.991834 0.008594
vt 0.990671 0.992520
vt 0.006744 0.991356
vt 0.007908 0.007430
vt 0.991834 0.008594
vt 0.990671 0.992520
vt 0.006744 0.991356
vt 0.007908 0.007430
vt 0.991834 0.008594
vt 0.990671 0.992520
vt 0.006744 0.991356
vt 0.007908 0.007430
vt 0.991834 0.008594
vt 0.990671 0.992520
vt 0.006744 0.991356
vt 0.007908 0.007430
vt 0.991834 0.008594
vt 0.990671 0.992520
vt 0.006744 0.991356
vt 0.007908 0.007430
vt 0.991834 0.008594
vt 0.990671 0.992520
vt 0.006744 0.991356
vt 0.007908 0.007430
vt 0.991834 0.008594
vt 0.990671 0.992520
vt 0.006744 0.991356
vt 0.007908 0.007430
vt 0.991834 0.008594
vt 0.990671 0.992520
vt 0.006744 0.991356
vt 0.007908 0.007430
vt 0.991834 0.008594
vt 0.990671 0.992520
vt 0.006744 0.991356
vt 0.007908 0.007430
vt 0.991834 0.008594
vt 0.990671 0.992520
vt 0.006744 0.991356
vt 0.007908 0.007430
vt 0.991834 0.008594
vt 0.990671 0.992520
vt 0.006744 0.991356
vt 0.007908 0.007430
vt 0.991834 0.008594
vt 0.990671 0.992520
vt 0.006744 0.991356
vt 0.007908 0.007430
vt 0.991834 0.008594
vt 0.990671 0.992520
vt 0.006744 0.991356
vt 0.007908 0.007430
vt 0.991834 0.008594
vt 0.990671 0.992520
vt 0.006744 0.991356
vt 0.007908 0.007430
vt 0.991834 0.008594
vt 0.990671 0.992520
vt 0.006744 0.991356
vt 0.007908 0.007430
vt 0.991834 0.008594
vt 0.990671 0.992520
vt 0.006744 0.991356
vt 0.007908 0.007430
vt 0.991834 0.008594
vt 0.990671 0.992520
vt 0.006744 0.991356
vt 0.007908 0.007430
vt 0.991834 0.008594
vt 0.990671 0.992520
vt 0.006744 0.991356
vt 0.007908 0.007430
vt 0.991834 0.008594
vt 0.990671 0.992520
vt 0.006744 0.991356
vt 0.007908 0.007430
vt 0.991834 0.008594
vt 0.990671 0.992520
vt 0.006744 0.991356
vt 0.007908 0.007430
vt 0.991834 0.008594
vt 0.990671 0.992520
vt 0.006744 0.991356
vt 0.007908 0.007430
vt 0.991834 0.008594
vt 0.990671 0.992520
vt 0.006744 0.991356
vt 0.007908 0.007430
vt 0.991834 0.008594
vt 0.990671 0.992520
vt 0.006744 0.991356
vt 0.007908 0.007430
vt 0.991834 0.008594
vt 0.990671 0.992520
vt 0.006744 0.991356
vt 0.007908 0.007430
vt 0.991834 0.008594
vt 0.990671 0.992520
vt 0.006744 0.991356
vt 0.007908 0.007430
vt 0.991834 0.008594
vt 0.990671 0.992520
vt 0.006744 0.991356
vt 0.007908 0.007430
vt 0.991834 0.008594
vt 0.990671 0.992520
vt 0.006744 0.991356
vt 0.007908 0.007430
vt 0.991834 0.008594
vt 0.990671 0.992520
vt 0.006744 0.991356
vt 0.007908 0.007430
vt 0.991834 0.008594
vt 0.990671 0.992520
vt 0.006744 0.991356
vt 0.007908 0.007430
vt 0.991834 0.008594
vt 0.990671 0.992520
vt 0.006744 0.991356
vt 0.007908 0.007430
vt 0.991834 0.008594
vt 0.990671 0.992520
vt 0.006744 0.991356
vt 0.007908 0.007430
vt 0.991834 0.008594
vt 0.990671 0.992520
vt 0.006744 0.991356
vt 0.007908 0.007430
vt 0.991834 0.008594
vt 0.990671 0.992520
vt 0.006744 0.991356
vt 0.007908 0.007430
vt 0.991834 0.008594
vt 0.990671 0.992520
vt 0.006744 0.991356
vt 0.007908 0.007430
vt 0.991834 0.008594
vt 0.990671 0.992520
vt 0.006744 0.991356
vt 0.007908 0.007430
vt 0.991834 0.008594
vt 0.990671 0.992520
vt 0.006744 0.991356
vt 0.007908 0.007430
vt 0.991834 0.008594
vt 0.990671 0.992520
vt 0.006744 0.991356
vt 0.007908 0.007430
vt 0.991834 0.008594
vt 0.990671 0.992520
vt 0.006744 0.991356
vt 0.007908 0.007430
vt 0.991834 0.008594
vt 0.990671 0.992520
vt 0.006744 0.991356
vt 0.007908 0.007430
vt 0.991834 0.008594
vt 0.990671 0.992520
vt 0.006744 0.991356
vt 0.007908 0.007430
vt 0.991834 0.008594
vt 0.990671 0.992520
vt 0.006744 0.991356
vt 0.007908 0.007430
vt 0.991834 0.008594
vt 0.990671 0.992520
vt 0.006744 0.991356
vt 0.007908 0.007430
vt 0.991834 0.008594
vt 0.990671 0.992520
vt 0.006744 0.991356
vt 0.007908 0.007430
vt 0.991834 0.008594
vt 0.990671 0.992520
vt 0.006744 0.991356
vt 0.007908 0.007430
vt 0.991834 0.008594
vt 0.990671 0.992520
vt 0.006744 0.991356
vt 0.007908 0.007430
vt 0.991834 0.008594
vt 0.990671 0.992520
vt 0.006744 0.991356
vt 0.007908 0.007430
vt 0.991834 0.008594
vt 0.990671 0.992520
vt 0.006744 0.991356
vt 0.007908 0.007430
vt 0.991834 0.008594
vt 0.990671 0.992520
vt 0.006744 0.991356
vt 0.007908 0.007430
vt 0.991834 0.008594
vt 0.990671 0.992520
vt 0.006744 0.991356
vt 0.007908 0.007430
vt 0.991834 0.008594
vt 0.990671 0.992520
vt 0.006744 0.991356
vt 0.007908 0.007430
vt 0.991834 0.008594
vt 0.990671 0.992520
vt 0.006744 0.991356
vt 0.007908 0.007430
vt 0.991834 0.008594
vt 0.990671 0.992520
vt 0.006744 0.991356
vt 0.007908 0.007430
vt 0.991834 0.008594
vt 0.990671 0.992520
vt 0.006744 0.991356
vt 0.007908 0.007430
vt 0.991834 0.008594
vt 0.990671 0.992520
vt 0.006744 0.991356
vt 0.007908 0.007430
vt 0.991834 0.008594
vt 0.990671 0.992520
vt 0.006744 0.991356
vt 0.007908 0.007430
vt 0.991834 0.008594
vt 0.990671 0.992520
vt 0.006744 0.991356
vt 0.007908 0.007430
vt 0.991834 0.008594
vt 0.990671 0.992520
vt 0.006744 0.991356
vt 0.007908 0.007430
vt 0.991834 0.008594
vt 0.990671 0.992520
vt 0.006744 0.991356
vt 0.007908 0.007430
vt 0.991834 0.008594
vt 0.990671 0.992520
vt 0.006744 0.991356
vt 0.007908 0.007430
vt 0.991834 0.008594
vt 0.990671 0.992520
vt 0.006744 0.991356
vt 0.007908 0.007430
vt 0.991834 0.008594
vt 0.990671 0.992520
vt 0.006744 0.991356
vt 0.007908 0.007430
vt 0.991834 0.008594
vt 0.990671 0.992520
vt 0.006744 0.991356
vt 0.007908 0.007430
vt 0.991834 0.008594
vt 0.990671 0.992520
vt 0.006744 0.991356
vt 0.007908 0.007430
vt 0.991834 0.008594
vt 0.990671 0.992520
vt 0.006744 0.991356
vn -0.859169 -0.001623 -0.511690
vn -0.859169 -0.001623 -0.511690
vn -0.859169 -0.001623 -0.511690
vn -0.859169 -0.001623 -0.511690
vn -0.132257 -0.415055 -0.900132
vn -0.132257 -0.415055 -0.900132
vn -0.132257 -0.415055 -0.900132
vn -0.132257 -0.415055 -0.900132
vn -0.352982 -0.587040 -0.728552
vn -0.352982 -0.587040 -0.728552
vn -0.352982 -0.587040 -0.728552
vn -0.352982 -0.587040 -0.728552
vn 0.320813 0.356982 0.877293
vn 0.320813 0.356982 0.877293
vn 0.320813 0.356982 0.877293
vn 0.320813 0.356982 0.877293
vn 0.269131 -0.632949 -0.725909
vn 0.269131 -0.632949 -0.725909
vn 0.269131 -0.632949 -0.725909
vn 0.269132 -0.632950 -0.725908
vn -0.374069 -0.093819 -0.922643
vn -0.374069 -0.093819 -0.922643
vn -0.374069 -0.093819 -0.922643
vn -0.374069 -0.093820 -0.922643
vn 0.488260 0.392396 0.779505
vn 0.488260 0.392396 0.779505
vn 0.488260 0.392396 0.779505
vn 0.488260 0.392396 0.779505
vn -0.212977 0.188128 -0.958775
vn -0.212977 0.188128 -0.958775
vn -0.212977 0.188128 -0.958775
vn -0.212977 0.188128 -0.958775
vn -0.728945 -0.092286 -0.678324
vn -0.728945 -0.092286 -0.678324
vn -0.728945 -0.092286 -0.678324
vn -0.728945 -0.092287 -0.678323
vn -0.728945 -0.092286 -0.678324
vn -0.728945 -0.092286 -0.678324
vn -0.728945 -0.092286 -0.678324
vn -0.728945 -0.092287 -0.678323
vn 0.087493 -0.194920 0.976909
vn 0.087493 -0.194920 0.976909
vn 0.087493 -0.194920 0.976909
vn 0.087493 -0.194920 0.976909
vn 0.568543 -0.000707 0.822653
vn 0.568543 -0.000707 0.822653
vn 0.568543 -0.000707 0.822653
vn 0.568543 -0.000707 0.822653
vn 0.238583 0.379909 -0.893727
vn 0.238583 0.379909 -0.893727
vn 0.238583 0.379909 -0.893727
vn 0.238583 0.379908 -0.893727
vn -0.473665 -0.006410 0.880682
vn -0.473665 -0.006410 0.880682
vn -0.473665 -0.006410 0.880682
vn -0.473665 -0.006410 0.880682
vn 0.922553 -0.136833 0.360794
vn 0.922553 -0.136833 0.360794
vn 0.922553 -0.136833 0.360794
vn 0.922553 -0.136833 0.360794
vn 0.995300 -0.027538 -0.092841
vn 0.995300 -0.027538 -0.092841
vn 0.995300 -0.027538 -0.092841
vn 0.995300 -0.027538 -0.092841
vn -0.842539 -0.275941 -0.462584
vn -0.842539 -0.275941 -0.462584
vn -0.842539 -0.275941 -0.462584
vn -0.842539 -0.275941 -0.462584
vn 0.113951 0.467727 0.876497
vn 0.113951 0.467727 0.876497
vn 0.113951 0.467727 0.876497
vn 0.113951 0.467727 0.876497
vn 0.076284 0.289693 0.954075
vn 0.076284 0.289693 0.954075
vn 0.076284 0.289693 0.954075
vn 0.076284 0.289693 0.954075
vn 0.904277 0.406987 0.129017
vn 0.904277 0.406987 0.129017
vn 0.904277 0.406987 0.129017
vn 0.904277 0.406987 0.129017
vn -0.380145 0.177693 0.907698
vn -0.380145 0.177693 0.907698
vn -0.380145 0.177693 0.907698
vn -0.380145 0.177693 0.907698
vn -0.577250 -0.017733 -0.816375
vn -0.577250 -0.017733 -0.816375
vn -0.577250 -0.017733 -0.816375
vn -0.577250 -0.017733 -0.816375
vn -0.378430 0.126005 0.917013
vn -0.378430 0.126005 0.917013
vn -0.378430 0.126005 0.917013
vn -0.378430 0.126005 0.917013
vn 0.454949 -0.060372 -0.888469
vn 0.454949 -0.060372 -0.888469
vn 0.454949 -0.060372 -0.888469
vn 0.454949 -0.060372 -0.888469
vn -0.771044 -0.541620 0.334871
vn -0.771044 -0.541620 0.334871
vn -0.771044 -0.541620 0.334871
vn -0.771044 -0.541620 0.334871
vn 0.018278 0.347120 0.937643
vn 0.018278 0.347120 0.937643
vn 0.018278 0.347120 0.937643
vn 0.018278 0.347120 0.937643
vn 0.989305 0.039282 0.140473
vn 0.989305 0.039282 0.140473
vn 0.989305 0.039282 0.140473
vn 0.989305 0.039282 0.140473
vn 0.768417 0.030861 -0.639205
vn 0.768417 0.030861 -0.639205
vn 0.768417 0.030861 -0.639205
vn 0.768417 0.030861 -0.639205
vn 0.913933 0.094966 -0.394599
vn 0.913933 0.094966 -0.394599
vn 0.913933 0.094966 -0.394599
vn 0.913933 0.094966 -0.394599
vn 0.910281 -0.337173 0.240213
vn 0.910281 -0.337173 0.240213
vn 0.910281 -0.337173 0.240213
vn 0.910281 -0.337173 0.240213
vn -0.489415 0.175445 0.854220
vn -0.489415 0.175445 0.854220
vn -0.489415 0.175445 0.854220
vn -0.489415 0.175445 0.854220
vn 0.716551 0.073784 0.693621
vn 0.716551 0.073784 0.693621
vn 0.716551 0.073784 0.693621
vn 0.716551 0.073784 0.693621
vn 0.799154 -0.581247 -0.153317
vn 0.799154 -0.581247 -0.153317
vn 0.799154 -0.581247 -0.153317
vn 0.799154 -0.581247 -0.153317
vn -0.672452 -0.514079 0.532476
vn -0.672452 -0.514079 0.532476
vn -0.672452 -0.514079 0.532476
vn -0.672452 -0.514079 0.532476
vn 0.930063 0.020257 0.366841
vn 0.930063 0.020257 0.366841
vn 0.930063 0.020257 0.366841
vn 0.930063 0.020257 0.366841
vn 0.761036 -0.057473 0.646159
vn 0.761036 -0.057473 0.646159
vn 0.761036 -0.057473 0.646159
vn 0.761036 -0.057473 0.646159
vn 0.197532 -0.289606 0.936541
vn 0.197532 -0.289606 0.936541
vn 0.197532 -0.289606 0.936541
vn 0.197532 -0.289606 0.936541
vn 0.100449 0.076935 0.991963
vn 0.100449 0.076935 0.991963
vn 0.100449 0.076935 0.991963
vn 0.100449 0.076935 0.991963
vn 0.693102 -0.243918 0.678317
vn 0.693102 -0.243918 0.678317
vn 0.693102 -0.243918 0.678317
vn 0.693102 -0.243918 0.678317
vn 0.978260 0.167295 -0.122556
vn 0.978260 0.167295 -0.122556
vn 0.978260 0.167295 -0.122556
vn 0.978260 0.167295 -0.122556
vn 0.270103 0.553515 0.787823
vn 0.270103 0.553515 0.787823
vn 0.270103 0.553515 0.787823
vn 0.270103 0.553515 0.787823
vn 0.025307 0.400404 0.915989
vn 0.025306 0.400404 0.915989
vn 0.025306 0.400404 0.915989
vn 0.025306 0.400404 0.915989
vn -0.562067 0.485197 0.669825
vn -0.562067 0.485197 0.669825
vn -0.562067 0.485197 0.669825
vn -0.562067 0.485197 0.669825
vn 0.349528 0.121681 0.928991
vn 0.349528 0.121681 0.928991
vn 0.349528 0.121681 0.928991
vn 0.349528 0.121681 0.928991
vn 0.423082 0.497632 0.757208
vn 0.423082 0.497632 0.757208
vn 0.423082 0.497632 0.757208
vn 0.423082 0.497632 0.757208
vn 0.893281 0.339171 -0.294979
vn 0.893281 0.339171 -0.294979
vn 0.893281 0.339171 -0.294979
vn 0.893281 0.339171 -0.294979
vn -0.864207 -0.487300 0.125239
vn -0.864207 -0.487300 0.125239
vn -0.864207 -0.487300 0.125239
vn -0.864207 -0.487300 0.125239
vn -0.808132 0.282407 0.516884
vn -0.808132 0.282407 0.516884
vn -0.808132 0.282407 0.516884
vn -0.808132 0.282407 0.516884
vn 0.841014 0.354176 -0.408968
vn 0.841014 0.354176 -0.408968
vn 0.841014 0.354176 -0.408968
vn 0.841014 0.354176 -0.408968
vn -0.153781 -0.236751 -0.959323
vn -0.153781 -0.236751 -0.959323
vn -0.153781 -0.236751 -0.959323
vn -0.153781 -0.236751 -0.959323
vn -0.395394 -0.136833 0.908262
vn -0.395394 -0.136833 0.908262
vn -0.395394 -0.136833 0.908262
vn -0.395394 -0.136833 0.908262
vn 0.085506 0.167295 0.982192
vn 0.085506 0.167295 0.982192
vn 0.085506 0.167295 0.982192
vn 0.085506 0.167295 0.982192
vn 0.779486 0.606384 0.157164
vn 0.779486 0.606384 0.157164
vn 0.779486 0.606384 0.157164
vn 0.779486 0.606384 0.157164
vn 0.716551 0.073784 0.693621
vn 0.716551 0.073784 0.693621
vn 0.716551 0.073784 0.693621
vn 0.716551 0.073784 0.693621
vn -0.380320 -0.005322 0.924840
vn -0.380320 -0.005322 0.924840
vn -0.380320 -0.005322 0.924840
vn -0.380320 -0.005322 0.924840
vn 0.672769 0.000000 0.739853
vn 0.672769 0.000000 0.739853
vn 0.672769 0.000000 0.739853
vn 0.672769 0.000000 0.739853
vn 0.093260 0.022556 0.995386
vn 0.093260 0.022556 0.995386
vn 0.093260 0.022556 0.995386
vn 0.093260 0.022556 0.995386
vn 0.962286 0.266525 0.054494
vn 0.962286 0.266525 0.054494
vn 0.962286 0.266525 0.054494
vn 0.962286 0.266525 0.054494
vn -0.562067 0.485197 0.669825
vn -0.562067 0.485197 0.669825
vn -0.562067 0.485197 0.669825
vn -0.562067 0.485197 0.669825
vn 0.971886 -0.228204 0.057979
vn 0.971886 -0.228204 0.057979
vn 0.971886 -0.228204 0.057979
vn 0.971886 -0.228204 0.057979
vn 0.884074 0.379909 0.272181
vn 0.884074 0.379909 0.272181
vn 0.884074 0.379909 0.272181
vn 0.884074 0.379909 0.272181
vn 0.035570 0.212359 0.976544
vn 0.035570 0.212359 0.976544
vn 0.035570 0.212359 0.976544
vn 0.035570 0.212359 0.976544
vn 0.055169 -0.027538 0.998097
vn 0.055169 -0.027538 0.998097
vn 0.055169 -0.027538 0.998097
vn 0.055169 -0.027538 0.998097
vn 0.884074 0.379909 0.272181
vn 0.884074 0.379909 0.272181
vn 0.884074 0.379909 0.272181
vn 0.884074 0.379908 0.272181
s off
g shu_001_F:pCube6 polySurface1487
f 4/1/1 1/2/2 2/3/3 3/4/4
f 8/5/5 5/6/6 6/7/7 7/8/8
f 12/9/9 9/10/10 10/11/11 11/12/12
f 16/13/13 13/14/14 14/15/15 15/16/16
f 20/17/17 17/18/18 18/19/19 19/20/20
f 24/21/21 21/22/22 22/23/23 23/24/24
f 28/25/25 25/26/26 26/27/27 27/28/28
f 32/29/29 29/30/30 30/31/31 31/32/32
f 36/33/33 33/34/34 34/35/35 35/36/36
f 40/37/37 37/38/38 38/39/39 39/40/40
f 44/41/41 41/42/42 42/43/43 43/44/44
f 48/45/45 45/46/46 46/47/47 47/48/48
f 52/49/49 49/50/50 50/51/51 51/52/52
f 56/53/53 53/54/54 54/55/55 55/56/56
f 60/57/57 57/58/58 58/59/59 59/60/60
f 64/61/61 61/62/62 62/63/63 63/64/64
f 68/65/65 65/66/66 66/67/67 67/68/68
f 72/69/69 69/70/70 70/71/71 71/72/72
f 76/73/73 73/74/74 74/75/75 75/76/76
f 80/77/77 77/78/78 78/79/79 79/80/80
f 84/81/81 81/82/82 82/83/83 83/84/84
f 88/85/85 85/86/86 86/87/87 87/88/88
f 92/89/89 89/90/90 90/91/91 91/92/92
f 96/93/93 93/94/94 94/95/95 95/96/96
f 100/97/97 97/98/98 98/99/99 99/100/100
f 104/101/101 101/102/102 102/103/103 103/104/104
f 108/105/105 105/106/106 106/107/107 107/108/108
f 112/109/109 109/110/110 110/111/111 111/112/112
f 116/113/113 113/114/114 114/115/115 115/116/116
f 120/117/117 117/118/118 118/119/119 119/120/120
f 124/121/121 121/122/122 122/123/123 123/124/124
f 128/125/125 125/126/126 126/127/127 127/128/128
f 132/129/129 129/130/130 130/131/131 131/132/132
f 136/133/133 133/134/134 134/135/135 135/136/136
f 140/137/137 137/138/138 138/139/139 139/140/140
f 144/141/141 141/142/142 142/143/143 143/144/144
f 148/145/145 145/146/146 146/147/147 147/148/148
f 152/149/149 149/150/150 150/151/151 151/152/152
f 156/153/153 153/154/154 154/155/155 155/156/156
f 160/157/157 157/158/158 158/159/159 159/160/160
f 164/161/161 161/162/162 162/163/163 163/164/164
f 168/165/165 165/166/166 166/167/167 167/168/168
f 172/169/169 169/170/170 170/171/171 171/172/172
f 176/173/173 173/174/174 174/175/175 175/176/176
f 180/177/177 177/178/178 178/179/179 179/180/180
f 184/181/181 181/182/182 182/183/183 183/184/184
f 188/185/185 185/186/186 186/187/187 187/188/188
f 192/189/189 189/190/190 190/191/191 191/192/192
f 196/193/193 193/194/194 194/195/195 195/196/196
f 200/197/197 197/198/198 198/199/199 199/200/200
f 204/201/201 201/202/202 202/203/203 203/204/204
f 208/205/205 205/206/206 206/207/207 207/208/208
f 212/209/209 209/210/210 210/211/211 211/212/212
f 216/213/213 213/214/214 214/215/215 215/216/216
f 220/217/217 217/218/218 218/219/219 219/220/220
f 224/221/221 221/222/222 222/223/223 223/224/224
f 228/225/225 225/226/226 226/227/227 227/228/228
f 232/229/229 229/230/230 230/231/231 231/232/232
f 236/233/233 233/234/234 234/235/235 235/236/236
f 240/237/237 237/238/238 238/239/239 239/240/240
f 244/241/241 241/242/242 242/243/243 243/244/244
f 248/245/245 245/246/246 246/247/247 247/248/248
f 252/249/249 249/250/250 250/251/251 251/252/252
f 256/253/253 253/254/254 254/255/255 255/256/256
