# This file uses centimeters as units for non-parametric coordinates.

g default
v 59.370079 118.460419 25.892780
v 90.710945 118.460419 25.892780
v 59.370079 118.460419 61.290768
v 90.710945 118.460419 61.290768
v 69.423615 118.460419 25.892780
v 69.423615 118.460419 61.290768
v 66.445831 118.460419 61.290768
v 66.445831 118.460419 25.892780
v 69.011993 110.779808 24.084173
v 92.185524 110.779808 24.499004
v 69.011993 110.779808 61.169315
v 92.185524 110.779808 61.169315
v 65.637077 110.779808 61.169315
v 65.637077 110.779808 24.084173
v 57.895493 110.779808 24.084173
v 57.895493 110.779808 61.169315
v 59.370079 118.460419 38.087914
v 56.621391 110.779808 37.997597
v 92.185524 110.779808 36.679024
v 90.710945 118.460419 36.679047
v 69.423615 118.460419 38.087914
v 66.445831 118.460419 38.087914
v 59.370079 118.460419 32.190224
v 57.895493 110.779808 32.190220
v 92.185524 110.779808 29.660526
v 90.710945 118.460419 29.660543
v 69.423615 118.460419 32.190224
v 66.445831 118.460419 32.190224
v 55.343266 118.460419 32.190224
v 53.323456 110.779808 32.190220
v 53.323460 110.779808 37.997597
v 55.343266 118.460419 38.087914
v 57.642941 110.779808 57.515106
v 59.370079 118.460411 57.630386
v 66.445831 118.460411 57.630386
v 69.423615 118.460411 57.630386
v 90.710945 118.460411 57.351116
v 92.185524 110.779808 57.253738
v 57.113197 110.779808 44.737129
v 59.370079 118.460419 44.737129
v 66.445831 118.460411 44.737129
v 69.423615 118.460419 44.737129
v 90.710945 118.460411 44.737125
v 92.185524 110.779808 44.737118
v 95.783394 118.460411 57.351116
v 97.257980 110.779808 57.253738
v 97.257980 110.779808 44.737118
v 95.783401 118.460411 44.737125
vt 0.877460 0.762840
vt 0.437500 0.733730
vt 0.437500 0.596300
vt 0.877460 0.596300
vt 0.375950 0.596300
vt 0.375950 0.733730
vt 0.229710 0.733730
vt 0.229710 0.596300
vt 0.598840 0.104160
vt 0.582780 0.013970
vt 0.854210 0.013970
vt 0.849270 0.104160
vt 0.324920 0.104160
vt 0.321460 0.013970
vt 0.415780 0.013970
vt 0.417020 0.104160
vt 0.884510 0.104160
vt 0.893740 0.013970
vt 0.984400 0.013970
vt 0.968730 0.104160
vt 0.280610 0.233910
vt 0.274560 0.137500
vt 0.353690 0.137500
vt 0.357340 0.233910
vt 0.589390 0.233910
vt 0.568790 0.137500
vt 0.664010 0.137500
vt 0.674550 0.233910
vt 0.163600 0.233910
vt 0.170210 0.137500
vt 0.238000 0.137500
vt 0.235860 0.233910
vt 0.497940 0.013970
vt 0.497400 0.104160
vt 0.877460 0.907900
vt 0.437500 0.855620
vt 0.375950 0.855620
vt 0.229710 0.855620
vt 0.040530 0.233910
vt 0.022570 0.137500
vt 0.117490 0.137500
vt 0.115910 0.233910
vt 0.558360 0.013970
vt 0.539980 0.104160
vt 0.877460 0.985770
vt 0.437500 0.985770
vt 0.375950 0.985770
vt 0.229710 0.985770
vt 0.146490 0.855620
vt 0.146490 0.733730
vt 0.971080 0.233910
vt 0.710740 0.233910
vt 0.705530 0.137500
vt 0.990560 0.137500
vt 0.507980 0.233910
vt 0.503460 0.137500
vt 0.546350 0.137500
vt 0.552270 0.233910
vt 0.375960 0.254170
vt 0.375960 0.329830
vt 0.229720 0.329830
vt 0.229720 0.254170
vt 0.437500 0.254170
vt 0.437500 0.329830
vt 0.877460 0.335600
vt 0.877450 0.254170
vt 0.009730 0.104160
vt 0.012370 0.013970
vt 0.058210 0.013970
vt 0.054570 0.104160
vt 0.113540 0.104160
vt 0.116980 0.013970
vt 0.263500 0.013970
vt 0.266140 0.104160
vt 0.982290 0.335600
vt 0.982290 0.596300
vn 0.000000 1.000000 0.000000
vn 0.000000 1.000000 0.000000
vn 0.000000 1.000000 0.000000
vn 0.000000 1.000000 0.000000
vn 0.000000 1.000000 0.000000
vn 0.000000 1.000000 0.000000
vn 0.000000 1.000000 0.000000
vn 0.000001 1.000000 0.000000
vn 0.009132 0.204681 -0.978786
vn 0.009132 0.204681 -0.978786
vn 0.007914 0.207962 -0.978105
vn 0.008050 0.207596 -0.978182
vn 0.982065 0.188544 0.000000
vn 0.982065 0.188544 0.000000
vn 0.982065 0.188544 0.000000
vn 0.982065 0.188544 0.000000
vn 0.000000 0.229208 -0.973378
vn 0.000000 0.229208 -0.973378
vn 0.000000 0.229208 -0.973378
vn 0.000000 0.229208 -0.973378
vn -0.950275 0.309449 0.034906
vn -0.950275 0.309449 0.034906
vn -0.962085 0.271580 0.025233
vn -0.962164 0.271307 0.025164
vn 0.000000 -0.015811 0.999875
vn 0.000000 -0.015811 0.999875
vn 0.000000 -0.015811 0.999875
vn 0.000000 -0.015811 0.999875
vn -0.967118 0.254328 0.000000
vn -0.967118 0.254328 0.000000
vn -0.967118 0.254328 0.000000
vn -0.967118 0.254328 0.000000
vn 0.982065 0.188544 0.000000
vn 0.982065 0.188544 0.000000
vn 0.000000 1.000000 0.000000
vn 0.000000 1.000000 0.000000
vn 0.000000 1.000000 0.000000
vn 0.000000 1.000000 0.000000
vn -0.982065 0.188545 0.000000
vn -0.982065 0.188545 0.000000
vn -0.982065 0.188545 0.000000
vn -0.982065 0.188545 0.000000
vn 0.982065 0.188544 0.000000
vn 0.982065 0.188544 0.000000
vn 0.000000 1.000000 0.000000
vn 0.000000 1.000000 0.000000
vn 0.000000 1.000000 0.000000
vn 0.000000 1.000000 0.000000
vn 0.000000 0.000000 -1.000000
vn 0.000000 0.000000 -1.000000
vn 0.000000 0.000000 -1.000000
vn 0.000000 0.000000 -1.000000
vn 0.000000 -0.011758 0.999931
vn 0.000000 -0.011758 0.999931
vn 0.000000 -0.011758 0.999931
vn 0.000000 -0.011758 0.999931
vn 0.000000 1.000000 0.000000
vn 0.000000 1.000000 0.000000
vn 0.000000 -0.015811 0.999875
vn 0.000000 -0.015811 0.999875
vn 0.000000 -0.015811 0.999875
vn 0.000000 -0.015811 0.999875
vn -0.970417 0.240332 0.023058
vn -0.970314 0.240758 0.022934
vn -0.978507 0.203429 0.033785
vn -0.978507 0.203429 0.033785
vn 0.000000 1.000000 -0.000002
vn 0.000000 1.000000 0.000000
vn 0.000000 1.000000 0.000000
vn 0.000000 1.000000 -0.000002
vn -0.000000 1.000000 -0.000000
vn -0.000000 1.000000 -0.000000
vn 0.000000 1.000000 0.000000
vn -0.000000 1.000000 0.000000
vn 0.982065 0.188544 -0.000000
vn 0.982065 0.188544 -0.000000
vn 0.982065 0.188544 -0.000000
vn 0.982065 0.188544 -0.000000
vn 0.982065 0.188543 0.000000
vn 0.982065 0.188543 0.000000
vn 0.982065 0.188543 0.000000
vn 0.982065 0.188543 0.000000
vn 0.000000 -0.012677 0.999920
vn 0.000000 -0.012677 0.999920
vn 0.000000 -0.012677 0.999920
vn 0.000000 -0.012677 0.999920
vn 0.000000 0.000001 -1.000000
vn 0.000000 0.000001 -1.000000
vn 0.000000 0.000001 -1.000000
vn 0.000000 0.000001 -1.000000
vn 0.000000 1.000000 0.000000
vn 0.000000 1.000000 0.000000
s 1
g guanqia_002_ditai_002:ZBrushPolyMesh3D
f 20/1/1 21/2/2 42/3/3 43/4/4
f 41/5/5 22/6/6 17/7/7 40/8/8
f 42/3/3 21/2/2 22/6/6 41/5/5
s 2
f 2/9/9 10/10/10 9/11/11 5/12/12
s 3
f 43/13/13 44/14/14 19/15/15 20/16/16
s 2
f 8/17/17 14/18/18 15/19/19 1/20/20
s 4
f 17/21/21 18/22/22 39/23/23 40/24/24
s 5
f 3/25/25 16/26/26 13/27/27 7/28/28
s 2
f 5/12/12 9/11/11 14/18/18 8/17/17
s off
f 29/29/29 30/30/30 31/31/31 32/32/32
s 3
f 20/16/16 19/15/15 25/33/33 26/34/34
s 1
f 26/35/35 27/36/36 21/2/2 20/1/1
f 22/6/6 21/2/2 27/36/36 28/37/37
f 17/7/7 22/6/6 28/37/37 23/38/38
s off
f 1/39/39 15/40/40 24/41/41 23/42/42
s 3
f 26/34/34 25/33/33 10/43/43 2/44/44
s 1
f 2/45/45 5/46/46 27/36/36 26/35/35
f 28/37/37 27/36/36 5/46/46 8/47/47
f 23/38/38 28/37/37 8/47/47 1/48/48
s off
f 23/42/49 24/41/50 30/30/51 29/29/52
f 18/22/53 17/21/54 32/32/55 31/31/56
s 1
f 17/7/7 23/38/38 29/49/57 32/50/58
s 5
f 4/51/59 6/52/60 11/53/61 12/54/62
f 6/52/60 7/28/28 13/27/27 11/53/61
s 4
f 34/55/63 33/56/64 16/57/65 3/58/66
s 1
f 7/59/67 35/60/68 34/61/69 3/62/70
f 6/63/71 36/64/72 35/60/68 7/59/67
f 37/65/73 36/64/72 6/63/71 4/66/74
s off
f 4/67/75 12/68/76 38/69/77 37/70/78
s 4
f 40/24/24 39/23/23 33/56/64 34/55/63
s 1
f 35/60/68 41/5/5 40/8/8 34/61/69
f 36/64/72 42/3/3 41/5/5 35/60/68
f 43/4/4 42/3/3 36/64/72 37/65/73
s off
f 45/71/79 46/72/80 47/73/81 48/74/82
f 37/70/83 38/69/84 46/72/85 45/71/86
f 44/14/87 43/13/88 48/74/89 47/73/90
s 1
f 43/4/4 37/65/73 45/75/91 48/76/92
