# This file uses centimeters as units for non-parametric coordinates.

g ditai_003:default1
v 59.370075 118.460411 25.892778
v 90.710945 118.460411 25.892778
v 59.370075 118.460411 61.290764
v 90.710945 118.460411 61.290764
v 69.423607 118.460411 25.892778
v 69.423607 118.460411 61.290764
v 66.445831 118.460411 61.290764
v 66.445831 118.460411 25.892778
v 69.011993 110.779808 24.084173
v 92.185524 110.779808 24.499002
v 69.011993 110.779808 61.169315
v 92.185524 110.779808 61.169315
v 65.637077 110.779808 61.169315
v 65.637077 110.779808 24.084173
v 57.895493 110.779808 24.084173
v 57.895493 110.779808 61.169315
v 59.370075 118.460411 38.087914
v 56.621387 110.779808 37.997597
g ditai_003:default2
v 92.185524 110.779808 36.679024
v 90.710945 118.460411 36.679043
v 69.423607 118.460411 38.087914
v 66.445831 118.460411 38.087914
v 59.370075 118.460411 32.190224
v 57.895493 110.779808 32.190220
v 92.185524 110.779808 29.660526
v 90.710945 118.460411 29.660543
g ditai_003:default1
v 69.423607 118.460411 32.190224
v 66.445831 118.460411 32.190224
v 55.343266 118.460411 32.190224
v 53.323452 110.779808 32.190220
v 53.323460 110.779808 37.997597
v 55.343266 118.460411 38.087914
v 57.642941 110.779800 57.515102
v 59.370079 118.460403 57.630383
v 66.445831 118.460403 57.630383
v 69.423607 118.460403 57.630383
v 90.710938 118.460403 57.351116
v 92.185524 110.779800 57.253735
v 57.113197 110.779808 44.737129
v 59.370079 118.460411 44.737129
v 66.445831 118.460403 44.737129
v 69.423607 118.460411 44.737129
v 90.710945 118.460403 44.737122
v 92.185524 110.779800 44.737118
v 95.783394 118.460403 57.351116
v 97.257980 110.779800 57.253735
v 97.257980 110.779800 44.737118
v 95.783401 118.460403 44.737122
vt 0.417025 0.104169
vt 0.437503 0.733731
vt 0.437503 0.596305
vt 0.877463 0.596306
vt 0.375959 0.596306
vt 0.375959 0.733730
vt 0.229719 0.733731
vt 0.357348 0.233912
vt 0.877464 0.985778
vt 0.558361 0.013972
vt 0.854218 0.013972
vt 0.437503 0.985777
vt 0.321461 0.013972
vt 0.415786 0.013972
vt 0.375959 0.985777
vt 0.893743 0.013972
vt 0.984405 0.013972
vt 0.040535 0.233912
vt 0.274569 0.137506
vt 0.353692 0.137506
vt 0.229725 0.254178
vt 0.546356 0.137506
vt 0.664018 0.137506
vt 0.375962 0.254178
vt 0.146493 0.855623
vt 0.170217 0.137506
vt 0.238001 0.137506
vt 0.235866 0.233912
vt 0.497942 0.013972
vt 0.497407 0.104169
vt 0.437503 0.855623
vt 0.375959 0.855623
vt 0.115914 0.233912
vt 0.117492 0.137506
vt 0.009739 0.104169
vt 0.437505 0.254178
vt 0.705530 0.137506
vt 0.990569 0.137506
vt 0.229722 0.329830
vt 0.503462 0.137506
vt 0.375961 0.329830
vt 0.437505 0.329830
vt 0.054578 0.104169
vt 0.058212 0.013972
vt 0.982297 0.335602
vt 0.116985 0.013972
vt 0.263500 0.013972
vt 0.266146 0.104169
vt 0.324929 0.104169
vt 0.982299 0.596306
vt 0.113545 0.104169
vt 0.877461 0.335602
vt 0.507989 0.233912
vt 0.229719 0.596306
vt 0.877459 0.254178
vt 0.589392 0.233912
vt 0.710744 0.233912
vt 0.674550 0.233912
vt 0.280619 0.233912
vt 0.146493 0.733730
vt 0.163602 0.233912
vt 0.229718 0.855623
vt 0.598848 0.104169
vt 0.539981 0.104169
vt 0.877464 0.907906
vt 0.229718 0.985777
vt 0.877464 0.762849
vt 0.884518 0.104169
vt 0.849276 0.104169
vt 0.582783 0.013972
vt 0.012378 0.013972
vt 0.971089 0.233912
vt 0.552278 0.233912
vt 0.568795 0.137506
vt 0.022570 0.137506
vt 0.968734 0.104169
vn 0.000000 1.000000 0.000000
vn 0.000000 1.000000 0.000000
vn 0.000000 1.000000 0.000000
vn 0.000000 1.000000 0.000000
vn 0.000001 1.000000 0.000000
vn 0.000000 1.000000 0.000000
vn 0.000000 1.000000 0.000000
vn 0.000001 1.000000 0.000000
vn -0.000001 1.000000 0.000000
vn 0.000000 1.000000 0.000000
vn 0.000000 1.000000 0.000000
vn -0.000001 1.000000 0.000000
vn 0.009132 0.204682 -0.978786
vn 0.009132 0.204682 -0.978786
vn 0.007980 0.207787 -0.978142
vn 0.007991 0.207756 -0.978148
vn 0.982065 0.188544 0.000000
vn 0.982065 0.188544 0.000000
vn 0.982065 0.188544 0.000000
vn 0.982065 0.188544 0.000000
vn 0.000000 0.229208 -0.973377
vn 0.000000 0.229208 -0.973377
vn 0.000000 0.229208 -0.973377
vn 0.000000 0.229208 -0.973377
vn -0.963982 0.264666 0.026280
vn -0.963982 0.264666 0.026280
vn -0.961990 0.271937 0.024995
vn -0.962068 0.271667 0.024931
vn 0.000000 -0.015810 0.999875
vn 0.000000 -0.015810 0.999875
vn 0.000000 -0.015810 0.999875
vn 0.000000 -0.015810 0.999875
vn 0.007991 0.207756 -0.978148
vn 0.007980 0.207787 -0.978142
vn 0.000000 0.229208 -0.973377
vn 0.000000 0.229208 -0.973377
vn -0.961616 0.252246 0.108010
vn -0.961616 0.252246 0.108010
vn -0.961616 0.252246 0.108010
vn -0.961616 0.252246 0.108010
vn 0.982065 0.188544 0.000000
vn 0.982065 0.188544 0.000000
vn 0.982065 0.188544 0.000000
vn 0.982065 0.188544 0.000000
vn 0.000000 1.000000 0.000000
vn 0.000000 1.000000 0.000000
vn 0.000000 1.000000 0.000000
vn 0.000000 1.000000 0.000000
vn 0.000000 1.000000 0.000000
vn 0.000000 1.000000 0.000000
vn 0.000000 1.000000 0.000000
vn 0.000000 1.000000 0.000000
vn 0.000000 1.000000 0.000000
vn 0.000000 1.000000 0.000000
vn 0.000000 1.000000 0.000000
vn 0.000000 1.000000 0.000000
vn -0.982065 0.188544 0.000000
vn -0.982065 0.188544 0.000000
vn -0.982065 0.188544 0.000000
vn -0.982065 0.188544 0.000000
vn 0.982065 0.188544 0.000000
vn 0.982065 0.188544 0.000000
vn 0.982065 0.188544 0.000000
vn 0.982065 0.188544 0.000000
vn 0.000000 1.000000 0.000000
vn 0.000000 1.000000 0.000000
vn 0.000000 1.000000 0.000000
vn 0.000000 1.000000 0.000000
vn 0.000000 1.000000 0.000000
vn 0.000000 1.000000 0.000000
vn 0.000000 1.000000 0.000000
vn 0.000000 1.000000 0.000000
vn 0.000000 1.000000 0.000000
vn 0.000000 1.000000 0.000000
vn 0.000000 1.000000 0.000000
vn 0.000000 1.000000 0.000000
vn 0.000000 0.000001 -1.000000
vn 0.000000 0.000001 -1.000000
vn 0.000000 0.000001 -1.000000
vn 0.000000 0.000001 -1.000000
vn 0.000000 -0.011758 0.999931
vn 0.000000 -0.011758 0.999931
vn 0.000000 -0.011758 0.999931
vn 0.000000 -0.011758 0.999931
vn 0.000000 1.000000 0.000000
vn 0.000000 1.000000 0.000000
vn 0.000000 1.000000 0.000000
vn 0.000000 1.000000 0.000000
vn 0.000000 -0.015810 0.999875
vn 0.000000 -0.015810 0.999875
vn 0.000000 -0.015810 0.999875
vn 0.000000 -0.015810 0.999875
vn 0.000000 -0.015810 0.999875
vn 0.000000 -0.015810 0.999875
vn 0.000000 -0.015810 0.999875
vn 0.000000 -0.015810 0.999875
vn -0.970417 0.240332 0.023058
vn -0.970314 0.240758 0.022933
vn -0.963982 0.264666 0.026280
vn -0.963982 0.264666 0.026280
vn 0.000000 1.000000 0.000000
vn 0.000000 1.000000 -0.000001
vn 0.000000 1.000000 -0.000001
vn 0.000000 1.000000 0.000000
vn 0.000000 1.000000 0.000000
vn -0.000001 1.000000 0.000000
vn -0.000001 1.000000 0.000000
vn 0.000000 1.000000 0.000000
vn 0.000000 1.000000 0.000000
vn 0.000000 1.000000 0.000000
vn 0.000000 1.000000 0.000000
vn 0.000000 1.000000 0.000000
vn 0.982065 0.188544 0.000000
vn 0.982065 0.188544 0.000000
vn 0.982064 0.188546 -0.000001
vn 0.982064 0.188546 -0.000001
vn -0.962068 0.271667 0.024931
vn -0.961990 0.271937 0.024995
vn -0.970314 0.240758 0.022933
vn -0.970417 0.240332 0.023058
vn 0.000000 1.000000 -0.000001
vn 0.000001 1.000000 0.000000
vn 0.000001 1.000000 0.000000
vn 0.000000 1.000000 -0.000001
vn -0.000001 1.000000 0.000000
vn -0.000001 1.000000 0.000000
vn -0.000001 1.000000 0.000000
vn -0.000001 1.000000 0.000000
vn 0.000000 1.000000 0.000000
vn 0.000000 1.000000 0.000000
vn 0.000000 1.000000 0.000000
vn 0.000000 1.000000 0.000000
vn 0.982065 0.188543 0.000000
vn 0.982065 0.188543 0.000000
vn 0.982065 0.188543 0.000000
vn 0.982065 0.188543 0.000000
vn 0.000000 -0.012678 0.999920
vn 0.000000 -0.012678 0.999920
vn 0.000000 -0.012678 0.999920
vn 0.000000 -0.012678 0.999920
vn 0.000000 0.000000 -1.000000
vn 0.000000 0.000000 -1.000000
vn 0.000000 0.000000 -1.000000
vn 0.000000 0.000000 -1.000000
vn 0.000000 1.000000 0.000000
vn 0.000000 1.000000 0.000000
vn 0.000000 1.000000 0.000000
vn 0.000000 1.000000 0.000000
s off
g ditai_003:polySurface22 ditai_003:polySurface23 ditai_003:polySurface1074 ditai_003:polySurface1077 ditai_003:polySurface1117 ditai_003:polySurface1118 ditai_003:polySurface1
f 20/67/1 21/2/2 42/3/3 43/4/4
g ditai_003:polySurface22 ditai_003:polySurface23 ditai_003:polySurface1074 ditai_003:polySurface1075 ditai_003:polySurface1117 ditai_003:polySurface1118 ditai_003:polySurface1
f 41/5/5 22/6/6 17/7/7 40/54/8
g ditai_003:polySurface22 ditai_003:polySurface23 ditai_003:polySurface1074 ditai_003:polySurface1076 ditai_003:polySurface1117 ditai_003:polySurface1118 ditai_003:polySurface1
f 42/3/9 21/2/10 22/6/11 41/5/12
f 2/63/13 10/70/14 9/11/15 5/69/16
f 43/49/17 44/13/18 19/14/19 20/1/20
g ditai_003:polySurface22 ditai_003:polySurface23 ditai_003:polySurface1074 ditai_003:polySurface1075 ditai_003:polySurface1117 ditai_003:polySurface1118 ditai_003:polySurface1
f 8/68/21 14/16/22 15/17/23 1/76/24
g ditai_003:polySurface22 ditai_003:polySurface23 ditai_003:polySurface1074 ditai_003:polySurface1077 ditai_003:polySurface1117 ditai_003:polySurface1118 ditai_003:polySurface1
f 17/59/25 18/19/26 39/20/27 40/8/28
g ditai_003:polySurface22 ditai_003:polySurface23 ditai_003:polySurface1074 ditai_003:polySurface1076 ditai_003:polySurface1117 ditai_003:polySurface1118 ditai_003:polySurface1
f 3/56/29 16/74/30 13/23/31 7/58/32
g ditai_003:polySurface22 ditai_003:polySurface23 ditai_003:polySurface1074 ditai_003:polySurface1075 ditai_003:polySurface1117 ditai_003:polySurface1118 ditai_003:polySurface1
f 5/69/33 9/11/34 14/16/35 8/68/36
g ditai_003:polySurface22 ditai_003:polySurface23 ditai_003:polySurface1074 ditai_003:polySurface1077 ditai_003:polySurface1117 ditai_003:polySurface1118 ditai_003:polySurface1
f 29/61/37 30/26/38 31/27/39 32/28/40
g ditai_003:polySurface22 ditai_003:polySurface23 ditai_003:polySurface1074 ditai_003:polySurface1078 ditai_003:polySurface1117 ditai_003:polySurface1118 ditai_003:polySurface1
f 20/1/41 19/14/42 25/29/43 26/30/44
g ditai_003:polySurface22 ditai_003:polySurface23 ditai_003:polySurface1074 ditai_003:polySurface1077 ditai_003:polySurface1117 ditai_003:polySurface1118 ditai_003:polySurface1
f 26/65/45 27/31/46 21/2/47 20/67/48
g ditai_003:polySurface22 ditai_003:polySurface23 ditai_003:polySurface1074 ditai_003:polySurface1075 ditai_003:polySurface1117 ditai_003:polySurface1118 ditai_003:polySurface1
f 22/6/49 21/2/50 27/31/51 28/32/52
g ditai_003:polySurface22 ditai_003:polySurface23 ditai_003:polySurface1074 ditai_003:polySurface1076 ditai_003:polySurface1117 ditai_003:polySurface1118 ditai_003:polySurface1
f 17/7/53 22/6/54 28/32/55 23/62/56
f 1/18/57 15/75/58 24/34/59 23/33/60
g ditai_003:polySurface22 ditai_003:polySurface23 ditai_003:polySurface1074 ditai_003:polySurface1078 ditai_003:polySurface1117 ditai_003:polySurface1118 ditai_003:polySurface1
f 26/30/61 25/29/62 10/10/63 2/64/64
g ditai_003:polySurface22 ditai_003:polySurface23 ditai_003:polySurface1074 ditai_003:polySurface1075 ditai_003:polySurface1117 ditai_003:polySurface1118 ditai_003:polySurface1
f 2/9/65 5/12/66 27/31/67 26/65/68
g ditai_003:polySurface22 ditai_003:polySurface23 ditai_003:polySurface1074 ditai_003:polySurface1077 ditai_003:polySurface1117 ditai_003:polySurface1118 ditai_003:polySurface1
f 28/32/69 27/31/70 5/12/71 8/15/72
f 23/62/73 28/32/74 8/15/75 1/66/76
g ditai_003:polySurface22 ditai_003:polySurface23 ditai_003:polySurface1074 ditai_003:polySurface1076 ditai_003:polySurface1117 ditai_003:polySurface1118 ditai_003:polySurface1
f 23/33/77 24/34/78 30/26/79 29/61/80
g ditai_003:polySurface22 ditai_003:polySurface23 ditai_003:polySurface1074 ditai_003:polySurface1075 ditai_003:polySurface1117 ditai_003:polySurface1118 ditai_003:polySurface1
f 18/19/81 17/59/82 32/28/83 31/27/84
g ditai_003:polySurface22 ditai_003:polySurface23 ditai_003:polySurface1074 ditai_003:polySurface1077 ditai_003:polySurface1117 ditai_003:polySurface1118 ditai_003:polySurface1
f 17/7/85 23/62/86 29/25/87 32/60/88
f 4/72/89 6/57/90 11/37/91 12/38/92
g ditai_003:polySurface22 ditai_003:polySurface23 ditai_003:polySurface1074 ditai_003:polySurface1078 ditai_003:polySurface1117 ditai_003:polySurface1118 ditai_003:polySurface1
f 6/57/93 7/58/94 13/23/95 11/37/96
f 34/53/97 33/40/98 16/22/99 3/73/100
g ditai_003:polySurface22 ditai_003:polySurface23 ditai_003:polySurface1074 ditai_003:polySurface1076 ditai_003:polySurface1117 ditai_003:polySurface1118 ditai_003:polySurface1
f 7/24/101 35/41/102 34/39/103 3/21/104
g ditai_003:polySurface22 ditai_003:polySurface23 ditai_003:polySurface1074 ditai_003:polySurface1078 ditai_003:polySurface1117 ditai_003:polySurface1118 ditai_003:polySurface1
f 6/36/105 36/42/106 35/41/107 7/24/108
f 37/52/109 36/42/110 6/36/111 4/55/112
f 4/35/113 12/71/114 38/44/115 37/43/116
f 40/8/117 39/20/118 33/40/119 34/53/120
f 35/41/121 41/5/122 40/54/123 34/39/124
g ditai_003:polySurface22 ditai_003:polySurface23 ditai_003:polySurface1074 ditai_003:polySurface1076 ditai_003:polySurface1117 ditai_003:polySurface1118 ditai_003:polySurface1
f 36/42/125 42/3/126 41/5/127 35/41/128
g ditai_003:polySurface22 ditai_003:polySurface23 ditai_003:polySurface1074 ditai_003:polySurface1075 ditai_003:polySurface1117 ditai_003:polySurface1118 ditai_003:polySurface1
f 43/4/129 42/3/130 36/42/131 37/52/132
g ditai_003:polySurface22 ditai_003:polySurface23 ditai_003:polySurface1074 ditai_003:polySurface1077 ditai_003:polySurface1117 ditai_003:polySurface1118 ditai_003:polySurface1
f 45/51/133 46/46/134 47/47/135 48/48/136
f 37/43/137 38/44/138 46/46/139 45/51/140
f 44/13/141 43/49/142 48/48/143 47/47/144
g ditai_003:polySurface22 ditai_003:polySurface23 ditai_003:polySurface1074 ditai_003:polySurface1075 ditai_003:polySurface1117 ditai_003:polySurface1118 ditai_003:polySurface1
f 43/4/145 37/52/146 45/45/147 48/50/148
