# This file uses centimeters as units for non-parametric coordinates.

g default
v -6.557997 0.960848 -8.025819
v 6.413536 0.960848 -8.025819
v 6.413536 0.960848 7.997400
v 1.947899 0.960848 7.997400
v 1.947899 0.960848 -8.025819
v 1.947899 0.960848 5.023341
v -6.557996 0.960848 5.023341
v 1.947899 1.369408 7.997398
v 1.947899 1.369408 5.023340
v 6.413536 1.369408 7.997400
v 6.413536 1.369408 5.023340
v 1.947899 1.369408 -8.025819
v 6.413536 1.369408 -8.025819
v -6.557997 1.369408 -8.025819
v -6.557996 1.369408 5.023341
v -10.268967 0.960848 -8.025819
v -10.268967 0.960848 7.997400
v 10.268967 0.960848 -8.025819
v 10.268967 0.960848 7.997400
v -10.268967 -1.349697 -8.025819
v -10.268967 -1.349697 7.997400
v 10.268967 -1.349697 7.997400
v 10.268967 -1.349697 -8.025819
v -6.557996 0.960848 7.997400
v 1.947899 -1.349697 7.997400
v 1.947899 -1.349697 -8.025819
v -6.557997 -1.349697 7.997400
v -6.557996 -1.349697 -8.025820
v -10.268967 1.369408 -8.025819
v -10.268967 1.369408 7.997400
v -6.557996 1.369408 7.997400
v 10.268967 1.369408 -8.025819
v 10.268967 1.369408 7.997400
v -10.268967 1.369408 5.023341
v -10.268967 0.960848 5.023341
v -10.268967 -1.349697 5.023341
v -6.557996 -1.349697 5.023341
v 1.947899 -1.349697 5.023341
v 10.268967 -1.349697 5.023341
v 10.268967 0.960848 5.023341
v 10.268967 1.369408 5.023341
v 6.413536 -1.349697 7.997400
v 6.413536 -1.349697 5.023341
v 6.413536 -1.349697 -8.025819
v 6.413536 1.500877 7.997400
v 10.268967 1.500877 7.997400
v 10.268967 1.500877 5.023341
v 6.413536 1.500877 5.023340
v 10.268967 1.500877 -8.025819
v 6.413536 1.500877 -8.025819
v -6.557996 1.500877 5.023341
v -10.268967 1.500877 5.023341
v -10.268967 1.500877 7.997400
v -6.557996 1.500877 7.997400
v -6.557997 1.500877 -8.025819
v -10.268967 1.500877 -8.025819
vt 0.771979 0.355240
vt 0.342557 0.185514
vt 0.460900 0.185514
vt 0.219587 0.365635
vt 0.638189 0.090771
vt 0.219585 0.762305
vt 0.882408 0.090771
vt 0.141503 0.364279
vt 0.654384 0.323473
vt 0.340489 0.869439
vt 0.460900 0.174687
vt 0.509972 0.079040
vt 0.638189 0.079040
vt 0.154218 0.364279
vt 0.882408 0.079040
vt 0.078289 0.030269
vt 0.078289 0.072939
vt 0.022510 0.072939
vt 0.563071 0.113455
vt 0.624184 0.267386
vt 0.319646 0.072939
vt 0.683423 0.221359
vt 0.683424 0.267386
vt 0.563071 0.174687
vt 0.641231 0.174687
vt 0.988956 0.012701
vt 0.364260 0.267386
vt 0.265952 0.262092
vt 0.154218 0.271728
vt 0.399276 0.079040
vt 0.022517 0.262091
vt 0.509972 0.012701
vt 0.265956 0.030269
vt 0.340481 0.781587
vt 0.265956 0.072939
vt 0.142896 0.072939
vt 0.142898 0.262091
vt 0.624184 0.275525
vt 0.683424 0.275525
vt 0.364260 0.275525
vt 0.141503 0.271728
vt 0.641231 0.185514
vt 0.563071 0.185514
vt 0.399276 0.090771
vt 0.223600 0.275229
vt 0.563071 0.188998
vt 0.641231 0.188998
vt 0.223584 0.365635
vt 0.137412 0.364279
vt 0.021928 0.364280
vt 0.683424 0.278144
vt 0.137412 0.271728
vt 0.882408 0.094546
vt 0.364260 0.278144
vt 0.399276 0.094546
vt 0.223582 0.762305
vt 0.988956 0.094546
vt 0.021928 0.770360
vt 0.624184 0.278144
vt 0.137412 0.770360
vt 0.988956 0.090771
vt 0.361572 0.983785
vt 0.141503 0.770360
vt 0.021928 0.271729
vt 0.757344 0.278144
vt 0.757344 0.275525
vt 0.509972 0.094546
vt 0.987699 0.188998
vt 0.340779 0.762305
vt 0.986695 0.984274
vt 0.509972 0.090771
vt 0.340777 0.365635
vt 0.987699 0.185514
vt 0.340760 0.275229
vt 0.460900 0.188998
vt 0.987299 0.212083
vt 0.219604 0.275229
vt 0.078294 0.262091
vt 0.987698 0.113455
vt 0.399276 0.012701
vt 0.460900 0.113455
vt 0.022509 0.030269
vt 0.641231 0.113455
vt 0.624184 0.221359
vt 0.319646 0.030269
vt 0.987699 0.174687
vt 0.017105 0.869439
vt 0.757344 0.267386
vt 0.988956 0.079040
vt 0.757341 0.221359
vt 0.017112 0.781587
vt 0.882408 0.012701
vt 0.638189 0.012701
vt 0.342557 0.113455
vt 0.142896 0.030269
vt 0.756371 0.323473
vt 0.342557 0.174687
vt 0.362699 0.323473
vt 0.017102 0.982520
vt 0.364261 0.221359
vt 0.319638 0.262092
vt 0.771487 0.984105
vt 0.654384 0.337484
vt 0.362063 0.354920
vt 0.362699 0.337484
vt 0.987187 0.355409
vt 0.756371 0.337484
vt 0.772091 0.211915
vt 0.340492 0.982520
vn 0.000000 1.000000 -0.000000
vn -0.000000 1.000000 0.000000
vn -0.000000 1.000000 0.000000
vn -0.000000 1.000000 0.000000
vn 0.000000 1.000000 -0.000000
vn 0.000000 1.000000 0.000000
vn 0.000000 1.000000 -0.000000
vn 0.000000 1.000000 -0.000000
vn -1.000000 0.000000 -0.000000
vn -1.000000 0.000000 -0.000000
vn -1.000000 0.000000 -0.000000
vn -1.000000 0.000000 -0.000000
vn -0.000000 0.000002 1.000000
vn -0.000000 0.000002 1.000000
vn -0.000000 0.000002 1.000000
vn -0.000000 0.000002 1.000000
vn 0.000000 0.000000 -1.000000
vn 0.000000 0.000000 -1.000000
vn 0.000000 0.000000 -1.000000
vn 0.000000 0.000000 -1.000000
vn 0.000000 0.000001 1.000000
vn 0.000000 0.000001 1.000000
vn 0.000000 0.000001 1.000000
vn 0.000000 0.000001 1.000000
vn 0.000000 0.000000 -1.000000
vn 0.000000 0.000000 -1.000000
vn 0.000000 -1.000000 0.000000
vn 0.000000 -1.000000 0.000000
vn 0.000000 -1.000000 0.000000
vn 0.000000 -1.000000 0.000000
vn -1.000000 0.000000 0.000000
vn -1.000000 0.000000 0.000000
vn -1.000000 0.000000 0.000000
vn -1.000000 0.000000 0.000000
vn 0.000000 0.000000 1.000000
vn 0.000000 0.000000 1.000000
vn 0.000000 0.000000 1.000000
vn 0.000000 0.000000 1.000000
vn 1.000000 0.000000 0.000000
vn 1.000000 0.000000 0.000000
vn 1.000000 0.000000 0.000000
vn 1.000000 0.000000 0.000000
vn 0.000000 0.000000 -1.000000
vn 0.000000 0.000000 -1.000000
vn 0.000000 0.000000 -1.000000
vn 0.000000 0.000000 -1.000000
vn 0.000000 1.000000 0.000000
vn 0.000000 1.000000 0.000000
vn 0.000000 1.000000 0.000000
vn 0.000000 1.000000 0.000000
vn 0.000000 0.000000 -1.000000
vn 0.000000 0.000000 -1.000000
vn 0.000000 0.000000 -1.000000
vn 0.000000 0.000000 -1.000000
vn 0.000000 0.000000 1.000000
vn 0.000000 0.000000 1.000000
vn 0.000000 0.000000 1.000000
vn 0.000000 0.000000 1.000000
vn 0.000000 -1.000000 -0.000000
vn 0.000000 -1.000000 -0.000000
vn 0.000000 -1.000000 -0.000000
vn 0.000000 -1.000000 -0.000000
vn 0.000000 0.000000 -1.000000
vn 0.000000 0.000000 -1.000000
vn 0.000000 0.000000 1.000000
vn 0.000000 0.000000 1.000000
vn 0.000000 -1.000000 0.000000
vn 0.000000 -1.000000 0.000000
vn -1.000000 0.000000 0.000000
vn -1.000000 0.000000 0.000000
vn 0.000000 0.000000 -1.000000
vn 0.000000 0.000000 -1.000000
vn 0.000000 0.000000 1.000000
vn 0.000000 0.000000 1.000000
vn 1.000000 0.000000 0.000000
vn 1.000000 0.000000 0.000000
vn 1.000000 0.000000 -0.000000
vn 1.000000 0.000000 0.000000
vn 1.000000 0.000000 0.000000
vn 1.000000 0.000000 0.000000
vn 0.000000 0.000000 1.000000
vn 0.000000 0.000000 1.000000
vn 0.000000 0.000000 -1.000000
vn 0.000000 0.000000 -1.000000
vn -0.000000 1.000000 -0.000000
vn -0.000000 1.000000 -0.000000
vn -0.000000 1.000000 -0.000000
vn -0.000000 1.000000 -0.000000
vn 0.000000 1.000000 0.000000
vn 0.000000 1.000000 0.000000
vn 0.000000 1.000000 -0.000000
vn 0.000000 1.000000 -0.000000
vn 0.000000 1.000000 0.000000
vn 0.000000 1.000000 0.000000
vn -1.000000 0.000000 0.000000
vn -1.000000 0.000000 0.000000
vn -1.000000 0.000000 0.000000
vn 0.000000 -1.000000 0.000000
vn 0.000000 -1.000000 0.000000
vn 0.000000 -1.000000 0.000000
vn 0.000000 -1.000000 0.000000
vn 0.000000 -1.000000 0.000000
vn 1.000000 0.000000 0.000000
vn 1.000000 0.000000 0.000000
vn 1.000000 0.000000 0.000000
vn -0.000000 1.000000 0.000000
vn -0.000000 1.000000 0.000000
vn 0.000000 0.000000 1.000000
vn 0.000000 0.000000 1.000000
vn 1.000000 0.000000 0.000000
vn 1.000000 0.000000 0.000000
vn -1.000000 0.000000 0.000000
vn -1.000000 0.000000 0.000000
vn -1.000000 0.000000 0.000000
vn -1.000000 0.000000 0.000000
vn 1.000000 0.000000 0.000000
vn 0.000000 0.000000 -1.000000
vn 0.000000 0.000000 -1.000000
vn -1.000000 0.000000 0.000000
vn -1.000000 0.000000 0.000000
vn -1.000000 0.000000 0.000000
vn -1.000000 0.000000 0.000000
vn 0.000000 0.000000 1.000000
vn 0.000000 0.000000 1.000000
vn 1.000000 0.000000 -0.000000
vn 1.000000 0.000000 0.000000
vn 1.000000 0.000000 -0.000000
vn 1.000000 0.000000 -0.000000
vn 0.000000 0.000000 -1.000000
vn 0.000000 0.000000 -1.000000
vn -1.000000 0.000000 0.000000
s 1
g polySurface73
f 9/1/1 8/108/2 10/76/3 11/106/4
f 12/102/5 9/1/1 11/106/4 13/70/6
f 14/62/7 15/104/8 9/1/1 12/102/5
s off
f 6/9/9 4/96/10 8/107/11 9/103/12
f 4/97/13 3/11/14 10/3/15 8/2/16
s 2
f 2/12/17 5/13/18 12/5/19 13/71/20
s off
f 7/98/21 6/9/22 9/103/23 15/105/24
s 2
f 5/13/18 1/15/25 14/7/26 12/5/19
s 3
f 42/16/27 43/17/28 39/18/29 22/82/30
s 4
f 35/20/31 36/84/32 21/22/33 17/23/34
s 5
f 3/11/35 42/81/36 22/19/37 19/24/38
s 6
f 19/24/39 22/19/40 39/83/41 40/25/42
s 7
f 20/26/43 16/89/44 1/15/45 28/92/46
s off
f 4/10/47 6/109/48 7/99/49 24/87/50
s 7
f 2/12/51 18/30/52 23/80/53 44/32/54
s 5
f 24/87/55 27/91/56 25/34/57 4/10/58
s 3
f 27/33/59 37/35/60 38/36/61 25/95/62
s 7
f 5/13/63 26/93/64 28/92/46 1/15/45
s 5
f 17/23/65 21/22/66 27/90/56 24/88/55
s 3
f 36/21/67 37/35/60 27/33/59 21/85/68
s 4
f 34/38/69 35/20/31 17/23/34 30/39/70
s 7
f 1/15/45 16/89/44 29/61/71 14/7/72
s 5
f 17/23/65 24/88/55 31/66/73 30/39/74
s 11
f 24/29/75 7/14/76 15/8/77 31/41/78
s 6
f 19/24/39 40/25/42 41/42/79 33/43/80
s 5
f 3/11/35 19/24/38 33/43/81 10/3/82
s 7
f 18/30/52 2/12/51 13/71/83 32/44/84
s 12
f 45/45/85 46/74/86 47/72/87 48/48/88
s 13
f 51/49/89 52/50/90 53/64/91 54/52/92
f 51/49/89 55/60/93 56/58/94 52/50/90
s 4
f 16/27/95 35/20/31 34/38/69 29/40/96
f 16/27/95 20/100/97 36/84/32 35/20/31
s 3
f 20/101/98 28/28/99 37/35/60 36/21/67
f 38/36/61 37/35/60 28/28/99 26/37/100
f 39/18/29 43/17/28 44/78/101 23/31/102
s 6
f 40/25/42 39/83/41 23/79/103 18/86/104
f 41/42/79 40/25/42 18/86/104 32/73/105
s 12
f 48/48/88 47/72/87 49/69/106 50/56/107
s 5
f 4/97/58 25/94/57 42/81/36 3/11/35
s 3
f 25/95/62 38/36/61 43/17/28 42/16/27
f 44/78/101 43/17/28 38/36/61 26/37/100
s 7
f 2/12/51 44/32/54 26/93/64 5/13/63
s 5
f 10/3/82 33/43/81 46/46/108 45/75/109
s 6
f 33/43/80 41/42/79 47/47/110 46/46/111
s 14
f 11/4/112 10/77/113 45/45/114 48/48/115
s 6
f 41/42/79 32/73/105 49/68/116 47/47/110
s 7
f 32/44/84 13/71/83 50/67/117 49/55/118
s 14
f 13/6/119 11/4/112 48/48/115 50/56/120
s 4
f 34/38/69 30/39/70 53/51/121 52/59/122
s 5
f 30/39/74 31/66/73 54/65/123 53/51/124
s 11
f 31/41/78 15/8/77 51/49/125 54/52/126
f 15/8/77 14/63/127 55/60/128 51/49/125
s 7
f 14/7/72 29/61/71 56/57/129 55/53/130
s 4
f 29/40/96 34/38/69 52/59/122 56/54/131
