# This file uses centimeters as units for non-parametric coordinates.

g default
v 100.514937 -64.529877 -0.331298
v 89.941113 -64.529854 -28.678670
v 75.606377 -30.960803 -21.392364
v 78.919015 -30.881611 11.348149
v 75.380684 -64.529889 -45.903565
v 67.302376 -32.859144 -47.040698
v 57.116814 -33.274888 -52.401450
v 53.253846 -64.531894 -58.421073
v 40.014437 44.143324 -14.357942
v 53.466714 46.855513 1.122398
v 61.129778 8.697809 -8.111811
v 46.366081 8.985899 -23.749242
v 66.658522 25.871073 17.255675
v 55.897671 49.943929 18.466424
v 25.290452 58.746648 0.330610
v 43.819728 63.206063 7.949788
v 49.087718 64.531894 26.165420
v 40.457196 31.846540 44.109358
v 49.803538 22.449980 35.705930
v 59.678155 4.045107 31.187898
v 70.684288 -31.607151 31.059153
v 86.255841 -64.513811 31.422925
v 22.455471 -26.461826 -53.893637
v 26.723185 -64.529911 -68.594062
v 40.977547 -10.891327 -36.881788
v 19.656096 31.160744 -20.137939
v 8.097981 51.728803 -1.943415
v -13.459402 -10.594054 -47.594569
v -4.235003 8.029402 -25.543038
v -18.342080 28.239692 4.739620
v -36.785291 8.192003 -11.941270
v 17.340085 57.762337 22.352424
v -6.583914 43.832456 17.657469
v 0.947802 40.721205 36.264109
v 16.901705 51.680718 40.344666
v -18.466400 22.268988 28.310985
v -17.795806 -57.887256 -69.734280
v -52.458446 -22.718277 -39.640709
v -43.861161 -52.094045 -58.753365
v -88.106658 -64.529889 -31.708410
v -91.315432 -47.370105 -24.868323
v -43.271296 -64.529889 -54.363130
v -18.237055 -64.529923 -65.566038
v -100.844382 -64.529877 -6.419469
v -94.647816 -48.356672 -2.396919
v -81.433723 -64.529923 21.378011
v -81.829548 -50.865981 21.278409
v -72.783743 -24.354690 18.953521
v -74.696227 -21.802766 -6.281714
v -52.867944 -10.273637 -21.479279
v -56.954162 -64.529911 34.546694
v -57.512259 -46.740769 33.574825
v -53.702186 -25.154694 39.674377
v -23.398414 -43.644764 53.517300
v -36.070730 -23.581236 45.861473
v -24.911319 -64.529946 49.252333
v -53.787655 6.259626 13.801477
v -56.813100 8.341272 -3.234859
v -38.455351 4.595273 16.229915
v -15.822864 -0.237748 51.998301
v 3.729970 15.755627 54.628865
v 19.212853 24.181208 51.064638
v -7.060163 -16.546743 68.477366
v 13.678694 2.973000 65.407481
v 27.854962 16.266060 63.977464
v 42.939490 31.037318 51.071160
v 51.604627 20.014451 46.622716
v 58.445474 0.432163 41.764625
v 63.484585 -31.537040 42.742464
v 72.746415 -64.513845 50.328190
v 48.632852 15.700477 56.507166
v 37.397427 8.301300 66.982145
v 29.363860 -8.859054 69.169746
v 17.015907 -28.455130 69.546914
v 11.472059 -48.160070 67.206793
v 9.423689 -64.529934 64.511573
v 45.618199 -64.513891 65.681998
v 43.796067 -28.408948 67.761417
v 51.693760 -12.894146 67.961833
v 49.276153 4.690965 58.548088
vt 0.989056 0.159862
vt 0.372178 0.829714
vt 0.883586 0.246072
vt 0.300958 0.929112
vt 0.239583 0.880755
vt 0.291327 0.792645
vt 0.173705 0.813720
vt 0.264938 0.766211
vt 0.403884 0.669951
vt 0.484785 0.589341
vt 0.546702 0.605277
vt 0.465202 0.713578
vt 0.765416 0.422358
vt 0.689007 0.489129
vt 0.567973 0.544772
vt 0.628586 0.515761
vt 0.647136 0.377117
vt 0.700148 0.373016
vt 0.757446 0.326785
vt 0.821326 0.212621
vt 0.884514 0.111509
vt 0.109266 0.730358
vt 0.225094 0.659962
vt 0.322764 0.685261
vt 0.414126 0.560990
vt 0.465359 0.492796
vt 0.221423 0.531551
vt 0.315345 0.518212
vt 0.296863 0.402860
vt 0.392571 0.415877
vt 0.510962 0.521583
vt 0.537829 0.461408
vt 0.463322 0.421027
vt 0.510179 0.385983
vt 0.563061 0.415376
vt 0.433777 0.347592
vt 0.063277 0.577604
vt 0.056862 0.477839
vt 0.079239 0.274204
vt 0.021014 0.286724
vt 0.014667 0.476338
vt 0.038393 0.579871
vt 0.066630 0.181975
vt 0.176870 0.107400
vt 0.195455 0.147474
vt 0.119528 0.207002
vt 0.242838 0.221907
vt 0.189327 0.286543
vt 0.213359 0.380474
vt 0.154786 0.415132
vt 0.278823 0.070308
vt 0.290990 0.126720
vt 0.328615 0.187636
vt 0.430568 0.109377
vt 0.389116 0.183838
vt 0.410999 0.043030
vt 0.273401 0.342777
vt 0.306970 0.306823
vt 0.350107 0.318290
vt 0.465256 0.250193
vt 0.530580 0.297167
vt 0.577166 0.333682
vt 0.506891 0.187144
vt 0.566231 0.250219
vt 0.607008 0.293306
vt 0.648485 0.354593
vt 0.687009 0.340903
vt 0.737356 0.296088
vt 0.779262 0.194012
vt 0.808883 0.081762
vt 0.635864 0.271407
vt 0.670164 0.310396
vt 0.616924 0.216495
vt 0.583470 0.153010
vt 0.565894 0.088542
vt 0.557441 0.035237
vt 0.697384 0.053059
vt 0.674106 0.165068
vt 0.683106 0.218316
vt 0.679833 0.278292
vt 0.606823 0.594415
vt 0.574605 0.691178
vt 0.474101 0.869056
vt 0.388948 0.980113
vn 0.877356 0.468885 0.101950
vn 0.878997 0.379463 -0.288744
vn 0.921712 0.364283 0.133209
vn 0.838260 0.370559 -0.400008
vn 0.737110 0.259009 -0.624166
vn 0.693760 0.340294 -0.634742
vn 0.291132 0.231554 -0.928238
vn 0.299306 0.318847 -0.899307
vn 0.510817 0.451221 -0.731755
vn 0.426698 0.433884 -0.793520
vn 0.799037 0.375360 -0.469729
vn 0.858576 0.349310 -0.375272
vn 0.944793 0.305298 0.118993
vn 0.924903 0.335352 0.179148
vn 0.341560 0.886875 -0.311110
vn 0.511067 0.633883 0.580520
vn 0.445819 0.419485 0.790745
vn 0.795897 0.274335 0.539711
vn 0.849324 0.220179 0.479760
vn 0.838782 0.298208 0.455540
vn 0.818708 0.389226 0.422162
vn 0.155050 0.309496 -0.938174
vn 0.130403 0.442909 -0.887032
vn 0.076430 0.569973 -0.818101
vn -0.121152 0.436270 -0.891623
vn -0.470817 0.703903 -0.531838
vn -0.132407 0.621228 -0.772363
vn -0.172013 0.640317 -0.748603
vn -0.379350 0.780817 -0.496406
vn -0.657574 0.667288 -0.349747
vn -0.166420 0.876665 -0.451401
vn -0.404213 0.898888 0.169154
vn -0.669318 0.735295 0.106559
vn -0.595055 0.604990 0.529053
vn -0.093581 0.624528 0.775375
vn -0.694775 0.521206 0.495613
vn -0.097506 0.288958 -0.952363
vn -0.408946 0.263810 -0.873594
vn -0.701867 0.460778 -0.543200
vn -0.646483 0.137471 -0.750441
vn -0.425402 -0.324205 -0.844940
vn -0.186827 -0.513225 -0.837673
vn -0.960628 0.156772 0.229383
vn -0.678562 0.057380 0.732298
vn -0.715854 0.137110 0.684656
vn -0.892562 0.363910 0.266275
vn -0.784345 0.475521 0.398349
vn -0.750274 0.631759 -0.194858
vn -0.496570 0.678422 -0.541444
vn -0.479164 0.586599 -0.652919
vn -0.462074 -0.035177 0.886143
vn -0.451053 -0.067823 0.889916
vn -0.440036 0.332225 0.834263
vn -0.475994 -0.061935 0.877265
vn -0.560722 0.291859 0.774861
vn -0.429359 -0.095148 0.898108
vn -0.711547 0.695183 -0.102088
vn -0.557804 0.706757 0.435143
vn -0.541481 0.663206 0.516678
vn -0.631169 0.411244 0.657650
vn -0.488287 0.492346 0.720536
vn 0.045498 0.505632 0.861549
vn -0.419499 0.132971 0.897964
vn -0.224282 0.305487 0.925405
vn -0.034757 0.478073 0.877632
vn 0.337047 0.773224 0.537144
vn 0.880419 0.447525 0.156794
vn 0.918811 0.241875 0.311902
vn 0.830515 0.268572 0.487969
vn 0.724241 0.266255 0.636068
vn 0.156933 0.316829 0.935410
vn 0.554740 0.411932 0.722894
vn -0.020097 0.102701 0.994509
vn -0.017101 0.003378 0.999848
vn -0.216618 -0.144908 0.965442
vn -0.301378 -0.141392 0.942963
vn 0.279874 -0.049328 0.958769
vn 0.377937 -0.031499 0.925295
vn 0.704855 0.034946 0.708490
vn 0.781970 0.306622 0.542684
s 1
g polySurface1407
f 1/84/1 3/2/2 4/83/3
f 3/2/2 2/4/4 5/5/5 6/6/6
f 8/7/7 7/8/8 6/6/6 5/5/5
f 12/9/9 9/10/10 10/11/11 11/12/12
f 11/12/12 3/2/2 6/6/6
f 13/82/13 4/83/3 3/2/2 11/12/12
f 11/12/12 10/11/11 14/81/14 13/82/13
f 9/10/10 16/15/15 10/11/11
f 17/16/16 14/81/14 10/11/11 16/15/15
f 17/16/16 18/17/17 19/18/18 14/14/14
f 14/14/14 19/18/18 20/19/19 13/13/13
f 20/19/19 21/20/20 4/3/3 13/13/13
f 21/20/20 22/21/21 1/1/1 4/3/3
f 24/22/22 23/23/23 7/8/8 8/7/7
f 25/24/24 7/8/8 23/23/23
f 7/8/8 12/9/9 6/6/6
f 9/10/10 12/9/9 26/25/25
f 26/25/25 27/26/26 9/10/10
f 28/27/27 25/24/24 23/23/23
f 29/28/28 27/26/26 26/25/25
f 29/28/28 31/29/29 30/30/30
f 15/31/31 32/32/32 16/15/15
f 27/26/26 32/32/32 15/31/31
f 33/33/33 27/26/26 30/30/30
f 33/33/33 34/34/34 35/35/35 32/32/32
f 35/35/35 17/16/16 32/32/32
f 36/36/36 33/33/33 30/30/30
f 37/37/37 23/23/23 24/22/22
f 39/38/38 28/27/27 37/37/37
f 41/39/39 39/38/38 40/40/40
f 42/41/41 40/40/40 39/38/38
f 43/42/42 42/41/41 37/37/37
f 24/22/22 43/42/42 37/37/37
f 40/40/40 44/43/43 41/39/39
f 44/43/43 46/44/44 47/45/45 45/46/46
f 47/45/45 48/47/47 45/46/46
f 45/46/46 49/48/48 41/39/39
f 49/48/48 50/49/49 38/50/50 41/39/39
f 50/49/49 31/29/29 28/27/27 38/50/50
f 46/44/44 51/51/51 52/52/52 47/45/45
f 53/53/53 47/45/45 52/52/52
f 52/52/52 54/54/54 55/55/55 53/53/53
f 54/54/54 52/52/52 51/51/51 56/56/56
f 58/57/57 49/48/48 48/47/47 57/58/58
f 53/53/53 57/58/58 48/47/47
f 55/55/55 59/59/59 57/58/58 53/53/53
f 31/29/29 50/49/49 58/57/57
f 59/59/59 30/30/30 31/29/29
f 58/57/57 57/58/58 31/29/29
f 60/60/60 36/36/36 59/59/59 55/55/55
f 60/60/60 61/61/61 34/34/34 36/36/36
f 62/62/62 18/17/17 17/16/16 35/35/35
f 61/61/61 35/35/35 34/34/34
f 54/54/54 63/63/63 60/60/60 55/55/55
f 63/63/63 64/64/64 61/61/61 60/60/60
f 64/64/64 65/65/65 61/61/61
f 66/66/66 62/62/62 65/65/65
f 67/67/67 19/18/18 18/17/17 66/66/66
f 20/19/19 19/18/18 67/67/67 68/68/68
f 68/68/68 69/69/69 21/20/20 20/19/19
f 69/69/69 70/70/70 22/21/21 21/20/20
f 72/71/71 71/72/72 66/66/66 65/65/65
f 65/65/65 64/64/64 73/73/73 72/71/71
f 74/74/74 73/73/73 64/64/64 63/63/63
f 75/75/75 63/63/63 54/54/54
f 75/75/75 54/54/54 56/56/56 76/76/76
f 75/75/75 77/77/77 78/78/78
f 70/70/70 78/78/78 77/77/77
f 78/78/78 73/73/73 74/74/74
f 75/75/75 78/78/78 74/74/74
f 78/78/78 69/69/69 79/79/79
f 79/79/79 72/71/71 73/73/73
f 71/72/72 67/67/67 66/66/66
f 80/80/80 71/72/72 72/71/71
f 79/79/79 68/68/68 80/80/80
f 68/68/68 71/72/72 80/80/80
f 9/10/10 27/26/26 15/31/31
f 62/62/62 35/35/35 61/61/61
f 71/72/72 68/68/68 67/67/67
f 61/61/61 65/65/65 62/62/62
f 79/79/79 69/69/69 68/68/68
f 74/74/74 63/63/63 75/75/75
f 79/79/79 73/73/73 78/78/78
f 79/79/79 80/80/80 72/71/71
f 25/24/24 29/28/28 26/25/25
f 29/28/28 25/24/24 28/27/27
f 28/27/27 31/29/29 29/28/28
f 58/57/57 50/49/49 49/48/48
f 53/53/53 48/47/47 47/45/45
f 45/46/46 48/47/47 49/48/48
f 37/37/37 28/27/27 23/23/23
f 37/37/37 42/41/41 39/38/38
f 39/38/38 38/50/50 28/27/27
f 18/17/17 62/62/62 66/66/66
f 59/59/59 36/36/36 30/30/30
f 29/28/28 30/30/30 27/26/26
f 36/36/36 34/34/34 33/33/33
f 9/10/10 15/31/31 16/15/15
f 16/15/15 32/32/32 17/16/16
f 27/26/26 33/33/33 32/32/32
f 7/8/8 25/24/24 12/9/9
f 26/25/25 12/9/9 25/24/24
f 11/12/12 6/6/6 12/9/9
f 41/39/39 44/43/43 45/46/46
f 41/39/39 38/50/50 39/38/38
f 31/29/29 57/58/58 59/59/59
f 76/76/76 77/77/77 75/75/75
f 69/69/69 78/78/78 70/70/70
f 1/84/1 2/4/4 3/2/2
