# This file uses centimeters as units for non-parametric coordinates.

g default
v 114.295624 115.425284 76.235321
v 113.994206 115.424092 76.346577
v 113.987451 115.651420 76.432272
v 114.263324 115.843581 76.307168
v 114.158211 115.914201 76.433192
v 114.397696 115.184080 76.345789
v 114.128802 115.184081 76.392358
v 113.861825 115.494921 76.444567
v 113.813675 115.491692 76.712143
v 114.012630 115.184081 76.578694
v 113.726420 115.184081 76.961130
v 113.689129 115.419435 76.907290
v 113.791763 115.738301 76.736129
v 113.809465 115.802102 76.914113
v 113.916195 116.037523 76.676779
v 113.826842 116.268233 76.963176
v 114.075553 116.530152 76.718795
v 114.238487 116.139094 76.535638
v 114.309503 116.492285 76.567682
v 113.871099 116.315354 77.259381
v 114.003799 116.581130 76.885728
v 114.195939 116.747419 77.140527
v 114.527126 116.616512 76.984594
v 114.505275 116.475562 76.567342
v 114.612587 116.516212 76.670482
v 114.632559 116.536072 76.802779
v 114.413776 116.715701 77.188446
v 114.240725 116.702715 77.283683
v 114.639890 116.277190 77.123464
v 114.777909 116.214256 76.868861
v 114.345059 116.343272 77.431384
v 114.122027 116.346233 77.486007
v 114.213352 116.163839 77.457143
v 113.868657 116.099716 77.290816
v 113.754066 115.821477 77.280491
v 113.607785 115.487102 77.046261
v 113.608839 115.184081 77.059033
v 113.531549 115.184081 77.213737
v 113.518477 115.296106 77.221317
v 113.837140 115.184081 77.354198
v 113.613333 115.400469 77.381992
v 113.984940 115.184081 77.430400
v 113.944536 115.383467 77.521095
v 113.882912 115.799986 77.408596
v 113.849892 115.517377 77.478536
v 114.469009 116.034856 77.526495
v 114.190984 115.625380 77.623664
v 114.252719 115.422022 77.599209
v 114.225241 115.306748 77.681548
v 114.261286 115.184080 77.599602
v 114.371625 115.184080 77.536368
v 114.395195 115.375010 77.657947
v 114.573970 115.297446 77.564720
v 114.524382 115.184080 77.224968
v 114.748751 115.306849 77.309677
v 114.330541 115.510629 77.468943
v 114.616629 115.513569 77.476201
v 114.654739 115.777351 77.432000
v 114.514974 115.947134 77.504746
v 114.624615 116.067201 77.402231
v 114.714001 116.207450 77.094324
v 114.749404 115.890586 77.354110
v 114.828252 116.088363 76.919136
v 114.869019 115.742601 76.950301
v 114.883268 115.716755 77.206067
v 114.772077 115.620920 77.286032
v 114.774106 115.562391 77.154552
v 114.768633 115.555626 76.986034
v 114.765142 115.315653 76.912448
v 114.702592 115.184080 76.859965
v 114.784967 115.184081 76.472652
v 114.761489 115.435366 76.740798
v 114.812622 115.973298 76.561906
v 114.677441 116.019759 76.497333
v 114.851965 116.112023 76.629333
v 114.883064 116.005484 76.627715
v 114.804647 115.744503 76.780240
v 114.767495 115.835950 76.583024
v 114.861199 115.482925 76.565501
v 114.713105 115.429061 76.398296
v 114.431091 115.834738 76.347064
v 114.621408 115.184081 76.399467
vt 0.791444 0.848068
vt 0.702206 0.829157
vt 0.704689 0.756022
vt 0.802002 0.724861
vt 0.770703 0.683560
vt 0.806234 0.930002
vt 0.706339 0.914329
vt 0.661895 0.799093
vt 0.627636 0.901280
vt 0.585313 0.781128
vt 0.471773 0.848242
vt 0.508278 0.779310
vt 0.611099 0.703938
vt 0.570923 0.664498
vt 0.681583 0.620860
vt 0.625380 0.526393
vt 0.662346 0.142585
vt 0.798045 0.605379
vt 0.578816 0.086294
vt 0.560438 0.480521
vt 0.689410 0.424340
vt 0.620838 0.309315
vt 0.525345 0.217678
vt 0.511017 0.080115
vt 0.487301 0.162046
vt 0.486153 0.123149
vt 0.569872 0.325098
vt 0.550068 0.281362
vt 0.411872 0.255033
vt 0.377152 0.177106
vt 0.462899 0.369574
vt 0.499788 0.418873
vt 0.511509 0.530681
vt 0.445919 0.434819
vt 0.469907 0.742491
vt 0.467036 0.611568
vt 0.421915 0.826398
vt 0.387487 0.766563
vt 0.364961 0.792996
vt 0.366972 0.707421
vt 0.268675 0.715594
vt 0.230803 0.669230
vt 0.288417 0.626138
vt 0.344752 0.629144
vt 0.421894 0.577408
vt 0.308662 0.521533
vt 0.370656 0.392835
vt 0.241453 0.532535
vt 0.206074 0.556206
vt 0.163747 0.567993
vt 0.127860 0.525510
vt 0.195571 0.506328
vt 0.156951 0.457792
vt 0.055155 0.401320
vt 0.130694 0.367591
vt 0.209675 0.410564
vt 0.253327 0.483017
vt 0.276129 0.366412
vt 0.341649 0.390243
vt 0.355312 0.337915
vt 0.382507 0.243134
vt 0.294910 0.322257
vt 0.334874 0.191388
vt 0.232410 0.286397
vt 0.227226 0.211496
vt 0.212272 0.327125
vt 0.165130 0.240743
vt 0.180783 0.291742
vt 0.086506 0.246983
vt 0.039429 0.245231
vt 0.014329 0.116464
vt 0.109877 0.178242
vt 0.304075 0.110646
vt 0.298563 0.085664
vt 0.936482 0.662363
vt 0.337969 0.107510
vt 0.977712 0.726468
vt 0.215394 0.157438
vt 0.991874 0.849088
vt 0.853064 0.723937
vt 0.922701 0.863156
vt 0.883205 0.936865
vt 0.889598 0.505741
vt 0.328106 0.038665
vt 0.246879 0.087010
vt 0.117812 0.111054
vt 0.941903 0.942843
vt 0.828414 0.493614
vt 0.683877 0.204857
vt 0.743811 0.461476
vn -0.009941 -0.029045 -0.999529
vn -0.471009 -0.003528 -0.882121
vn -0.568797 0.317225 -0.758840
vn -0.012258 0.267048 -0.963605
vn -0.352763 0.484244 -0.800666
vn 0.113376 -0.291962 -0.949686
vn -0.501734 -0.488258 -0.714050
vn -0.848042 -0.109767 -0.518436
vn -0.807510 -0.433873 -0.399602
vn -0.888037 -0.198703 -0.414616
vn -0.776051 -0.214975 -0.592900
vn -0.830100 -0.100169 -0.548544
vn -0.896948 0.235302 -0.374323
vn -0.928809 0.279883 -0.242859
vn -0.758942 0.270579 -0.592279
vn -0.954130 0.221883 -0.201009
vn -0.462685 0.634946 -0.618681
vn -0.270226 0.301643 -0.914325
vn -0.172047 0.574881 -0.799945
vn -0.877755 0.283809 0.386004
vn -0.533289 0.804674 -0.260966
vn -0.366257 0.930511 -0.002404
vn 0.616314 0.775270 0.138254
vn 0.143028 0.529297 -0.836294
vn 0.785733 0.610459 0.099821
vn 0.639009 0.606516 -0.473082
vn -0.232321 0.684647 0.690859
vn 0.628559 0.580236 0.517919
vn 0.762111 0.444890 0.470383
vn 0.878846 0.452773 0.150420
vn 0.555632 0.393928 0.732184
vn -0.392999 0.356884 0.847458
vn -0.872752 0.171199 0.457160
vn -0.342330 0.205761 0.916773
vn -0.931952 0.320032 -0.170427
vn -0.860971 0.436093 0.261825
vn -0.833182 -0.085609 -0.546332
vn -0.974920 0.052018 0.216393
vn -0.884830 -0.344706 0.313454
vn -0.820906 0.138596 0.553990
vn -0.400946 -0.456475 0.794275
vn -0.433322 -0.484055 0.760212
vn -0.411534 -0.306873 0.858178
vn -0.485164 0.225042 0.844969
vn -0.443533 0.298692 0.845022
vn -0.102106 0.114966 0.988108
vn 0.091073 0.276507 0.956687
vn -0.056179 0.507649 0.859730
vn -0.282509 -0.321319 0.903849
vn -0.194359 -0.547431 0.813968
vn 0.402235 -0.786909 0.467954
vn 0.315883 0.339125 0.886122
vn 0.650659 -0.488190 0.581648
vn 0.517751 -0.833504 0.192886
vn 0.783906 -0.543807 0.299608
vn 0.465989 0.126926 0.875639
vn 0.305651 0.205914 0.929611
vn 0.391669 -0.014793 0.919987
vn 0.444740 -0.097862 0.890297
vn 0.686356 0.471084 0.554071
vn 0.777895 0.496139 0.385650
vn 0.846851 0.238657 0.475275
vn 0.923168 0.316770 0.217758
vn 0.965905 0.050170 0.253987
vn 0.998122 -0.018077 0.058525
vn 0.802904 -0.120516 0.583798
vn 0.973410 -0.226474 -0.034385
vn 0.973703 -0.227624 0.009443
vn 0.913149 -0.396150 0.096045
vn 0.852489 -0.505986 0.131304
vn 0.879792 -0.150061 -0.451052
vn 0.966664 -0.208332 0.148860
vn 0.974493 0.038688 -0.221059
vn 0.693223 -0.176718 -0.698722
vn 0.256603 0.270731 -0.927825
vn 0.783382 0.414462 -0.463178
vn 0.720020 0.109665 -0.685233
vn 0.968026 -0.217641 -0.124729
vn 0.831755 0.118582 -0.542330
vn 0.296991 0.305601 -0.904657
vn 0.504658 0.096006 -0.857964
vn 0.405201 -0.166356 -0.898965
s 1
g polySurface1219
f 1/1/1 2/2/2 3/3/3 4/4/4
f 5/5/5 4/4/4 3/3/3
f 2/2/2 1/1/1 6/6/6 7/7/7
f 7/7/7 8/8/8 2/2/2
f 10/9/9 9/10/10 8/8/8 7/7/7
f 10/9/9 11/11/11 12/12/12 9/10/10
f 9/10/10 13/13/13 8/8/8
f 13/13/13 9/10/10 12/12/12 14/14/14
f 13/13/13 3/3/3 2/2/2 8/8/8
f 3/3/3 13/13/13 14/14/14 15/15/15
f 14/14/14 16/16/16 17/90/17 15/15/15
f 5/5/5 3/3/3 15/15/15 18/18/18
f 15/15/15 17/90/17 19/88/19 18/18/18
f 17/90/17 16/16/16 20/20/20 21/21/21
f 21/89/21 22/22/22 23/23/23 17/17/17
f 24/24/24 19/19/19 17/17/17 23/23/23
f 26/25/25 25/26/26 24/24/24 23/23/23
f 28/27/27 27/28/28 23/23/23 22/22/22
f 23/23/23 29/29/29 30/30/30 26/25/25
f 31/31/31 29/29/29 23/23/23 27/28/28
f 28/27/27 32/32/32 31/31/31 27/28/28
f 22/22/22 21/21/21 20/20/20
f 32/32/32 28/27/27 22/22/22 20/20/20
f 34/33/33 33/34/34 32/32/32 20/20/20
f 32/32/32 33/34/34 31/31/31
f 14/14/14 34/33/33 20/20/20 16/16/16
f 36/35/35 35/36/36 34/33/33 14/14/14
f 12/12/12 36/35/35 14/14/14
f 37/37/37 36/35/35 12/12/12 11/11/11
f 39/38/38 36/35/35 37/37/37 38/39/39
f 41/40/40 39/38/38 38/39/39 40/41/41
f 41/40/40 35/36/36 36/35/35 39/38/38
f 41/40/40 40/41/41 42/42/42 43/43/43
f 45/44/44 44/45/45 35/36/36 41/40/40
f 45/44/44 41/40/40 43/43/43
f 34/33/33 35/36/36 44/45/45 33/34/34
f 47/46/46 46/47/47 33/34/34 44/45/45
f 45/44/44 47/46/46 44/45/45
f 45/44/44 48/48/48 47/46/46
f 48/48/48 45/44/44 43/43/43
f 48/48/48 43/43/43 49/49/49
f 42/42/42 50/50/50 49/49/49 43/43/43
f 49/49/49 50/50/50 51/51/51 52/52/52
f 53/53/53 52/52/52 51/51/51
f 51/51/51 54/54/54 55/55/55 53/53/53
f 48/48/48 49/49/49 52/52/52
f 57/56/56 56/57/57 48/48/48 52/52/52
f 57/56/56 58/58/58 59/59/59 56/57/57
f 56/57/57 59/59/59 46/47/47 47/46/46
f 47/46/46 48/48/48 56/57/57
f 46/47/47 31/31/31 33/34/34
f 29/29/29 31/31/31 46/47/47
f 29/29/29 46/47/47 60/60/60 61/61/61
f 59/59/59 58/58/58 62/62/62 60/60/60
f 59/59/59 60/60/60 46/47/47
f 61/61/61 63/63/63 30/30/30 29/29/29
f 61/61/61 60/60/60 62/62/62 63/63/63
f 65/64/64 64/65/65 63/63/63 62/62/62
f 58/58/58 66/66/66 65/64/64 62/62/62
f 68/67/67 64/65/65 65/64/64 67/68/68
f 66/66/66 67/68/68 65/64/64
f 57/56/56 66/66/66 58/58/58
f 53/53/53 55/55/55 57/56/56 52/52/52
f 55/55/55 66/66/66 57/56/56
f 69/69/69 68/67/67 67/68/68 55/55/55
f 55/55/55 67/68/68 66/66/66
f 69/69/69 55/55/55 54/54/54 70/70/70
f 70/70/70 71/71/71 72/72/72 69/69/69
f 72/72/72 68/67/67 69/69/69
f 76/73/73 73/74/74 74/84/75 75/76/76
f 75/76/76 30/30/30 63/63/63 76/73/73
f 64/65/65 76/73/73 63/63/63
f 78/85/77 73/74/74 76/73/73 77/78/78
f 72/72/72 77/78/78 64/65/65 68/67/67
f 77/78/78 76/73/73 64/65/65
f 79/86/79 72/72/72 71/71/71
f 79/86/79 77/78/78 72/72/72
f 79/86/79 78/85/77 77/78/78
f 81/80/80 80/81/81 1/1/1 4/4/4
f 6/6/6 1/1/1 80/81/81 82/82/82
f 82/82/82 80/81/81 79/79/79 71/87/71
f 78/77/77 79/79/79 80/81/81 81/80/80
f 78/85/77 74/84/75 73/74/74
f 78/77/77 81/80/80 74/75/75
f 81/80/80 5/5/5 18/18/18 74/75/75
f 81/80/80 4/4/4 5/5/5
f 74/75/75 18/18/18 19/88/19 24/83/24
f 74/84/75 24/24/24 25/26/26 75/76/76
f 26/25/25 30/30/30 75/76/76 25/26/26
