# This file uses centimeters as units for non-parametric coordinates.

g default
v -3.269257 -0.000000 2.605312
v 3.230852 -0.000000 2.605312
v -3.269257 -0.000000 -2.193393
v 2.735544 -0.000000 -0.311569
v -0.019203 -0.000000 -2.287677
v -0.019203 -0.000000 2.605312
v -1.644230 -0.000000 -2.190784
v -1.644230 -0.000000 2.605312
v 1.605825 -0.000000 -1.699065
v 1.605825 -0.000000 2.605312
v 0.793311 -0.000000 -2.017930
v 0.793311 -0.000000 2.605312
v -0.831716 -0.000000 -2.232893
v -0.831716 -0.000000 2.605312
v -2.456744 -0.000000 -2.144749
v -2.456744 -0.000000 2.605312
v 2.418338 -0.000000 -1.357739
v 2.418338 -0.000000 2.605312
vt 0.973504 0.947727
vt 0.020733 0.947727
vt 0.093314 0.411179
vt 0.973534 0.065025
vt 0.497117 0.047682
vt 0.497119 0.947727
vt 0.735324 0.065505
vt 0.735312 0.947727
vt 0.258910 0.155955
vt 0.258926 0.947727
vt 0.378013 0.097301
vt 0.378022 0.947727
vt 0.616220 0.057759
vt 0.616215 0.947727
vt 0.854429 0.073973
vt 0.854408 0.947727
vt 0.139807 0.218740
vt 0.139830 0.947727
vn 0.000000 1.000000 0.000000
vn 0.000000 1.000000 0.000000
vn 0.000000 1.000000 0.000000
vn 0.000000 1.000000 0.000000
vn 0.000000 1.000000 0.000000
vn 0.000000 1.000000 0.000000
vn 0.000000 1.000000 0.000000
vn 0.000000 1.000000 0.000000
vn 0.000000 1.000000 0.000000
vn 0.000000 1.000000 0.000000
vn 0.000000 1.000000 0.000000
vn 0.000000 1.000000 0.000000
vn 0.000000 1.000000 0.000000
vn 0.000000 1.000000 0.000000
vn 0.000000 1.000000 0.000000
vn 0.000000 1.000000 0.000000
vn 0.000000 1.000000 0.000000
vn 0.000000 1.000000 0.000000
s 1
g pCube394
f 18/18/1 2/2/2 4/3/3 17/17/4
f 14/14/5 6/6/6 5/5/7 13/13/8
f 16/16/9 8/8/10 7/7/11 15/15/12
f 12/12/13 10/10/14 9/9/15 11/11/16
f 6/6/6 12/12/13 11/11/16 5/5/7
f 8/8/10 14/14/5 13/13/8 7/7/11
f 1/1/17 16/16/9 15/15/12 3/4/18
f 10/10/14 18/18/1 17/17/4 9/9/15
