# 3ds Max Wavefront OBJ Exporter v0.97b - (c)2007 guruware
# File Created: 21.04.2016 14:50:23

mtllib daoguang02.mtl

#
# object Sphere001
#

v  0.0000 0.9580 -12.3070
v  -2.4010 0.9580 -12.0706
v  -1.7801 1.7621 -8.9492
v  0.0000 1.7621 -9.1245
v  -4.7097 0.9580 -11.3702
v  -3.4918 1.7621 -8.4300
v  -6.8374 0.9580 -10.2329
v  -5.0693 1.7621 -7.5868
v  -8.7024 0.9580 -8.7024
v  -6.4520 1.7621 -6.4520
v  -10.2329 0.9580 -6.8374
v  -7.5868 1.7621 -5.0693
v  -11.3702 0.9580 -4.7097
v  -8.4300 1.7621 -3.4918
v  -12.0706 0.9580 -2.4010
v  -8.9492 1.7621 -1.7801
v  -12.3070 0.9580 -0.0000
v  -9.1245 1.7621 -0.0000
v  -12.0706 0.9580 2.4010
v  -8.9492 1.7621 1.7801
v  -11.3702 0.9580 4.7097
v  -8.4300 1.7621 3.4918
v  -10.2329 0.9580 6.8374
v  -7.5868 1.7621 5.0693
v  -8.7024 0.9580 8.7024
v  -6.4520 1.7621 6.4520
v  -6.8374 0.9580 10.2329
v  -5.0693 1.7621 7.5868
v  -4.7097 0.9580 11.3702
v  -3.4918 1.7621 8.4300
v  -2.4010 0.9580 12.0706
v  -1.7801 1.7621 8.9492
v  0.0000 0.9580 12.3070
v  0.0000 1.7621 9.1245
v  2.4010 0.9580 12.0706
v  1.7801 1.7621 8.9492
v  4.7097 0.9580 11.3702
v  3.4918 1.7621 8.4300
v  6.8374 0.9580 10.2329
v  5.0693 1.7621 7.5868
v  8.7024 0.9580 8.7024
v  6.4520 1.7621 6.4520
v  10.2329 0.9580 6.8374
v  7.5868 1.7621 5.0693
v  11.3702 0.9580 4.7097
v  8.4300 1.7621 3.4918
v  12.0706 0.9580 2.4010
v  8.9492 1.7621 1.7801
v  12.3070 0.9580 -0.0000
v  9.1245 1.7621 -0.0000
v  12.0706 0.9580 -2.4010
v  8.9492 1.7621 -1.7801
v  11.3702 0.9580 -4.7097
v  8.4300 1.7621 -3.4918
v  10.2329 0.9580 -6.8374
v  7.5868 1.7621 -5.0693
v  8.7024 0.9580 -8.7024
v  6.4520 1.7621 -6.4520
v  6.8374 0.9580 -10.2330
v  5.0693 1.7621 -7.5868
v  4.7097 0.9580 -11.3702
v  3.4918 1.7621 -8.4300
v  2.4010 0.9580 -12.0706
v  1.7801 1.7621 -8.9492
v  0.0000 0.0000 -14.2948
v  -2.7888 0.0000 -14.0201
v  -5.4704 0.0000 -13.2067
v  -7.9418 0.0000 -11.8857
v  -10.1079 0.0000 -10.1079
v  -11.8857 0.0000 -7.9418
v  -13.2067 0.0000 -5.4704
v  -14.0201 0.0000 -2.7888
v  -14.2948 0.0000 -0.0000
v  -14.0201 0.0000 2.7888
v  -13.2067 0.0000 5.4704
v  -11.8857 0.0000 7.9418
v  -10.1079 0.0000 10.1079
v  -7.9417 0.0000 11.8857
v  -5.4704 0.0000 13.2067
v  -2.7888 0.0000 14.0201
v  0.0000 0.0000 14.2948
v  2.7888 0.0000 14.0201
v  5.4704 0.0000 13.2067
v  7.9418 0.0000 11.8857
v  10.1080 0.0000 10.1079
v  11.8857 0.0000 7.9417
v  13.2067 0.0000 5.4704
v  14.0201 0.0000 2.7888
v  14.2948 0.0000 -0.0000
v  14.0201 0.0000 -2.7888
v  13.2067 0.0000 -5.4704
v  11.8857 0.0000 -7.9418
v  10.1079 0.0000 -10.1080
v  7.9417 0.0000 -11.8857
v  5.4704 0.0000 -13.2067
v  2.7887 0.0000 -14.0201
v  0.0000 -0.9531 -12.3071
v  -2.4010 -0.9531 -12.0706
v  -4.7097 -0.9531 -11.3702
v  -6.8374 -0.9531 -10.2329
v  -8.7024 -0.9531 -8.7024
v  -10.2329 -0.9531 -6.8374
v  -11.3702 -0.9531 -4.7097
v  -12.0706 -0.9531 -2.4010
v  -12.3070 -0.9531 0.0000
v  -12.0706 -0.9531 2.4010
v  -11.3702 -0.9531 4.7097
v  -10.2329 -0.9531 6.8374
v  -8.7024 -0.9531 8.7024
v  -6.8374 -0.9531 10.2329
v  -4.7097 -0.9531 11.3702
v  -2.4010 -0.9531 12.0706
v  0.0000 -0.9531 12.3070
v  2.4010 -0.9531 12.0706
v  4.7097 -0.9531 11.3702
v  6.8374 -0.9531 10.2329
v  8.7024 -0.9531 8.7024
v  10.2329 -0.9531 6.8374
v  11.3702 -0.9531 4.7097
v  12.0706 -0.9531 2.4010
v  12.3070 -0.9531 0.0000
v  12.0706 -0.9531 -2.4010
v  11.3702 -0.9531 -4.7097
v  10.2329 -0.9531 -6.8374
v  8.7024 -0.9531 -8.7024
v  6.8374 -0.9531 -10.2330
v  4.7097 -0.9531 -11.3702
v  2.4010 -0.9531 -12.0706
v  0.0000 -1.7419 -9.1245
v  -1.7801 -1.7419 -8.9492
v  -3.4918 -1.7419 -8.4300
v  -5.0693 -1.7419 -7.5868
v  -6.4520 -1.7419 -6.4520
v  -7.5868 -1.7419 -5.0693
v  -8.4300 -1.7419 -3.4918
v  -8.9492 -1.7419 -1.7801
v  -9.1245 -1.7419 0.0000
v  -8.9492 -1.7419 1.7801
v  -8.4300 -1.7419 3.4918
v  -7.5868 -1.7419 5.0693
v  -6.4520 -1.7419 6.4520
v  -5.0693 -1.7419 7.5868
v  -3.4918 -1.7419 8.4300
v  -1.7801 -1.7419 8.9492
v  0.0000 -1.7419 9.1245
v  1.7801 -1.7419 8.9492
v  3.4918 -1.7419 8.4300
v  5.0693 -1.7419 7.5868
v  6.4520 -1.7419 6.4520
v  7.5868 -1.7419 5.0693
v  8.4300 -1.7419 3.4918
v  8.9492 -1.7419 1.7801
v  9.1245 -1.7419 0.0000
v  8.9492 -1.7419 -1.7801
v  8.4300 -1.7419 -3.4918
v  7.5868 -1.7419 -5.0693
v  6.4520 -1.7419 -6.4520
v  5.0693 -1.7419 -7.5868
v  3.4918 -1.7419 -8.4300
v  1.7801 -1.7419 -8.9492
# 160 vertices

vn 0.0000 0.7287 -0.6849
vn -0.1336 0.7287 -0.6717
vn -0.1001 0.8584 -0.5032
vn 0.0000 0.8584 -0.5130
vn -0.2621 0.7287 -0.6327
vn -0.1963 0.8584 -0.4740
vn -0.3805 0.7287 -0.5695
vn -0.2850 0.8584 -0.4266
vn -0.4843 0.7287 -0.4843
vn -0.3628 0.8584 -0.3628
vn -0.5695 0.7287 -0.3805
vn -0.4266 0.8584 -0.2850
vn -0.6327 0.7287 -0.2621
vn -0.4740 0.8584 -0.1963
vn -0.6717 0.7287 -0.1336
vn -0.5032 0.8584 -0.1001
vn -0.6849 0.7287 -0.0000
vn -0.5130 0.8584 -0.0000
vn -0.6717 0.7287 0.1336
vn -0.5032 0.8584 0.1001
vn -0.6327 0.7287 0.2621
vn -0.4740 0.8584 0.1963
vn -0.5695 0.7287 0.3805
vn -0.4266 0.8584 0.2850
vn -0.4843 0.7287 0.4843
vn -0.3628 0.8584 0.3628
vn -0.3805 0.7287 0.5695
vn -0.2850 0.8584 0.4266
vn -0.2621 0.7287 0.6327
vn -0.1963 0.8584 0.4740
vn -0.1336 0.7287 0.6717
vn -0.1001 0.8584 0.5032
vn 0.0000 0.7287 0.6849
vn 0.0000 0.8584 0.5130
vn 0.1336 0.7287 0.6717
vn 0.1001 0.8584 0.5032
vn 0.2621 0.7287 0.6327
vn 0.1963 0.8584 0.4740
vn 0.3805 0.7287 0.5695
vn 0.2850 0.8584 0.4266
vn 0.4843 0.7287 0.4843
vn 0.3628 0.8584 0.3628
vn 0.5695 0.7287 0.3805
vn 0.4266 0.8584 0.2850
vn 0.6327 0.7287 0.2621
vn 0.4740 0.8584 0.1963
vn 0.6717 0.7287 0.1336
vn 0.5032 0.8584 0.1001
vn 0.6849 0.7287 -0.0000
vn 0.5130 0.8584 -0.0000
vn 0.6717 0.7287 -0.1336
vn 0.5032 0.8584 -0.1001
vn 0.6327 0.7287 -0.2621
vn 0.4740 0.8584 -0.1963
vn 0.5694 0.7287 -0.3805
vn 0.4266 0.8584 -0.2850
vn 0.4843 0.7287 -0.4843
vn 0.3628 0.8584 -0.3628
vn 0.3805 0.7287 -0.5695
vn 0.2850 0.8584 -0.4266
vn 0.2621 0.7287 -0.6327
vn 0.1963 0.8584 -0.4740
vn 0.1336 0.7287 -0.6717
vn 0.1001 0.8584 -0.5032
vn 0.0000 0.0000 -1.0000
vn -0.1951 0.0000 -0.9808
vn -0.3827 0.0000 -0.9239
vn -0.5556 0.0000 -0.8315
vn -0.7071 0.0000 -0.7071
vn -0.8315 0.0000 -0.5556
vn -0.9239 0.0000 -0.3827
vn -0.9808 0.0000 -0.1951
vn -1.0000 0.0000 -0.0000
vn -0.9808 0.0000 0.1951
vn -0.9239 0.0000 0.3827
vn -0.8315 0.0000 0.5556
vn -0.7071 0.0000 0.7071
vn -0.5556 0.0000 0.8315
vn -0.3827 0.0000 0.9239
vn -0.1951 0.0000 0.9808
vn 0.0000 0.0000 1.0000
vn 0.1951 0.0000 0.9808
vn 0.3827 0.0000 0.9239
vn 0.5556 0.0000 0.8315
vn 0.7071 0.0000 0.7071
vn 0.8315 0.0000 0.5556
vn 0.9239 0.0000 0.3827
vn 0.9808 0.0000 0.1951
vn 1.0000 0.0000 -0.0000
vn 0.9808 0.0000 -0.1951
vn 0.9239 0.0000 -0.3827
vn 0.8315 0.0000 -0.5556
vn 0.7071 0.0000 -0.7071
vn 0.5556 0.0000 -0.8315
vn 0.3827 0.0000 -0.9239
vn 0.1951 0.0000 -0.9808
vn 0.0000 -0.7317 -0.6816
vn -0.1330 -0.7317 -0.6685
vn -0.2608 -0.7317 -0.6297
vn -0.3787 -0.7317 -0.5667
vn -0.4820 -0.7317 -0.4820
vn -0.5667 -0.7317 -0.3787
vn -0.6297 -0.7317 -0.2608
vn -0.6685 -0.7317 -0.1330
vn -0.6816 -0.7317 -0.0000
vn -0.6685 -0.7317 0.1330
vn -0.6297 -0.7317 0.2608
vn -0.5667 -0.7317 0.3787
vn -0.4820 -0.7317 0.4820
vn -0.3787 -0.7317 0.5667
vn -0.2608 -0.7317 0.6297
vn -0.1330 -0.7317 0.6685
vn 0.0000 -0.7317 0.6816
vn 0.1330 -0.7317 0.6685
vn 0.2608 -0.7317 0.6297
vn 0.3787 -0.7317 0.5667
vn 0.4820 -0.7317 0.4820
vn 0.5667 -0.7317 0.3787
vn 0.6297 -0.7317 0.2608
vn 0.6685 -0.7317 0.1330
vn 0.6816 -0.7317 -0.0000
vn 0.6685 -0.7317 -0.1330
vn 0.6297 -0.7317 -0.2608
vn 0.5667 -0.7317 -0.3787
vn 0.4820 -0.7317 -0.4820
vn 0.3787 -0.7317 -0.5667
vn 0.2608 -0.7317 -0.6297
vn 0.1330 -0.7317 -0.6685
vn 0.0000 -0.8632 -0.5049
vn -0.0985 -0.8632 -0.4952
vn -0.1932 -0.8632 -0.4665
vn -0.2805 -0.8632 -0.4198
vn -0.3570 -0.8632 -0.3570
vn -0.4198 -0.8632 -0.2805
vn -0.4665 -0.8632 -0.1932
vn -0.4952 -0.8632 -0.0985
vn -0.5049 -0.8632 -0.0000
vn -0.4952 -0.8632 0.0985
vn -0.4665 -0.8632 0.1932
vn -0.4198 -0.8632 0.2805
vn -0.3570 -0.8632 0.3570
vn -0.2805 -0.8632 0.4198
vn -0.1932 -0.8632 0.4665
vn -0.0985 -0.8632 0.4952
vn 0.0000 -0.8632 0.5049
vn 0.0985 -0.8632 0.4952
vn 0.1932 -0.8632 0.4665
vn 0.2805 -0.8632 0.4198
vn 0.3570 -0.8632 0.3570
vn 0.4198 -0.8632 0.2805
vn 0.4665 -0.8632 0.1932
vn 0.4952 -0.8632 0.0985
vn 0.5049 -0.8632 -0.0000
vn 0.4952 -0.8632 -0.0985
vn 0.4665 -0.8632 -0.1932
vn 0.4198 -0.8632 -0.2805
vn 0.3570 -0.8632 -0.3570
vn 0.2805 -0.8632 -0.4198
vn 0.1932 -0.8632 -0.4665
vn 0.0985 -0.8632 -0.4952
# 160 vertex normals

vt 1.0000 0.7961 0.8601
vt 1.0313 0.7961 0.8601
vt 1.0313 0.9995 0.6377
vt 1.0000 0.9995 0.6377
vt 0.0312 0.7961 0.8601
vt 0.0625 0.7961 0.8601
vt 0.0625 0.9995 0.6377
vt 0.0312 0.9995 0.6377
vt 0.0937 0.7961 0.8601
vt 0.0937 0.9995 0.6377
vt 0.1250 0.7961 0.8601
vt 0.1250 0.9995 0.6377
vt 0.1562 0.7961 0.8601
vt 0.1562 0.9995 0.6377
vt 0.1875 0.7961 0.8601
vt 0.1875 0.9995 0.6377
vt 0.2188 0.7961 0.8601
vt 0.2187 0.9995 0.6377
vt 0.2500 0.7961 0.8601
vt 0.2500 0.9995 0.6377
vt 0.2813 0.7961 0.8601
vt 0.2813 0.9995 0.6377
vt 0.3125 0.7961 0.8601
vt 0.3125 0.9995 0.6377
vt 0.3438 0.7961 0.8601
vt 0.3438 0.9995 0.6377
vt 0.3750 0.7961 0.8601
vt 0.3750 0.9995 0.6377
vt 0.4063 0.7961 0.8601
vt 0.4063 0.9995 0.6377
vt 0.4375 0.7961 0.8601
vt 0.4375 0.9995 0.6377
vt 0.4688 0.7961 0.8601
vt 0.4688 0.9995 0.6377
vt 0.5000 0.7961 0.8601
vt 0.5000 0.9995 0.6377
vt 0.5313 0.7961 0.8601
vt 0.5313 0.9995 0.6377
vt 0.5625 0.7961 0.8601
vt 0.5625 0.9995 0.6377
vt 0.5938 0.7961 0.8601
vt 0.5938 0.9995 0.6377
vt 0.6250 0.7961 0.8601
vt 0.6250 0.9995 0.6377
vt 0.6563 0.7961 0.8601
vt 0.6563 0.9995 0.6377
vt 0.6875 0.7961 0.8601
vt 0.6875 0.9995 0.6377
vt 0.7188 0.7961 0.8601
vt 0.7188 0.9995 0.6377
vt 0.7500 0.7961 0.8601
vt 0.7500 0.9995 0.6377
vt 0.7813 0.7961 0.8601
vt 0.7813 0.9995 0.6377
vt 0.8125 0.7961 0.8601
vt 0.8125 0.9995 0.6377
vt 0.8438 0.7961 0.8601
vt 0.8438 0.9995 0.6377
vt 0.8750 0.7961 0.8601
vt 0.8750 0.9995 0.6377
vt 0.9063 0.7961 0.8601
vt 0.9063 0.9995 0.6377
vt 0.9375 0.7961 0.8601
vt 0.9375 0.9995 0.6377
vt 0.9688 0.7961 0.8601
vt 0.9688 0.9995 0.6377
vt 1.0000 0.4978 0.9990
vt 1.0313 0.4978 0.9990
vt 0.0312 0.4978 0.9990
vt 0.0625 0.4978 0.9990
vt 0.0937 0.4978 0.9990
vt 0.1250 0.4978 0.9990
vt 0.1562 0.4978 0.9990
vt 0.1875 0.4978 0.9990
vt 0.2188 0.4978 0.9990
vt 0.2500 0.4978 0.9990
vt 0.2813 0.4978 0.9990
vt 0.3125 0.4978 0.9990
vt 0.3438 0.4978 0.9990
vt 0.3750 0.4978 0.9990
vt 0.4063 0.4978 0.9990
vt 0.4375 0.4978 0.9990
vt 0.4688 0.4978 0.9990
vt 0.5000 0.4978 0.9990
vt 0.5313 0.4978 0.9990
vt 0.5625 0.4978 0.9990
vt 0.5938 0.4978 0.9990
vt 0.6250 0.4978 0.9990
vt 0.6563 0.4978 0.9990
vt 0.6875 0.4978 0.9990
vt 0.7188 0.4978 0.9990
vt 0.7500 0.4978 0.9990
vt 0.7813 0.4978 0.9990
vt 0.8125 0.4978 0.9990
vt 0.8438 0.4978 0.9990
vt 0.8750 0.4978 0.9990
vt 0.9063 0.4978 0.9990
vt 0.9375 0.4978 0.9990
vt 0.9688 0.4978 0.9990
vt 1.0000 0.1996 0.8601
vt 1.0313 0.1996 0.8601
vt 0.0312 0.1996 0.8601
vt 0.0625 0.1996 0.8601
vt 0.0937 0.1996 0.8601
vt 0.1250 0.1996 0.8601
vt 0.1562 0.1996 0.8601
vt 0.1875 0.1996 0.8601
vt 0.2188 0.1996 0.8601
vt 0.2500 0.1996 0.8601
vt 0.2813 0.1996 0.8601
vt 0.3125 0.1996 0.8601
vt 0.3438 0.1996 0.8601
vt 0.3750 0.1996 0.8601
vt 0.4063 0.1996 0.8601
vt 0.4375 0.1996 0.8601
vt 0.4688 0.1996 0.8601
vt 0.5000 0.1996 0.8601
vt 0.5313 0.1996 0.8601
vt 0.5625 0.1996 0.8601
vt 0.5938 0.1996 0.8601
vt 0.6250 0.1996 0.8601
vt 0.6563 0.1996 0.8601
vt 0.6875 0.1996 0.8601
vt 0.7188 0.1996 0.8601
vt 0.7500 0.1996 0.8601
vt 0.7813 0.1996 0.8601
vt 0.8125 0.1996 0.8601
vt 0.8438 0.1996 0.8601
vt 0.8750 0.1996 0.8601
vt 0.9063 0.1996 0.8601
vt 0.9375 0.1996 0.8601
vt 0.9688 0.1996 0.8601
vt 1.0000 0.0005 0.6377
vt 1.0313 0.0005 0.6377
vt 0.0312 0.0005 0.6377
vt 0.0625 0.0005 0.6377
vt 0.0937 0.0005 0.6377
vt 0.1250 0.0005 0.6377
vt 0.1562 0.0005 0.6377
vt 0.1875 0.0005 0.6377
vt 0.2187 0.0005 0.6377
vt 0.2500 0.0005 0.6377
vt 0.2813 0.0005 0.6377
vt 0.3125 0.0005 0.6377
vt 0.3438 0.0005 0.6377
vt 0.3750 0.0005 0.6377
vt 0.4063 0.0005 0.6377
vt 0.4375 0.0005 0.6377
vt 0.4688 0.0005 0.6377
vt 0.5000 0.0005 0.6377
vt 0.5313 0.0005 0.6377
vt 0.5625 0.0005 0.6377
vt 0.5938 0.0005 0.6377
vt 0.6250 0.0005 0.6377
vt 0.6563 0.0005 0.6377
vt 0.6875 0.0005 0.6377
vt 0.7188 0.0005 0.6377
vt 0.7500 0.0005 0.6377
vt 0.7813 0.0005 0.6377
vt 0.8125 0.0005 0.6377
vt 0.8438 0.0005 0.6377
vt 0.8750 0.0005 0.6377
vt 0.9063 0.0005 0.6377
vt 0.9375 0.0005 0.6377
vt 0.9688 0.0005 0.6377
# 165 texture coords

g Sphere001
usemtl _daoguangMaterial__27
s 1
f 1/1/1 2/2/2 3/3/3 4/4/4 
f 2/5/2 5/6/5 6/7/6 3/8/3 
f 5/6/5 7/9/7 8/10/8 6/7/6 
f 7/9/7 9/11/9 10/12/10 8/10/8 
f 9/11/9 11/13/11 12/14/12 10/12/10 
f 11/13/11 13/15/13 14/16/14 12/14/12 
f 13/15/13 15/17/15 16/18/16 14/16/14 
f 15/17/15 17/19/17 18/20/18 16/18/16 
f 17/19/17 19/21/19 20/22/20 18/20/18 
f 19/21/19 21/23/21 22/24/22 20/22/20 
f 21/23/21 23/25/23 24/26/24 22/24/22 
f 23/25/23 25/27/25 26/28/26 24/26/24 
f 25/27/25 27/29/27 28/30/28 26/28/26 
f 27/29/27 29/31/29 30/32/30 28/30/28 
f 29/31/29 31/33/31 32/34/32 30/32/30 
f 31/33/31 33/35/33 34/36/34 32/34/32 
f 33/35/33 35/37/35 36/38/36 34/36/34 
f 35/37/35 37/39/37 38/40/38 36/38/36 
f 37/39/37 39/41/39 40/42/40 38/40/38 
f 39/41/39 41/43/41 42/44/42 40/42/40 
f 41/43/41 43/45/43 44/46/44 42/44/42 
f 43/45/43 45/47/45 46/48/46 44/46/44 
f 45/47/45 47/49/47 48/50/48 46/48/46 
f 47/49/47 49/51/49 50/52/50 48/50/48 
f 49/51/49 51/53/51 52/54/52 50/52/50 
f 51/53/51 53/55/53 54/56/54 52/54/52 
f 53/55/53 55/57/55 56/58/56 54/56/54 
f 55/57/55 57/59/57 58/60/58 56/58/56 
f 57/59/57 59/61/59 60/62/60 58/60/58 
f 59/61/59 61/63/61 62/64/62 60/62/60 
f 61/63/61 63/65/63 64/66/64 62/64/62 
f 63/65/63 1/1/1 4/4/4 64/66/64 
f 65/67/65 66/68/66 2/2/2 1/1/1 
f 66/69/66 67/70/67 5/6/5 2/5/2 
f 67/70/67 68/71/68 7/9/7 5/6/5 
f 68/71/68 69/72/69 9/11/9 7/9/7 
f 69/72/69 70/73/70 11/13/11 9/11/9 
f 70/73/70 71/74/71 13/15/13 11/13/11 
f 71/74/71 72/75/72 15/17/15 13/15/13 
f 72/75/72 73/76/73 17/19/17 15/17/15 
f 73/76/73 74/77/74 19/21/19 17/19/17 
f 74/77/74 75/78/75 21/23/21 19/21/19 
f 75/78/75 76/79/76 23/25/23 21/23/21 
f 76/79/76 77/80/77 25/27/25 23/25/23 
f 77/80/77 78/81/78 27/29/27 25/27/25 
f 78/81/78 79/82/79 29/31/29 27/29/27 
f 79/82/79 80/83/80 31/33/31 29/31/29 
f 80/83/80 81/84/81 33/35/33 31/33/31 
f 81/84/81 82/85/82 35/37/35 33/35/33 
f 82/85/82 83/86/83 37/39/37 35/37/35 
f 83/86/83 84/87/84 39/41/39 37/39/37 
f 84/87/84 85/88/85 41/43/41 39/41/39 
f 85/88/85 86/89/86 43/45/43 41/43/41 
f 86/89/86 87/90/87 45/47/45 43/45/43 
f 87/90/87 88/91/88 47/49/47 45/47/45 
f 88/91/88 89/92/89 49/51/49 47/49/47 
f 89/92/89 90/93/90 51/53/51 49/51/49 
f 90/93/90 91/94/91 53/55/53 51/53/51 
f 91/94/91 92/95/92 55/57/55 53/55/53 
f 92/95/92 93/96/93 57/59/57 55/57/55 
f 93/96/93 94/97/94 59/61/59 57/59/57 
f 94/97/94 95/98/95 61/63/61 59/61/59 
f 95/98/95 96/99/96 63/65/63 61/63/61 
f 96/99/96 65/67/65 1/1/1 63/65/63 
f 97/100/97 98/101/98 66/68/66 65/67/65 
f 98/102/98 99/103/99 67/70/67 66/69/66 
f 99/103/99 100/104/100 68/71/68 67/70/67 
f 100/104/100 101/105/101 69/72/69 68/71/68 
f 101/105/101 102/106/102 70/73/70 69/72/69 
f 102/106/102 103/107/103 71/74/71 70/73/70 
f 103/107/103 104/108/104 72/75/72 71/74/71 
f 104/108/104 105/109/105 73/76/73 72/75/72 
f 105/109/105 106/110/106 74/77/74 73/76/73 
f 106/110/106 107/111/107 75/78/75 74/77/74 
f 107/111/107 108/112/108 76/79/76 75/78/75 
f 108/112/108 109/113/109 77/80/77 76/79/76 
f 109/113/109 110/114/110 78/81/78 77/80/77 
f 110/114/110 111/115/111 79/82/79 78/81/78 
f 111/115/111 112/116/112 80/83/80 79/82/79 
f 112/116/112 113/117/113 81/84/81 80/83/80 
f 113/117/113 114/118/114 82/85/82 81/84/81 
f 114/118/114 115/119/115 83/86/83 82/85/82 
f 115/119/115 116/120/116 84/87/84 83/86/83 
f 116/120/116 117/121/117 85/88/85 84/87/84 
f 117/121/117 118/122/118 86/89/86 85/88/85 
f 118/122/118 119/123/119 87/90/87 86/89/86 
f 119/123/119 120/124/120 88/91/88 87/90/87 
f 120/124/120 121/125/121 89/92/89 88/91/88 
f 121/125/121 122/126/122 90/93/90 89/92/89 
f 122/126/122 123/127/123 91/94/91 90/93/90 
f 123/127/123 124/128/124 92/95/92 91/94/91 
f 124/128/124 125/129/125 93/96/93 92/95/92 
f 125/129/125 126/130/126 94/97/94 93/96/93 
f 126/130/126 127/131/127 95/98/95 94/97/94 
f 127/131/127 128/132/128 96/99/96 95/98/95 
f 128/132/128 97/100/97 65/67/65 96/99/96 
f 129/133/129 130/134/130 98/101/98 97/100/97 
f 130/135/130 131/136/131 99/103/99 98/102/98 
f 131/136/131 132/137/132 100/104/100 99/103/99 
f 132/137/132 133/138/133 101/105/101 100/104/100 
f 133/138/133 134/139/134 102/106/102 101/105/101 
f 134/139/134 135/140/135 103/107/103 102/106/102 
f 135/140/135 136/141/136 104/108/104 103/107/103 
f 136/141/136 137/142/137 105/109/105 104/108/104 
f 137/142/137 138/143/138 106/110/106 105/109/105 
f 138/143/138 139/144/139 107/111/107 106/110/106 
f 139/144/139 140/145/140 108/112/108 107/111/107 
f 140/145/140 141/146/141 109/113/109 108/112/108 
f 141/146/141 142/147/142 110/114/110 109/113/109 
f 142/147/142 143/148/143 111/115/111 110/114/110 
f 143/148/143 144/149/144 112/116/112 111/115/111 
f 144/149/144 145/150/145 113/117/113 112/116/112 
f 145/150/145 146/151/146 114/118/114 113/117/113 
f 146/151/146 147/152/147 115/119/115 114/118/114 
f 147/152/147 148/153/148 116/120/116 115/119/115 
f 148/153/148 149/154/149 117/121/117 116/120/116 
f 149/154/149 150/155/150 118/122/118 117/121/117 
f 150/155/150 151/156/151 119/123/119 118/122/118 
f 151/156/151 152/157/152 120/124/120 119/123/119 
f 152/157/152 153/158/153 121/125/121 120/124/120 
f 153/158/153 154/159/154 122/126/122 121/125/121 
f 154/159/154 155/160/155 123/127/123 122/126/122 
f 155/160/155 156/161/156 124/128/124 123/127/123 
f 156/161/156 157/162/157 125/129/125 124/128/124 
f 157/162/157 158/163/158 126/130/126 125/129/125 
f 158/163/158 159/164/159 127/131/127 126/130/126 
f 159/164/159 160/165/160 128/132/128 127/131/127 
f 160/165/160 129/133/129 97/100/97 128/132/128 
# 128 polygons

