# This file uses centimeters as units for non-parametric coordinates.

g gezi1:default1
v -6.351351 0.000000 5.645665
v 4.939935 0.000000 5.645665
v -0.705709 0.000000 5.645665
v -6.351351 0.000000 -5.645665
v -0.705709 0.000000 -5.645665
v -6.351351 0.000000 0.000000
v -0.705709 0.000000 0.000000
v -6.351351 0.000000 -2.822832
v -0.705709 0.000000 -2.822832
v -6.351351 0.000000 2.822833
v -0.705709 0.000000 2.822833
v 4.939935 0.000000 2.822833
v 2.117113 0.000000 5.645665
v 2.117113 0.000000 2.822833
v -3.528531 0.000000 5.645665
v -3.528531 0.000000 2.822833
v -3.528531 0.000000 0.000000
v -3.528531 0.000000 -2.822832
v -3.528531 0.000000 -5.645665
v -6.351351 0.000000 -4.234249
v -3.528531 0.000000 -4.234249
v -0.705709 0.000000 -4.234249
v -6.351351 0.000000 -1.411416
v -3.528531 0.000000 -1.411416
v -0.705709 0.000000 -1.411416
v -6.351351 0.000000 1.411417
v -3.528531 0.000000 1.411417
v -0.705709 0.000000 1.411417
v -6.351351 0.000000 4.234249
v -3.528531 0.000000 4.234249
v -0.705709 0.000000 4.234249
v 2.117113 0.000000 4.234249
v 4.939935 0.000000 4.234249
v -4.939936 0.000000 5.645665
v -4.939936 0.000000 4.234249
v -4.939936 0.000000 2.822833
v -4.939936 0.000000 1.411417
v -4.939936 0.000000 0.000000
v -4.939936 0.000000 -1.411416
v -4.939936 0.000000 -2.822832
v -4.939936 0.000000 -4.234249
v -4.939936 0.000000 -5.645665
v -2.117125 0.000000 5.645665
v -2.117125 0.000000 4.234249
v -2.117125 0.000000 2.822833
v -2.117125 0.000000 1.411417
v -2.117125 0.000000 0.000000
v -2.117125 0.000000 -1.411416
v -2.117125 0.000000 -2.822832
v -2.117125 0.000000 -4.234249
v -2.117125 0.000000 -5.645665
v 3.528519 0.000000 5.645665
v 3.528519 0.000000 4.234249
v 3.528519 0.000000 2.822833
v 0.705708 0.000000 5.645665
v 0.705708 0.000000 4.234249
v 0.705708 0.000000 2.822833
v 0.705708 0.000000 1.411417
v 0.705708 0.000000 0.000000
v 0.705708 0.000000 -1.411416
v 0.705708 0.000000 -2.822832
v 0.705708 0.000000 -4.234249
v 0.705708 0.000000 -5.645665
v 6.351351 0.000000 5.645665
v 6.351351 0.000000 4.234249
v 6.351351 0.000000 2.822833
vt 0.012298 0.767612
vt 0.120823 0.767612
vt 0.120823 0.876136
vt 0.012298 0.876136
vt 0.446396 0.767612
vt 0.554922 0.767612
vt 0.554922 0.876136
vt 0.446396 0.876136
vt 0.012298 0.333512
vt 0.120823 0.333512
vt 0.120823 0.442037
vt 0.012298 0.442037
vt 0.446396 0.333512
vt 0.554921 0.333512
vt 0.554922 0.442037
vt 0.446396 0.442037
vt 0.012298 0.550562
vt 0.120823 0.550562
vt 0.120823 0.659086
vt 0.012298 0.659086
vt 0.446396 0.550562
vt 0.554922 0.550562
vt 0.554922 0.659086
vt 0.446396 0.659086
vt 0.012298 0.116462
vt 0.120823 0.116462
vt 0.120823 0.224987
vt 0.012298 0.224987
vt 0.446396 0.116462
vt 0.554921 0.116462
vt 0.554921 0.224987
vt 0.446396 0.224987
vt 0.880495 0.116462
vt 0.989020 0.116462
vt 0.989020 0.224987
vt 0.880495 0.224987
vt 0.663446 0.116462
vt 0.771970 0.116462
vt 0.771970 0.224987
vt 0.663446 0.224987
vt 0.229347 0.116462
vt 0.337872 0.116462
vt 0.337872 0.224987
vt 0.229347 0.224987
vt 0.229347 0.442037
vt 0.229347 0.333512
vt 0.337872 0.333512
vt 0.337872 0.442037
vt 0.229347 0.659086
vt 0.229347 0.550562
vt 0.337872 0.550562
vt 0.337872 0.659086
vt 0.229347 0.876136
vt 0.229347 0.767612
vt 0.337872 0.767612
vt 0.337872 0.876136
vt 0.012298 0.007937
vt 0.120823 0.007937
vt 0.229347 0.007937
vt 0.337872 0.007937
vt 0.446396 0.007937
vt 0.554921 0.007937
vt 0.663446 0.007937
vt 0.771970 0.007937
vt 0.880494 0.007937
vt 0.989020 0.007937
vn 0.000000 1.000000 0.000000
vn 0.000000 1.000000 0.000000
vn 0.000000 1.000000 0.000000
vn 0.000000 1.000000 0.000000
vn 0.000000 1.000000 0.000000
vn 0.000000 1.000000 0.000000
vn 0.000000 1.000000 0.000000
vn 0.000000 1.000000 0.000000
vn 0.000000 1.000000 0.000000
vn 0.000000 1.000000 0.000000
vn 0.000000 1.000000 0.000000
vn 0.000000 1.000000 0.000000
vn 0.000000 1.000000 0.000000
vn 0.000000 1.000000 0.000000
vn 0.000000 1.000000 0.000000
vn 0.000000 1.000000 0.000000
vn 0.000000 1.000000 0.000000
vn 0.000000 1.000000 0.000000
vn 0.000000 1.000000 0.000000
vn 0.000000 1.000000 0.000000
vn 0.000000 1.000000 0.000000
vn 0.000000 1.000000 0.000000
vn 0.000000 1.000000 0.000000
vn 0.000000 1.000000 0.000000
vn 0.000000 1.000000 0.000000
vn 0.000000 1.000000 0.000000
vn 0.000000 1.000000 0.000000
vn 0.000000 1.000000 0.000000
vn 0.000000 1.000000 0.000000
vn 0.000000 1.000000 0.000000
vn 0.000000 1.000000 0.000000
vn 0.000000 1.000000 0.000000
vn 0.000000 1.000000 0.000000
vn 0.000000 1.000000 0.000000
vn 0.000000 1.000000 0.000000
vn 0.000000 1.000000 0.000000
vn 0.000000 1.000000 0.000000
vn 0.000000 1.000000 0.000000
vn 0.000000 1.000000 0.000000
vn 0.000000 1.000000 0.000000
vn 0.000000 1.000000 0.000000
vn 0.000000 1.000000 0.000000
vn 0.000000 1.000000 0.000000
vn 0.000000 1.000000 0.000000
vn 0.000000 1.000000 0.000000
vn 0.000000 1.000000 0.000000
vn 0.000000 1.000000 0.000000
vn 0.000000 1.000000 0.000000
vn 0.000000 1.000000 0.000000
vn 0.000000 1.000000 0.000000
vn 0.000000 1.000000 0.000000
vn 0.000000 1.000000 0.000000
vn 0.000000 1.000000 0.000000
vn 0.000000 1.000000 0.000000
vn 0.000000 1.000000 0.000000
vn 0.000000 1.000000 0.000000
vn 0.000000 1.000000 0.000000
vn 0.000000 1.000000 0.000000
vn 0.000000 1.000000 0.000000
vn 0.000000 1.000000 0.000000
vn 0.000000 1.000000 0.000000
vn 0.000000 1.000000 0.000000
vn 0.000000 1.000000 0.000000
vn 0.000000 1.000000 0.000000
vn 0.000000 1.000000 0.000000
vn 0.000000 1.000000 0.000000
vn 0.000000 1.000000 0.000000
vn 0.000000 1.000000 0.000000
vn 0.000000 1.000000 0.000000
vn 0.000000 1.000000 0.000000
vn 0.000000 1.000000 0.000000
vn 0.000000 1.000000 0.000000
vn 0.000000 1.000000 0.000000
vn 0.000000 1.000000 0.000000
vn 0.000000 1.000000 0.000000
vn 0.000000 1.000000 0.000000
vn 0.000000 1.000000 0.000000
vn 0.000000 1.000000 0.000000
vn 0.000000 1.000000 0.000000
vn 0.000000 1.000000 0.000000
vn 0.000000 1.000000 0.000000
vn 0.000000 1.000000 0.000000
vn 0.000000 1.000000 0.000000
vn 0.000000 1.000000 0.000000
vn 0.000000 1.000000 0.000000
vn 0.000000 1.000000 0.000000
vn 0.000000 1.000000 0.000000
vn 0.000000 1.000000 0.000000
vn 0.000000 1.000000 0.000000
vn 0.000000 1.000000 0.000000
vn 0.000000 1.000000 0.000000
vn 0.000000 1.000000 0.000000
vn 0.000000 1.000000 0.000000
vn 0.000000 1.000000 0.000000
vn 0.000000 1.000000 0.000000
vn 0.000000 1.000000 0.000000
vn 0.000000 1.000000 0.000000
vn 0.000000 1.000000 0.000000
vn 0.000000 1.000000 0.000000
vn 0.000000 1.000000 0.000000
vn 0.000000 1.000000 0.000000
vn 0.000000 1.000000 0.000000
vn 0.000000 1.000000 0.000000
vn 0.000000 1.000000 0.000000
vn 0.000000 1.000000 0.000000
vn 0.000000 1.000000 0.000000
vn 0.000000 1.000000 0.000000
vn 0.000000 1.000000 0.000000
vn 0.000000 1.000000 0.000000
vn 0.000000 1.000000 0.000000
vn 0.000000 1.000000 0.000000
vn 0.000000 1.000000 0.000000
vn 0.000000 1.000000 0.000000
vn 0.000000 1.000000 0.000000
vn 0.000000 1.000000 0.000000
vn 0.000000 1.000000 0.000000
vn 0.000000 1.000000 0.000000
vn 0.000000 1.000000 0.000000
vn 0.000000 1.000000 0.000000
vn 0.000000 1.000000 0.000000
vn 0.000000 1.000000 0.000000
vn 0.000000 1.000000 0.000000
vn 0.000000 1.000000 0.000000
vn 0.000000 1.000000 0.000000
vn 0.000000 1.000000 0.000000
vn 0.000000 1.000000 0.000000
vn 0.000000 1.000000 0.000000
vn 0.000000 1.000000 0.000000
vn 0.000000 1.000000 0.000000
vn 0.000000 1.000000 0.000000
vn 0.000000 1.000000 0.000000
vn 0.000000 1.000000 0.000000
vn 0.000000 1.000000 0.000000
vn 0.000000 1.000000 0.000000
vn 0.000000 1.000000 0.000000
vn 0.000000 1.000000 0.000000
vn 0.000000 1.000000 0.000000
vn 0.000000 1.000000 0.000000
vn 0.000000 1.000000 0.000000
vn 0.000000 1.000000 0.000000
vn 0.000000 1.000000 0.000000
vn 0.000000 1.000000 0.000000
vn 0.000000 1.000000 0.000000
vn 0.000000 1.000000 0.000000
vn 0.000000 1.000000 0.000000
vn 0.000000 1.000000 0.000000
vn 0.000000 1.000000 0.000000
vn 0.000000 1.000000 0.000000
vn 0.000000 1.000000 0.000000
vn 0.000000 1.000000 0.000000
vn 0.000000 1.000000 0.000000
vn 0.000000 1.000000 0.000000
vn 0.000000 1.000000 0.000000
vn 0.000000 1.000000 0.000000
vn 0.000000 1.000000 0.000000
vn 0.000000 1.000000 0.000000
vn 0.000000 1.000000 0.000000
vn 0.000000 1.000000 0.000000
vn 0.000000 1.000000 0.000000
vn 0.000000 1.000000 0.000000
vn 0.000000 1.000000 0.000000
vn 0.000000 1.000000 0.000000
vn 0.000000 1.000000 0.000000
vn 0.000000 1.000000 0.000000
vn 0.000000 1.000000 0.000000
vn 0.000000 1.000000 0.000000
vn 0.000000 1.000000 0.000000
vn 0.000000 1.000000 0.000000
vn 0.000000 1.000000 0.000000
vn 0.000000 1.000000 0.000000
vn 0.000000 1.000000 0.000000
vn 0.000000 1.000000 0.000000
vn 0.000000 1.000000 0.000000
vn 0.000000 1.000000 0.000000
vn 0.000000 1.000000 0.000000
vn 0.000000 1.000000 0.000000
vn 0.000000 1.000000 0.000000
vn 0.000000 1.000000 0.000000
vn 0.000000 1.000000 0.000000
vn 0.000000 1.000000 0.000000
vn 0.000000 1.000000 0.000000
vn 0.000000 1.000000 0.000000
vn 0.000000 1.000000 0.000000
vn 0.000000 1.000000 0.000000
vn 0.000000 1.000000 0.000000
vn 0.000000 1.000000 0.000000
vn 0.000000 1.000000 0.000000
vn 0.000000 1.000000 0.000000
vn 0.000000 1.000000 0.000000
vn 0.000000 1.000000 0.000000
vn 0.000000 1.000000 0.000000
vn 0.000000 1.000000 0.000000
s off
g gezi1:pCube201 gezi1:polySurface928 polySurface978 gezi1:polySurface929
f 20/1/1 41/2/2 42/3/3 4/4/4
f 22/5/5 62/6/6 63/7/7 5/8/8
f 26/9/9 37/10/10 38/11/11 6/12/12
f 28/13/13 58/14/14 59/15/15 7/16/16
f 23/17/17 39/18/18 40/19/19 8/20/20
f 25/21/21 60/22/22 61/23/23 9/24/24
f 29/25/25 35/26/26 36/27/27 10/28/28
f 31/29/29 56/30/30 57/31/31 11/32/32
f 33/33/33 65/34/34 66/35/35 12/36/36
f 32/37/37 53/38/38 54/39/39 14/40/40
f 30/41/41 44/42/42 45/43/43 16/44/44
f 17/45/45 27/46/46 46/47/47 47/48/48
f 18/49/49 24/50/50 48/51/51 49/52/52
f 19/53/53 21/54/54 50/55/55 51/56/56
f 8/20/57 40/19/58 41/2/59 20/1/60
f 50/55/61 21/54/62 18/49/63 49/52/64
f 9/24/65 61/23/66 62/6/67 22/5/68
f 6/12/69 38/11/70 39/18/71 23/17/72
f 48/51/73 24/50/74 17/45/75 47/48/76
f 7/16/77 59/15/78 60/22/79 25/21/80
f 10/28/81 36/27/82 37/10/83 26/9/84
f 46/47/85 27/46/86 16/44/87 45/43/88
f 11/32/89 57/31/90 58/14/91 28/13/92
f 1/57/93 34/58/94 35/26/95 29/25/96
f 15/59/97 43/60/98 44/42/99 30/41/100
f 3/61/101 55/62/102 56/30/103 31/29/104
f 13/63/105 52/64/106 53/38/107 32/37/108
f 2/65/109 64/66/110 65/34/111 33/33/112
f 34/58/113 15/59/114 30/41/115 35/26/116
f 36/27/117 35/26/118 30/41/119 16/44/120
f 37/10/121 36/27/122 16/44/123 27/46/124
f 38/11/125 37/10/126 27/46/127 17/45/128
f 39/18/129 38/11/130 17/45/131 24/50/132
f 40/19/133 39/18/134 24/50/135 18/49/136
f 41/2/137 40/19/138 18/49/139 21/54/140
f 42/3/141 41/2/142 21/54/143 19/53/144
f 43/60/145 3/61/146 31/29/147 44/42/148
f 45/43/149 44/42/150 31/29/151 11/32/152
f 28/13/153 46/47/154 45/43/155 11/32/156
f 47/48/157 46/47/158 28/13/159 7/16/160
f 25/21/161 48/51/162 47/48/163 7/16/164
f 49/52/165 48/51/166 25/21/167 9/24/168
f 22/5/169 50/55/170 49/52/171 9/24/172
f 51/56/173 50/55/174 22/5/175 5/8/176
f 52/64/177 2/65/178 33/33/179 53/38/180
f 54/39/181 53/38/182 33/33/183 12/36/184
f 55/62/185 13/63/186 32/37/187 56/30/188
f 57/31/189 56/30/190 32/37/191 14/40/192
