# This file uses centimeters as units for non-parametric coordinates.

g default
v -0.609376 -0.566367 1.250530
v -0.608748 0.672991 1.044339
v 0.608747 0.672991 1.044339
v 0.609376 -0.566367 1.250530
v -0.543579 -0.344890 1.072068
v 0.543578 -0.344890 1.072068
v -0.543579 0.489340 1.072068
v 0.543578 0.489340 1.072068
v -0.543579 0.489340 -0.000000
v -0.543579 -0.344890 -0.000000
v -0.609376 -0.566367 -0.000000
v 0.609376 -0.566367 -0.000000
v 0.543578 -0.344890 -0.000000
v 0.543578 0.489340 -0.000000
v 0.608747 0.672991 -0.000000
v -0.608748 0.672991 -0.000000
v -0.543579 0.489340 0.502201
v -0.543579 -0.344890 0.502201
v -0.609376 -0.566367 0.431917
v 0.609376 -0.566367 0.431917
v 0.543578 -0.344890 0.502201
v 0.543578 0.489340 0.502201
v 0.608747 0.672991 0.561492
v -0.608748 0.672991 0.561492
v 0.543578 -0.732231 1.072068
v 0.543578 -0.732231 0.639160
v -0.543579 -0.732231 0.639160
v -0.543579 -0.732231 1.072068
v -0.609376 -0.424231 -0.000000
v 0.609376 -0.424231 -0.000000
v 0.609376 -0.424231 0.497454
v 0.609376 -0.424231 1.250530
v -0.609376 -0.424231 1.250530
v -0.609376 -0.424231 0.497454
v -0.608748 0.535667 1.156094
v 0.608747 0.535667 1.156094
v 0.608747 0.535667 -0.000000
v 0.608747 0.535667 0.561492
v -0.608748 0.535667 0.561492
v -0.608748 0.535667 -0.000000
v -0.608748 0.661698 1.221248
v 0.608747 0.661698 1.221248
v -0.608748 0.732231 1.126383
v 0.608747 0.732231 1.126383
v 0.543578 -0.622228 0.564547
v 0.543578 -0.622228 -0.000000
v -0.543579 -0.622228 -0.000000
v -0.543579 -0.622228 0.564547
v -0.543579 -0.622228 1.081798
v 0.543578 -0.622228 1.081798
v -0.609376 -0.566367 -1.250530
v -0.608748 0.672991 -1.044339
v 0.608747 0.672991 -1.044339
v 0.609376 -0.566367 -1.250530
v -0.543579 -0.344890 -1.072068
v 0.543578 -0.344890 -1.072068
v -0.543579 0.489340 -1.072068
v 0.543578 0.489340 -1.072068
v -0.543579 0.489340 -0.502201
v -0.543579 -0.344890 -0.502201
v -0.609376 -0.566367 -0.431917
v 0.609376 -0.566367 -0.431917
v 0.543578 -0.344890 -0.502201
v 0.543578 0.489340 -0.502201
v 0.608747 0.672991 -0.561492
v -0.608748 0.672991 -0.561492
v 0.543578 -0.732231 -1.072068
v 0.543578 -0.732231 -0.639160
v -0.543579 -0.732231 -0.639160
v -0.543579 -0.732231 -1.072068
v 0.609376 -0.424231 -0.497454
v 0.609376 -0.424231 -1.250530
v -0.609376 -0.424231 -1.250530
v -0.609376 -0.424231 -0.497454
v -0.608748 0.535667 -1.156094
v 0.608747 0.535667 -1.156094
v 0.608747 0.535667 -0.561492
v -0.608748 0.535667 -0.561492
v -0.608748 0.661698 -1.221248
v 0.608747 0.661698 -1.221248
v -0.608748 0.732231 -1.126383
v 0.608747 0.732231 -1.126383
v 0.543578 -0.622228 -0.564547
v -0.543579 -0.622228 -0.564547
v -0.543579 -0.622228 -1.081798
v 0.543578 -0.622228 -1.081798
vt 0.337619 0.052044
vt 0.656576 0.052044
vt 0.639361 0.103186
vt 0.354835 0.103186
vt 0.770304 0.102566
vt 0.976194 0.102566
vt 0.976194 0.260556
vt 0.770304 0.260556
vt 0.757962 0.305597
vt 0.988536 0.305597
vt 0.988536 0.327984
vt 0.757962 0.327984
vt 0.697117 0.560873
vt 0.697131 0.861633
vt 0.712186 0.959355
vt 0.494805 0.959355
vt 0.853659 0.052044
vt 0.983860 0.052044
vt 0.983862 0.079035
vt 0.852417 0.079035
vt 0.509035 0.374659
vt 0.509035 0.264984
vt 0.720236 0.264984
vt 0.720236 0.374659
vt 0.141779 0.079035
vt 0.010333 0.079035
vt 0.010336 0.052044
vt 0.140537 0.052044
vt 0.277424 0.959355
vt 0.277424 0.906182
vt 0.297134 0.861633
vt 0.297281 0.560874
vt 0.494805 0.906352
vt 0.494805 0.959355
vt 0.091149 0.959355
vt 0.046558 0.906017
vt 0.431607 0.417017
vt 0.431834 0.547545
vt 0.371818 0.547545
vt 0.371818 0.417017
vt 0.494805 0.906013
vt 0.712186 0.906013
vt 0.942388 0.906182
vt 0.899122 0.959355
vt 0.497218 0.861633
vt 0.689231 0.875222
vt 0.703278 0.079035
vt 0.509035 0.484581
vt 0.509035 0.400481
vt 0.720236 0.400481
vt 0.720236 0.484581
vt 0.290917 0.079035
vt 0.494805 0.875223
vt 0.497076 0.560873
vt 0.300378 0.875222
vt 0.078926 0.875223
vt 0.988536 0.347149
vt 0.757962 0.347149
vt 0.494805 0.875223
vt 0.909854 0.875223
vt 0.023964 0.120930
vt 0.364845 0.120930
vt 0.309622 0.156928
vt 0.094210 0.156928
vt 0.195252 0.221285
vt 0.546203 0.221285
vt 0.473867 0.258292
vt 0.252112 0.258292
vt 0.733018 0.540564
vt 0.496252 0.540564
vt 0.509035 0.506035
vt 0.720236 0.506035
vt 0.010349 0.014826
vt 0.123385 0.014826
vt 0.337621 0.014826
vt 0.656575 0.014826
vt 0.870810 0.014826
vt 0.983846 0.014826
vt 0.988536 0.278727
vt 0.757962 0.278727
vt 0.967619 0.954982
vt 0.930888 0.982293
vt 0.059269 0.982879
vt 0.021493 0.954484
vt 0.544703 0.120930
vt 0.544712 0.156928
vt 0.010082 0.221285
vt 0.010081 0.258292
vt 0.469696 0.305458
vt 0.284099 0.305458
vt 0.278561 0.202805
vt 0.098248 0.202805
vt 0.337619 0.052044
vt 0.656576 0.052044
vt 0.639361 0.103186
vt 0.354835 0.103186
vt 0.770304 0.102566
vt 0.976194 0.102566
vt 0.976194 0.260556
vt 0.770304 0.260556
vt 0.757962 0.305597
vt 0.988536 0.305597
vt 0.988536 0.327984
vt 0.757962 0.327984
vt 0.497218 0.560874
vt 0.923808 0.560873
vt 0.277424 0.959355
vt 0.277424 0.906182
vt 0.853659 0.052044
vt 0.983860 0.052044
vt 0.983862 0.079035
vt 0.852417 0.079035
vt 0.509035 0.374659
vt 0.509035 0.264984
vt 0.720236 0.264984
vt 0.720236 0.374659
vt 0.141779 0.079035
vt 0.010333 0.079035
vt 0.010336 0.052044
vt 0.140537 0.052044
vt 0.712186 0.959355
vt 0.712186 0.906352
vt 0.497076 0.861633
vt 0.070345 0.861633
vt 0.899122 0.959355
vt 0.942388 0.906182
vt 0.689231 0.875223
vt 0.909854 0.875223
vt 0.483021 0.417017
vt 0.483522 0.547545
vt 0.312029 0.417017
vt 0.311802 0.547545
vt 0.046558 0.906016
vt 0.091153 0.959355
vt 0.300378 0.875223
vt 0.078926 0.875223
vt 0.923808 0.861633
vt 0.059334 0.982702
vt 0.703278 0.079035
vt 0.509035 0.484581
vt 0.509035 0.400481
vt 0.720236 0.400481
vt 0.720236 0.484581
vt 0.290917 0.079035
vt 0.967619 0.954982
vt 0.070345 0.560874
vt 0.930888 0.982293
vt 0.923808 0.861633
vt 0.988536 0.347149
vt 0.757962 0.347149
vt 0.021493 0.954484
vt 0.260114 0.547545
vt 0.023964 0.120930
vt 0.364845 0.120930
vt 0.309622 0.156928
vt 0.094210 0.156928
vt 0.195252 0.221285
vt 0.546203 0.221285
vt 0.473867 0.258292
vt 0.252112 0.258292
vt 0.733018 0.540564
vt 0.496252 0.540564
vt 0.509035 0.506035
vt 0.720236 0.506035
vt 0.010349 0.014826
vt 0.123385 0.014826
vt 0.337621 0.014826
vt 0.656575 0.014826
vt 0.870810 0.014826
vt 0.983846 0.014826
vt 0.988536 0.278727
vt 0.757962 0.278727
vt 0.260614 0.417017
vt 0.923808 0.560873
vt 0.696872 0.560873
vt 0.697018 0.861633
vt 0.544703 0.120930
vt 0.544712 0.156928
vt 0.010082 0.221285
vt 0.010081 0.258292
vt 0.469696 0.305458
vt 0.284099 0.305458
vt 0.278561 0.202805
vt 0.098248 0.202805
vt 0.297319 0.560873
vt 0.297305 0.861633
vt 0.070345 0.560873
vt 0.070345 0.861633
vn 0.391901 0.539048 0.745548
vn 0.466670 0.266024 0.843475
vn -0.466671 0.266022 0.843475
vn -0.391900 0.539048 0.745548
vn 0.459098 -0.169946 0.871979
vn -0.459098 -0.169946 0.871979
vn 0.078249 0.148998 0.985737
vn 0.094900 0.993465 0.063418
vn -0.094900 0.993465 0.063418
vn -0.078249 0.148998 0.985737
vn -0.996992 0.077509 0.000000
vn -0.997168 -0.075203 0.000000
vn -0.996961 -0.077897 0.000000
vn -0.997439 0.071527 0.000000
vn -0.965480 0.260478 0.000000
vn -0.954854 0.297074 0.000000
vn 0.130350 -0.979978 -0.150509
vn -0.130350 -0.979977 -0.150509
vn -0.043008 -0.999075 0.000000
vn 0.043008 -0.999075 -0.000000
vn 0.996992 0.077510 -0.000000
vn 0.965479 0.260482 -0.000000
vn 0.954853 0.297078 -0.000000
vn 0.997439 0.071528 -0.000000
vn 0.997168 -0.075203 -0.000000
vn 0.996961 -0.077897 -0.000000
vn 0.117996 0.993014 -0.000000
vn 0.939965 -0.341270 -0.000000
vn 0.946584 -0.322457 -0.000000
vn 0.112081 0.993699 -0.000000
vn -0.117996 0.993014 0.000000
vn -0.112081 0.993699 0.000000
vn -0.946584 -0.322458 0.000000
vn -0.939965 -0.341270 0.000000
vn 0.110630 -0.964523 0.239700
vn -0.110630 -0.964523 0.239700
vn -0.126661 -0.969436 -0.210121
vn 0.126661 -0.969436 -0.210121
vn 0.174758 0.979242 -0.102693
vn 0.266635 -0.622320 0.735950
vn -0.174758 0.979242 -0.102693
vn -0.266635 -0.622320 0.735950
vn 0.405870 -0.541014 0.736596
vn 0.284563 -0.817197 0.501211
vn 0.955010 -0.296575 -0.000000
vn -0.955011 -0.296571 0.000000
vn -0.284564 -0.817196 0.501213
vn -0.405869 -0.541015 0.736596
vn 0.944095 -0.329675 -0.000000
vn -0.944096 -0.329671 0.000000
vn 0.391900 0.539048 -0.745548
vn -0.391900 0.539048 -0.745548
vn -0.466671 0.266023 -0.843475
vn 0.466670 0.266024 -0.843475
vn -0.459098 -0.169946 -0.871979
vn 0.459098 -0.169946 -0.871979
vn 0.078249 0.148996 -0.985737
vn -0.078249 0.148996 -0.985737
vn -0.094900 0.993465 -0.063418
vn 0.094900 0.993465 -0.063418
vn -0.996992 0.077509 0.000000
vn -0.997168 -0.075203 0.000000
vn -0.965480 0.260478 0.000000
vn 0.130350 -0.979977 0.150509
vn -0.130350 -0.979977 0.150509
vn 0.996992 0.077510 -0.000000
vn 0.965479 0.260481 -0.000000
vn 0.997168 -0.075203 -0.000000
vn 0.117996 0.993014 -0.000000
vn 0.939965 -0.341271 -0.000000
vn -0.117996 0.993014 0.000000
vn -0.939965 -0.341270 0.000000
vn 0.110630 -0.964523 -0.239701
vn 0.126661 -0.969436 0.210121
vn -0.126661 -0.969436 0.210121
vn -0.110630 -0.964523 -0.239701
vn 0.174757 0.979242 0.102693
vn 0.266636 -0.622320 -0.735951
vn -0.174757 0.979242 0.102693
vn -0.266636 -0.622319 -0.735951
vn 0.405869 -0.541015 -0.736595
vn 0.955010 -0.296575 -0.000000
vn 0.284563 -0.817197 -0.501211
vn -0.955011 -0.296571 0.000000
vn -0.405869 -0.541016 -0.736595
vn -0.284564 -0.817196 -0.501213
s 1
g pCube75
f 32/1/1 6/4/2 5/3/3 33/2/4
f 6/5/2 8/8/5 7/7/6 5/6/3
f 42/9/7 44/12/8 43/11/9 41/10/10
f 18/13/11 17/14/12 9/45/13 10/105/14
f 34/17/15 18/20/11 10/19/14 29/18/16
f 45/21/17 48/24/18 47/23/19 46/22/20
f 21/25/21 31/28/22 30/27/23 13/26/24
f 22/31/25 21/32/21 13/54/24 14/123/26
f 23/29/27 38/30/28 37/33/29 15/34/30
f 24/37/31 23/38/27 15/39/30 16/40/32
f 24/15/31 16/16/32 40/41/33 39/42/34
f 5/106/3 7/137/6 17/14/12 18/13/11
f 33/2/4 5/47/3 18/20/11 34/17/15
f 25/48/35 28/51/36 27/50/37 26/49/38
f 6/52/2 32/1/1 31/28/22 21/25/21
f 8/124/5 6/146/2 21/32/21 22/31/25
f 3/35/39 36/36/40 38/30/28 23/29/27
f 2/129/41 3/130/39 23/38/27 24/37/31
f 35/43/42 2/44/41 24/15/31 39/42/34
f 4/61/43 50/64/44 45/63/17 20/62/45
f 19/65/46 48/68/18 49/67/47 1/66/48
f 1/69/48 49/72/47 50/71/44 4/70/43
f 31/28/22 20/74/45 12/73/49 30/27/23
f 32/1/1 4/75/43 20/74/45 31/28/22
f 4/75/43 32/1/1 33/2/4 1/76/48
f 1/76/48 33/2/4 34/17/15 19/77/46
f 19/77/46 34/17/15 29/18/16 11/78/50
f 8/8/5 36/80/40 35/79/42 7/7/6
f 14/53/26 37/33/29 38/30/28 22/55/25
f 17/46/12 39/42/34 40/41/33 9/59/13
f 22/55/25 38/30/28 36/36/40 8/56/5
f 7/60/6 35/43/42 39/42/34 17/46/12
f 36/80/40 42/9/7 41/10/10 35/79/42
f 35/43/42 41/81/10 43/82/9 2/44/41
f 2/57/41 43/11/9 44/12/8 3/58/39
f 3/35/39 44/83/8 42/84/7 36/36/40
f 20/62/45 45/63/17 46/86/20 12/85/49
f 11/87/50 47/88/19 48/68/18 19/65/46
f 48/68/18 27/90/37 28/89/36 49/67/47
f 45/21/17 26/49/38 27/50/37 48/24/18
f 50/64/44 25/92/35 26/91/38 45/63/17
f 49/72/47 28/51/36 25/48/35 50/71/44
f 72/93/51 73/94/52 55/95/53 56/96/54
f 56/97/54 55/98/53 57/99/55 58/100/56
f 80/101/57 79/102/58 81/103/59 82/104/60
f 60/185/61 10/105/14 9/45/13 59/186/62
f 74/109/63 29/110/16 10/111/14 60/112/61
f 83/113/64 46/114/20 47/115/19 84/116/65
f 63/117/66 13/118/24 30/119/23 71/120/67
f 64/176/68 14/123/26 13/54/24 63/175/66
f 65/121/69 15/34/30 37/33/29 77/122/70
f 66/131/71 16/40/32 15/39/30 65/132/69
f 66/107/71 78/108/72 40/41/33 16/16/32
f 55/187/53 60/185/61 59/186/62 57/188/55
f 73/94/52 74/109/63 60/112/61 55/139/53
f 67/140/73 68/141/74 69/142/75 70/143/76
f 56/144/54 63/117/66 71/120/67 72/93/51
f 58/148/56 64/176/68 63/175/66 56/174/54
f 53/125/77 65/121/69 77/122/70 76/126/78
f 52/173/79 66/131/71 65/132/69 53/152/77
f 75/133/80 78/108/72 66/107/71 52/134/79
f 54/153/81 62/154/82 83/155/64 86/156/83
f 61/157/84 51/158/85 85/159/86 84/160/65
f 51/161/85 54/162/81 86/163/83 85/164/86
f 71/120/67 30/119/23 12/165/49 62/166/82
f 72/93/51 71/120/67 62/166/82 54/167/81
f 54/167/81 51/168/85 73/94/52 72/93/51
f 51/168/85 61/169/84 74/109/63 73/94/52
f 61/169/84 11/170/50 29/110/16 74/109/63
f 58/100/56 57/99/55 75/171/80 76/172/78
f 14/53/26 64/127/68 77/122/70 37/33/29
f 59/135/62 9/59/13 40/41/33 78/108/72
f 64/127/68 58/128/56 76/126/78 77/122/70
f 57/136/55 59/135/62 78/108/72 75/133/80
f 76/172/78 75/171/80 79/102/58 80/101/57
f 75/133/80 52/134/79 81/138/59 79/151/58
f 52/149/79 53/150/77 82/104/60 81/103/59
f 53/125/77 76/126/78 80/145/57 82/147/60
f 62/154/82 12/177/49 46/178/20 83/155/64
f 11/179/50 61/157/84 84/160/65 47/180/19
f 84/160/65 85/159/86 70/181/76 69/182/75
f 83/113/64 84/116/65 69/142/75 68/141/74
f 86/156/83 83/155/64 68/183/74 67/184/73
f 85/164/86 86/163/83 67/140/73 70/143/76
