# This file uses centimeters as units for non-parametric coordinates.

g default
v 1.250530 -0.566367 0.609376
v 1.044339 0.672991 0.608748
v 1.044339 0.672991 -0.608747
v 1.250530 -0.566367 -0.609376
v 1.072068 -0.344890 0.543579
v 1.072068 -0.344890 -0.543578
v 1.072068 0.489340 0.543579
v 1.072068 0.489340 -0.543578
v -0.000000 0.489340 0.543579
v -0.000000 -0.344890 0.543579
v -0.000000 -0.566367 0.609376
v -0.000000 -0.566367 -0.609376
v -0.000000 -0.344890 -0.543578
v -0.000000 0.489340 -0.543578
v -0.000000 0.672991 -0.608747
v -0.000000 0.672991 0.608748
v 0.502201 0.489340 0.543579
v 0.502201 -0.344890 0.543579
v 0.431917 -0.566367 0.609376
v 0.431917 -0.566367 -0.609376
v 0.502201 -0.344890 -0.543578
v 0.502201 0.489340 -0.543578
v 0.561492 0.672991 -0.608747
v 0.561492 0.672991 0.608748
v 1.072068 -0.732231 -0.543578
v 0.639160 -0.732231 -0.543578
v 0.639160 -0.732231 0.543579
v 1.072068 -0.732231 0.543579
v -0.000000 -0.424231 0.609376
v -0.000000 -0.424231 -0.609376
v 0.497454 -0.424231 -0.609376
v 1.250530 -0.424231 -0.609376
v 1.250530 -0.424231 0.609376
v 0.497454 -0.424231 0.609376
v 1.156094 0.535667 0.608748
v 1.156094 0.535667 -0.608747
v -0.000000 0.535667 -0.608747
v 0.561492 0.535667 -0.608747
v 0.561492 0.535667 0.608748
v -0.000000 0.535667 0.608748
v 1.221248 0.661698 0.608748
v 1.221248 0.661698 -0.608747
v 1.126383 0.732231 0.608748
v 1.126383 0.732231 -0.608747
v 0.564547 -0.622228 -0.543578
v -0.000000 -0.622228 -0.543578
v -0.000000 -0.622228 0.543579
v 0.564547 -0.622228 0.543579
v 1.081798 -0.622228 0.543579
v 1.081798 -0.622228 -0.543578
v -1.250530 -0.566367 0.609376
v -1.044339 0.672991 0.608748
v -1.044339 0.672991 -0.608747
v -1.250530 -0.566367 -0.609376
v -1.072068 -0.344890 0.543579
v -1.072068 -0.344890 -0.543578
v -1.072068 0.489340 0.543579
v -1.072068 0.489340 -0.543578
v -0.502201 0.489340 0.543579
v -0.502201 -0.344890 0.543579
v -0.431917 -0.566367 0.609376
v -0.431917 -0.566367 -0.609376
v -0.502201 -0.344890 -0.543578
v -0.502201 0.489340 -0.543578
v -0.561492 0.672991 -0.608747
v -0.561492 0.672991 0.608748
v -1.072068 -0.732231 -0.543578
v -0.639160 -0.732231 -0.543578
v -0.639160 -0.732231 0.543579
v -1.072068 -0.732231 0.543579
v -0.497454 -0.424231 -0.609376
v -1.250530 -0.424231 -0.609376
v -1.250530 -0.424231 0.609376
v -0.497454 -0.424231 0.609376
v -1.156094 0.535667 0.608748
v -1.156094 0.535667 -0.608747
v -0.561492 0.535667 -0.608747
v -0.561492 0.535667 0.608748
v -1.221248 0.661698 0.608748
v -1.221248 0.661698 -0.608747
v -1.126383 0.732231 0.608748
v -1.126383 0.732231 -0.608747
v -0.564547 -0.622228 -0.543578
v -0.564547 -0.622228 0.543579
v -1.081798 -0.622228 0.543579
v -1.081798 -0.622228 -0.543578
vt 0.337619 0.052044
vt 0.656576 0.052044
vt 0.639361 0.103186
vt 0.354835 0.103186
vt 0.770304 0.102566
vt 0.976194 0.102566
vt 0.976194 0.260556
vt 0.770304 0.260556
vt 0.757962 0.305597
vt 0.988536 0.305597
vt 0.988536 0.327984
vt 0.757962 0.327984
vt 0.289348 0.559616
vt 0.481663 0.559616
vt 0.481663 0.878814
vt 0.289292 0.878814
vt 0.853659 0.052044
vt 0.983860 0.052044
vt 0.983862 0.079035
vt 0.852417 0.079035
vt 0.509035 0.374659
vt 0.509035 0.264984
vt 0.720236 0.264984
vt 0.720236 0.374659
vt 0.141779 0.079035
vt 0.010333 0.079035
vt 0.010336 0.052044
vt 0.140537 0.052044
vt 0.707491 0.879023
vt 0.514952 0.879023
vt 0.515394 0.559826
vt 0.707517 0.559826
vt 0.730221 0.962160
vt 0.514935 0.962160
vt 0.514942 0.909617
vt 0.730221 0.909617
vt 0.988535 0.438592
vt 0.988534 0.544931
vt 0.757964 0.544931
vt 0.757963 0.438592
vt 0.266632 0.961951
vt 0.266633 0.909408
vt 0.481663 0.909408
vt 0.481663 0.961951
vt 0.070551 0.559616
vt 0.071511 0.878814
vt 0.703278 0.079035
vt 0.509035 0.484581
vt 0.509035 0.400481
vt 0.720236 0.400481
vt 0.720236 0.484581
vt 0.290917 0.079035
vt 0.925961 0.879023
vt 0.925524 0.559826
vt 0.915343 0.962160
vt 0.958188 0.909617
vt 0.988536 0.347149
vt 0.757962 0.347149
vt 0.039429 0.909408
vt 0.082135 0.961951
vt 0.023964 0.120930
vt 0.364845 0.120930
vt 0.309622 0.156928
vt 0.094210 0.156928
vt 0.195252 0.221285
vt 0.546203 0.221285
vt 0.473867 0.258292
vt 0.252112 0.258292
vt 0.733018 0.540564
vt 0.496252 0.540564
vt 0.509035 0.506035
vt 0.720236 0.506035
vt 0.010349 0.014826
vt 0.123385 0.014826
vt 0.337621 0.014826
vt 0.656575 0.014826
vt 0.870810 0.014826
vt 0.983846 0.014826
vt 0.988536 0.278727
vt 0.757962 0.278727
vt 0.050811 0.983433
vt 0.014589 0.956515
vt 0.983193 0.958955
vt 0.946810 0.986012
vt 0.544703 0.120930
vt 0.544712 0.156928
vt 0.010082 0.221285
vt 0.010081 0.258292
vt 0.469696 0.305458
vt 0.284099 0.305458
vt 0.278561 0.202805
vt 0.098248 0.202805
vt 0.337619 0.052044
vt 0.656576 0.052044
vt 0.639361 0.103186
vt 0.354835 0.103186
vt 0.770304 0.102566
vt 0.976194 0.102566
vt 0.976194 0.260556
vt 0.770304 0.260556
vt 0.757962 0.305597
vt 0.988536 0.305597
vt 0.988536 0.327984
vt 0.757962 0.327984
vt 0.289348 0.559616
vt 0.481663 0.559616
vt 0.481663 0.878814
vt 0.289292 0.878814
vt 0.853659 0.052044
vt 0.983860 0.052044
vt 0.983862 0.079035
vt 0.852417 0.079035
vt 0.509035 0.374659
vt 0.509035 0.264984
vt 0.720236 0.264984
vt 0.720236 0.374659
vt 0.141779 0.079035
vt 0.010333 0.079035
vt 0.010336 0.052044
vt 0.140537 0.052044
vt 0.707491 0.879023
vt 0.514952 0.879023
vt 0.515394 0.559826
vt 0.707517 0.559826
vt 0.730221 0.962160
vt 0.514935 0.962160
vt 0.514942 0.909617
vt 0.730221 0.909617
vt 0.988535 0.438592
vt 0.988534 0.544931
vt 0.757964 0.544931
vt 0.757963 0.438592
vt 0.266632 0.961951
vt 0.266633 0.909408
vt 0.481663 0.909408
vt 0.481663 0.961951
vt 0.070551 0.559616
vt 0.071511 0.878814
vt 0.703278 0.079035
vt 0.509035 0.484581
vt 0.509035 0.400481
vt 0.720236 0.400481
vt 0.720236 0.484581
vt 0.290917 0.079035
vt 0.925961 0.879023
vt 0.925524 0.559826
vt 0.915343 0.962160
vt 0.958188 0.909617
vt 0.988536 0.347149
vt 0.757962 0.347149
vt 0.039429 0.909408
vt 0.082135 0.961951
vt 0.023964 0.120930
vt 0.364845 0.120930
vt 0.309622 0.156928
vt 0.094210 0.156928
vt 0.195252 0.221285
vt 0.546203 0.221285
vt 0.473867 0.258292
vt 0.252112 0.258292
vt 0.733018 0.540564
vt 0.496252 0.540564
vt 0.509035 0.506035
vt 0.720236 0.506035
vt 0.010349 0.014826
vt 0.123385 0.014826
vt 0.337621 0.014826
vt 0.656575 0.014826
vt 0.870810 0.014826
vt 0.983846 0.014826
vt 0.988536 0.278727
vt 0.757962 0.278727
vt 0.050811 0.983433
vt 0.014589 0.956515
vt 0.983193 0.958955
vt 0.946810 0.986012
vt 0.544703 0.120930
vt 0.544712 0.156928
vt 0.010082 0.221285
vt 0.010081 0.258292
vt 0.469696 0.305458
vt 0.284099 0.305458
vt 0.278561 0.202805
vt 0.098248 0.202805
vn 0.406245 0.913764 0.000000
vn 0.406245 0.913764 0.000000
vn 0.406245 0.913764 0.000000
vn 0.406245 0.913764 0.000000
vn 1.000000 0.000000 0.000000
vn 1.000000 0.000000 0.000000
vn 1.000000 0.000000 0.000000
vn 1.000000 0.000000 0.000000
vn 0.596660 0.802494 0.000000
vn 0.596660 0.802494 0.000000
vn 0.596660 0.802494 0.000000
vn 0.596660 0.802494 0.000000
vn 0.000000 0.000000 1.000000
vn 0.000000 0.000000 1.000000
vn 0.000000 0.000000 1.000000
vn 0.000000 0.000000 1.000000
vn 0.000000 0.638348 0.769748
vn 0.000000 0.638348 0.769748
vn 0.000000 0.638349 0.769747
vn 0.000000 0.638349 0.769747
vn 0.000000 -1.000000 0.000000
vn 0.000000 -1.000000 0.000000
vn 0.000000 -1.000000 0.000000
vn 0.000000 -1.000000 0.000000
vn -0.000000 0.638349 -0.769747
vn -0.000000 0.638349 -0.769747
vn 0.000000 0.638349 -0.769747
vn 0.000000 0.638349 -0.769747
vn 0.000000 0.000000 -1.000000
vn 0.000000 0.000000 -1.000000
vn 0.000000 0.000000 -1.000000
vn 0.000000 0.000000 -1.000000
vn 0.000000 0.000000 -1.000000
vn 0.000000 0.000000 -1.000000
vn 0.000000 0.000000 -1.000000
vn 0.000000 0.000000 -1.000000
vn 0.000000 1.000000 0.000000
vn 0.000000 1.000000 0.000000
vn 0.000000 1.000000 0.000000
vn 0.000000 1.000000 0.000000
vn 0.000000 0.000000 1.000000
vn 0.000000 0.000000 1.000000
vn 0.000000 0.000000 1.000000
vn 0.000000 0.000000 1.000000
vn 0.000000 0.000000 1.000000
vn 0.000000 0.000000 1.000000
vn 0.000000 0.000000 1.000000
vn 0.000000 0.000000 1.000000
vn 0.000000 0.638348 0.769748
vn 0.000000 0.638348 0.769748
vn 0.000000 0.638348 0.769748
vn 0.000000 0.638348 0.769748
vn 0.000000 -1.000000 0.000000
vn 0.000000 -1.000000 0.000000
vn 0.000000 -1.000000 0.000000
vn 0.000000 -1.000000 0.000000
vn -0.000000 0.638349 -0.769747
vn -0.000000 0.638349 -0.769747
vn -0.000000 0.638349 -0.769747
vn -0.000000 0.638349 -0.769747
vn 0.000000 0.000000 -1.000000
vn 0.000000 0.000000 -1.000000
vn 0.000000 0.000000 -1.000000
vn 0.000000 0.000000 -1.000000
vn 0.000000 0.000000 -1.000000
vn 0.000000 0.000000 -1.000000
vn 0.000000 0.000000 -1.000000
vn 0.000000 0.000000 -1.000000
vn 0.000000 1.000000 0.000000
vn 0.000000 1.000000 0.000000
vn 0.000000 1.000000 0.000000
vn 0.000000 1.000000 0.000000
vn 0.000000 0.000000 1.000000
vn 0.000000 0.000000 1.000000
vn 0.000000 0.000000 1.000000
vn 0.000000 0.000000 1.000000
vn 0.000000 -0.762320 -0.647200
vn 0.000000 -0.526672 -0.850069
vn 0.000000 -0.556593 -0.830786
vn 0.000000 -0.762320 -0.647200
vn 0.000000 -0.762320 0.647200
vn 0.000000 -0.556593 0.830786
vn 0.000000 -0.526672 0.850069
vn 0.000000 -0.762320 0.647200
vn 0.314290 -0.949327 0.000000
vn 0.599959 -0.800031 0.000000
vn 0.599959 -0.800031 0.000000
vn 0.314290 -0.949327 0.000000
vn 0.000000 0.000000 -1.000000
vn 0.000000 0.000000 -1.000000
vn 0.000000 0.000000 -1.000000
vn 0.000000 0.000000 -1.000000
vn 0.000000 0.000000 -1.000000
vn 0.000000 0.000000 -1.000000
vn 0.000000 0.000000 -1.000000
vn 0.000000 0.000000 -1.000000
vn 1.000000 0.000000 0.000000
vn 1.000000 0.000000 0.000000
vn 1.000000 0.000000 0.000000
vn 1.000000 0.000000 0.000000
vn 0.000000 0.000000 1.000000
vn 0.000000 0.000000 1.000000
vn 0.000000 0.000000 1.000000
vn 0.000000 0.000000 1.000000
vn 0.000000 0.000000 1.000000
vn 0.000000 0.000000 1.000000
vn 0.000000 0.000000 1.000000
vn 0.000000 0.000000 1.000000
vn 0.482828 -0.875715 0.000000
vn 0.482828 -0.875715 0.000000
vn 0.482828 -0.875715 0.000000
vn 0.482828 -0.875715 0.000000
vn 0.000000 -0.815039 -0.579406
vn 0.000000 -0.815039 -0.579406
vn 0.000000 -0.815039 -0.579406
vn 0.000000 -0.815039 -0.579406
vn 0.000000 -0.815041 0.579403
vn 0.000000 -0.815041 0.579403
vn 0.000000 -0.815041 0.579403
vn 0.000000 -0.815041 0.579403
vn 0.000000 -0.815039 -0.579406
vn 0.000000 -0.815039 -0.579406
vn 0.000000 -0.815039 -0.579406
vn 0.000000 -0.815039 -0.579406
vn 0.000000 -0.815041 0.579403
vn 0.000000 -0.815041 0.579403
vn 0.000000 -0.815041 0.579403
vn 0.000000 -0.815041 0.579403
vn 0.888316 -0.459232 0.000000
vn 0.888316 -0.459232 0.000000
vn 0.888316 -0.459232 0.000000
vn 0.888316 -0.459232 0.000000
vn 0.000000 0.000000 1.000000
vn 0.000000 0.000000 1.000000
vn 0.000000 0.000000 1.000000
vn 0.000000 0.000000 1.000000
vn -0.585404 0.810742 0.000000
vn -0.585404 0.810742 0.000000
vn -0.585404 0.810742 0.000000
vn -0.585404 0.810742 0.000000
vn 0.000000 0.000000 -1.000000
vn 0.000000 0.000000 -1.000000
vn 0.000000 0.000000 -1.000000
vn 0.000000 0.000000 -1.000000
vn 0.000000 -0.762319 -0.647201
vn 0.000000 -0.762319 -0.647201
vn 0.000000 -0.762319 -0.647201
vn 0.000000 -0.762319 -0.647201
vn 0.000000 -0.762319 0.647201
vn 0.000000 -0.762319 0.647201
vn 0.000000 -0.762319 0.647201
vn 0.000000 -0.762319 0.647201
vn 0.000000 -0.556593 0.830786
vn 0.000000 0.000000 1.000000
vn 0.000000 0.000000 1.000000
vn 0.000000 -0.526672 0.850069
vn -0.827587 -0.561338 0.000000
vn -0.827587 -0.561338 0.000000
vn -0.827587 -0.561338 0.000000
vn -0.827587 -0.561338 0.000000
vn 0.000000 -0.526672 -0.850069
vn 0.000000 0.000000 -1.000000
vn 0.000000 0.000000 -1.000000
vn 0.000000 -0.556593 -0.830786
vn 0.599959 -0.800031 0.000000
vn 0.996111 -0.088110 0.000000
vn 0.996111 -0.088110 0.000000
vn 0.599959 -0.800031 0.000000
vn -0.406245 0.913764 0.000000
vn -0.406245 0.913764 0.000000
vn -0.406245 0.913764 0.000000
vn -0.406245 0.913764 0.000000
vn -1.000000 0.000000 0.000000
vn -1.000000 0.000000 0.000000
vn -1.000000 0.000000 0.000000
vn -1.000000 0.000000 0.000000
vn -0.596660 0.802494 0.000000
vn -0.596660 0.802494 0.000000
vn -0.596660 0.802494 0.000000
vn -0.596660 0.802494 0.000000
vn 0.000000 0.000000 1.000000
vn 0.000000 0.000000 1.000000
vn 0.000000 0.638348 0.769748
vn 0.000000 0.638348 0.769748
vn 0.000000 -1.000000 0.000000
vn 0.000000 -1.000000 0.000000
vn 0.000000 0.638349 -0.769747
vn 0.000000 0.638349 -0.769747
vn 0.000000 0.000000 -1.000000
vn 0.000000 0.000000 -1.000000
vn 0.000000 0.000000 -1.000000
vn 0.000000 0.000000 -1.000000
vn 0.000000 1.000000 0.000000
vn 0.000000 1.000000 0.000000
vn 0.000000 0.000000 1.000000
vn 0.000000 0.000000 1.000000
vn 0.000000 0.000000 1.000000
vn 0.000000 0.000000 1.000000
vn 0.000000 0.000000 1.000000
vn 0.000000 0.000000 1.000000
vn 0.000000 0.638348 0.769748
vn 0.000000 0.638348 0.769748
vn 0.000000 0.638348 0.769748
vn 0.000000 0.638348 0.769748
vn 0.000000 -1.000000 0.000000
vn 0.000000 -1.000000 0.000000
vn 0.000000 -1.000000 0.000000
vn 0.000000 -1.000000 0.000000
vn 0.000000 0.638349 -0.769747
vn 0.000000 0.638349 -0.769747
vn 0.000000 0.638349 -0.769747
vn 0.000000 0.638349 -0.769747
vn 0.000000 0.000000 -1.000000
vn 0.000000 0.000000 -1.000000
vn 0.000000 0.000000 -1.000000
vn 0.000000 0.000000 -1.000000
vn 0.000000 0.000000 -1.000000
vn 0.000000 0.000000 -1.000000
vn 0.000000 0.000000 -1.000000
vn 0.000000 0.000000 -1.000000
vn 0.000000 1.000000 0.000000
vn 0.000000 1.000000 0.000000
vn 0.000000 1.000000 0.000000
vn 0.000000 1.000000 0.000000
vn 0.000000 0.000000 1.000000
vn 0.000000 0.000000 1.000000
vn 0.000000 0.000000 1.000000
vn 0.000000 0.000000 1.000000
vn 0.000000 -0.762320 -0.647200
vn 0.000000 -0.762320 -0.647200
vn 0.000000 -0.556593 -0.830786
vn 0.000000 -0.526672 -0.850069
vn 0.000000 -0.762320 0.647200
vn 0.000000 -0.762320 0.647200
vn 0.000000 -0.526672 0.850069
vn 0.000000 -0.556593 0.830786
vn -0.314290 -0.949327 0.000000
vn -0.314290 -0.949327 0.000000
vn -0.599959 -0.800031 0.000000
vn -0.599959 -0.800031 0.000000
vn 0.000000 0.000000 -1.000000
vn 0.000000 0.000000 -1.000000
vn 0.000000 0.000000 -1.000000
vn 0.000000 0.000000 -1.000000
vn 0.000000 0.000000 -1.000000
vn 0.000000 0.000000 -1.000000
vn -1.000000 0.000000 0.000000
vn -1.000000 0.000000 0.000000
vn -1.000000 0.000000 0.000000
vn -1.000000 0.000000 0.000000
vn 0.000000 0.000000 1.000000
vn 0.000000 0.000000 1.000000
vn 0.000000 0.000000 1.000000
vn 0.000000 0.000000 1.000000
vn 0.000000 0.000000 1.000000
vn 0.000000 0.000000 1.000000
vn -0.482828 -0.875715 0.000000
vn -0.482828 -0.875715 0.000000
vn -0.482828 -0.875715 0.000000
vn -0.482828 -0.875715 0.000000
vn 0.000000 -0.815039 -0.579406
vn 0.000000 -0.815039 -0.579406
vn 0.000000 -0.815041 0.579403
vn 0.000000 -0.815041 0.579403
vn 0.000000 -0.815039 -0.579406
vn 0.000000 -0.815039 -0.579406
vn 0.000000 -0.815039 -0.579406
vn 0.000000 -0.815039 -0.579406
vn 0.000000 -0.815041 0.579403
vn 0.000000 -0.815041 0.579403
vn 0.000000 -0.815041 0.579403
vn 0.000000 -0.815041 0.579403
vn -0.888316 -0.459232 0.000000
vn -0.888316 -0.459232 0.000000
vn -0.888316 -0.459232 0.000000
vn -0.888316 -0.459232 0.000000
vn 0.000000 0.000000 1.000000
vn 0.000000 0.000000 1.000000
vn 0.000000 0.000000 1.000000
vn 0.000000 0.000000 1.000000
vn 0.585404 0.810742 0.000000
vn 0.585404 0.810742 0.000000
vn 0.585404 0.810742 0.000000
vn 0.585404 0.810742 0.000000
vn 0.000000 0.000000 -1.000000
vn 0.000000 0.000000 -1.000000
vn 0.000000 0.000000 -1.000000
vn 0.000000 0.000000 -1.000000
vn 0.000000 -0.762319 -0.647201
vn 0.000000 -0.762319 -0.647201
vn 0.000000 -0.762319 0.647201
vn 0.000000 -0.762319 0.647201
vn 0.000000 -0.556593 0.830786
vn 0.000000 -0.526672 0.850069
vn 0.000000 0.000000 1.000000
vn 0.000000 0.000000 1.000000
vn 0.827587 -0.561338 0.000000
vn 0.827587 -0.561338 0.000000
vn 0.827587 -0.561338 0.000000
vn 0.827587 -0.561338 0.000000
vn 0.000000 -0.526672 -0.850069
vn 0.000000 -0.556593 -0.830786
vn 0.000000 0.000000 -1.000000
vn 0.000000 0.000000 -1.000000
vn -0.599959 -0.800031 0.000000
vn -0.599959 -0.800031 0.000000
vn -0.996111 -0.088110 0.000000
vn -0.996111 -0.088110 0.000000
s off
g pCube42
f 32/1/1 6/4/2 5/3/3 33/2/4
f 6/5/5 8/8/6 7/7/7 5/6/8
f 42/9/9 44/12/10 43/11/11 41/10/12
s 1
f 18/13/13 17/16/14 9/15/15 10/14/16
s 2
f 34/17/17 18/20/18 10/19/19 29/18/20
s 3
f 45/21/21 48/24/22 47/23/23 46/22/24
s 4
f 21/25/25 31/28/26 30/27/27 13/26/28
s 5
f 22/29/29 21/32/30 13/31/31 14/30/32
s 6
f 23/33/33 38/36/34 37/35/35 15/34/36
s 7
f 24/37/37 23/40/38 15/39/39 16/38/40
s 8
f 24/41/41 16/44/42 40/43/43 39/42/44
s off
f 5/45/45 7/46/46 17/16/47 18/13/48
f 33/2/49 5/47/50 18/20/51 34/17/52
f 25/48/53 28/51/54 27/50/55 26/49/56
f 6/52/57 32/1/58 31/28/59 21/25/60
f 8/53/61 6/54/62 21/32/63 22/29/64
f 3/55/65 36/56/66 38/36/67 23/33/68
f 2/57/69 3/58/70 23/40/71 24/37/72
f 35/59/73 2/60/74 24/41/75 39/42/76
f 4/61/77 50/64/78 45/63/79 20/62/80
f 19/65/81 48/68/82 49/67/83 1/66/84
f 1/69/85 49/72/86 50/71/87 4/70/88
s 9
f 31/28/89 20/74/90 12/73/91 30/27/92
s off
f 32/1/93 4/75/94 20/74/95 31/28/96
f 4/75/97 32/1/98 33/2/99 1/76/100
f 1/76/101 33/2/102 34/17/103 19/77/104
s 10
f 19/77/105 34/17/106 29/18/107 11/78/108
s off
f 8/8/109 36/80/110 35/79/111 7/7/112
s 11
f 14/30/113 37/35/114 38/36/115 22/29/116
s 12
f 17/16/117 39/42/118 40/43/119 9/15/120
s off
f 22/29/121 38/36/122 36/56/123 8/53/124
f 7/46/125 35/59/126 39/42/127 17/16/128
f 36/80/129 42/9/130 41/10/131 35/79/132
f 35/59/133 41/82/134 43/81/135 2/60/136
f 2/57/137 43/11/138 44/12/139 3/58/140
f 3/55/141 44/84/142 42/83/143 36/56/144
s 13
f 20/62/145 45/63/146 46/86/147 12/85/148
s 14
f 11/87/149 47/88/150 48/68/151 19/65/152
s off
f 48/68/153 27/90/154 28/89/155 49/67/156
f 45/21/157 26/49/158 27/50/159 48/24/160
f 50/64/161 25/92/162 26/91/163 45/63/164
f 49/72/165 28/51/166 25/48/167 50/71/168
f 72/93/169 73/94/170 55/95/171 56/96/172
f 56/97/173 55/98/174 57/99/175 58/100/176
f 80/101/177 79/102/178 81/103/179 82/104/180
s 1
f 60/105/181 10/106/16 9/107/15 59/108/182
s 2
f 74/109/183 29/110/20 10/111/19 60/112/184
s 3
f 83/113/185 46/114/24 47/115/23 84/116/186
s 4
f 63/117/187 13/118/28 30/119/27 71/120/188
s 5
f 64/121/189 14/122/32 13/123/31 63/124/190
s 6
f 65/125/191 15/126/36 37/127/35 77/128/192
s 7
f 66/129/193 16/130/40 15/131/39 65/132/194
s 8
f 66/133/195 78/134/196 40/135/43 16/136/42
s off
f 55/137/197 60/105/198 59/108/199 57/138/200
f 73/94/201 74/109/202 60/112/203 55/139/204
f 67/140/205 68/141/206 69/142/207 70/143/208
f 56/144/209 63/117/210 71/120/211 72/93/212
f 58/145/213 64/121/214 63/124/215 56/146/216
f 53/147/217 65/125/218 77/128/219 76/148/220
f 52/149/221 66/129/222 65/132/223 53/150/224
f 75/151/225 78/134/226 66/133/227 52/152/228
f 54/153/229 62/154/230 83/155/231 86/156/232
f 61/157/233 51/158/234 85/159/235 84/160/236
f 51/161/237 54/162/238 86/163/239 85/164/240
s 9
f 71/120/241 30/119/92 12/165/91 62/166/242
s off
f 72/93/243 71/120/244 62/166/245 54/167/246
f 54/167/247 51/168/248 73/94/249 72/93/250
f 51/168/251 61/169/252 74/109/253 73/94/254
s 10
f 61/169/255 11/170/108 29/110/107 74/109/256
s off
f 58/100/257 57/99/258 75/171/259 76/172/260
s 11
f 14/122/113 64/121/261 77/128/262 37/127/114
s 12
f 59/108/263 9/107/120 40/135/119 78/134/264
s off
f 64/121/265 58/145/266 76/148/267 77/128/268
f 57/138/269 59/108/270 78/134/271 75/151/272
f 76/172/273 75/171/274 79/102/275 80/101/276
f 75/151/277 52/152/278 81/173/279 79/174/280
f 52/149/281 53/150/282 82/104/283 81/103/284
f 53/147/285 76/148/286 80/175/287 82/176/288
s 13
f 62/154/289 12/177/148 46/178/147 83/155/290
s 14
f 11/179/149 61/157/291 84/160/292 47/180/150
s off
f 84/160/293 85/159/294 70/181/295 69/182/296
f 83/113/297 84/116/298 69/142/299 68/141/300
f 86/156/301 83/155/302 68/183/303 67/184/304
f 85/164/305 86/163/306 67/140/307 70/143/308
