# This file uses centimeters as units for non-parametric coordinates.

g guanqia_007_diban:default1
v -21.398285 2.975900 11.291330
v -21.398285 2.975900 0.000000
v -21.398285 2.975900 8.468498
v -14.341226 2.975900 11.291330
v -14.341226 2.975900 8.468498
v -14.341226 2.975900 0.000000
v -8.695582 2.975900 11.291330
v -8.695582 2.975900 8.468498
g guanqia_007_diban:default2
v -21.398285 1.854083 11.291330
v -14.341226 1.854083 11.291330
v -14.341226 1.854083 8.468498
v -21.398285 1.854083 8.468498
g guanqia_007_diban:default1
v -14.341226 1.854083 0.000000
v -21.398285 1.854083 0.000000
v -8.695582 1.854083 11.291330
v -8.695582 1.854083 8.468498
v -14.341226 2.637918 11.291330
v -8.695582 2.637918 11.291330
v -8.695582 2.637918 8.468498
v -14.341226 2.637918 8.468498
v -14.341226 2.637918 0.000000
v -21.398285 2.637918 0.000000
v -21.398285 2.637918 8.468498
v -21.398285 2.637918 11.291330
v -14.366519 2.975900 8.468498
v -14.366519 2.975900 -0.845295
v -2.984623 2.975900 8.468498
v -2.984623 2.975900 -0.845295
v -14.366519 1.235479 8.468498
v -14.366519 1.235479 -0.845295
v -2.984623 1.235479 8.468498
v -2.984623 1.235479 -0.845295
g guanqia_007_diban:default2
v -14.366518 2.644735 8.468498
v -2.984623 2.644735 8.468498
v -2.984623 2.644735 -0.845295
v -14.366518 2.644735 -0.845295
g guanqia_007_diban:default1
v 4.950316 2.975900 11.291330
v 4.950316 2.975900 0.000000
v 4.950316 2.975900 8.468498
v -5.801137 2.975900 11.291330
v -5.801137 2.975900 8.468498
v -2.978326 2.975900 11.291330
v -2.978326 2.975900 8.468498
v -2.978326 2.975900 0.000000
g guanqia_007_diban:default2
v -5.801137 1.849884 11.291330
v -5.801137 1.849884 8.468498
v -2.978326 1.849884 11.291330
v -2.978326 1.849884 8.468498
g guanqia_007_diban:default1
v 4.950316 1.849884 11.291330
v 4.950316 1.849884 8.468498
v 4.950316 1.849884 0.000000
v -2.978326 1.849884 0.000000
v -5.801137 2.574528 11.291330
v -2.978326 2.574528 11.291330
v 4.950316 2.574528 11.291330
v 4.950316 2.574528 8.468498
v 4.950316 2.574528 0.000000
v -2.978326 2.574528 0.000000
v -2.978326 2.574528 8.468498
v -5.801137 2.574528 8.468498
vt 0.004085 0.993333
vt 0.004066 0.955855
vt 0.097736 0.955855
vt 0.097729 0.993333
vt 0.004057 0.843419
vt 0.097745 0.843420
vt 0.172653 0.955855
vt 0.172644 0.993333
vt 0.012398 0.277554
vt 0.204642 0.277554
vt 0.204649 0.354474
vt 0.012377 0.354474
vt 0.204660 0.585234
vt 0.012367 0.585234
vt 0.358437 0.277554
vt 0.358452 0.354471
vt 0.425987 0.056777
vt 0.425987 0.044393
vt 0.682919 0.044393
vt 0.682919 0.056777
vt 0.323215 0.056777
vt 0.323215 0.044393
vt 0.280537 0.122926
vt 0.280537 0.107635
vt 0.661274 0.107636
vt 0.661274 0.122926
vt 0.978554 0.107636
vt 0.978554 0.122926
vt 0.014895 0.056777
vt 0.014895 0.044393
vt 0.888464 0.044393
vt 0.888463 0.056777
vt 0.991239 0.044393
vt 0.991240 0.056777
vt 0.026713 0.122926
vt 0.026713 0.107635
vt 0.682919 0.015848
vt 0.888463 0.015848
vt 0.991236 0.015848
vt 0.026713 0.072394
vt 0.280537 0.072394
vt 0.661274 0.072394
vt 0.978554 0.072394
vt 0.014896 0.015848
vt 0.323215 0.015848
vt 0.425987 0.015848
vt 0.099068 0.708894
vt 0.098807 0.822690
vt 0.004940 0.822474
vt 0.005201 0.708679
vt 0.899937 0.901068
vt 0.454943 0.901068
vt 0.454940 0.361597
vt 0.899940 0.361597
vt 0.899937 0.916801
vt 0.454943 0.916801
vt 0.439210 0.901068
vt 0.439207 0.361597
vt 0.454939 0.345864
vt 0.899940 0.345864
vt 0.915673 0.361597
vt 0.915670 0.901068
vt 0.371879 0.901068
vt 0.371876 0.361597
vt 0.454937 0.278533
vt 0.899943 0.278533
vt 0.983003 0.361597
vt 0.983000 0.901068
vt 0.899937 0.984132
vt 0.454943 0.984132
vt 0.363844 0.419087
vt 0.324680 0.419087
vt 0.324679 0.379922
vt 0.363842 0.379922
vt 0.214677 0.419087
vt 0.214679 0.379922
vt 0.324681 0.536584
vt 0.214676 0.536584
vt 0.021887 0.689437
vt 0.022052 0.605327
vt 0.105936 0.605327
vt 0.105830 0.689437
vt 0.341547 0.605327
vt 0.341749 0.689437
vt 0.341862 0.941766
vt 0.105717 0.941766
vt 0.011742 0.260961
vt 0.011742 0.245344
vt 0.122136 0.245344
vt 0.122136 0.260961
vt 0.232526 0.245344
vt 0.232526 0.260961
vt 0.838646 0.194365
vt 0.838646 0.174144
vt 0.981542 0.174144
vt 0.981544 0.194365
vt 0.542588 0.245344
vt 0.542588 0.260961
vt 0.652979 0.245344
vt 0.652979 0.260961
vt 0.984154 0.245344
vt 0.984154 0.260961
vt 0.008633 0.194365
vt 0.008634 0.174144
vt 0.409978 0.174144
vt 0.409978 0.194365
vt 0.122136 0.217000
vt 0.232526 0.217000
vt 0.542588 0.217000
vt 0.652979 0.217000
vt 0.984153 0.217000
vt 0.008637 0.137445
vt 0.409978 0.137445
vt 0.838645 0.137445
vt 0.981534 0.137445
vt 0.011745 0.217000
vn 0.000000 -1.000000 0.000000
vn 0.000000 -1.000000 0.000000
vn 0.000000 -1.000000 0.000000
vn 0.000000 -1.000000 0.000000
vn 0.000000 -1.000000 0.000000
vn 0.000000 -1.000000 0.000000
vn 0.000000 -1.000000 0.000000
vn 0.000000 -1.000000 0.000000
vn 0.000000 -1.000000 0.000000
vn 0.000000 -1.000000 0.000000
vn 0.000000 -1.000000 0.000000
vn 0.000000 -1.000000 0.000000
vn 0.000000 1.000000 0.000000
vn 0.000000 1.000000 0.000000
vn 0.000000 1.000000 0.000000
vn 0.000000 1.000000 0.000000
vn 0.000000 1.000000 0.000000
vn 0.000000 1.000000 0.000000
vn 0.000000 1.000000 0.000000
vn 0.000000 1.000000 0.000000
vn 0.000000 1.000000 0.000000
vn 0.000000 1.000000 0.000000
vn 0.000000 1.000000 0.000000
vn 0.000000 1.000000 0.000000
vn 0.000000 0.000000 1.000000
vn 0.000000 0.000000 1.000000
vn 0.000000 0.000000 1.000000
vn 0.000000 0.000000 1.000000
vn -1.000000 0.000000 0.000000
vn -1.000000 0.000000 0.000000
vn -1.000000 0.000000 0.000000
vn -1.000000 0.000000 0.000000
vn 1.000000 0.000000 0.000000
vn 1.000000 0.000000 0.000000
vn 1.000000 0.000000 0.000000
vn 1.000000 0.000000 0.000000
vn 0.000000 0.000000 -1.000000
vn 0.000000 0.000000 -1.000000
vn 0.000000 0.000000 -1.000000
vn 0.000000 0.000000 -1.000000
vn -1.000000 0.000000 0.000000
vn -1.000000 0.000000 0.000000
vn -1.000000 0.000000 0.000000
vn -1.000000 0.000000 0.000000
vn 0.000000 0.000000 1.000000
vn 0.000000 0.000000 1.000000
vn 0.000000 0.000000 1.000000
vn 0.000000 0.000000 1.000000
vn 1.000000 0.000000 0.000000
vn 1.000000 0.000000 0.000000
vn 1.000000 0.000000 0.000000
vn 1.000000 0.000000 0.000000
vn 0.000000 0.000000 -1.000000
vn 0.000000 0.000000 -1.000000
vn 0.000000 0.000000 -1.000000
vn 0.000000 0.000000 -1.000000
vn 0.000000 0.000000 1.000000
vn 0.000000 0.000000 1.000000
vn 0.000000 0.000000 1.000000
vn 0.000000 0.000000 1.000000
vn 1.000000 0.000000 0.000000
vn 1.000000 0.000000 0.000000
vn 1.000000 0.000000 0.000000
vn 1.000000 0.000000 0.000000
vn 0.000000 0.000000 -1.000000
vn 0.000000 0.000000 -1.000000
vn 0.000000 0.000000 -1.000000
vn 0.000000 0.000000 -1.000000
vn 1.000000 0.000000 0.000000
vn 1.000000 0.000000 0.000000
vn 1.000000 0.000000 0.000000
vn 1.000000 0.000000 0.000000
vn 0.000000 0.000000 -1.000000
vn 0.000000 0.000000 -1.000000
vn 0.000000 0.000000 -1.000000
vn 0.000000 0.000000 -1.000000
vn -1.000000 0.000000 0.000000
vn -1.000000 0.000000 0.000000
vn -1.000000 0.000000 0.000000
vn -1.000000 0.000000 0.000000
vn -1.000000 0.000000 0.000000
vn -1.000000 0.000000 0.000000
vn -1.000000 0.000000 0.000000
vn -1.000000 0.000000 0.000000
vn 0.000000 0.000000 1.000000
vn 0.000000 0.000000 1.000000
vn 0.000000 0.000000 1.000000
vn 0.000000 0.000000 1.000000
vn 0.000000 -1.000000 0.000000
vn 0.000000 -1.000000 0.000000
vn 0.000000 -1.000000 0.000000
vn 0.000000 -1.000000 0.000000
vn 0.000000 1.000000 0.000000
vn 0.000000 1.000000 0.000000
vn 0.000000 1.000000 0.000000
vn 0.000000 1.000000 0.000000
vn -1.000000 -0.000005 0.000000
vn -1.000000 0.000000 0.000000
vn -1.000000 0.000000 0.000000
vn -1.000000 -0.000005 0.000000
vn 0.000000 0.000000 1.000000
vn 0.000000 0.000000 1.000000
vn 0.000000 0.000000 1.000000
vn 0.000000 0.000000 1.000000
vn 1.000000 0.000000 0.000000
vn 1.000000 0.000000 0.000000
vn 1.000000 0.000000 0.000000
vn 1.000000 0.000000 0.000000
vn 0.000000 0.000000 -1.000000
vn 0.000000 0.000000 -1.000000
vn 0.000000 0.000000 -1.000000
vn 0.000000 0.000000 -1.000000
vn 0.000000 0.000000 1.000000
vn 0.000000 0.000000 1.000000
vn 0.000000 0.000000 1.000000
vn 0.000000 0.000000 1.000000
vn 1.000000 0.000000 0.000000
vn 1.000000 0.000000 0.000000
vn 1.000000 0.000000 0.000000
vn 1.000000 0.000000 0.000000
vn 0.000000 0.000000 -1.000000
vn 0.000000 0.000000 -1.000000
vn 0.000000 0.000000 -1.000000
vn 0.000000 0.000000 -1.000000
vn -1.000000 0.000000 0.000000
vn -1.000000 0.000000 0.000000
vn -1.000000 0.000001 0.000000
vn -1.000000 0.000001 0.000000
vn 0.000000 -1.000000 0.000000
vn 0.000000 -1.000000 0.000000
vn 0.000000 -1.000000 0.000000
vn 0.000000 -1.000000 0.000000
vn 0.000000 -1.000000 0.000000
vn 0.000000 -1.000000 0.000000
vn 0.000000 -1.000000 0.000000
vn 0.000000 -1.000000 0.000000
vn 0.000000 -1.000000 0.000000
vn 0.000000 -1.000000 0.000000
vn 0.000000 -1.000000 0.000000
vn 0.000000 -1.000000 0.000000
vn 0.000000 1.000000 0.000000
vn 0.000000 1.000000 0.000000
vn 0.000000 1.000000 0.000000
vn 0.000000 1.000000 0.000000
vn 0.000000 1.000000 0.000000
vn 0.000000 1.000000 0.000000
vn 0.000000 1.000000 0.000000
vn 0.000000 1.000000 0.000000
vn 0.000000 1.000000 0.000000
vn 0.000000 1.000000 0.000000
vn 0.000000 1.000000 0.000000
vn 0.000000 1.000000 0.000000
vn -1.000000 0.000000 0.000000
vn -1.000000 0.000000 0.000000
vn -1.000000 0.000000 0.000000
vn -1.000000 0.000000 0.000000
vn 0.000000 0.000000 1.000000
vn 0.000000 0.000000 1.000000
vn 0.000000 0.000000 1.000000
vn 0.000000 0.000000 1.000000
vn 0.000000 0.000000 -1.000000
vn 0.000000 0.000000 -1.000000
vn 0.000000 0.000000 -1.000000
vn 0.000000 0.000000 -1.000000
vn 0.000000 0.000000 1.000000
vn 0.000000 0.000000 1.000000
vn 0.000000 0.000000 1.000000
vn 0.000000 0.000000 1.000000
vn 1.000000 0.000000 0.000000
vn 1.000000 0.000000 0.000000
vn 1.000000 0.000000 0.000000
vn 1.000000 0.000000 0.000000
vn 1.000000 0.000000 0.000000
vn 1.000000 0.000000 0.000000
vn 1.000000 0.000000 0.000000
vn 1.000000 0.000000 0.000000
vn 0.000000 0.000000 -1.000000
vn 0.000000 0.000000 -1.000000
vn 0.000000 0.000000 -1.000000
vn 0.000000 0.000000 -1.000000
vn -1.000000 0.000000 0.000000
vn -1.000000 0.000000 0.000000
vn -1.000000 0.000000 0.000000
vn -1.000000 0.000000 0.000000
vn 0.000000 0.000000 1.000000
vn 0.000000 0.000000 1.000000
vn 0.000000 0.000000 1.000000
vn 0.000000 0.000000 1.000000
vn 0.000000 0.000000 1.000000
vn 0.000000 0.000000 1.000000
vn 0.000000 0.000000 1.000000
vn 0.000000 0.000000 1.000000
vn 1.000000 0.000000 0.000000
vn 1.000000 0.000000 0.000000
vn 1.000000 0.000000 0.000000
vn 1.000000 0.000000 0.000000
vn 1.000000 0.000000 0.000000
vn 1.000000 0.000000 0.000000
vn 1.000000 0.000000 0.000000
vn 1.000000 0.000000 0.000000
vn 0.000000 0.000000 -1.000000
vn 0.000000 0.000000 -1.000000
vn 0.000000 0.000000 -1.000000
vn 0.000000 0.000000 -1.000000
vn -1.000000 0.000000 0.000000
vn -1.000000 0.000000 0.000000
vn -1.000000 0.000000 0.000000
vn -1.000000 0.000000 0.000000
vn 0.000000 0.000000 -1.000000
vn 0.000000 0.000000 -1.000000
vn 0.000000 0.000000 -1.000000
vn 0.000000 0.000000 -1.000000
vn -1.000000 0.000000 0.000000
vn -1.000000 0.000000 0.000000
vn -1.000000 0.000000 0.000000
vn -1.000000 0.000000 0.000000
s off
g guanqia_007_diban:pCube201 guanqia_007_diban:polySurface928 guanqia_007_diban:polySurface951 polySurface3
f 9/1/1 12/2/2 11/3/3 10/4/4
f 11/3/5 12/2/6 14/5/7 13/6/8
f 11/3/9 16/7/10 15/8/11 10/4/12
f 1/9/13 4/10/14 5/11/15 3/12/16
f 5/11/17 6/13/18 2/14/19 3/12/20
f 5/11/21 4/10/22 7/15/23 8/16/24
f 1/17/25 24/18/26 17/19/27 4/20/28
f 3/21/29 23/22/30 24/18/31 1/17/32
f 5/23/33 20/24/34 21/25/35 6/26/36
f 6/26/37 21/25/38 22/27/39 2/28/40
f 2/29/41 22/30/42 23/22/43 3/21/44
f 4/20/45 17/19/46 18/31/47 7/32/48
f 7/32/49 18/31/50 19/33/51 8/34/52
f 8/35/53 19/36/54 20/24/55 5/23/56
f 17/19/57 10/37/58 15/38/59 18/31/60
f 19/33/61 18/31/62 15/38/63 16/39/64
f 20/24/65 19/36/66 16/40/67 11/41/68
f 21/25/69 20/24/70 11/41/71 13/42/72
f 22/27/73 21/25/74 13/42/75 14/43/76
f 23/22/77 22/30/78 14/44/79 12/45/80
f 24/18/81 23/22/82 12/45/83 9/46/84
f 17/19/85 24/18/86 9/46/87 10/37/88
f 30/47/89 32/48/90 31/49/91 29/50/92
f 26/51/93 25/52/94 27/53/95 28/54/96
f 26/51/97 36/55/98 33/56/99 25/52/100
f 25/52/101 33/57/102 34/58/103 27/53/104
f 27/53/105 34/59/106 35/60/107 28/54/108
f 28/54/109 35/61/110 36/62/111 26/51/112
f 33/57/113 29/63/114 31/64/115 34/58/116
f 35/60/117 34/59/118 31/65/119 32/66/120
f 36/62/121 35/61/122 32/67/123 30/68/124
f 33/56/125 36/55/126 30/69/127 29/70/128
f 46/71/129 48/72/130 47/73/131 45/74/132
f 47/73/133 48/72/134 50/75/135 49/76/136
f 50/75/137 48/72/138 52/77/139 51/78/140
f 41/79/141 40/80/142 42/81/143 43/82/144
f 42/81/145 37/83/146 39/84/147 43/82/148
f 39/84/149 38/85/150 44/86/151 43/82/152
f 41/87/153 60/88/154 53/89/155 40/90/156
f 40/90/157 53/89/158 54/91/159 42/92/160
f 43/93/161 59/94/162 60/95/163 41/96/164
f 42/92/165 54/91/166 55/97/167 37/98/168
f 37/98/169 55/97/170 56/99/171 39/100/172
f 39/100/173 56/99/174 57/101/175 38/102/176
f 38/103/177 57/104/178 58/105/179 44/106/180
f 44/106/181 58/105/182 59/94/183 43/93/184
f 53/89/185 45/107/186 47/108/187 54/91/188
f 55/97/189 54/91/190 47/108/191 49/109/192
f 56/99/193 55/97/194 49/109/195 50/110/196
f 57/101/197 56/99/198 50/110/199 51/111/200
f 58/105/201 57/104/202 51/112/203 52/113/204
f 59/94/205 58/105/206 52/113/207 48/114/208
f 60/95/209 59/94/210 48/114/211 46/115/212
f 53/89/213 60/88/214 46/116/215 45/107/216
