# This file uses centimeters as units for non-parametric coordinates.

g gezi1:default1
v -14.366519 3.591308 8.468498
v -14.366519 3.591308 -0.845295
v -2.984623 3.591308 8.468498
v -2.984623 3.591308 -0.845295
v -14.366519 1.852760 8.468498
v -14.366519 1.852760 -0.845295
v -2.984623 1.852760 8.468498
v -2.984623 1.852760 -0.845295
g default
v -14.366518 3.262016 8.468498
v -2.984623 3.262016 8.468498
v -2.984623 3.262016 -0.845295
v -14.366518 3.262016 -0.845295
g gezi1:default1
v 4.950316 2.973801 11.291330
v 4.950316 2.973801 0.000000
v 4.950316 2.973801 8.468498
v -5.801137 2.973801 11.291330
v -5.801137 2.973801 8.468498
v -2.978326 2.973801 11.291330
v -2.978326 2.973801 8.468498
v -2.978326 2.973801 0.000000
v -5.801137 1.849884 11.291330
v -5.801137 1.849884 8.468498
v -2.978326 1.849884 11.291330
v -2.978326 1.849884 8.468498
v 4.950316 1.849884 11.291330
v 4.950316 1.849884 8.468498
v 4.950316 1.849884 0.000000
v -2.978326 1.849884 0.000000
g default
v -5.801137 2.574528 11.291330
v -2.978326 2.574528 11.291330
v 4.950316 2.574528 11.291330
v 4.950316 2.574528 8.468498
v 4.950316 2.574528 0.000000
v -2.978326 2.574528 0.000000
v -2.978326 2.574528 8.468498
v -5.801137 2.574528 8.468498
g gezi1:default1
v -21.398285 2.914608 11.291330
v -21.398285 2.914608 0.000000
v -21.398285 2.914608 8.468498
v -14.341226 2.914608 11.291330
v -14.341226 2.914608 8.468498
v -14.341226 2.914608 0.000000
v -8.695582 2.914608 11.291330
v -8.695582 2.914608 8.468498
v -21.398285 1.790692 11.291330
v -14.341226 1.790692 11.291330
v -14.341226 1.790692 8.468498
v -21.398285 1.790692 8.468498
v -14.341226 1.790692 0.000000
v -21.398285 1.790692 0.000000
v -8.695582 1.790692 11.291330
v -8.695582 1.790692 8.468498
g default
v -14.341226 2.574527 11.291330
v -8.695582 2.574527 11.291330
v -8.695582 2.574527 8.468498
v -14.341226 2.574527 8.468498
v -14.341226 2.574527 0.000000
v -21.398285 2.574527 0.000000
v -21.398285 2.574527 8.468498
v -21.398285 2.574527 11.291330
vt 0.099068 0.708894
vt 0.098807 0.822690
vt 0.004940 0.822474
vt 0.005201 0.708679
vt 0.899937 0.901068
vt 0.454943 0.901068
vt 0.454940 0.361597
vt 0.899940 0.361597
vt 0.899937 0.984132
vt 0.454943 0.984132
vt 0.371879 0.901068
vt 0.371876 0.361597
vt 0.454937 0.278533
vt 0.899943 0.278533
vt 0.983003 0.361597
vt 0.983000 0.901068
vt 0.439210 0.901068
vt 0.454943 0.916801
vt 0.454939 0.345864
vt 0.439207 0.361597
vt 0.915673 0.361597
vt 0.899940 0.345864
vt 0.899937 0.916801
vt 0.915670 0.901068
vt 0.363844 0.419087
vt 0.324680 0.419087
vt 0.324679 0.379922
vt 0.363842 0.379922
vt 0.214677 0.419087
vt 0.214679 0.379922
vt 0.324681 0.536584
vt 0.214676 0.536584
vt 0.021887 0.689437
vt 0.022052 0.605327
vt 0.105936 0.605327
vt 0.105830 0.689437
vt 0.341547 0.605327
vt 0.341749 0.689437
vt 0.341862 0.941766
vt 0.105717 0.941766
vt 0.011742 0.260961
vt 0.011742 0.245344
vt 0.122136 0.245344
vt 0.122136 0.260961
vt 0.232526 0.245344
vt 0.232526 0.260961
vt 0.838646 0.194365
vt 0.838646 0.174144
vt 0.981542 0.174144
vt 0.981544 0.194365
vt 0.542588 0.245344
vt 0.542588 0.260961
vt 0.652979 0.245344
vt 0.652979 0.260961
vt 0.984154 0.245344
vt 0.984154 0.260961
vt 0.008633 0.194365
vt 0.008634 0.174144
vt 0.409978 0.174144
vt 0.409978 0.194365
vt 0.122136 0.217000
vt 0.232526 0.217000
vt 0.542588 0.217000
vt 0.652979 0.217000
vt 0.984153 0.217000
vt 0.008637 0.137445
vt 0.409978 0.137445
vt 0.838645 0.137445
vt 0.981534 0.137445
vt 0.011745 0.217000
vt 0.004085 0.993333
vt 0.004066 0.955855
vt 0.097736 0.955855
vt 0.097729 0.993333
vt 0.004057 0.843419
vt 0.097745 0.843420
vt 0.172653 0.955855
vt 0.172644 0.993333
vt 0.012398 0.277554
vt 0.204642 0.277554
vt 0.204649 0.354474
vt 0.012377 0.354474
vt 0.204660 0.585234
vt 0.012367 0.585234
vt 0.358437 0.277554
vt 0.358452 0.354471
vt 0.425987 0.056777
vt 0.425987 0.044393
vt 0.682919 0.044393
vt 0.682919 0.056777
vt 0.323215 0.056777
vt 0.323215 0.044393
vt 0.280537 0.122926
vt 0.280537 0.107635
vt 0.661274 0.107636
vt 0.661274 0.122926
vt 0.978554 0.107636
vt 0.978554 0.122926
vt 0.014895 0.056777
vt 0.014895 0.044393
vt 0.888464 0.044393
vt 0.888463 0.056777
vt 0.991239 0.044393
vt 0.991240 0.056777
vt 0.026713 0.122926
vt 0.026713 0.107635
vt 0.682919 0.015848
vt 0.888463 0.015848
vt 0.991236 0.015848
vt 0.026713 0.072394
vt 0.280537 0.072394
vt 0.661274 0.072394
vt 0.978554 0.072394
vt 0.014896 0.015848
vt 0.323215 0.015848
vt 0.425987 0.015848
vn 0.000000 -1.000000 0.000000
vn 0.000000 -1.000000 0.000000
vn 0.000000 -1.000000 0.000000
vn 0.000000 -1.000000 0.000000
vn 0.000000 1.000000 0.000000
vn 0.000000 1.000000 0.000000
vn 0.000000 1.000000 0.000000
vn 0.000000 1.000000 0.000000
vn -1.000000 -0.000005 0.000000
vn -1.000000 0.000000 0.000000
vn -1.000000 0.000000 0.000000
vn -1.000000 -0.000005 0.000000
vn 0.000000 0.000000 1.000000
vn 0.000000 0.000000 1.000000
vn 0.000000 0.000000 1.000000
vn 0.000000 0.000000 1.000000
vn 1.000000 0.000000 0.000000
vn 1.000000 0.000000 0.000000
vn 1.000000 0.000000 0.000000
vn 1.000000 0.000000 0.000000
vn 0.000000 0.000000 -1.000000
vn 0.000000 0.000000 -1.000000
vn 0.000000 0.000000 -1.000000
vn 0.000000 0.000000 -1.000000
vn 0.000000 0.000000 1.000000
vn 0.000000 0.000000 1.000000
vn 1.000000 0.000000 0.000000
vn 1.000000 0.000000 0.000000
vn 0.000000 0.000000 -1.000000
vn 0.000000 0.000000 -1.000000
vn -1.000000 0.000001 0.000000
vn -1.000000 0.000001 0.000000
vn 0.000000 -1.000000 0.000000
vn 0.000000 -1.000000 0.000000
vn 0.000000 -1.000000 0.000000
vn 0.000000 -1.000000 0.000000
vn 0.000000 -1.000000 0.000000
vn 0.000000 -1.000000 0.000000
vn 0.000000 -1.000000 0.000000
vn 0.000000 -1.000000 0.000000
vn 0.000000 -1.000000 0.000000
vn 0.000000 -1.000000 0.000000
vn 0.000000 -1.000000 0.000000
vn 0.000000 -1.000000 0.000000
vn 0.000000 1.000000 0.000000
vn 0.000000 1.000000 0.000000
vn 0.000000 1.000000 0.000000
vn 0.000000 1.000000 0.000000
vn 0.000000 1.000000 0.000000
vn 0.000000 1.000000 0.000000
vn 0.000000 1.000000 0.000000
vn 0.000000 1.000000 0.000000
vn 0.000000 1.000000 0.000000
vn 0.000000 1.000000 0.000000
vn 0.000000 1.000000 0.000000
vn 0.000000 1.000000 0.000000
vn -1.000000 0.000000 0.000000
vn -1.000000 0.000000 0.000000
vn -1.000000 0.000000 0.000000
vn -1.000000 0.000000 0.000000
vn 0.000000 0.000000 1.000000
vn 0.000000 0.000000 1.000000
vn 0.000000 0.000000 1.000000
vn 0.000000 0.000000 1.000000
vn 0.000000 0.000000 -1.000000
vn 0.000000 0.000000 -1.000000
vn 0.000000 0.000000 -1.000000
vn 0.000000 0.000000 -1.000000
vn 0.000000 0.000000 1.000000
vn 0.000000 0.000000 1.000000
vn 0.000000 0.000000 1.000000
vn 0.000000 0.000000 1.000000
vn 1.000000 0.000000 0.000000
vn 1.000000 0.000000 0.000000
vn 1.000000 0.000000 0.000000
vn 1.000000 0.000000 0.000000
vn 1.000000 0.000000 0.000000
vn 1.000000 0.000000 0.000000
vn 1.000000 0.000000 0.000000
vn 1.000000 0.000000 0.000000
vn 0.000000 0.000000 -1.000000
vn 0.000000 0.000000 -1.000000
vn 0.000000 0.000000 -1.000000
vn 0.000000 0.000000 -1.000000
vn -1.000000 0.000000 0.000000
vn -1.000000 0.000000 0.000000
vn -1.000000 0.000000 0.000000
vn -1.000000 0.000000 0.000000
vn 0.000000 0.000000 1.000000
vn 0.000000 0.000000 1.000000
vn 0.000000 0.000000 1.000000
vn 0.000000 0.000000 1.000000
vn 1.000000 0.000000 0.000000
vn 1.000000 0.000000 0.000000
vn 1.000000 0.000000 0.000000
vn 1.000000 0.000000 0.000000
vn 0.000000 0.000000 -1.000000
vn 0.000000 0.000000 -1.000000
vn -1.000000 0.000000 0.000000
vn -1.000000 0.000000 0.000000
vn 0.000000 0.000000 -1.000000
vn 0.000000 0.000000 -1.000000
vn -1.000000 0.000000 0.000000
vn -1.000000 0.000000 0.000000
vn 0.000000 -1.000000 0.000000
vn 0.000000 -1.000000 0.000000
vn 0.000000 -1.000000 0.000000
vn 0.000000 -1.000000 0.000000
vn 0.000000 -1.000000 0.000000
vn 0.000000 -1.000000 0.000000
vn 0.000000 -1.000000 0.000000
vn 0.000000 -1.000000 0.000000
vn 0.000000 -1.000000 0.000000
vn 0.000000 -1.000000 0.000000
vn 0.000000 -1.000000 0.000000
vn 0.000000 -1.000000 0.000000
vn 0.000000 1.000000 0.000000
vn 0.000000 1.000000 0.000000
vn 0.000000 1.000000 0.000000
vn 0.000000 1.000000 0.000000
vn 0.000000 1.000000 0.000000
vn 0.000000 1.000000 0.000000
vn 0.000000 1.000000 0.000000
vn 0.000000 1.000000 0.000000
vn 0.000000 1.000000 0.000000
vn 0.000000 1.000000 0.000000
vn 0.000000 1.000000 0.000000
vn 0.000000 1.000000 0.000000
vn 0.000000 0.000000 1.000000
vn 0.000000 0.000000 1.000000
vn 0.000000 0.000000 1.000000
vn 0.000000 0.000000 1.000000
vn -1.000000 0.000000 0.000000
vn -1.000000 0.000000 0.000000
vn -1.000000 0.000000 0.000000
vn -1.000000 0.000000 0.000000
vn 1.000000 0.000000 0.000000
vn 1.000000 0.000000 0.000000
vn 1.000000 0.000000 0.000000
vn 1.000000 0.000000 0.000000
vn 0.000000 0.000000 -1.000000
vn 0.000000 0.000000 -1.000000
vn 0.000000 0.000000 -1.000000
vn 0.000000 0.000000 -1.000000
vn -1.000000 0.000000 0.000000
vn -1.000000 0.000000 0.000000
vn -1.000000 0.000000 0.000000
vn -1.000000 0.000000 0.000000
vn 0.000000 0.000000 1.000000
vn 0.000000 0.000000 1.000000
vn 0.000000 0.000000 1.000000
vn 0.000000 0.000000 1.000000
vn 1.000000 0.000000 0.000000
vn 1.000000 0.000000 0.000000
vn 1.000000 0.000000 0.000000
vn 1.000000 0.000000 0.000000
vn 0.000000 0.000000 -1.000000
vn 0.000000 0.000000 -1.000000
vn 0.000000 0.000000 -1.000000
vn 0.000000 0.000000 -1.000000
vn 0.000000 0.000000 1.000000
vn 0.000000 0.000000 1.000000
vn 1.000000 0.000000 0.000000
vn 1.000000 0.000000 0.000000
vn 0.000000 0.000000 -1.000000
vn 0.000000 0.000000 -1.000000
vn 1.000000 0.000000 0.000000
vn 1.000000 0.000000 0.000000
vn 0.000000 0.000000 -1.000000
vn 0.000000 0.000000 -1.000000
vn -1.000000 0.000000 0.000000
vn -1.000000 0.000000 0.000000
vn -1.000000 0.000000 0.000000
vn -1.000000 0.000000 0.000000
vn 0.000000 0.000000 1.000000
vn 0.000000 0.000000 1.000000
s off
g gezi1:pCube201 gezi1:polySurface928 polySurface951
f 6/1/1 8/2/2 7/3/3 5/4/4
f 2/5/5 1/6/6 3/7/7 4/8/8
s 1
f 2/5/9 12/23/10 9/18/11 1/6/12
s 2
f 1/6/13 9/17/14 10/20/15 3/7/16
s 3
f 3/7/17 10/19/18 11/22/19 4/8/20
s 4
f 4/8/21 11/21/22 12/24/23 2/5/24
s 2
f 9/17/14 5/11/25 7/12/26 10/20/15
s 3
f 11/22/19 10/19/18 7/13/27 8/14/28
s 4
f 12/24/23 11/21/22 8/15/29 6/16/30
s 1
f 9/18/11 12/23/10 6/9/31 5/10/32
s off
f 22/25/33 24/26/34 23/27/35 21/28/36
f 23/27/37 24/26/38 26/29/39 25/30/40
f 26/29/41 24/26/42 28/31/43 27/32/44
f 17/33/45 16/34/46 18/35/47 19/36/48
f 18/35/49 13/37/50 15/38/51 19/36/52
f 15/38/53 14/39/54 20/40/55 19/36/56
s 5
f 17/41/57 36/42/58 29/43/59 16/44/60
s 6
f 16/44/61 29/43/62 30/45/63 18/46/64
s 7
f 19/47/65 35/48/66 36/49/67 17/50/68
s 8
f 18/46/69 30/45/70 31/51/71 13/52/72
s 9
f 13/52/73 31/51/74 32/53/75 15/54/76
s 10
f 15/54/77 32/53/78 33/55/79 14/56/80
s 11
f 14/57/81 33/58/82 34/59/83 20/60/84
s 12
f 20/60/85 34/59/86 35/48/87 19/47/88
s 6
f 29/43/62 21/61/89 23/62/90 30/45/63
s 8
f 31/51/71 30/45/70 23/62/91 25/63/92
s 9
f 32/53/75 31/51/74 25/63/93 26/64/94
s 10
f 33/55/79 32/53/78 26/64/95 27/65/96
s 11
f 34/59/83 33/58/82 27/66/97 28/67/98
s 12
f 35/48/87 34/59/86 28/67/99 24/68/100
s 7
f 36/49/67 35/48/66 24/68/101 22/69/102
s 5
f 29/43/59 36/42/58 22/70/103 21/61/104
s off
f 45/71/105 48/72/106 47/73/107 46/74/108
f 47/73/109 48/72/110 50/75/111 49/76/112
f 47/73/113 52/77/114 51/78/115 46/74/116
f 37/79/117 40/80/118 41/81/119 39/82/120
f 41/81/121 42/83/122 38/84/123 39/82/124
f 41/81/125 40/80/126 43/85/127 44/86/128
s 13
f 37/87/129 60/88/130 53/89/131 40/90/132
s 14
f 39/91/133 59/92/134 60/88/135 37/87/136
s 15
f 41/93/137 56/94/138 57/95/139 42/96/140
s 16
f 42/96/141 57/95/142 58/97/143 38/98/144
s 17
f 38/99/145 58/100/146 59/92/147 39/91/148
s 18
f 40/90/149 53/89/150 54/101/151 43/102/152
s 19
f 43/102/153 54/101/154 55/103/155 44/104/156
s 20
f 44/105/157 55/106/158 56/94/159 41/93/160
s 18
f 53/89/150 46/107/161 51/108/162 54/101/151
s 19
f 55/103/155 54/101/154 51/108/163 52/109/164
s 20
f 56/94/159 55/106/158 52/110/165 47/111/166
s 15
f 57/95/139 56/94/138 47/111/167 49/112/168
s 16
f 58/97/143 57/95/142 49/112/169 50/113/170
s 17
f 59/92/147 58/100/146 50/114/171 48/115/172
s 14
f 60/88/135 59/92/134 48/115/173 45/116/174
s 13
f 53/89/131 60/88/130 45/116/175 46/107/176
