# This file uses centimeters as units for non-parametric coordinates.

g default
v -0.067347 -2.059887 -1.459551
v -0.067347 -2.059887 1.459550
v -0.067347 1.880759 -1.459551
v -0.067347 1.880759 1.459550
v 0.067347 1.880759 -1.459551
v 0.067347 1.880759 1.459550
v 0.067347 -2.059887 -1.459551
v 0.067347 -2.059887 1.459550
v 0.067347 -1.627958 1.459550
v 0.067347 -1.627958 -1.459551
v -0.067347 -1.627958 -1.459551
v -0.067347 -1.627958 1.459550
v 0.067347 -2.059887 -1.711104
v -0.067347 -2.059887 -1.711104
v -0.067347 -1.627958 -1.711104
v 0.067347 -1.627958 -1.711104
v 0.067347 -2.059887 1.711105
v -0.067347 -2.059887 1.711105
v 0.067347 -1.627958 1.711105
v -0.067347 -1.627958 1.711105
vt 0.798839 0.419483
vt 0.981028 0.249509
vt 0.385341 0.987316
vt 0.484116 0.975813
vt 0.426057 0.543378
vt 0.016663 0.020132
vt 0.981040 0.541351
vt 0.798826 0.012593
vt 0.798836 0.173241
vt 0.981039 0.426126
vt 0.981037 0.364733
vt 0.798837 0.258835
vt 0.588660 0.173241
vt 0.588658 0.258835
vt 0.588657 0.419483
vt 0.588664 0.012593
vt 0.715062 0.602743
vt 0.830287 0.426126
vt 0.830287 0.541351
vt 0.830299 0.249509
vt 0.830290 0.364734
vt 0.830287 0.602743
vt 0.385340 0.544159
vt 0.405892 0.018108
vt 0.981040 0.602743
vt 0.715062 0.541351
vt 0.588657 0.505076
vt 0.503079 0.012593
vt 0.016655 0.463289
vt 0.447432 0.020203
vt 0.798839 0.505076
vt 0.503069 0.173241
vt 0.426057 0.018108
vt 0.385340 0.463289
vt 0.405893 0.543378
vt 0.484116 0.020203
vt 0.016655 0.544159
vt 0.405893 0.980380
vt 0.016654 0.987316
vt 0.016655 0.495218
vt 0.385340 0.495218
vt 0.385340 0.512230
vt 0.016655 0.512230
vt 0.385332 0.020132
vt 0.426057 0.980380
vt 0.447431 0.975813
vn -1.000000 0.000000 0.000000
vn -1.000000 0.000000 0.000000
vn -1.000000 0.000000 0.000000
vn -1.000000 0.000000 0.000000
vn 0.000000 1.000000 0.000000
vn 0.000000 1.000000 0.000000
vn 0.000000 1.000000 0.000000
vn 0.000000 1.000000 0.000000
vn 1.000000 0.000000 0.000000
vn 1.000000 0.000000 0.000000
vn 1.000000 0.000000 0.000000
vn 1.000000 0.000000 0.000000
vn 0.000000 -1.000000 0.000000
vn 0.000000 -1.000000 0.000000
vn 0.000000 -1.000000 0.000000
vn 0.000000 -1.000000 0.000000
vn 0.000000 0.000000 1.000000
vn 0.000000 0.000000 1.000000
vn 0.000000 0.000000 1.000000
vn 0.000000 0.000000 1.000000
vn 0.000000 0.000000 -1.000000
vn 0.000000 0.000000 -1.000000
vn 0.000000 0.000000 -1.000000
vn 0.000000 0.000000 -1.000000
vn 1.000000 0.000000 0.000000
vn 1.000000 0.000000 0.000000
vn 0.000000 0.000000 -1.000000
vn 0.000000 0.000000 -1.000000
vn 0.000000 0.000000 -1.000000
vn 0.000000 0.000000 -1.000000
vn -1.000000 0.000000 0.000000
vn -1.000000 0.000000 0.000000
vn 0.000000 0.000000 1.000000
vn 0.000000 0.000000 1.000000
vn 0.000000 0.000000 1.000000
vn 0.000000 0.000000 1.000000
vn 0.000000 -1.000000 0.000000
vn 0.000000 -1.000000 0.000000
vn -1.000000 0.000000 0.000000
vn -1.000000 0.000000 0.000000
vn 0.000000 1.000000 0.000000
vn 0.000000 1.000000 0.000000
vn 0.000000 1.000000 0.000000
vn 0.000000 1.000000 0.000000
vn 1.000000 0.000000 0.000000
vn 1.000000 0.000000 0.000000
vn 0.000000 -1.000000 0.000000
vn 0.000000 -1.000000 0.000000
vn 1.000000 0.000000 0.000000
vn 1.000000 0.000000 0.000000
vn 0.000000 1.000000 0.000000
vn 0.000000 1.000000 0.000000
vn 0.000000 1.000000 0.000000
vn 0.000000 1.000000 0.000000
vn -1.000000 0.000000 0.000000
vn -1.000000 0.000000 0.000000
s 1
g polySurface74 polySurface34
f 11/37/1 12/23/2 4/3/3 3/39/4
s off
f 3/38/5 4/35/6 6/5/7 5/45/8
s 2
f 5/6/9 6/44/10 9/34/11 10/29/12
s 3
f 7/40/13 8/41/14 2/42/15 1/43/16
s off
f 12/24/17 9/33/18 6/5/19 4/35/20
f 10/30/21 11/36/22 3/4/23 5/46/24
s 2
f 10/29/12 9/34/11 8/41/25 7/40/26
s off
f 13/13/27 14/32/28 15/28/29 16/16/30
s 1
f 1/43/31 2/42/32 12/23/2 11/37/1
s off
f 18/17/33 17/26/34 19/19/35 20/22/36
s 3
f 7/9/13 1/12/16 14/14/37 13/13/38
s 1
f 1/12/31 11/1/1 15/15/39 14/14/40
s off
f 11/1/41 10/31/42 16/27/43 15/15/44
s 2
f 10/8/12 7/9/26 13/13/45 16/16/46
s 3
f 2/11/15 8/10/14 17/18/47 18/21/48
s 2
f 8/10/25 9/7/11 19/19/49 17/18/50
s off
f 9/7/51 12/25/52 20/22/53 19/19/54
s 1
f 12/2/2 2/11/32 18/21/55 20/20/56
