# This file uses centimeters as units for non-parametric coordinates.

g default
v 8.811512 -2.712281 -7.901481
v 8.811512 -2.712281 -6.352036
v 8.811512 2.712281 -7.901481
v 8.811512 2.712281 -6.352036
v 0.003424 2.712281 -7.901481
v 0.003424 -2.712281 -7.901481
v 0.003424 -2.712281 -6.352036
v 0.003424 2.712281 -6.352036
v 8.321095 2.712280 -6.352036
v 8.321095 2.712280 -7.901481
v 8.321095 -2.712281 -7.901481
v 8.321095 -2.712281 -6.352036
v 0.003424 2.320669 -6.352036
v 8.321095 2.320668 -6.352036
v 8.811512 2.320669 -6.352036
v 8.811512 2.320669 -7.901481
v 8.321095 2.320668 -7.901481
v 0.003424 2.320669 -7.901481
v 8.321095 -2.712281 -2.546843
v 8.811512 -2.712281 -2.546843
v 8.321095 2.320668 -2.546843
v 8.811512 2.320669 -2.546843
v 8.321095 2.712280 -2.546843
v 8.811512 2.712281 -2.546843
v 8.321095 -2.712281 7.901480
v 8.811512 -2.712281 7.901480
v 8.321095 2.320668 7.901481
v 8.811512 2.320669 7.901481
v 8.321095 2.712280 7.901481
v 8.811512 2.712281 7.901481
v 8.321095 2.712280 4.121202
v 8.321095 2.320668 4.121202
v 8.321095 -2.712281 4.121202
v 8.811512 -2.712281 4.121202
v 8.811512 2.320669 4.121202
v 8.811512 2.712281 4.121202
v -8.811512 -2.712281 -7.901481
v -8.811512 -2.712281 -6.352036
v -8.811512 2.712281 -7.901481
v -8.811512 2.712281 -6.352036
v -8.321095 2.712280 -6.352036
v -8.321095 2.712280 -7.901481
v -8.321095 -2.712281 -7.901481
v -8.321095 -2.712281 -6.352036
v -8.321095 2.320668 -6.352036
v -8.811512 2.320669 -6.352036
v -8.811512 2.320669 -7.901481
v -8.321095 2.320668 -7.901481
v -8.321095 -2.712281 -2.546843
v -8.811512 -2.712281 -2.546843
v -8.321095 2.320668 -2.546843
v -8.811512 2.320669 -2.546843
v -8.321095 2.712280 -2.546843
v -8.811512 2.712281 -2.546843
v -8.321095 -2.712281 7.901480
v -8.811512 -2.712281 7.901480
v -8.321095 2.320668 7.901481
v -8.811512 2.320669 7.901481
v -8.321095 2.712280 7.901481
v -8.811512 2.712281 7.901481
v -8.321095 2.712280 4.121202
v -8.321095 2.320668 4.121202
v -8.321095 -2.712281 4.121202
v -8.811512 -2.712281 4.121202
v -8.811512 2.320669 4.121202
v -8.811512 2.712281 4.121202
vt 0.945686 0.105697
vt 0.945686 0.369801
vt 0.908647 0.580930
vt 0.861076 0.404839
vt 0.967309 0.595758
vt 0.985876 0.595758
vt 0.908648 0.614327
vt 0.908648 0.595758
vt 0.019102 0.083728
vt 0.861076 0.391657
vt 0.359047 0.276319
vt 0.508141 0.552359
vt 0.369020 0.629155
vt 0.492787 0.394721
vt 0.019086 0.173364
vt 0.167197 0.180338
vt 0.167197 0.207934
vt 0.167197 0.083728
vt 0.167197 0.173364
vt 0.500109 0.667090
vt 0.643353 0.540119
vt 0.500109 0.960237
vt 0.369021 0.595758
vt 0.369020 0.614327
vt 0.758801 0.404839
vt 0.745619 0.404839
vt 0.745620 0.540119
vt 0.764587 0.647725
vt 0.764586 0.614327
vt 0.764586 0.595758
vt 0.512139 0.629155
vt 0.512139 0.614327
vt 0.512140 0.595758
vt 0.359084 0.552359
vt 0.374407 0.394721
vt 0.359047 0.394721
vt 0.759576 0.105053
vt 0.486890 0.090554
vt 0.486892 0.222121
vt 0.969173 0.038895
vt 0.969173 0.026725
vt 0.921023 0.026725
vt 0.921023 0.011485
vt 0.315432 0.180338
vt 0.733780 0.105054
vt 0.698655 0.090553
vt 0.475159 0.176497
vt 0.585163 0.052217
vt 0.019036 0.638562
vt 0.478089 0.038895
vt 0.315431 0.173364
vt 0.019915 0.038895
vt 0.462849 0.026725
vt 0.478089 0.026725
vt 0.599182 0.090553
vt 0.586362 0.090553
vt 0.802775 0.054135
vt 0.586363 0.222121
vt 0.802775 0.011485
vt 0.802775 0.026725
vt 0.595563 0.011485
vt 0.328700 0.052217
vt 0.595563 0.026725
vt 0.595563 0.038895
vt 0.475157 0.052217
vt 0.475158 0.066489
vt 0.333230 0.638553
vt 0.345375 0.038895
vt 0.595563 0.054135
vt 0.328700 0.066489
vt 0.138163 0.038895
vt 0.599182 0.222121
vt 0.802775 0.038895
vt 0.328698 0.176498
vt 0.585163 0.066489
vt 0.333230 0.220270
vt 0.475159 0.190769
vt 0.462849 0.038895
vt 0.345375 0.026725
vt 0.478089 0.011485
vt 0.138163 0.026725
vt 0.315432 0.207934
vt 0.015244 0.983047
vt 0.019915 0.026725
vt 0.921023 0.038895
vt 0.015244 0.960237
vt 0.698652 0.222121
vt 0.586362 0.077733
vt 0.015245 0.667090
vt 0.315404 0.056132
vt 0.841072 0.079256
vt 0.759639 0.369801
vt 0.984413 0.038895
vt 0.733904 0.369801
vt 0.759575 0.079256
vt 0.315415 0.083728
vt 0.969173 0.011485
vt 0.984413 0.026725
vt 0.500109 0.983047
vt 0.167197 0.056132
vt 0.764586 0.629155
vt 0.764586 0.580930
vt 0.758800 0.540119
vt 0.626527 0.394721
vt 0.626491 0.552359
vt 0.508145 0.394721
vt 0.374407 0.276319
vt 0.350454 0.595758
vt 0.350455 0.580930
vt 0.984575 0.983047
vt 0.019084 0.207934
vt 0.861067 0.540119
vt 0.984575 0.960237
vt 0.908648 0.629155
vt 0.758801 0.391657
vt 0.864379 0.105697
vt 0.019099 0.056135
vt 0.984575 0.667090
vt 0.643345 0.404839
vt 0.971421 0.369801
vt 0.945686 0.079963
vt 0.971421 0.105697
vt 0.967309 0.614327
vt 0.019085 0.180338
vt 0.374438 0.552359
vt 0.512140 0.580930
vt 0.369022 0.580930
vt 0.492788 0.552359
vt 0.864379 0.079963
vt 0.967308 0.580930
vt 0.985875 0.580930
vt 0.864379 0.369801
vt 0.486890 0.077734
vt 0.841071 0.105053
vt 0.840949 0.369801
vt 0.019036 0.220260
vt 0.328698 0.190769
vt 0.512139 0.647725
vn 1.000000 0.000000 0.000000
vn 1.000000 0.000000 0.000000
vn 1.000000 0.000000 0.000000
vn 1.000000 0.000000 0.000000
vn -0.000002 1.000000 0.000000
vn 0.000000 1.000000 0.000000
vn 0.000000 1.000000 0.000000
vn -0.000002 1.000000 0.000000
vn 0.000000 -1.000000 0.000000
vn 0.000000 -1.000000 0.000000
vn 0.000000 -1.000000 0.000000
vn 0.000000 -1.000000 0.000000
vn 0.000000 -0.000000 1.000000
vn 0.000000 -0.000000 1.000000
vn 0.000000 -0.000000 1.000000
vn 0.000000 -0.000000 1.000000
vn 0.000000 0.000000 -1.000000
vn 0.000000 0.000000 -1.000000
vn -0.000000 0.000000 -1.000000
vn 0.000000 0.000000 -1.000000
vn -0.000000 1.000000 0.000000
vn -0.000000 1.000000 0.000000
vn 0.000000 0.000000 -1.000000
vn 0.000000 0.000000 -1.000000
vn 0.000000 -1.000000 0.000000
vn 0.000000 -1.000000 0.000000
vn 0.000000 0.000000 1.000000
vn -0.000000 0.000000 1.000000
vn -0.000000 0.000000 1.000000
vn 0.000000 0.000000 1.000000
vn 0.000000 0.000000 1.000000
vn -0.000000 0.000000 1.000000
vn 0.000000 0.000000 1.000000
vn 0.000000 0.000000 1.000000
vn 1.000000 0.000000 0.000000
vn 1.000000 0.000000 0.000000
vn -0.000000 0.000000 -1.000000
vn -0.000001 0.000000 -1.000000
vn 0.000000 0.000000 -1.000000
vn 0.000000 -1.000000 0.000000
vn 0.000000 -1.000000 0.000000
vn 0.000000 -1.000000 0.000000
vn 0.000000 -1.000000 0.000000
vn -1.000000 0.000000 0.000000
vn -1.000000 0.000000 0.000000
vn -1.000000 0.000000 0.000000
vn -1.000000 0.000000 0.000000
vn 1.000000 0.000000 0.000000
vn 1.000000 0.000000 0.000000
vn 1.000000 0.000000 0.000000
vn 1.000000 0.000000 0.000000
vn -1.000000 0.000000 0.000000
vn -1.000000 0.000000 0.000000
vn -1.000000 0.000000 0.000000
vn -1.000000 0.000000 0.000000
vn -0.000002 1.000000 0.000000
vn -0.000002 1.000000 0.000000
vn -0.000002 1.000000 0.000000
vn -0.000002 1.000000 0.000000
vn 1.000000 0.000000 0.000000
vn 1.000000 0.000000 0.000000
vn 1.000000 0.000000 0.000000
vn 1.000000 0.000000 0.000000
vn -1.000000 -0.000000 0.000000
vn -1.000000 0.000000 0.000000
vn -0.000002 1.000000 0.000000
vn -0.000002 1.000000 0.000000
vn 1.000000 0.000000 0.000000
vn 1.000000 0.000000 0.000000
vn -1.000000 -0.000000 0.000000
vn -1.000000 0.000000 0.000000
vn -1.000000 -0.000000 0.000000
vn -1.000000 -0.000000 0.000000
vn 0.000000 -1.000000 0.000000
vn 0.000000 -1.000000 0.000000
vn 0.000000 -1.000000 0.000000
vn 0.000000 -1.000000 0.000000
vn 1.000000 0.000000 0.000000
vn 1.000000 0.000000 0.000000
vn 1.000000 0.000000 0.000000
vn 1.000000 0.000000 0.000000
vn -0.000002 1.000000 0.000000
vn -0.000002 1.000000 0.000000
vn -0.000000 0.000000 1.000000
vn -0.000000 0.000000 1.000000
vn -0.000000 0.000000 1.000000
vn -0.000000 0.000000 1.000000
vn 0.000000 0.000000 -1.000000
vn 0.000000 0.000000 -1.000000
vn 0.000000 0.000000 -1.000000
vn 0.000000 0.000000 -1.000000
vn 0.000002 -1.000000 0.000000
vn 0.000002 -1.000000 0.000000
vn 0.000002 -1.000000 0.000000
vn 0.000002 -1.000000 0.000000
vn -1.000000 0.000000 0.000000
vn -1.000000 0.000000 0.000000
vn -1.000000 0.000000 0.000000
vn -1.000000 0.000000 0.000000
vn 0.000002 1.000000 0.000000
vn 0.000002 1.000000 0.000000
vn -0.000000 1.000000 0.000000
vn -0.000000 1.000000 0.000000
vn 0.000000 -1.000000 0.000000
vn 0.000000 -1.000000 0.000000
vn 0.000000 -1.000000 0.000000
vn 0.000000 -1.000000 0.000000
vn 0.000000 -0.000000 1.000000
vn 0.000000 -0.000000 1.000000
vn 0.000000 -0.000000 1.000000
vn 0.000000 -0.000000 1.000000
vn 0.000000 0.000000 -1.000000
vn 0.000000 0.000000 -1.000000
vn 0.000000 0.000000 -1.000000
vn 0.000000 0.000000 -1.000000
vn -0.000000 0.000000 1.000000
vn -0.000000 0.000000 1.000000
vn -0.000000 0.000000 1.000000
vn 0.000000 0.000000 1.000000
vn 0.000000 0.000000 1.000000
vn -1.000000 0.000000 0.000000
vn -1.000000 0.000000 0.000000
vn 0.000000 0.000000 -1.000000
vn 0.000000 0.000000 -1.000000
vn 0.000000 -1.000000 0.000000
vn 0.000000 -1.000000 0.000000
vn 0.000000 -1.000000 0.000000
vn 0.000000 -1.000000 0.000000
vn 1.000000 0.000000 0.000000
vn 1.000000 0.000000 0.000000
vn 1.000000 0.000000 0.000000
vn 1.000000 0.000000 0.000000
vn -1.000000 0.000000 0.000000
vn -1.000000 0.000000 0.000000
vn -1.000000 0.000000 0.000000
vn -1.000000 0.000000 0.000000
vn 1.000000 0.000000 0.000000
vn 1.000000 0.000000 0.000000
vn 1.000000 0.000000 0.000000
vn 1.000000 0.000000 0.000000
vn 0.000002 1.000000 0.000000
vn 0.000002 1.000000 0.000000
vn 0.000002 1.000000 0.000000
vn 0.000002 1.000000 0.000000
vn -1.000000 0.000000 0.000000
vn -1.000000 0.000000 0.000000
vn -1.000000 0.000000 0.000000
vn -1.000000 0.000000 0.000000
vn 1.000000 0.000000 0.000000
vn 1.000000 0.000000 0.000000
vn 0.000002 1.000000 0.000000
vn 0.000002 1.000000 0.000000
vn -1.000000 0.000000 0.000000
vn -1.000000 0.000000 0.000000
vn 1.000000 0.000000 0.000000
vn 1.000000 0.000000 0.000000
vn 1.000000 0.000000 0.000000
vn 1.000000 0.000000 0.000000
vn 0.000000 -1.000000 0.000000
vn 0.000000 -1.000000 0.000000
vn 0.000000 -1.000000 0.000000
vn 0.000000 -1.000000 0.000000
vn -1.000000 0.000000 0.000000
vn -1.000000 0.000000 0.000000
vn -1.000000 0.000000 0.000000
vn -1.000000 0.000000 0.000000
vn 0.000002 1.000000 0.000000
vn 0.000002 1.000000 0.000000
vn 0.000000 0.000000 1.000000
vn 0.000000 0.000000 1.000000
vn 0.000000 0.000000 1.000000
vn 0.000000 0.000000 1.000000
vn 0.000000 0.000000 -1.000000
vn 0.000000 0.000000 -1.000000
vn 0.000000 0.000000 -1.000000
vn 0.000000 0.000000 -1.000000
vn -0.000002 -1.000000 0.000000
vn -0.000002 -1.000000 0.000000
vn -0.000002 -1.000000 0.000000
vn -0.000002 -1.000000 0.000000
s 1
g polySurface74 polySurface34
f 1/1/1 16/2/2 15/132/3 2/116/4
s 2
f 3/5/5 10/123/6 9/7/7 4/8/8
s 3
f 11/121/9 1/1/10 2/116/11 12/129/12
s 4
f 26/106/13 28/12/14 27/128/15 25/14/16
s 5
f 11/122/17 17/120/18 16/2/19 1/1/20
s 2
f 10/124/6 5/16/21 8/17/22 9/111/7
s 5
f 6/18/23 18/19/24 17/15/18 11/9/17
s 3
f 6/18/25 11/9/9 12/117/12 7/100/26
s 6
f 14/113/27 13/22/28 7/20/29 12/118/30
f 9/110/31 8/99/32 13/22/28 14/113/27
s 4
f 28/127/14 30/23/33 29/108/34 27/109/15
s 1
f 16/130/2 3/5/35 4/8/36 15/3/3
s 5
f 17/131/18 10/6/37 3/5/38 16/130/19
f 18/19/24 5/16/39 10/124/37 17/15/18
s off
f 2/4/40 20/25/41 19/115/42 12/10/43
f 12/119/44 19/26/45 21/27/46 14/21/47
f 15/112/48 22/103/49 20/25/50 2/4/51
s 7
f 14/114/52 21/101/53 23/29/54 9/7/55
s 8
f 9/7/56 23/29/57 24/30/58 4/8/59
s 9
f 4/8/60 24/30/61 22/102/62 15/3/63
s 7
f 21/101/53 32/31/64 31/32/65 23/29/54
s 8
f 23/29/57 31/32/66 36/33/67 24/30/58
s 9
f 24/30/61 36/33/68 35/126/69 22/102/62
s 7
f 32/31/64 27/13/70 29/24/71 31/32/65
f 33/35/72 25/14/73 27/128/70 32/125/64
s off
f 34/36/74 26/11/75 25/107/76 33/35/77
s 9
f 35/105/69 28/12/78 26/106/79 34/104/80
f 36/33/68 30/23/81 28/127/78 35/126/69
s 8
f 31/32/66 29/24/82 30/23/83 36/33/67
s off
f 19/26/84 20/25/85 22/103/86 21/27/87
f 32/125/88 35/34/89 34/36/90 33/35/91
f 32/31/92 21/101/93 22/28/94 35/138/95
s 10
f 37/37/96 38/134/97 46/135/98 47/92/99
s 2
f 39/41/100 40/42/101 41/43/102 42/97/103
s 3
f 43/95/104 44/91/105 38/134/106 37/37/107
s 11
f 56/47/108 55/77/109 57/137/110 58/74/111
s 5
f 43/45/112 37/37/113 47/92/114 48/94/115
s 2
f 42/44/103 41/82/102 8/17/22 5/16/21
s 5
f 6/18/23 43/96/112 48/51/115 18/19/24
s 3
f 6/18/25 7/100/26 44/90/105 43/96/104
s 6
f 45/86/116 44/89/117 7/20/29 13/22/28
f 41/83/118 45/86/116 13/22/28 8/99/32
s 11
f 58/50/111 57/78/110 59/53/119 60/54/120
s 10
f 47/40/99 46/85/98 40/42/121 39/41/122
s 5
f 48/93/115 47/40/114 39/41/123 42/98/124
f 18/19/24 48/51/115 42/44/124 5/16/39
s off
f 38/38/125 44/133/126 49/88/127 50/56/128
f 44/46/129 45/87/130 51/72/131 49/55/132
f 46/39/133 38/38/134 50/56/135 52/58/136
s 13
f 45/52/137 41/84/138 53/81/139 51/71/140
s 14
f 41/43/141 40/42/142 54/60/143 53/59/144
s 15
f 40/42/145 46/85/146 52/73/147 54/60/148
s 13
f 51/71/140 53/81/139 61/79/149 62/68/150
s 14
f 53/59/144 54/60/143 66/63/151 61/61/152
s 15
f 54/60/148 52/73/147 65/64/153 66/63/154
s 13
f 62/68/150 61/79/149 59/53/155 57/78/156
f 63/76/157 62/67/150 57/49/156 55/136/158
s off
f 64/66/159 63/65/160 55/48/161 56/75/162
s 15
f 65/70/153 64/66/163 56/47/164 58/74/165
f 66/63/154 65/64/153 58/50/165 60/54/166
s 14
f 61/61/152 66/63/151 60/54/167 59/80/168
s off
f 49/55/169 51/72/170 52/58/171 50/56/172
f 62/62/173 63/65/174 64/66/175 65/70/176
f 62/69/177 65/64/178 52/73/179 51/57/180
