# This file uses centimeters as units for non-parametric coordinates.

g default
v 96.300218 116.747662 50.342777
v 102.788956 116.747662 51.563641
v 97.521101 116.747662 43.854183
v 104.009768 116.747662 45.075010
v 100.765402 116.747662 44.464586
v 99.544577 116.747662 50.953199
v 97.520984 116.348454 39.731939
v 100.765403 116.348454 40.342369
v 104.009771 116.348454 40.952789
v 98.288869 114.298817 35.651005
v 101.533282 114.298817 36.261430
v 104.777632 114.298824 36.871858
v 96.300221 117.304974 57.990086
v 99.544529 117.693508 58.600491
v 102.788960 117.693508 59.210942
v 95.327137 116.991116 65.449659
v 99.544538 116.991116 63.531739
v 103.762000 116.991116 61.613830
v 97.698010 116.294964 69.126510
v 101.915419 116.691227 67.208591
v 106.132909 116.294964 65.290695
v 103.086503 115.361332 80.514549
v 109.161277 115.403301 77.192603
v 114.352063 114.943691 74.832097
v 96.908169 116.213833 76.404952
v 105.096305 116.376186 72.681288
v 113.284537 116.213833 68.957690
v 105.818431 115.050518 81.992701
v 111.009113 115.050518 79.632167
v 112.636187 114.998524 77.295895
v 111.850073 115.746639 75.969875
v 109.370292 116.544087 70.737706
v 98.593598 115.638226 77.093675
v 105.964510 115.697651 73.212479
v 113.422458 115.706677 69.284318
v 109.795676 116.064228 71.202908
vt 0.522601 0.671501
vt 0.580597 0.632662
vt 0.658247 0.748529
vt 0.600307 0.787372
vt 0.464676 0.710371
vt 0.542378 0.826217
vt 0.634832 0.867779
vt 0.576898 0.906624
vt 0.692767 0.828934
vt 0.689323 0.949045
vt 0.631388 0.987890
vt 0.747257 0.910200
vt 0.400575 0.561437
vt 0.458574 0.521982
vt 0.516217 0.482964
vt 0.317320 0.425961
vt 0.415250 0.426129
vt 0.513292 0.426301
vt 0.330786 0.333514
vt 0.429016 0.334330
vt 0.527403 0.333941
vt 0.252362 0.200108
vt 0.442387 0.200949
vt 0.541679 0.200844
vt 0.278605 0.169485
vt 0.454156 0.177990
vt 0.542626 0.075089
vt 0.545996 0.184655
vt 0.480336 0.073405
vt 0.334244 0.063454
vt 0.373679 0.010464
vt 0.494313 0.009686
vt 0.546651 0.039383
vt 0.602546 0.071697
vt 0.632774 0.200368
vt 0.633396 0.187349
vn -0.006832 0.998283 -0.058185
vn 0.012997 0.997527 -0.069075
vn 0.006395 0.999402 -0.033989
vn 0.006924 0.999299 -0.036800
vn -0.020704 0.998576 -0.049165
vn 0.007407 0.999197 -0.039368
vn 0.052889 0.958220 -0.281102
vn 0.054889 0.954924 -0.291732
vn 0.051091 0.961067 -0.271551
vn 0.081839 0.896717 -0.434973
vn 0.081839 0.896717 -0.434973
vn 0.081839 0.896717 -0.434973
vn -0.039950 0.999003 -0.019913
vn -0.009316 0.999853 -0.014431
vn 0.027668 0.999411 0.020280
vn -0.010778 0.994352 0.105588
vn 0.012610 0.994235 0.106479
vn 0.063087 0.990513 0.122082
vn -0.017534 0.997957 0.061432
vn 0.012332 0.998714 0.049182
vn 0.045867 0.998822 0.015826
vn 0.013905 0.993582 0.112259
vn 0.038161 0.993220 0.109811
vn 0.071134 0.995439 0.063579
vn 0.091205 0.975009 0.202580
vn 0.041137 0.987633 0.151292
vn 0.093781 0.990261 0.102900
vn 0.120105 0.979189 0.163596
vn 0.013927 0.995704 0.091544
vn 0.027158 0.997542 0.064600
vn 0.051033 0.992785 0.108504
vn 0.065575 0.988711 0.134722
vn 0.161743 0.961999 0.219995
vn 0.214769 0.975295 0.051708
vn 0.146440 0.981596 0.122575
vn 0.238642 0.961269 0.137884
s 1
g pCube378
f 6/1/1 2/2/2 4/3/3 5/4/4
f 1/5/5 6/1/1 5/4/4 3/6/6
f 3/6/6 5/4/4 8/7/7 7/8/8
f 5/4/4 4/3/3 9/9/9 8/7/7
f 7/8/8 8/7/7 11/10/10 10/11/11
f 8/7/7 9/9/9 12/12/12 11/10/10
f 6/1/1 1/5/5 13/13/13 14/14/14
f 2/2/2 6/1/1 14/14/14 15/15/15
f 14/14/14 13/13/13 16/16/16 17/17/17
f 15/15/15 14/14/14 17/17/17 18/18/18
f 17/17/17 16/16/16 19/19/19 20/20/20
f 18/18/18 17/17/17 20/20/20 21/21/21
f 20/20/20 19/19/19 25/22/22 26/23/23
f 21/21/21 20/20/20 26/23/23 32/24/24
f 26/23/23 25/22/22 33/25/25 34/26/26
f 31/27/27 36/28/28 34/26/26 23/29/29
f 23/29/29 22/30/30 28/31/31 29/32/32
f 30/33/33 31/27/27 23/29/29 29/32/32
f 24/34/34 31/27/27 30/33/33
f 27/35/35 32/24/24 36/28/28 35/36/36
f 21/21/21 32/24/24 27/35/35
f 34/26/26 33/25/25 22/30/30 23/29/29
f 34/26/26 36/28/28 32/24/24 26/23/23
f 35/36/36 36/28/28 31/27/27 24/34/34
