# This file uses centimeters as units for non-parametric coordinates.

g gezi1:default1
v 4.939936 0.000000 5.645665
v -0.705708 0.000000 5.645665
v -0.705708 0.000000 -5.645665
v 4.939936 0.000000 -5.645665
v -0.705708 0.000000 0.000000
v 4.939936 0.000000 0.000000
v -0.705708 0.000000 -2.822832
v 4.939936 0.000000 -2.822832
v -0.705708 0.000000 2.822833
v 4.939936 0.000000 2.822833
v -3.528530 0.000000 5.645665
v -3.528530 0.000000 2.822833
v 2.117114 0.000000 5.645665
v 2.117114 0.000000 2.822833
v 2.117114 0.000000 0.000000
v 2.117114 0.000000 -2.822832
v 2.117114 0.000000 -5.645665
v -0.705708 0.000000 -4.234249
v 2.117114 0.000000 -4.234249
v 4.939936 0.000000 -4.234249
v -0.705708 0.000000 -1.411416
v 2.117114 0.000000 -1.411416
v 4.939936 0.000000 -1.411416
v -0.705708 0.000000 1.411417
v 2.117114 0.000000 1.411417
v 4.939936 0.000000 1.411417
v -3.528530 0.000000 4.234249
v -0.705708 0.000000 4.234249
v 2.117114 0.000000 4.234249
v 4.939936 0.000000 4.234249
v -4.939936 0.000000 5.645665
v -4.939936 0.000000 4.234249
v -4.939936 0.000000 2.822833
v -2.117125 0.000000 5.645665
v -2.117125 0.000000 4.234249
v -2.117125 0.000000 2.822833
v -2.117125 0.000000 1.411417
v -2.117125 0.000000 0.000000
v -2.117125 0.000000 -1.411416
v -2.117125 0.000000 -2.822832
v -2.117125 0.000000 -4.234249
v -2.117125 0.000000 -5.645665
v 0.705708 0.000000 5.645665
v 0.705708 0.000000 4.234249
v 0.705708 0.000000 2.822833
v 0.705708 0.000000 1.411417
v 0.705708 0.000000 0.000000
v 0.705708 0.000000 -1.411416
v 0.705708 0.000000 -2.822832
v 0.705708 0.000000 -4.234249
v 0.705708 0.000000 -5.645665
v 3.528520 0.000000 5.645665
v 3.528520 0.000000 4.234249
v 3.528520 0.000000 2.822833
v 3.528520 0.000000 1.411417
v 3.528520 0.000000 0.000000
v 3.528520 0.000000 -1.411416
v 3.528520 0.000000 -2.822832
v 3.528520 0.000000 -4.234249
v 3.528520 0.000000 -5.645665
vt 0.505356 0.866819
vt 0.626547 0.866819
vt 0.626547 0.988010
vt 0.505356 0.988010
vt 0.505356 0.382054
vt 0.626547 0.382054
vt 0.626547 0.503245
vt 0.505356 0.503245
vt 0.505356 0.624437
vt 0.626547 0.624437
vt 0.626547 0.745628
vt 0.505356 0.745628
vt 0.505357 0.139672
vt 0.626547 0.139672
vt 0.626547 0.260863
vt 0.505357 0.260863
vt 0.262976 0.139672
vt 0.384166 0.139672
vt 0.384166 0.260863
vt 0.262976 0.260863
vt 0.747737 0.139672
vt 0.868927 0.139672
vt 0.868927 0.260863
vt 0.747737 0.260863
vt 0.747737 0.503245
vt 0.747737 0.382054
vt 0.868928 0.382054
vt 0.868927 0.503245
vt 0.747737 0.745628
vt 0.747737 0.624437
vt 0.868928 0.624437
vt 0.868928 0.745628
vt 0.747737 0.988010
vt 0.747737 0.866819
vt 0.868928 0.866819
vt 0.868928 0.988010
vt 0.262976 0.018481
vt 0.384166 0.018481
vt 0.505357 0.018481
vt 0.626547 0.018481
vt 0.747737 0.018481
vt 0.868927 0.018481
vt 0.141787 0.018481
vt 0.141786 0.139672
vt 0.141786 0.260863
vt 0.384165 0.382054
vt 0.384165 0.503245
vt 0.384165 0.624436
vt 0.384165 0.745628
vt 0.384165 0.866819
vt 0.384165 0.988010
vt 0.990118 0.018481
vt 0.990118 0.139672
vt 0.990119 0.260863
vt 0.990119 0.382054
vt 0.990119 0.503246
vt 0.990119 0.624437
vt 0.990119 0.745628
vt 0.990119 0.866819
vt 0.990119 0.988010
vn 0.000000 1.000000 0.000000
vn 0.000000 1.000000 0.000000
vn 0.000000 1.000000 0.000000
vn 0.000000 1.000000 0.000000
vn 0.000000 1.000000 0.000000
vn 0.000000 1.000000 0.000000
vn 0.000000 1.000000 0.000000
vn 0.000000 1.000000 0.000000
vn 0.000000 1.000000 0.000000
vn 0.000000 1.000000 0.000000
vn 0.000000 1.000000 0.000000
vn 0.000000 1.000000 0.000000
vn 0.000000 1.000000 0.000000
vn 0.000000 1.000000 0.000000
vn 0.000000 1.000000 0.000000
vn 0.000000 1.000000 0.000000
vn 0.000000 1.000000 0.000000
vn 0.000000 1.000000 0.000000
vn 0.000000 1.000000 0.000000
vn 0.000000 1.000000 0.000000
vn 0.000000 1.000000 0.000000
vn 0.000000 1.000000 0.000000
vn 0.000000 1.000000 0.000000
vn 0.000000 1.000000 0.000000
vn 0.000000 1.000000 0.000000
vn 0.000000 1.000000 0.000000
vn 0.000000 1.000000 0.000000
vn 0.000000 1.000000 0.000000
vn 0.000000 1.000000 0.000000
vn 0.000000 1.000000 0.000000
vn 0.000000 1.000000 0.000000
vn 0.000000 1.000000 0.000000
vn 0.000000 1.000000 0.000000
vn 0.000000 1.000000 0.000000
vn 0.000000 1.000000 0.000000
vn 0.000000 1.000000 0.000000
vn 0.000000 1.000000 0.000000
vn 0.000000 1.000000 0.000000
vn 0.000000 1.000000 0.000000
vn 0.000000 1.000000 0.000000
vn 0.000000 1.000000 0.000000
vn 0.000000 1.000000 0.000000
vn 0.000000 1.000000 0.000000
vn 0.000000 1.000000 0.000000
vn 0.000000 1.000000 0.000000
vn 0.000000 1.000000 0.000000
vn 0.000000 1.000000 0.000000
vn 0.000000 1.000000 0.000000
vn 0.000000 1.000000 0.000000
vn 0.000000 1.000000 0.000000
vn 0.000000 1.000000 0.000000
vn 0.000000 1.000000 0.000000
vn 0.000000 1.000000 0.000000
vn 0.000000 1.000000 0.000000
vn 0.000000 1.000000 0.000000
vn 0.000000 1.000000 0.000000
vn 0.000000 1.000000 0.000000
vn 0.000000 1.000000 0.000000
vn 0.000000 1.000000 0.000000
vn 0.000000 1.000000 0.000000
vn 0.000000 1.000000 0.000000
vn 0.000000 1.000000 0.000000
vn 0.000000 1.000000 0.000000
vn 0.000000 1.000000 0.000000
vn 0.000000 1.000000 0.000000
vn 0.000000 1.000000 0.000000
vn 0.000000 1.000000 0.000000
vn 0.000000 1.000000 0.000000
vn 0.000000 1.000000 0.000000
vn 0.000000 1.000000 0.000000
vn 0.000000 1.000000 0.000000
vn 0.000000 1.000000 0.000000
vn 0.000000 1.000000 0.000000
vn 0.000000 1.000000 0.000000
vn 0.000000 1.000000 0.000000
vn 0.000000 1.000000 0.000000
vn 0.000000 1.000000 0.000000
vn 0.000000 1.000000 0.000000
vn 0.000000 1.000000 0.000000
vn 0.000000 1.000000 0.000000
vn 0.000000 1.000000 0.000000
vn 0.000000 1.000000 0.000000
vn 0.000000 1.000000 0.000000
vn 0.000000 1.000000 0.000000
vn 0.000000 1.000000 0.000000
vn 0.000000 1.000000 0.000000
vn 0.000000 1.000000 0.000000
vn 0.000000 1.000000 0.000000
vn 0.000000 1.000000 0.000000
vn 0.000000 1.000000 0.000000
vn 0.000000 1.000000 0.000000
vn 0.000000 1.000000 0.000000
vn 0.000000 1.000000 0.000000
vn 0.000000 1.000000 0.000000
vn 0.000000 1.000000 0.000000
vn 0.000000 1.000000 0.000000
vn 0.000000 1.000000 0.000000
vn 0.000000 1.000000 0.000000
vn 0.000000 1.000000 0.000000
vn 0.000000 1.000000 0.000000
vn 0.000000 1.000000 0.000000
vn 0.000000 1.000000 0.000000
vn 0.000000 1.000000 0.000000
vn 0.000000 1.000000 0.000000
vn 0.000000 1.000000 0.000000
vn 0.000000 1.000000 0.000000
vn 0.000000 1.000000 0.000000
vn 0.000000 1.000000 0.000000
vn 0.000000 1.000000 0.000000
vn 0.000000 1.000000 0.000000
vn 0.000000 1.000000 0.000000
vn 0.000000 1.000000 0.000000
vn 0.000000 1.000000 0.000000
vn 0.000000 1.000000 0.000000
vn 0.000000 1.000000 0.000000
vn 0.000000 1.000000 0.000000
vn 0.000000 1.000000 0.000000
vn 0.000000 1.000000 0.000000
vn 0.000000 1.000000 0.000000
vn 0.000000 1.000000 0.000000
vn 0.000000 1.000000 0.000000
vn 0.000000 1.000000 0.000000
vn 0.000000 1.000000 0.000000
vn 0.000000 1.000000 0.000000
vn 0.000000 1.000000 0.000000
vn 0.000000 1.000000 0.000000
vn 0.000000 1.000000 0.000000
vn 0.000000 1.000000 0.000000
vn 0.000000 1.000000 0.000000
vn 0.000000 1.000000 0.000000
vn 0.000000 1.000000 0.000000
vn 0.000000 1.000000 0.000000
vn 0.000000 1.000000 0.000000
vn 0.000000 1.000000 0.000000
vn 0.000000 1.000000 0.000000
vn 0.000000 1.000000 0.000000
vn 0.000000 1.000000 0.000000
vn 0.000000 1.000000 0.000000
vn 0.000000 1.000000 0.000000
vn 0.000000 1.000000 0.000000
vn 0.000000 1.000000 0.000000
vn 0.000000 1.000000 0.000000
vn 0.000000 1.000000 0.000000
vn 0.000000 1.000000 0.000000
vn 0.000000 1.000000 0.000000
vn 0.000000 1.000000 0.000000
vn 0.000000 1.000000 0.000000
vn 0.000000 1.000000 0.000000
vn 0.000000 1.000000 0.000000
vn 0.000000 1.000000 0.000000
vn 0.000000 1.000000 0.000000
vn 0.000000 1.000000 0.000000
vn 0.000000 1.000000 0.000000
vn 0.000000 1.000000 0.000000
vn 0.000000 1.000000 0.000000
vn 0.000000 1.000000 0.000000
vn 0.000000 1.000000 0.000000
vn 0.000000 1.000000 0.000000
vn 0.000000 1.000000 0.000000
vn 0.000000 1.000000 0.000000
vn 0.000000 1.000000 0.000000
vn 0.000000 1.000000 0.000000
vn 0.000000 1.000000 0.000000
vn 0.000000 1.000000 0.000000
vn 0.000000 1.000000 0.000000
vn 0.000000 1.000000 0.000000
vn 0.000000 1.000000 0.000000
vn 0.000000 1.000000 0.000000
vn 0.000000 1.000000 0.000000
vn 0.000000 1.000000 0.000000
vn 0.000000 1.000000 0.000000
vn 0.000000 1.000000 0.000000
vn 0.000000 1.000000 0.000000
vn 0.000000 1.000000 0.000000
vn 0.000000 1.000000 0.000000
vn 0.000000 1.000000 0.000000
s off
g gezi1:pCube201 gezi1:polySurface928 polySurface979 gezi1:polySurface929
f 18/1/1 50/2/2 51/3/3 3/4/4
f 24/5/5 46/6/6 47/7/7 5/8/8
f 21/9/9 48/10/10 49/11/11 7/12/12
f 28/13/13 44/14/14 45/15/15 9/16/16
f 27/17/17 35/18/18 36/19/19 12/20/20
f 29/21/21 53/22/22 54/23/23 14/24/24
f 15/25/25 25/26/26 55/27/27 56/28/28
f 16/29/29 22/30/30 57/31/31 58/32/32
f 17/33/33 19/34/34 59/35/35 60/36/36
f 7/12/37 49/11/38 50/2/39 18/1/40
f 59/35/41 19/34/42 16/29/43 58/32/44
f 5/8/45 47/7/46 48/10/47 21/9/48
f 57/31/49 22/30/50 15/25/51 56/28/52
f 9/16/53 45/15/54 46/6/55 24/5/56
f 55/27/57 25/26/58 14/24/59 54/23/60
f 11/37/61 34/38/62 35/18/63 27/17/64
f 2/39/65 43/40/66 44/14/67 28/13/68
f 13/41/69 52/42/70 53/22/71 29/21/72
f 31/43/73 11/37/74 27/17/75 32/44/76
f 33/45/77 32/44/78 27/17/79 12/20/80
f 34/38/81 2/39/82 28/13/83 35/18/84
f 36/19/85 35/18/86 28/13/87 9/16/88
f 24/5/89 37/46/90 36/19/91 9/16/92
f 38/47/93 37/46/94 24/5/95 5/8/96
f 21/9/97 39/48/98 38/47/99 5/8/100
f 40/49/101 39/48/102 21/9/103 7/12/104
f 18/1/105 41/50/106 40/49/107 7/12/108
f 42/51/109 41/50/110 18/1/111 3/4/112
f 43/40/113 13/41/114 29/21/115 44/14/116
f 45/15/117 44/14/118 29/21/119 14/24/120
f 46/6/121 45/15/122 14/24/123 25/26/124
f 47/7/125 46/6/126 25/26/127 15/25/128
f 48/10/129 47/7/130 15/25/131 22/30/132
f 49/11/133 48/10/134 22/30/135 16/29/136
f 50/2/137 49/11/138 16/29/139 19/34/140
f 51/3/141 50/2/142 19/34/143 17/33/144
f 52/42/145 1/52/146 30/53/147 53/22/148
f 54/23/149 53/22/150 30/53/151 10/54/152
f 26/55/153 55/27/154 54/23/155 10/54/156
f 56/28/157 55/27/158 26/55/159 6/56/160
f 23/57/161 57/31/162 56/28/163 6/56/164
f 58/32/165 57/31/166 23/57/167 8/58/168
f 20/59/169 59/35/170 58/32/171 8/58/172
f 60/36/173 59/35/174 20/59/175 4/60/176
