# This file uses centimeters as units for non-parametric coordinates.

g default
v 6.597799 -3.217305 1.256634
v 6.489660 -4.939969 0.278292
v 5.499943 -3.380919 -1.347011
v 5.795711 -2.237165 -0.655414
v 3.895936 -3.735878 -2.966898
v 3.241074 -0.103818 -3.016886
v 4.398874 1.134116 -0.951891
v 4.973132 0.261339 0.989085
v 0.726800 2.494757 -2.233063
v 1.858845 4.113014 -1.255747
v 5.132724 2.130866 1.683054
v 4.270162 1.498068 2.766292
v 4.700958 0.582695 2.649877
v 5.180299 -2.376103 2.377146
v 2.270090 4.939969 0.311700
v 3.658158 -3.451700 -3.521968
v 2.766682 -3.530534 -4.477252
v 2.384812 -0.323494 -4.562062
v 0.824373 0.091298 -4.688930
v 1.892860 -4.536468 -4.562869
v -0.260637 -2.910077 -4.641194
v 2.719737 -4.939969 -3.295836
v 3.625084 -4.939969 -2.470079
v 0.416634 -4.939963 -4.062084
v -2.865409 -4.939963 -3.157600
v -2.810351 -2.792339 -3.924099
v -1.131912 0.383641 -3.283718
v -3.905984 -3.125134 -2.660638
v -4.009158 -1.758073 -1.558722
v -4.565856 -4.939957 -2.416735
v -6.469171 -4.939957 -2.244739
v -5.707418 -3.189784 -2.000521
v -5.518988 -2.357588 -1.111399
v -1.340220 1.908137 -1.770033
v -3.627929 0.783721 0.431169
v 0.564547 3.888325 -0.593050
v 0.643342 4.258642 0.422849
v 2.827049 2.782965 2.720837
v 0.483294 2.753841 2.457403
v 6.398954 -4.347992 1.776190
v 5.453154 -4.939963 1.764730
v 3.643761 -4.939957 2.115466
v 2.462440 -0.828559 3.008115
v 0.096201 -1.654151 3.359153
v -1.433717 1.980907 3.239145
v 1.926982 -4.939963 2.804905
v -0.272825 -4.055392 4.836994
v -4.080202 -0.840182 1.321858
v -1.300420 -0.961077 3.381911
v -2.686719 -3.287115 3.061358
v -5.068373 -4.135940 1.138163
v -5.266312 -2.438861 -0.276424
v -4.968540 -4.141640 -0.165056
v -6.540856 -4.939957 -1.355088
v -0.767453 2.832761 0.004997
v -1.869269 2.669589 1.393766
v -0.265440 -4.939969 4.810657
v -2.368308 -4.939969 1.892451
v -4.625556 -4.939963 0.291665
vt 0.742353 0.885515
vt 0.701467 0.985929
vt 0.537719 0.930593
vt 0.597220 0.892608
vt 0.356171 0.914662
vt 0.374531 0.777849
vt 0.537301 0.771498
vt 0.679869 0.762900
vt 0.369046 0.582245
vt 0.461864 0.609951
vt 0.755402 0.681356
vt 0.685211 0.700458
vt 0.735000 0.645013
vt 0.831558 0.767589
vt 0.546461 0.588932
vt 0.314363 0.886547
vt 0.223644 0.830759
vt 0.271528 0.744976
vt 0.234149 0.657532
vt 0.137337 0.810317
vt 0.125145 0.623762
vt 0.240405 0.936199
vt 0.352863 0.979766
vt 0.072945 0.893201
vt 0.058958 0.695647
vt 0.117648 0.421777
vt 0.031591 0.389433
vt 0.241673 0.505086
vt 0.137485 0.300468
vt 0.229852 0.256213
vt 0.078768 0.233379
vt 0.115981 0.084242
vt 0.167157 0.152406
vt 0.238110 0.147829
vt 0.397452 0.263824
vt 0.333542 0.452406
vt 0.458133 0.528717
vt 0.515424 0.510424
vt 0.694714 0.563600
vt 0.632563 0.444421
vt 0.788558 0.893443
vt 0.851164 0.899411
vt 0.962616 0.836624
vt 0.962260 0.627962
vt 0.817138 0.522122
vt 0.758702 0.346554
vt 0.608242 0.331107
vt 0.845342 0.249919
vt 0.958749 0.464815
vt 0.444119 0.191645
vt 0.678448 0.273830
vt 0.631649 0.149366
vt 0.417977 0.077392
vt 0.331265 0.059136
vt 0.302450 0.131418
vt 0.175957 0.047132
vt 0.499379 0.354969
vt 0.450245 0.440143
vt 0.869984 0.227796
vt 0.628902 0.043072
vt 0.395784 0.020261
vt 0.371677 0.022635
vn 0.961911 0.265216 0.066244
vn 0.933009 -0.040910 -0.357520
vn 0.768492 -0.013990 -0.639706
vn 0.910847 0.285966 -0.297626
vn 0.768492 -0.013990 -0.639706
vn 0.755226 -0.010990 -0.655372
vn 0.632389 0.373989 -0.678393
vn 0.731024 0.413669 -0.542662
vn 0.957265 0.285210 -0.047951
vn 0.961911 0.265216 0.066244
vn 0.910847 0.285966 -0.297626
vn 0.731024 0.413669 -0.542662
vn 0.731024 0.413669 -0.542662
vn 0.910847 0.285966 -0.297626
vn 0.768492 -0.013990 -0.639706
vn 0.632389 0.373989 -0.678393
vn 0.044351 0.668629 -0.742273
vn 0.418544 0.620375 -0.663291
vn 0.731024 0.413669 -0.542662
vn 0.423430 -0.066625 0.903476
vn 0.803367 0.594251 0.038297
vn 0.389139 0.496200 0.776116
vn 0.423430 -0.066625 0.903476
vn 0.346556 -0.053222 0.936518
vn 0.957265 0.285210 -0.047951
vn 0.957265 0.285210 -0.047951
vn 0.346556 -0.053222 0.936518
vn 0.961911 0.265216 0.066244
vn 0.731024 0.413669 -0.542662
vn 0.803367 0.594251 0.038297
vn 0.957265 0.285210 -0.047951
vn 0.495459 0.868215 -0.026888
vn 0.803367 0.594251 0.038297
vn 0.731024 0.413669 -0.542662
vn 0.418544 0.620375 -0.663291
vn 0.755226 -0.010990 -0.655372
vn 0.811640 -0.055742 -0.581492
vn 0.632389 0.373989 -0.678393
vn 0.632389 0.373989 -0.678393
vn 0.811640 -0.055742 -0.581492
vn 0.529711 -0.065750 -0.845626
vn 0.474851 0.376225 -0.795595
vn 0.474851 0.376225 -0.795595
vn -0.038561 0.434429 -0.899880
vn 0.044351 0.668629 -0.742273
vn 0.632389 0.373989 -0.678393
vn 0.474851 0.376225 -0.795595
vn 0.529711 -0.065750 -0.845626
vn 0.159496 -0.269915 -0.949582
vn -0.038561 0.434429 -0.899880
vn 0.159496 -0.269915 -0.949582
vn -0.289227 -0.010995 -0.957197
vn -0.038561 0.434429 -0.899880
vn 0.589757 -0.566038 -0.576011
vn 0.159496 -0.269915 -0.949582
vn 0.529711 -0.065750 -0.845626
vn 0.811640 -0.055742 -0.581492
vn 0.755226 -0.010990 -0.655372
vn 0.666957 -0.356248 -0.654413
vn 0.589757 -0.566038 -0.576011
vn 0.811640 -0.055742 -0.581492
vn 0.755226 -0.010990 -0.655372
vn 0.768492 -0.013990 -0.639706
vn 0.933009 -0.040910 -0.357520
vn 0.666957 -0.356248 -0.654413
vn 0.589757 -0.566038 -0.576011
vn -0.228474 -0.381135 -0.895844
vn 0.159496 -0.269915 -0.949582
vn -0.349098 0.134665 -0.927360
vn -0.289227 -0.010995 -0.957197
vn -0.228474 -0.381135 -0.895844
vn -0.234109 -0.258548 -0.937201
vn -0.349098 0.134665 -0.927360
vn -0.444876 0.546802 -0.709290
vn -0.038561 0.434429 -0.899880
vn -0.289227 -0.010995 -0.957197
vn -0.349098 0.134665 -0.927360
vn -0.325287 0.192790 -0.925754
vn -0.559258 0.698320 -0.446743
vn -0.444876 0.546802 -0.709290
vn -0.325287 0.192790 -0.925754
vn -0.349098 0.134665 -0.927360
vn -0.234109 -0.258548 -0.937201
vn -0.219681 -0.062134 -0.973591
vn -0.219681 -0.062134 -0.973591
vn -0.660948 0.278158 -0.696976
vn -0.527606 0.377613 -0.760947
vn -0.325287 0.192790 -0.925754
vn -0.325287 0.192790 -0.925754
vn -0.527606 0.377613 -0.760947
vn -0.699478 0.656620 -0.282102
vn -0.559258 0.698320 -0.446743
vn -0.676752 0.729885 -0.096311
vn -0.513832 0.720545 -0.465609
vn -0.444876 0.546802 -0.709290
vn -0.559258 0.698320 -0.446743
vn 0.044351 0.668629 -0.742273
vn -0.038561 0.434429 -0.899880
vn -0.444876 0.546802 -0.709290
vn -0.513832 0.720545 -0.465609
vn 0.044351 0.668629 -0.742273
vn -0.513832 0.720545 -0.465609
vn -0.435676 0.767647 -0.470004
vn 0.418544 0.620375 -0.663291
vn 0.418544 0.620375 -0.663291
vn -0.435676 0.767647 -0.470004
vn -0.333758 0.878441 0.341975
vn 0.495459 0.868215 -0.026888
vn 0.495459 0.868215 -0.026888
vn 0.123647 0.481069 0.867919
vn 0.389139 0.496200 0.776116
vn 0.803367 0.594251 0.038297
vn -0.333758 0.878441 0.341975
vn -0.087871 0.501946 0.860424
vn 0.123647 0.481069 0.867919
vn 0.495459 0.868215 -0.026888
vn 0.346556 -0.053222 0.936518
vn 0.609293 -0.197935 0.767844
vn 0.933009 -0.040910 -0.357520
vn 0.961911 0.265216 0.066244
vn 0.933009 -0.040910 -0.357520
vn 0.609293 -0.197935 0.767844
vn 0.197106 -0.268118 0.943007
vn 0.346556 -0.053222 0.936518
vn 0.206921 -0.133927 0.969148
vn 0.197106 -0.268118 0.943007
vn 0.609293 -0.197935 0.767844
vn 0.206921 -0.133927 0.969148
vn 0.346556 -0.053222 0.936518
vn 0.423430 -0.066625 0.903476
vn 0.131155 0.028489 0.990952
vn 0.131155 0.028489 0.990952
vn 0.423430 -0.066625 0.903476
vn 0.389139 0.496200 0.776116
vn 0.227643 0.100146 0.968581
vn 0.131155 0.028489 0.990952
vn 0.123647 0.481069 0.867919
vn -0.087871 0.501946 0.860424
vn -0.406896 0.378656 0.831297
vn 0.227643 0.100146 0.968581
vn -0.087871 0.501946 0.860424
vn 0.068112 -0.175507 0.982119
vn 0.131155 0.028489 0.990952
vn 0.227643 0.100146 0.968581
vn 0.326665 -0.051724 0.943724
vn 0.206921 -0.133927 0.969148
vn 0.131155 0.028489 0.990952
vn -0.406896 0.378656 0.831297
vn -0.677099 0.382944 0.628404
vn -0.518267 0.089212 0.850553
vn 0.227643 0.100146 0.968581
vn 0.117352 0.204569 0.971792
vn 0.068112 -0.175507 0.982119
vn -0.559241 -0.071794 0.825891
vn 0.068112 -0.175507 0.982119
vn -0.518267 0.089212 0.850553
vn -0.518267 0.089212 0.850553
vn -0.677099 0.382944 0.628404
vn -0.536223 -0.137419 0.832815
vn -0.559241 -0.071794 0.825891
vn -0.501301 -0.105389 0.858831
vn -0.536223 -0.137419 0.832815
vn -0.677099 0.382944 0.628404
vn -0.651585 0.377247 0.658120
vn -0.945610 0.235619 0.224291
vn -0.501301 -0.105389 0.858831
vn -0.651585 0.377247 0.658120
vn -0.699478 0.656620 -0.282102
vn -0.527606 0.377613 -0.760947
vn -0.660948 0.278158 -0.696976
vn -0.945610 0.235619 0.224291
vn -0.651585 0.377247 0.658120
vn -0.677099 0.382944 0.628404
vn -0.676752 0.729885 -0.096311
vn -0.559258 0.698320 -0.446743
vn -0.559258 0.698320 -0.446743
vn -0.699478 0.656620 -0.282102
vn -0.651585 0.377247 0.658120
vn -0.667872 0.726450 0.161918
vn -0.087871 0.501946 0.860424
vn -0.333758 0.878441 0.341975
vn -0.568273 0.818477 -0.084623
vn -0.568273 0.818477 -0.084623
vn -0.333758 0.878441 0.341975
vn -0.435676 0.767647 -0.470004
vn -0.667872 0.726450 0.161918
vn -0.568273 0.818477 -0.084623
vn -0.513832 0.720545 -0.465609
vn -0.676752 0.729885 -0.096311
vn -0.667872 0.726450 0.161918
vn -0.676752 0.729885 -0.096311
vn -0.677099 0.382944 0.628404
vn -0.406896 0.378656 0.831297
vn -0.406896 0.378656 0.831297
vn -0.087871 0.501946 0.860424
vn -0.667872 0.726450 0.161918
vn -0.349283 -0.621172 0.701532
vn 0.326665 -0.051724 0.943724
vn 0.068112 -0.175507 0.982119
vn -0.559241 -0.071794 0.825891
vn -0.349283 -0.621172 0.701532
vn 0.068112 -0.175507 0.982119
vn -0.357109 -0.684895 0.635131
vn -0.385231 -0.635130 0.669483
vn -0.559241 -0.071794 0.825891
vn -0.536223 -0.137419 0.832815
vn -0.536223 -0.137419 0.832815
vn -0.501301 -0.105389 0.858831
vn -0.357109 -0.684895 0.635131
vn -0.357109 -0.684895 0.635131
vn -0.501301 -0.105389 0.858831
vn -0.945610 0.235619 0.224291
vn -0.945610 0.235619 0.224291
vn -0.651585 0.377247 0.658120
vn -0.699478 0.656620 -0.282102
vn 0.957265 0.285210 -0.047951
vn 0.803367 0.594251 0.038297
vn 0.423430 -0.066625 0.903476
vn 0.131155 0.028489 0.990952
vn 0.389139 0.496200 0.776116
vn 0.123647 0.481069 0.867919
vn 0.159496 -0.269915 -0.949582
vn -0.228474 -0.381135 -0.895844
vn -0.289227 -0.010995 -0.957197
vn -0.568273 0.818477 -0.084623
vn -0.435676 0.767647 -0.470004
vn -0.513832 0.720545 -0.465609
vn -0.385231 -0.635130 0.669483
vn 0.326665 -0.051724 0.943724
vn -0.406896 0.378656 0.831297
s off
g polySurface1407
f 1/1/1 2/2/2 3/3/3 4/4/4
f 3/3/5 5/5/6 6/6/7 7/7/8
f 8/8/9 1/1/10 4/4/11 7/7/12
f 7/7/13 4/4/14 3/3/15
f 6/6/16 9/9/17 10/10/18 7/7/19
f 13/11/20 11/12/21 12/13/22
f 13/11/23 14/14/24 8/8/25
f 8/8/26 14/14/27 1/1/28
f 7/7/29 11/12/30 8/8/31
f 15/15/32 11/12/33 7/7/34 10/10/35
f 5/5/36 16/16/37 6/6/38
f 6/6/39 16/16/40 17/17/41 18/18/42
f 18/18/43 19/19/44 9/9/45 6/6/46
f 18/18/47 17/17/48 20/20/49 19/19/50
f 20/20/51 21/21/52 19/19/53
f 22/22/54 20/20/55 17/17/56 16/16/57
f 5/5/58 23/23/59 22/22/60 16/16/61
f 5/5/62 3/3/63 2/2/64 23/23/65
f 22/24/66 24/25/67 20/20/68
f 26/26/69 21/21/70 24/25/71 25/27/72
f 26/26/73 27/28/74 19/19/75 21/21/76
f 26/26/77 28/29/78 29/30/79 27/28/80
f 28/29/81 26/26/82 25/27/83 30/31/84
f 30/31/85 31/32/86 32/33/87 28/29/88
f 28/29/89 32/33/90 33/34/91 29/30/92
f 35/35/93 34/36/94 27/28/95 29/30/96
f 9/9/97 19/19/98 27/28/99 34/36/100
f 9/9/101 34/36/102 36/37/103 10/10/104
f 10/10/105 36/37/106 37/38/107 15/15/108
f 15/15/109 38/39/110 12/13/111 11/12/112
f 37/38/113 39/40/114 38/39/115 15/15/116
f 14/14/117 40/41/118 2/2/119 1/1/120
f 2/2/121 40/41/122 41/42/123
f 14/14/124 42/43/125 41/42/126 40/41/127
f 42/44/128 14/14/129 13/11/130 43/45/131
f 43/45/132 13/11/133 12/13/134
f 44/46/135 43/45/136 38/39/137 39/40/138
f 45/47/139 44/46/140 39/40/141
s 1
f 47/48/142 43/45/143 44/46/144
s off
f 46/49/145 42/44/146 43/45/147
f 45/47/148 48/50/149 49/51/150
s 2
f 44/46/151 49/51/152 47/48/153
s off
f 50/52/154 47/48/155 49/51/156
f 49/51/157 48/50/158 51/53/159 50/52/160
f 53/54/161 51/53/162 48/50/163 52/55/164
f 54/56/165 53/54/166 52/55/167
f 33/34/168 32/33/169 31/32/170 54/56/171
f 52/55/172 48/50/173 35/35/174 29/30/175
f 29/30/176 33/34/177 52/55/178
f 56/57/179 39/40/180 37/38/181 55/58/182
f 55/58/183 37/38/184 36/37/185
f 56/57/186 55/58/187 34/36/188 35/35/189
f 56/57/190 35/35/191 48/50/192 45/47/193
f 45/47/194 39/40/195 56/57/196
f 57/59/197 46/49/198 47/48/199
s 3
f 50/52/200 57/59/201 47/48/202
s off
f 59/61/203 58/60/204 50/52/205 51/53/206
f 51/53/207 53/54/208 59/61/209
f 59/62/210 53/54/211 54/56/212
f 54/56/213 52/55/214 33/34/215
f 8/8/216 11/12/217 13/11/218
f 43/45/219 12/13/220 38/39/221
f 20/20/222 24/25/223 21/21/224
f 55/58/225 36/37/226 34/36/227
s 3
f 58/60/228 57/59/201 50/52/200
s 1
f 47/48/142 46/49/229 43/45/143
s 2
f 44/46/151 45/47/230 49/51/152
