# This file uses centimeters as units for non-parametric coordinates.

g default
v -2.461817 -0.045011 -1.239373
v -2.569104 -0.045011 -1.115452
v -2.461817 0.045012 -1.239373
v -2.569104 0.045012 -1.115452
v -2.461817 -0.045011 1.239373
v -2.569104 -0.045011 1.115450
v -2.461817 0.045012 1.239373
v -2.569104 0.045012 1.115450
v 2.461817 0.045012 -1.239373
v 2.569104 0.045012 -1.115452
v 2.461817 -0.045011 -1.239373
v 2.569104 -0.045011 -1.115452
v 2.569104 0.045012 1.115450
v 2.461817 0.045012 1.239373
v 2.461817 -0.045011 1.239373
v 2.569104 -0.045011 1.115450
vt 0.027408 0.542311
vt 0.036344 0.544032
vt 0.034470 0.941903
vt 0.025467 0.943729
vt 0.961654 0.548164
vt 0.970664 0.546375
vt 0.969076 0.947775
vt 0.960144 0.946038
vt 0.042961 0.020800
vt 0.053508 0.966512
vt 0.940868 0.970275
vt 0.961364 0.020800
vt 0.960935 0.483454
vt 0.942764 0.523674
vt 0.055470 0.519913
vt 0.042494 0.482854
vt 0.949044 0.975476
vt 0.940829 0.979474
vt 0.942803 0.514474
vt 0.950774 0.518868
vt 0.053470 0.975711
vt 0.045509 0.971330
vt 0.047231 0.514773
vt 0.055509 0.510713
vt 0.981312 0.045258
vt 0.980937 0.460401
vt 0.022885 0.042574
vt 0.022473 0.459677
vn -1.000000 0.000000 0.000000
vn -1.000000 0.000000 0.000000
vn -1.000000 0.000000 0.000000
vn -1.000000 0.000000 0.000000
vn 1.000000 0.000000 -0.000000
vn 1.000000 0.000000 -0.000000
vn 1.000000 0.000000 -0.000000
vn 1.000000 0.000000 -0.000000
vn 0.000000 0.000000 1.000000
vn 0.000000 0.000000 1.000000
vn 0.000000 0.000000 1.000000
vn 0.000000 0.000000 1.000000
vn -0.000000 0.000000 -1.000000
vn -0.000000 0.000000 -1.000000
vn -0.000000 0.000000 -1.000000
vn -0.000000 0.000000 -1.000000
vn 0.000000 1.000000 -0.000000
vn 0.000000 1.000000 -0.000000
vn 0.000002 1.000000 -0.000000
vn 0.000002 1.000000 -0.000000
vn -0.000000 -1.000000 0.000000
vn -0.000000 -1.000000 0.000000
vn -0.000004 -1.000000 0.000000
vn -0.000004 -1.000000 0.000000
vn -0.756027 0.000000 -0.654540
vn -0.756027 0.000000 -0.654540
vn -0.756027 0.000000 -0.654540
vn -0.756027 0.000000 -0.654540
vn -0.756033 0.000000 0.654533
vn -0.756033 0.000000 0.654533
vn -0.756033 0.000000 0.654533
vn -0.756033 0.000000 0.654533
vn 0.756027 0.000000 -0.654541
vn 0.756027 0.000000 -0.654541
vn 0.756027 0.000000 -0.654541
vn 0.756027 0.000000 -0.654541
vn 0.756033 0.000000 0.654534
vn 0.756033 0.000000 0.654534
vn 0.756033 0.000000 0.654534
vn 0.756033 0.000000 0.654534
vn -0.000000 1.000000 0.000000
vn -0.000003 1.000000 0.000000
vn -0.000003 1.000000 0.000000
vn -0.000000 1.000000 0.000000
vn 0.000000 -1.000000 -0.000000
vn 0.000003 -1.000000 -0.000000
vn 0.000003 -1.000000 -0.000000
vn 0.000000 -1.000000 -0.000000
s off
g polySurface73 pCube18
f 4/1/1 2/2/2 6/3/3 8/4/4
f 12/5/5 10/6/6 13/7/7 16/8/8
f 7/21/9 5/10/10 15/11/11 14/18/12
f 9/19/13 11/14/14 1/15/15 3/24/16
s 1
f 9/13/17 14/12/18 13/25/19 10/26/20
s 2
f 1/15/21 5/10/22 6/3/23 2/2/24
s off
f 1/15/25 2/2/26 4/1/27 3/23/28
f 6/3/29 5/10/30 7/22/31 8/4/32
f 9/20/33 10/6/34 12/5/35 11/14/36
f 13/7/37 14/17/38 15/11/39 16/8/40
s 1
f 3/16/41 4/28/42 8/27/43 7/9/44
f 3/16/41 7/9/44 14/12/18 9/13/17
s 2
f 11/14/45 12/5/46 16/8/47 15/11/48
f 11/14/45 15/11/48 5/10/22 1/15/21
