# This file uses centimeters as units for non-parametric coordinates.

g default
v -11.235189 -3.853425 -2.231840
v -8.682860 -6.032056 -0.992927
v -8.162949 -4.062380 1.003203
v -8.522400 -2.562120 -0.058328
v -4.620230 -4.517154 3.214467
v -3.938612 0.122827 2.958934
v -5.572776 1.703802 0.415159
v -6.453521 0.589168 -2.015223
v -0.793435 3.441486 1.767103
v -2.311444 5.338961 0.607937
v -6.327666 2.980637 -2.571455
v -5.693510 2.168601 -4.334675
v -6.233778 0.999573 -4.153264
v -8.244027 -2.779126 -3.768863
v -2.907167 5.850530 -1.314421
v -5.532153 -6.032056 5.415890
v -4.969622 -6.032056 5.857187
v -2.728675 -0.157730 4.863143
v -0.729689 0.372012 4.905334
v -2.101468 -6.032056 4.826484
v 0.649826 -3.461073 4.761369
v -3.252636 -6.032056 3.274602
v -0.257924 -6.032056 4.074997
v 3.856761 -6.032056 2.670531
v 3.845297 -3.310702 3.651885
v 1.656552 0.745368 2.964098
v 8.069095 -3.515856 1.957288
v 8.116202 -1.026568 0.544648
v 8.891616 -6.032056 1.595807
v 11.304806 -6.032056 1.230740
v 10.315011 -3.304073 0.977762
v 10.006687 -1.792216 -0.141265
v 1.806142 2.692306 1.018483
v 5.171410 1.626140 -1.960058
v -0.712229 4.991650 -0.336026
v -0.890504 5.259982 -1.625067
v -3.845214 3.827575 -4.382599
v -0.842327 3.772366 -4.230991
v -11.021497 -6.032049 -2.909404
v -9.392789 -6.032056 -2.967246
v -4.845126 -6.032056 -3.552980
v -3.407543 -0.802747 -4.781430
v -0.417941 -1.857114 -5.410202
v 1.541610 2.785246 -5.374416
v -2.709369 -6.032056 -4.563398
v -0.060712 -4.923759 -6.207003
v 5.062246 -0.817591 -3.132979
v 1.360744 -0.971988 -5.546206
v 3.152561 -3.942587 -5.243761
v 6.611545 -5.026628 -2.974498
v 9.620612 -1.896005 -1.186340
v 9.232467 -4.800749 -1.305501
v 11.328037 -6.032056 0.091117
v 0.939999 3.839045 -1.200463
v 2.238212 3.664761 -3.055276
v 0.542200 -6.032056 -4.979390
v 2.836197 -6.032056 -3.729235
v 5.891661 -6.032056 -1.861459
v -4.236065 3.265024 0.494875
v -8.271077 5.362693 -2.967659
v -8.143071 4.243420 -3.057863
v -4.257523 0.595033 1.214918
v -6.805775 -4.248546 1.606028
v -6.545117 -6.032056 0.526793
v -5.993586 -0.419343 3.702954
v -2.788803 -2.744604 5.367602
v -3.727887 -2.782987 5.306375
v -4.815521 -3.216115 4.310979
v -3.169679 -3.687611 5.263177
v -3.864783 -3.699260 5.214562
v -4.846466 -4.091971 4.393570
v -6.109857 -0.091104 2.880720
v -7.643451 -4.561619 2.745755
v -8.389109 -6.032056 2.931868
v -6.544556 -4.638615 3.502187
v -7.443065 -6.032056 3.829025
v -4.881390 6.032056 -1.859189
vt 0.358002 0.080495
vt 0.474295 0.038189
vt 0.538457 0.109668
vt 0.822887 0.166610
vt 0.729127 0.273739
vt 0.713391 0.193347
vt 0.737872 0.116295
vt 0.440602 0.257346
vt 0.486800 0.138356
vt 0.549919 0.275938
vt 0.686127 0.433083
vt 0.272748 0.547545
vt 0.410131 0.303268
vt 0.308959 0.538350
vt 0.153472 0.583993
vt 0.564887 0.338215
vt 0.303001 0.386604
vt 0.921893 0.226904
vt 0.856076 0.219165
vt 0.876212 0.278243
vt 0.928071 0.249495
vt 0.807018 0.328099
vt 0.812255 0.400608
vt 0.883351 0.307454
vt 0.945714 0.357215
vt 0.899645 0.461049
vt 0.879442 0.143520
vt 0.722255 0.073328
vt 0.907528 0.595838
vt 0.965054 0.436966
vt 0.981515 0.614588
vt 0.795532 0.514419
vt 0.916224 0.783458
vt 0.840389 0.795597
vt 0.971366 0.833405
vt 0.942220 0.943785
vt 0.900216 0.881207
vt 0.850751 0.872712
vt 0.695695 0.731138
vt 0.718247 0.548583
vt 0.609536 0.490329
vt 0.598178 0.422847
vt 0.564380 0.517345
vt 0.521565 0.450683
vt 0.395339 0.532761
vt 0.487845 0.596632
vt 0.014769 0.607615
vt 0.228336 0.721699
vt 0.073587 0.635645
vt 0.346218 0.641874
vt 0.427626 0.725445
vt 0.530168 0.684277
vt 0.416775 0.799752
vt 0.306411 0.768580
vt 0.654088 0.794705
vt 0.496606 0.752232
vt 0.531214 0.841354
vt 0.673825 0.912858
vt 0.793582 0.936785
vt 0.813628 0.880236
vt 0.897492 0.971009
vt 0.603357 0.649195
vt 0.626325 0.567084
vt 0.416794 0.858148
vt 0.516180 0.917674
vt 0.657114 0.970364
vt 0.453605 0.417496
vt 0.322767 0.365964
vt 0.619679 0.283815
vt 0.603913 0.111675
vt 0.573514 0.054207
vt 0.678406 0.199198
vt 0.865558 0.322307
vt 0.858910 0.287093
vt 0.837470 0.227051
vt 0.671180 0.094214
vt 0.682375 0.054401
vt 0.018568 0.550654
vt 0.353346 0.022798
vt 0.330125 0.341381
vt 0.291681 0.466972
vt 0.226772 0.475265
vn -0.964152 0.265216 -0.008426
vn -0.909884 -0.040910 0.412841
vn -0.728737 -0.013990 0.684651
vn -0.714555 -0.010990 0.699493
vn -0.590558 0.373989 0.715104
vn 0.058362 0.021923 0.998055
vn 0.012112 -0.011338 0.999862
vn -0.952665 0.285210 0.105285
vn -0.964152 0.265216 -0.008426
vn -0.891354 0.285966 0.351726
vn -0.697157 0.413669 0.585534
vn -0.697157 0.413669 0.585534
vn -0.891354 0.285966 0.351726
vn -0.728737 -0.013990 0.684651
vn -0.590558 0.373989 0.715104
vn 0.000252 0.668629 0.743597
vn -0.372445 0.765054 0.525335
vn -0.476861 -0.066625 -0.876450
vn -0.804218 0.594251 0.009960
vn -0.434993 0.496200 -0.751377
vn -0.476861 -0.066625 -0.876450
vn -0.402108 -0.053222 -0.914044
vn -0.952665 0.285210 0.105285
vn -0.952665 0.285210 0.105285
vn -0.402108 -0.053222 -0.914044
vn -0.964152 0.265216 -0.008426
vn -0.697157 0.413669 0.585534
vn -0.804218 0.594251 0.009960
vn -0.952665 0.285210 0.105285
vn -0.537314 0.534995 0.651977
vn -0.682994 -0.284415 0.672775
vn -0.804218 0.594251 0.009960
vn -0.714555 -0.010990 0.699493
vn -0.775299 -0.055742 0.629130
vn -0.957059 0.160403 -0.241473
vn -0.662131 0.304483 0.684742
vn -0.652017 0.369469 0.662093
vn -0.775299 -0.055742 0.629130
vn -0.478034 -0.065750 0.875877
vn -0.426273 0.376225 0.822646
vn 0.092469 0.434429 0.895947
vn 0.000252 0.668629 0.743597
vn -0.590558 0.373989 0.715104
vn 0.205089 -0.036242 0.978072
vn -0.070189 0.165750 0.983667
vn -0.478034 -0.065750 0.875877
vn -0.102250 -0.269915 0.957440
vn 0.346122 -0.010995 0.938125
vn 0.092469 0.434429 0.895947
vn -0.554144 -0.566038 0.610349
vn -0.714555 -0.010990 0.699493
vn 0.011011 0.213450 0.976892
vn -0.268174 0.340656 0.901130
vn 0.404096 0.134665 0.904750
vn 0.346122 -0.010995 0.938125
vn 0.281798 -0.381135 0.880526
vn 0.289904 -0.258548 0.921471
vn 0.404096 0.134665 0.904750
vn 0.486621 0.546802 0.681328
vn 0.092469 0.434429 0.895947
vn 0.346122 -0.010995 0.938125
vn 0.404096 0.134665 0.904750
vn 0.380232 0.192790 0.904575
vn 0.585049 0.698320 0.412393
vn 0.486621 0.546802 0.681328
vn 0.380232 0.192790 0.904575
vn 0.404096 0.134665 0.904750
vn 0.289904 -0.258548 0.921471
vn 0.277685 -0.062134 0.958661
vn 0.277685 -0.062134 0.958661
vn 0.701565 0.278158 0.656075
vn 0.572300 0.377613 0.727929
vn 0.380232 0.192790 0.904575
vn 0.380232 0.192790 0.904575
vn 0.572300 0.377613 0.727929
vn 0.715140 0.656620 0.239637
vn 0.585049 0.698320 0.412393
vn 0.681310 0.729885 0.055544
vn 0.540835 0.720545 0.433949
vn 0.486621 0.546802 0.681328
vn 0.000252 0.668629 0.743597
vn 0.092469 0.434429 0.895947
vn 0.486621 0.546802 0.681328
vn 0.540835 0.720545 0.433949
vn 0.000252 0.668629 0.743597
vn 0.540835 0.720545 0.433949
vn 0.463084 0.767647 0.443024
vn -0.378004 0.620375 0.687203
vn -0.378004 0.620375 0.687203
vn 0.463084 0.767647 0.443024
vn 0.312644 0.878441 -0.361379
vn -0.492954 0.868215 0.056559
vn -0.804218 0.594251 0.009960
vn -0.175485 0.481069 -0.858940
vn -0.434993 0.496200 -0.751377
vn 0.312644 0.878441 -0.361379
vn 0.036101 0.501946 -0.864145
vn -0.175485 0.481069 -0.858940
vn -0.492954 0.868215 0.056559
vn -0.964152 0.265216 -0.008426
vn -0.654253 -0.197935 -0.729914
vn -0.909884 -0.040910 0.412841
vn -0.402108 -0.053222 -0.914044
vn -0.264681 -0.133927 -0.954991
vn -0.253316 -0.268118 -0.929486
vn -0.264681 -0.133927 -0.954991
vn -0.402108 -0.053222 -0.914044
vn -0.476861 -0.066625 -0.876450
vn -0.190360 0.028489 -0.981301
vn -0.190360 0.028489 -0.981301
vn -0.476861 -0.066625 -0.876450
vn -0.434993 0.496200 -0.751377
vn -0.285332 0.100146 -0.953182
vn -0.190360 0.028489 -0.981301
vn -0.175485 0.481069 -0.858940
vn 0.036101 0.501946 -0.864145
vn 0.356300 0.378656 -0.854207
vn -0.285332 0.100146 -0.953182
vn 0.036101 0.501946 -0.864145
vn -0.126900 -0.175507 -0.976265
vn -0.382685 -0.051724 -0.922430
vn -0.190360 0.028489 -0.981301
vn -0.285332 0.100146 -0.953182
vn -0.382685 -0.051724 -0.922430
vn -0.264681 -0.133927 -0.954991
vn -0.190360 0.028489 -0.981301
vn 0.356300 0.378656 -0.854207
vn 0.638186 0.382944 -0.667887
vn 0.466315 0.089212 -0.880109
vn -0.126900 -0.175507 -0.976265
vn 0.356300 0.378656 -0.854207
vn 0.466315 0.089212 -0.880109
vn -0.285332 0.100146 -0.953182
vn 0.356300 0.378656 -0.854207
vn -0.126900 -0.175507 -0.976265
vn 0.508694 -0.071794 -0.857949
vn -0.126900 -0.175507 -0.976265
vn 0.466315 0.089212 -0.880109
vn 0.466315 0.089212 -0.880109
vn 0.638186 0.382944 -0.667887
vn 0.485302 -0.137418 -0.863480
vn 0.508694 -0.071794 -0.857949
vn 0.448883 -0.105389 -0.887354
vn 0.485302 -0.137418 -0.863480
vn 0.638186 0.382944 -0.667887
vn 0.610935 0.377247 -0.696019
vn 0.930453 0.235619 -0.280608
vn 0.448883 -0.105389 -0.887354
vn 0.610935 0.377247 -0.696019
vn 0.715140 0.656620 0.239637
vn 0.572300 0.377613 0.727929
vn 0.701565 0.278158 0.656075
vn 0.930453 0.235619 -0.280608
vn 0.585049 0.698320 0.412393
vn 0.638186 0.382944 -0.667887
vn 0.681310 0.729885 0.055544
vn 0.585049 0.698320 0.412393
vn 0.715140 0.656620 0.239637
vn 0.610935 0.377247 -0.696019
vn 0.656957 0.726450 -0.201688
vn 0.036101 0.501946 -0.864145
vn 0.312644 0.878441 -0.361379
vn 0.572326 0.818477 0.050383
vn 0.572326 0.818477 0.050383
vn 0.312644 0.878441 -0.361379
vn 0.463084 0.767647 0.443024
vn 0.656957 0.726450 -0.201688
vn 0.572326 0.818477 0.050383
vn 0.540835 0.720545 0.433949
vn 0.656957 0.726450 -0.201688
vn 0.681310 0.729885 0.055544
vn 0.638186 0.382944 -0.667887
vn 0.356300 0.378656 -0.854207
vn 0.356300 0.378656 -0.854207
vn 0.036101 0.501946 -0.864145
vn 0.656957 0.726450 -0.201688
vn 0.306574 -0.621172 -0.721220
vn -0.382685 -0.051724 -0.922430
vn -0.126900 -0.175507 -0.976265
vn 0.344379 -0.635130 -0.691385
vn 0.306574 -0.621172 -0.721220
vn -0.126900 -0.175507 -0.976265
vn 0.508694 -0.071794 -0.857949
vn 0.318369 -0.684895 -0.655408
vn 0.344379 -0.635130 -0.691385
vn 0.508694 -0.071794 -0.857949
vn 0.485302 -0.137418 -0.863480
vn 0.485302 -0.137418 -0.863480
vn 0.448883 -0.105389 -0.887354
vn 0.318369 -0.684895 -0.655408
vn 0.318369 -0.684895 -0.655408
vn 0.448883 -0.105389 -0.887354
vn 0.930453 0.235619 -0.280608
vn 0.930453 0.235619 -0.280608
vn 0.610935 0.377247 -0.696019
vn 0.715140 0.656620 0.239637
vn -0.952665 0.285210 0.105285
vn -0.804218 0.594251 0.009960
vn -0.476861 -0.066625 -0.876450
vn -0.190360 0.028489 -0.981301
vn -0.434993 0.496200 -0.751377
vn -0.175485 0.481069 -0.858940
vn -0.102250 -0.269915 0.957440
vn 0.281798 -0.381135 0.880526
vn 0.346122 -0.010995 0.938125
vn 0.572326 0.818477 0.050383
vn 0.463084 0.767647 0.443024
vn 0.540835 0.720545 0.433949
vn -0.345842 0.249747 0.904444
vn -0.378004 0.620375 0.687203
vn -0.311228 0.572650 0.758426
vn -0.575500 0.201345 0.792629
vn 0.118193 0.771356 -0.625332
vn -0.087407 0.527113 -0.845288
vn -0.697157 0.413669 0.585534
vn -0.306020 -0.192855 -0.932287
vn -0.402108 -0.053222 -0.914044
vn -0.654253 -0.197935 -0.729914
vn -0.891354 0.285966 0.351726
vn -0.575929 0.593065 0.562655
vn -0.697157 0.413669 0.585534
vn -0.728737 -0.013990 0.684651
vn -0.851029 0.441968 0.283572
vn -0.726664 0.405611 0.554472
vn -0.697157 0.413669 0.585534
vn -0.743556 -0.446659 0.497614
vn -0.987452 -0.156739 0.019276
vn -0.728737 -0.013990 0.684651
vn -0.909884 -0.040910 0.412841
vn -0.524092 0.837499 0.154671
vn -0.102250 -0.269915 0.957440
vn 0.092469 0.434429 0.895947
vn 0.123203 0.044467 0.991385
vn -0.426273 0.376225 0.822646
vn -0.070214 0.119056 0.990402
vn -0.590558 0.373989 0.715104
vn -0.727168 0.340650 0.595974
vn -0.728538 0.365087 0.579607
vn -0.426273 0.376225 0.822646
vn -0.948623 0.108201 -0.297334
vn -0.590558 0.373989 0.715104
vn -0.775299 -0.055742 0.629130
vn 0.585049 0.698320 0.412393
vn 0.681310 0.729885 0.055544
vn 0.610935 0.377247 -0.696019
vn -0.880595 0.314329 -0.354612
vn -0.802878 0.322762 -0.501211
vn -0.894105 0.441079 -0.077622
vn -0.891466 0.417248 -0.176617
vn -0.492954 0.868215 0.056559
vn -0.378004 0.620375 0.687203
vn -0.492954 0.868215 0.056559
s 1
g polySurface1441
f 1/1/1 2/2/2 3/3/3
s 2
f 5/4/4 6/5/5 65/6/6 75/7/7
s off
f 8/8/8 1/1/9 4/9/10 7/10/11
f 7/10/12 4/9/13 3/3/14
s 3
f 6/5/15 9/11/16 65/6/17
s off
f 13/12/18 11/81/19 12/14/20
f 13/12/21 14/15/22 8/82/23
f 8/82/24 14/15/25 1/78/26
f 7/10/27 11/13/28 8/8/29
s 4
f 59/16/30 61/80/31 11/13/32
s 5
f 5/4/33 16/18/34 71/19/35
s 6
f 70/20/36 71/19/37 16/18/38 17/21/39
s off
f 18/22/40 19/23/41 9/11/42 6/5/43
s 7
f 69/24/44 70/20/45 17/21/46
s off
f 20/25/47 21/26/48 19/23/49
s 8
f 22/27/50 5/4/51 75/7/52 76/28/53
s off
f 25/29/54 21/26/55 23/30/56 24/31/57
f 25/29/58 26/32/59 19/23/60 21/26/61
f 25/29/62 27/33/63 28/34/64 26/32/65
f 27/33/66 25/29/67 24/31/68 29/35/69
f 29/35/70 30/36/71 31/37/72 27/33/73
f 27/33/74 31/37/75 32/38/76 28/34/77
s 9
f 34/39/78 33/40/79 26/32/80
s off
f 9/11/81 19/23/82 26/32/83 33/40/84
f 9/11/85 33/40/86 35/41/87 10/42/88
f 10/42/89 35/41/90 36/43/91 15/44/92
s 10
f 11/81/93 37/45/94 12/14/95
s off
f 36/43/96 38/46/97 37/45/98 15/44/99
s 11
f 1/1/100 39/79/101 2/2/102
s 12
f 14/15/103 41/48/104 40/49/105
s off
f 41/48/106 14/15/107 13/12/108 42/50/109
f 42/50/110 13/12/111 12/14/112
f 43/51/113 42/50/114 37/45/115 38/46/116
f 44/52/117 43/51/118 38/46/119
f 46/53/120 45/54/121 42/50/122 43/51/123
f 45/54/124 41/48/125 42/50/126
f 44/52/127 47/55/128 48/56/129
f 46/53/130 44/52/131 48/56/132
f 43/51/133 44/52/134 46/53/135
f 49/57/136 46/53/137 48/56/138
f 48/56/139 47/55/140 50/58/141 49/57/142
f 52/59/143 50/58/144 47/55/145 51/60/146
f 53/61/147 52/59/148 51/60/149
f 32/38/150 31/37/151 30/36/152 53/61/153
s 13
f 28/34/154 47/55/155 34/39/156
s off
f 28/34/157 32/38/158 51/60/159
f 55/62/160 38/46/161 36/43/162 54/63/163
f 54/63/164 36/43/165 35/41/166
s 14
f 55/62/167 54/63/168 33/40/169
s off
f 55/62/170 34/39/171 47/55/172 44/52/173
f 44/52/174 38/46/175 55/62/176
f 56/64/177 45/54/178 46/53/179
f 57/65/180 56/64/181 46/53/182 49/57/183
f 58/66/184 57/65/185 49/57/186 50/58/187
f 50/58/188 52/59/189 58/66/190
f 58/66/191 52/59/192 53/61/193
f 53/61/194 51/60/195 32/38/196
f 8/82/197 11/81/198 13/12/199
f 42/50/200 12/14/201 37/45/202
f 20/25/203 23/30/204 21/26/205
f 54/63/206 35/41/207 33/40/208
s 3
f 59/16/209 9/11/16 10/42/210
s 4
f 59/16/30 77/67/211 60/68/212
s 10
f 77/67/213 37/45/94 60/68/214
s 4
f 59/16/30 11/13/32 7/10/215
s 10
f 61/17/216 37/45/94 11/81/93
s 4
f 59/16/30 60/68/212 61/80/31
s 10
f 60/68/214 37/45/94 61/17/216
s 11
f 14/15/217 39/47/101 1/78/100
s 12
f 14/15/103 40/49/105 39/47/218
s 1
f 1/1/1 3/3/3 4/9/219
s 3
f 62/69/220 9/11/16 59/16/209 7/10/221
s 2
f 3/3/222 63/70/223 62/69/224 7/10/225
s 8
f 64/71/226 63/70/227 3/3/228 2/2/229
s 3
f 65/6/17 9/11/16 72/72/230
s 7
f 20/25/231 69/24/44 17/21/46
f 19/23/232 66/73/233 20/25/231
f 18/22/234 67/74/235 66/73/233 19/23/232
s 6
f 6/5/236 68/75/237 67/74/238 18/22/239
s 5
f 5/4/33 68/75/240 6/5/241
s 7
f 20/25/231 66/73/233 69/24/44
f 66/73/233 67/74/235 70/20/45 69/24/44
s 6
f 67/74/238 68/75/237 71/19/37 70/20/36
s 5
f 5/4/33 71/19/35 68/75/240
s 8
f 5/4/51 22/27/50 16/18/242
s 9
f 34/39/78 26/32/80 28/34/243
s 14
f 55/62/167 33/40/169 34/39/244
s 13
f 51/60/245 47/55/155 28/34/154
s 3
f 72/72/230 9/11/16 62/69/220
s 2
f 63/70/223 73/76/246 72/72/247 62/69/224
s 8
f 74/77/248 73/76/249 63/70/227 64/71/226
s 2
f 65/6/6 73/76/246 75/7/7
s 8
f 76/28/53 75/7/52 73/76/249 74/77/248
s 2
f 72/72/247 73/76/246 65/6/6
s 4
f 15/44/250 59/16/30 10/42/251
s 10
f 15/44/252 37/45/94 77/67/213
s 4
f 15/44/250 77/67/211 59/16/30
