# This file uses centimeters as units for non-parametric coordinates.

g default
v -13.660559 -0.706746 2.794637
v -12.090427 -0.706746 2.794637
v -13.660559 0.706746 2.794637
v -12.090427 0.706746 2.794637
v -13.660559 0.706746 -3.334793
v -12.090427 0.706746 -3.334793
v -13.660559 -0.706746 -3.334793
v -12.090427 -0.706746 -3.334793
v -12.090427 0.706746 1.018553
v -13.660559 0.706746 1.039512
v -13.660559 -0.706746 1.039512
v -12.090427 -0.706746 1.039512
v -7.527362 -0.706746 1.039512
v -7.527362 -0.706746 2.794637
v -7.527362 0.706746 1.039512
v -7.527362 0.706746 2.794637
v -13.487261 0.706746 2.607423
v -12.090425 0.706746 2.607423
v -13.487261 0.706746 -3.157333
v -12.261536 0.706746 -3.157333
v -13.487261 0.706746 1.018552
v -7.692861 0.706746 1.199475
v -7.692861 0.706746 2.607423
v -12.261536 0.706746 1.018552
v -12.090426 0.706746 1.199475
v -12.261536 0.706746 1.199475
v -13.487261 0.629150 1.018552
v -12.261536 0.629150 1.018552
v -12.261536 0.629150 -3.157333
v -13.487261 0.629150 -3.157333
v -12.090425 0.629150 2.607423
v -7.692861 0.629150 2.607423
v -7.692861 0.629150 1.199475
v -12.090426 0.629150 1.199475
v -12.261536 0.629150 1.199475
v -13.487261 0.629150 2.607423
v 13.660560 -0.706746 2.794637
v 12.090428 -0.706746 2.794637
v 13.660560 0.706746 2.794637
v 12.090428 0.706746 2.794637
v 13.660560 0.706746 -3.334793
v 12.090428 0.706746 -3.334793
v 13.660560 -0.706746 -3.334793
v 12.090428 -0.706746 -3.334793
v 12.090428 0.706746 1.018553
v 13.660560 0.706746 1.039512
v 13.660560 -0.706746 1.039512
v 12.090428 -0.706746 1.039512
v 7.527363 -0.706746 1.039512
v 7.527363 -0.706746 2.794637
v 7.527363 0.706746 1.039512
v 7.527363 0.706746 2.794637
v 13.487262 0.706746 2.607423
v 12.090427 0.706746 2.607423
v 13.487262 0.706746 -3.157333
v 12.261538 0.706746 -3.157333
v 13.487262 0.706746 1.018552
v 7.692863 0.706746 1.199475
v 7.692863 0.706746 2.607423
v 12.261538 0.706746 1.018552
v 12.090428 0.706746 1.199475
v 12.261538 0.706746 1.199475
v 13.487262 0.629150 1.018552
v 12.261538 0.629150 1.018552
v 12.261538 0.629150 -3.157333
v 13.487262 0.629150 -3.157333
v 12.090427 0.629150 2.607423
v 7.692863 0.629150 2.607423
v 7.692863 0.629150 1.199475
v 12.090428 0.629150 1.199475
v 12.261538 0.629150 1.199475
v 13.487262 0.629150 2.607423
vt 0.416839 0.914573
vt 0.529564 0.914573
vt 0.749082 0.368895
vt 0.749081 0.217709
vt 0.210902 0.217709
vt 0.210902 0.368895
vt 0.630562 0.827856
vt 0.737384 0.827856
vt 0.857160 0.914573
vt 0.983166 0.914573
vt 0.580084 0.808266
vt 0.749082 0.808266
vt 0.290834 0.914573
vt 0.580084 0.217709
vt 0.578066 0.368895
vt 0.369710 0.827856
vt 0.025334 0.189014
vt 0.025334 0.020582
vt 0.079024 0.677747
vt 0.055840 0.479051
vt 0.079024 0.221212
vt 0.055840 0.042409
vt 0.060326 0.806235
vt 0.559869 0.806235
vt 0.025334 0.719277
vt 0.091152 0.221212
vt 0.747252 0.198371
vt 0.044240 0.479051
vt 0.091152 0.677747
vt 0.978423 0.223268
vt 0.013694 0.719277
vt 0.559868 0.795262
vt 0.060326 0.795262
vt 0.044240 0.020681
vt 0.978390 0.020024
vt 0.055840 0.020681
vt 0.013694 0.020582
vt 0.091152 0.021698
vt 0.747253 0.020024
vt 0.040889 0.795262
vt 0.773572 0.198371
vt 0.044240 0.042409
vt 0.013694 0.189014
vt 0.731054 0.234395
vt 0.079024 0.021698
vt 0.773569 0.223268
vt 0.595486 0.352419
vt 0.040888 0.806235
vt 0.013694 0.889049
vt 0.773566 0.863125
vt 0.978426 0.863125
vt 0.595486 0.792330
vt 0.025334 0.889049
vt 0.044240 0.626257
vt 0.218354 0.020024
vt 0.218343 0.198371
vt 0.227990 0.234395
vt 0.055840 0.626257
vt 0.578066 0.352419
vt 0.595486 0.368895
vt 0.227989 0.352419
vt 0.731055 0.792330
vt 0.731055 0.368895
vt 0.578066 0.234395
vt 0.857160 0.987246
vt 0.059502 0.896039
vt 0.983166 0.987246
vt 0.529564 0.987246
vt 0.059296 0.827856
vt 0.370404 0.896033
vt 0.290834 0.987246
vt 0.015568 0.987246
vt 0.737073 0.896018
vt 0.630480 0.896042
vt 0.015568 0.914573
vt 0.416839 0.987246
vt 0.416839 0.914573
vt 0.529564 0.914573
vt 0.529564 0.987246
vt 0.416839 0.987246
vt 0.737073 0.896018
vt 0.630480 0.896042
vt 0.630562 0.827856
vt 0.737384 0.827856
vt 0.857160 0.914573
vt 0.983166 0.914573
vt 0.983166 0.987246
vt 0.857160 0.987246
vt 0.290834 0.914573
vt 0.290834 0.987246
vt 0.015568 0.914573
vt 0.015568 0.987246
vt 0.370404 0.896033
vt 0.369710 0.827856
vt 0.059502 0.896039
vt 0.059296 0.827856
vt 0.749081 0.217709
vt 0.749082 0.368895
vt 0.731055 0.368895
vt 0.731054 0.234395
vt 0.210902 0.368895
vt 0.210902 0.217709
vt 0.227990 0.234395
vt 0.227989 0.352419
vt 0.580084 0.217709
vt 0.578066 0.234395
vt 0.578066 0.368895
vt 0.578066 0.352419
vt 0.580084 0.808266
vt 0.595486 0.368895
vt 0.595486 0.792330
vt 0.749082 0.808266
vt 0.731055 0.792330
vt 0.747253 0.020024
vt 0.747252 0.198371
vt 0.218343 0.198371
vt 0.218354 0.020024
vt 0.978423 0.223268
vt 0.978426 0.863125
vt 0.773566 0.863125
vt 0.773569 0.223268
vt 0.773572 0.198371
vt 0.978390 0.020024
vt 0.595486 0.352419
vt 0.055840 0.042409
vt 0.055840 0.479051
vt 0.044240 0.479051
vt 0.044240 0.042409
vt 0.055840 0.626257
vt 0.044240 0.626257
vt 0.079024 0.677747
vt 0.079024 0.221212
vt 0.091152 0.221212
vt 0.091152 0.677747
vt 0.025334 0.189014
vt 0.025334 0.719277
vt 0.013694 0.719277
vt 0.013694 0.189014
vt 0.025334 0.889049
vt 0.013694 0.889049
vt 0.559869 0.806235
vt 0.060326 0.806235
vt 0.060326 0.795262
vt 0.559868 0.795262
vt 0.040888 0.806235
vt 0.040889 0.795262
vt 0.025334 0.020582
vt 0.013694 0.020582
vt 0.055840 0.020681
vt 0.044240 0.020681
vt 0.079024 0.021698
vt 0.091152 0.021698
vn 0.000000 0.000000 1.000000
vn 0.000000 0.000000 1.000000
vn 0.000000 0.000000 1.000000
vn 0.000000 0.000000 1.000000
vn 0.000000 0.000000 -1.000000
vn 0.000000 0.000000 -1.000000
vn 0.000000 0.000000 -1.000000
vn 0.000000 0.000000 -1.000000
vn 1.000000 0.000000 0.000000
vn 1.000000 0.000000 0.000000
vn 1.000000 0.000000 0.000000
vn 1.000000 0.000000 0.000000
vn -1.000000 0.000000 0.000000
vn -1.000000 0.000000 0.000000
vn -1.000000 0.000000 0.000000
vn -1.000000 0.000000 0.000000
vn -1.000000 0.000000 0.000000
vn -1.000000 0.000000 0.000000
vn 1.000000 0.000001 0.000000
vn 1.000000 0.000001 0.000000
vn 1.000000 0.000001 0.000000
vn 1.000000 0.000001 0.000000
vn 0.002297 -0.007414 -0.999970
vn 0.002297 -0.007414 -0.999970
vn 0.002297 -0.007414 -0.999970
vn 0.002297 -0.007414 -0.999970
vn 0.000000 0.000000 1.000000
vn 0.000000 0.000000 1.000000
vn 0.000000 0.000000 1.000000
vn 0.000000 0.000000 1.000000
vn 0.000000 1.000000 -0.000001
vn 0.000000 1.000000 -0.000001
vn 0.000000 1.000000 -0.000001
vn 0.000000 1.000000 -0.000001
vn 0.000000 1.000000 -0.000005
vn 0.000000 1.000000 -0.000005
vn 0.000000 1.000000 -0.000005
vn 0.000000 1.000000 -0.000005
vn 0.000000 1.000000 0.000000
vn 0.000000 1.000000 0.000000
vn 0.000000 1.000000 0.000000
vn 0.000000 1.000000 0.000000
vn -0.000000 1.000000 -0.000000
vn 0.000000 1.000000 0.000000
vn 0.000000 1.000000 0.000000
vn -0.000000 1.000000 0.000000
vn 0.000000 1.000000 0.000000
vn 0.000000 1.000000 0.000000
vn 0.000000 1.000000 0.000000
vn 0.000000 1.000000 0.000000
vn 0.000000 1.000000 -0.000001
vn -0.000000 1.000000 -0.000001
vn 0.000000 1.000000 -0.000001
vn 0.000000 1.000000 -0.000000
vn 0.000000 1.000000 -0.000000
vn 0.000000 1.000000 -0.000000
vn 0.000000 1.000000 -0.000000
vn 0.000000 1.000000 0.000000
vn 0.000000 1.000000 0.000000
vn 0.000000 1.000000 0.000000
vn 0.000000 1.000000 0.000000
vn 0.000000 1.000000 0.000000
vn 0.000000 1.000000 0.000000
vn 0.000000 1.000000 0.000000
vn 0.000000 1.000000 0.000000
vn 0.000000 1.000000 0.000000
vn 0.000000 1.000000 0.000000
vn 0.000000 1.000000 0.000000
vn 0.000000 1.000000 0.000000
vn 0.000000 1.000000 -0.000000
vn 0.000000 1.000000 -0.000000
vn -0.000001 1.000000 0.000000
vn -1.000000 0.000000 0.000000
vn -1.000000 0.000000 0.000000
vn -1.000000 0.000000 0.000000
vn -1.000000 0.000000 0.000000
vn 0.000000 0.000000 1.000000
vn 0.000000 0.000000 1.000000
vn 0.000000 0.000000 1.000000
vn 0.000000 0.000000 1.000000
vn 1.000000 0.000000 0.000000
vn 1.000000 0.000000 0.000000
vn 1.000000 0.000000 0.000000
vn 1.000000 0.000000 0.000000
vn 0.000000 0.000000 -1.000000
vn 0.000000 0.000000 -1.000000
vn 0.000000 0.000000 -1.000000
vn 0.000000 0.000000 -1.000000
vn -1.000000 0.000000 0.000000
vn -1.000000 0.000000 0.000000
vn -1.000000 0.000000 0.000000
vn -1.000000 0.000000 0.000000
vn 0.000000 0.000000 1.000000
vn 0.000000 0.000000 1.000000
vn 0.000000 0.000000 1.000000
vn 0.000000 0.000000 1.000000
vn 0.000000 0.000000 1.000000
vn 0.000000 0.000000 1.000000
vn 0.000000 0.000000 -1.000000
vn 0.000000 0.000000 -1.000000
vn -1.000000 0.000000 0.000000
vn -1.000000 0.000000 0.000000
vn 1.000000 0.000000 0.000000
vn 1.000000 0.000000 0.000000
vn 0.000000 0.000000 1.000000
vn 0.000000 0.000000 1.000000
vn 0.000000 0.000000 1.000000
vn 0.000000 0.000000 1.000000
vn 0.000000 0.000000 -1.000000
vn 0.000000 0.000000 -1.000000
vn 0.000000 0.000000 -1.000000
vn 0.000000 0.000000 -1.000000
vn -1.000000 0.000000 0.000000
vn -1.000000 0.000000 0.000000
vn -1.000000 0.000000 0.000000
vn -1.000000 0.000000 0.000000
vn 1.000000 0.000000 0.000000
vn 1.000000 0.000000 0.000000
vn 1.000000 0.000000 0.000000
vn 1.000000 0.000000 0.000000
vn 1.000000 0.000000 0.000000
vn 1.000000 0.000000 0.000000
vn -1.000000 -0.000000 0.000000
vn -1.000000 -0.000000 0.000000
vn -1.000000 -0.000000 0.000000
vn -1.000000 -0.000000 0.000000
vn -0.002297 -0.007414 -0.999970
vn -0.002297 -0.007414 -0.999970
vn -0.002297 -0.007414 -0.999970
vn -0.002297 -0.007414 -0.999970
vn 0.000000 0.000000 1.000000
vn 0.000000 0.000000 1.000000
vn 0.000000 0.000000 1.000000
vn 0.000000 0.000000 1.000000
vn 0.000000 1.000000 0.000000
vn 0.000000 1.000000 0.000000
vn 0.000000 1.000000 0.000000
vn 0.000000 1.000000 0.000000
vn 0.000000 1.000000 -0.000004
vn 0.000000 1.000000 -0.000004
vn 0.000000 1.000000 -0.000004
vn 0.000000 1.000000 -0.000004
vn 0.000000 1.000000 0.000000
vn 0.000000 1.000000 0.000000
vn 0.000000 1.000000 0.000000
vn 0.000000 1.000000 0.000000
vn 0.000000 1.000000 -0.000000
vn 0.000000 1.000000 -0.000000
vn 0.000000 1.000000 0.000000
vn 0.000000 1.000000 0.000000
vn 0.000000 1.000000 0.000000
vn 0.000000 1.000000 0.000000
vn 0.000000 1.000000 0.000000
vn 0.000000 1.000000 0.000000
vn 0.000000 1.000000 0.000000
vn 0.000000 1.000000 0.000000
vn 0.000000 1.000000 -0.000000
vn 0.000000 1.000000 0.000000
vn 0.000000 1.000000 0.000000
vn 0.000000 1.000000 0.000000
vn 0.000000 1.000000 0.000000
vn 0.000000 1.000000 0.000000
vn 0.000000 1.000000 0.000000
vn 0.000000 1.000000 0.000000
vn 0.000000 1.000000 0.000000
vn 0.000000 1.000000 0.000000
vn 0.000000 1.000000 0.000000
vn 0.000000 1.000000 0.000000
vn 0.000000 1.000000 0.000000
vn 0.000000 1.000000 0.000000
vn 0.000000 1.000000 0.000000
vn 0.000000 1.000000 0.000000
vn 0.000000 1.000000 0.000000
vn 0.000000 1.000000 -0.000000
vn 0.000000 1.000000 -0.000000
vn 0.000001 1.000000 -0.000002
vn 1.000000 0.000000 0.000000
vn 1.000000 0.000000 0.000000
vn 1.000000 0.000000 0.000000
vn 1.000000 0.000000 0.000000
vn 0.000000 0.000000 1.000000
vn 0.000000 0.000000 1.000000
vn 0.000000 0.000000 1.000000
vn 0.000000 0.000000 1.000000
vn -1.000000 0.000000 0.000000
vn -1.000000 0.000000 0.000000
vn -1.000000 0.000000 0.000000
vn -1.000000 0.000000 0.000000
vn 0.000000 0.000000 -1.000000
vn 0.000000 0.000000 -1.000000
vn 0.000000 0.000000 -1.000000
vn 0.000000 0.000000 -1.000000
vn 1.000000 0.000000 0.000000
vn 1.000000 0.000000 0.000000
vn 1.000000 0.000000 0.000000
vn 1.000000 0.000000 0.000000
vn 0.000000 0.000000 1.000000
vn 0.000000 0.000000 1.000000
vn 0.000000 0.000000 1.000000
vn 0.000000 0.000000 1.000000
vn 0.000000 0.000000 1.000000
vn 0.000000 0.000000 1.000000
vn 0.000000 0.000000 -1.000000
vn 0.000000 0.000000 -1.000000
vn 1.000000 0.000000 0.000000
vn 1.000000 0.000000 0.000000
vn -1.000000 0.000000 0.000000
vn -1.000000 0.000000 0.000000
s off
g pCube391
f 1/1/1 2/2/2 4/68/3 3/76/4
f 5/73/5 6/74/6 8/7/7 7/8/8
f 14/9/9 13/10/10 15/67/11 16/65/12
s 1
f 11/13/13 1/1/14 3/76/15 10/71/16
f 7/75/17 11/13/13 10/71/16 5/72/18
s off
f 9/70/19 12/16/20 8/7/21 6/74/22
f 12/16/23 9/70/24 15/66/25 13/69/26
f 4/68/27 2/2/28 14/9/29 16/65/30
f 3/4/31 4/3/32 18/63/33 17/44/34
f 6/6/35 5/5/36 19/57/37 20/61/38
f 10/14/39 3/4/40 17/44/41 21/64/42
s 2
f 9/15/43 6/6/44 20/61/45 24/59/46
s off
f 5/5/47 10/14/48 21/64/49 19/57/50
s 2
f 15/11/51 9/15/43 25/60/52 22/52/53
s off
f 4/3/54 16/12/55 23/62/56 18/63/57
f 16/12/58 15/11/59 22/52/60 23/62/61
s 3
f 27/39/62 28/27/63 29/56/64 30/55/65
f 31/30/66 32/51/67 33/50/68 34/46/69
f 34/46/69 35/41/70 36/35/71 31/30/66
s 2
f 25/60/52 9/15/43 24/59/46 26/47/72
s 3
f 36/35/71 35/41/70 28/27/63 27/39/62
s 5
f 24/22/73 20/20/74 29/28/75 28/42/76
s off
f 20/20/77 19/58/78 30/54/79 29/28/80
s 6
f 19/19/81 21/21/82 27/26/83 30/29/84
s 7
f 18/17/85 23/25/86 32/31/87 31/43/88
s off
f 23/25/89 22/53/90 33/49/91 32/31/92
s 8
f 22/24/93 25/23/94 34/33/95 33/32/96
f 25/23/94 26/48/97 35/40/98 34/33/95
s 7
f 17/18/99 18/17/85 31/43/88 36/37/100
s 5
f 26/36/101 24/22/73 28/42/76 35/34/102
s 6
f 21/21/82 17/45/103 36/38/104 27/26/83
s off
f 37/77/105 39/80/106 40/79/107 38/78/108
f 41/81/109 43/84/110 44/83/111 42/82/112
f 50/85/113 52/88/114 51/87/115 49/86/116
s 9
f 47/89/117 46/90/118 39/80/119 37/77/120
f 43/91/121 41/92/122 46/90/118 47/89/117
s off
f 45/93/123 42/82/124 44/83/125 48/94/126
f 48/94/127 49/96/128 51/95/129 45/93/130
f 40/79/131 52/88/132 50/85/133 38/78/134
f 39/97/135 53/100/136 54/99/137 40/98/138
f 42/101/139 56/104/140 55/103/141 41/102/142
f 46/105/143 57/106/144 53/100/145 39/97/146
s 10
f 45/107/147 60/108/148 56/104/149 42/101/150
s off
f 41/102/151 55/103/152 57/106/153 46/105/154
s 10
f 51/109/155 58/111/156 61/110/157 45/107/147
s off
f 40/98/158 54/99/159 59/113/160 52/112/161
f 52/112/162 59/113/163 58/111/164 51/109/165
s 11
f 63/114/166 66/117/167 65/116/168 64/115/169
f 67/118/170 70/121/171 69/120/172 68/119/173
f 70/121/171 67/118/170 72/123/174 71/122/175
s 10
f 61/110/157 62/124/176 60/108/148 45/107/147
s 11
f 72/123/174 63/114/166 64/115/169 71/122/175
s 13
f 60/125/177 64/128/178 65/127/179 56/126/180
s off
f 56/126/181 65/127/182 66/130/183 55/129/184
s 14
f 55/131/185 66/134/186 63/133/187 57/132/188
s 15
f 54/135/189 67/138/190 68/137/191 59/136/192
s off
f 59/136/193 68/137/194 69/140/195 58/139/196
s 16
f 58/141/197 69/144/198 70/143/199 61/142/200
f 61/142/200 70/143/199 71/146/201 62/145/202
s 15
f 53/147/203 72/148/204 67/138/190 54/135/189
s 13
f 62/149/205 71/150/206 64/128/178 60/125/177
s 14
f 57/132/188 63/133/187 72/152/207 53/151/208
