# This file uses centimeters as units for non-parametric coordinates.

g default
v 0.027452 -0.859718 0.047549
v 0.047549 -0.859718 0.027453
v 0.054905 -0.859718 0.000000
v 0.047549 -0.859718 -0.027453
v 0.027452 -0.859718 -0.047549
v 0.000000 -0.859718 -0.054905
v -0.027452 -0.859718 -0.047549
v -0.047549 -0.859718 -0.027453
v -0.054905 -0.859718 0.000000
v -0.047549 -0.859718 0.027453
v -0.027452 -0.859718 0.047549
v 0.000000 -0.859718 0.054905
v 0.027452 1.429143 0.047549
v 0.047549 1.429143 0.027453
v 0.054905 1.429143 0.000000
v 0.047549 1.429143 -0.027453
v 0.027452 1.429143 -0.047549
v 0.000000 1.429143 -0.054905
v -0.027452 1.429143 -0.047549
v -0.047549 1.429143 -0.027453
v -0.054905 1.429143 0.000000
v -0.047549 1.429143 0.027453
v -0.027452 1.429143 0.047549
v 0.000000 1.429143 0.054905
v 0.000000 1.429143 0.000000
v 0.027452 -0.951108 0.047549
v 0.047549 -0.951108 0.027453
v 0.054905 -0.951108 0.000000
v 0.047549 -0.951108 -0.027453
v 0.027452 -0.951108 -0.047549
v 0.000000 -0.951108 -0.054905
v -0.027452 -0.951108 -0.047549
v -0.047549 -0.951108 -0.027453
v -0.054905 -0.951108 0.000000
v -0.047549 -0.951108 0.027453
v -0.027452 -0.951108 0.047549
v 0.000000 -0.951108 0.054905
v 0.063684 -1.387830 0.110305
v 0.110305 -1.387830 0.063685
v 0.127369 -1.387830 0.000000
v 0.110305 -1.387830 -0.063685
v 0.063684 -1.387830 -0.110305
v 0.000000 -1.387830 -0.127369
v -0.063684 -1.387830 -0.110305
v -0.110305 -1.387830 -0.063685
v -0.127369 -1.387830 0.000000
v -0.110305 -1.387830 0.063685
v -0.063684 -1.387830 0.110305
v 0.000000 -1.387830 0.127369
v 0.049719 -1.429143 0.086116
v 0.086116 -1.429143 0.049719
v 0.099439 -1.429143 0.000000
v 0.086116 -1.429143 -0.049719
v 0.049719 -1.429143 -0.086116
v 0.000000 -1.429143 -0.099438
v -0.049719 -1.429143 -0.086116
v -0.086116 -1.429143 -0.049719
v -0.099439 -1.429143 0.000000
v -0.086116 -1.429143 0.049719
v -0.049719 -1.429143 0.086116
v 0.000000 -1.429143 0.099438
v 0.034623 -0.889492 0.059969
v 0.059969 -0.889492 0.034623
v 0.034623 -0.936671 0.059969
v 0.059969 -0.936671 0.034623
v 0.069246 -0.889492 0.000000
v 0.069246 -0.936671 0.000000
v 0.059969 -0.889492 -0.034623
v 0.059969 -0.936671 -0.034623
v 0.034623 -0.889492 -0.059969
v 0.034623 -0.936671 -0.059969
v 0.000000 -0.889492 -0.069246
v 0.000000 -0.936671 -0.069246
v -0.034623 -0.889492 -0.059969
v -0.034623 -0.936671 -0.059969
v -0.059969 -0.889492 -0.034623
v -0.059969 -0.936671 -0.034623
v -0.069246 -0.889492 0.000000
v -0.069246 -0.936671 0.000000
v -0.059969 -0.889492 0.034623
v -0.059969 -0.936671 0.034623
v -0.034623 -0.889492 0.059969
v -0.034623 -0.936671 0.059969
v 0.000000 -0.889492 0.069246
v 0.000000 -0.936671 0.069246
v 0.000000 -1.429143 0.000000
vt 0.971643 0.092500
vt 0.980700 0.898388
vt 0.514608 0.941407
vt 0.566886 0.854938
vt 0.982256 0.825485
vt 0.426098 0.990151
vt 0.983797 0.750767
vt 0.325076 0.988114
vt 0.984350 0.675466
vt 0.238607 0.935837
vt 0.983842 0.600050
vt 0.189862 0.847327
vt 0.982373 0.524701
vt 0.191900 0.746307
vt 0.980034 0.449530
vt 0.244176 0.659833
vt 0.976899 0.374705
vt 0.332686 0.611089
vt 0.973112 0.300533
vt 0.433709 0.613125
vt 0.969166 0.227634
vt 0.520178 0.665407
vt 0.966780 0.157306
vt 0.568923 0.753913
vt 0.379393 0.800619
vt 0.906546 0.903696
vt 0.896438 0.073545
vt 0.780926 0.076971
vt 0.801764 0.897726
vt 0.909412 0.826675
vt 0.805929 0.823573
vt 0.911079 0.750878
vt 0.807052 0.749849
vt 0.911501 0.675646
vt 0.806906 0.676230
vt 0.910878 0.600688
vt 0.805976 0.602583
vt 0.909370 0.525871
vt 0.804395 0.528865
vt 0.907071 0.451137
vt 0.802231 0.455049
vt 0.904069 0.376438
vt 0.799589 0.381073
vt 0.900520 0.301676
vt 0.796618 0.306810
vt 0.896838 0.226589
vt 0.793452 0.232000
vt 0.894214 0.150631
vt 0.789612 0.156005
vt 0.758388 0.888911
vt 0.745932 0.952179
vt 0.566114 0.510463
vt 0.533285 0.562683
vt 0.761914 0.819398
vt 0.505555 0.533860
vt 0.762745 0.747758
vt 0.527687 0.499369
vt 0.762461 0.675221
vt 0.568433 0.448826
vt 0.761469 0.602268
vt 0.529608 0.458434
vt 0.759878 0.529097
vt 0.539623 0.394290
vt 0.757750 0.455779
vt 0.510803 0.422023
vt 0.755185 0.382338
vt 0.487407 0.361465
vt 0.752334 0.308814
vt 0.476314 0.399892
vt 0.749252 0.235443
vt 0.425775 0.359145
vt 0.745134 0.163253
vt 0.435380 0.397971
vt 0.371239 0.387951
vt 0.398970 0.416774
vt 0.338412 0.440166
vt 0.376839 0.451262
vt 0.336090 0.501798
vt 0.374916 0.492196
vt 0.364894 0.556336
vt 0.393719 0.528607
vt 0.417109 0.589165
vt 0.428208 0.550739
vt 0.478745 0.591489
vt 0.469143 0.552663
vt 0.904655 0.983415
vt 0.789116 0.972405
vt 0.336221 0.366086
vt 0.560132 0.362964
vt 0.735075 0.095945
vt 0.160242 0.010317
vt 0.015155 0.010317
vt 0.983459 0.966576
vt 0.663539 0.076088
vt 0.704196 0.095839
vt 0.184765 0.103081
vt 0.621357 0.059849
vt 0.577951 0.047240
vt 0.533633 0.038351
vt 0.488722 0.033246
vt 0.443540 0.031961
vt 0.398411 0.034505
vt 0.353660 0.040861
vt 0.309607 0.050982
vt 0.266569 0.064796
vt 0.224855 0.082204
vt 0.542606 0.354450
vt 0.524423 0.347450
vt 0.505711 0.342015
vt 0.486607 0.338183
vt 0.467248 0.335982
vt 0.447771 0.335428
vt 0.428317 0.336525
vt 0.409026 0.339265
vt 0.390036 0.343628
vt 0.371484 0.349583
vt 0.353503 0.357087
vt 0.015126 0.984413
vt 0.160271 0.984413
vt 0.148176 0.984413
vt 0.136081 0.984413
vt 0.123985 0.984413
vt 0.111890 0.984413
vt 0.099794 0.984413
vt 0.087699 0.984413
vt 0.075604 0.984413
vt 0.063508 0.984413
vt 0.051413 0.984413
vt 0.039317 0.984413
vt 0.027222 0.984413
vt 0.148152 0.010317
vt 0.136061 0.010317
vt 0.123971 0.010317
vt 0.111880 0.010317
vt 0.099789 0.010317
vt 0.087699 0.010317
vt 0.075608 0.010317
vt 0.063518 0.010317
vt 0.051427 0.010317
vt 0.039337 0.010317
vt 0.027246 0.010317
vt 0.452263 0.475317
vn 0.500000 0.000000 0.866025
vn 0.866027 0.000000 0.499998
vn 0.866027 0.000000 0.499998
vn 0.500000 0.000000 0.866025
vn 1.000000 0.000000 0.000000
vn 1.000000 0.000000 0.000000
vn 0.866027 0.000000 -0.499998
vn 0.866027 0.000000 -0.499998
vn 0.500000 0.000000 -0.866025
vn 0.500000 0.000000 -0.866025
vn 0.000000 0.000000 -1.000000
vn 0.000000 0.000000 -1.000000
vn -0.500000 0.000000 -0.866025
vn -0.500000 0.000000 -0.866025
vn -0.866027 0.000000 -0.499998
vn -0.866027 0.000000 -0.499998
vn -1.000000 0.000000 0.000000
vn -1.000000 0.000000 0.000000
vn -0.866027 0.000000 0.499998
vn -0.866027 0.000000 0.499998
vn -0.500000 0.000000 0.866025
vn -0.500000 0.000000 0.866025
vn 0.000000 0.000000 1.000000
vn 0.000000 0.000000 1.000000
vn 0.000000 1.000000 -0.000010
vn 0.000000 1.000000 0.000010
vn 0.000000 1.000000 -0.000000
vn 0.000000 1.000000 0.000000
vn 0.000000 1.000000 -0.000000
vn 0.000000 1.000000 0.000020
vn 0.000000 1.000000 0.000000
vn 0.000000 1.000000 0.000010
vn 0.000000 1.000000 -0.000010
vn 0.000000 1.000000 0.000000
vn 0.000000 1.000000 -0.000000
vn 0.000000 1.000000 -0.000020
vn 0.000000 1.000000 0.000000
vn 0.854353 0.163628 0.493262
vn 0.493262 0.163624 0.854354
vn 0.490874 -0.190200 0.850216
vn 0.850215 -0.190204 0.490873
vn 0.986522 0.163630 -0.000000
vn 0.981744 -0.190206 0.000002
vn 0.854353 0.163629 -0.493261
vn 0.850215 -0.190202 -0.490874
vn 0.493263 0.163626 -0.854353
vn 0.490872 -0.190198 -0.850217
vn -0.000000 0.163624 -0.986523
vn 0.000000 -0.190197 -0.981746
vn -0.493262 0.163626 -0.854353
vn -0.490873 -0.190201 -0.850216
vn -0.854353 0.163629 -0.493262
vn -0.850215 -0.190206 -0.490873
vn -0.986522 0.163631 -0.000000
vn -0.981744 -0.190206 -0.000001
vn -0.854353 0.163631 0.493261
vn -0.850215 -0.190204 0.490873
vn -0.493263 0.163626 0.854352
vn -0.490872 -0.190199 0.850217
vn 0.000000 0.163623 0.986523
vn -0.000000 -0.190198 0.981746
vn 0.854345 0.163688 0.493255
vn 0.493257 0.163689 0.854344
vn 0.498302 0.082361 0.863083
vn 0.863084 0.082361 0.498301
vn 0.986512 0.163688 0.000000
vn 0.996603 0.082361 0.000000
vn 0.854345 0.163689 -0.493255
vn 0.863084 0.082361 -0.498301
vn 0.493257 0.163690 -0.854344
vn 0.498302 0.082362 -0.863083
vn 0.000000 0.163690 -0.986512
vn -0.000000 0.082361 -0.996603
vn -0.493257 0.163688 -0.854344
vn -0.498302 0.082361 -0.863083
vn -0.854345 0.163688 -0.493255
vn -0.863083 0.082361 -0.498301
vn -0.986512 0.163689 -0.000000
vn -0.996603 0.082361 -0.000000
vn -0.854345 0.163690 0.493255
vn -0.863083 0.082362 0.498301
vn -0.493257 0.163690 0.854344
vn -0.498302 0.082362 0.863083
vn 0.000000 0.163690 0.986512
vn 0.000000 0.082362 0.996602
vn 0.414219 -0.560082 0.717447
vn 0.717448 -0.560079 0.414221
vn 0.828440 -0.560078 0.000001
vn 0.717450 -0.560078 -0.414221
vn 0.414220 -0.560081 -0.717448
vn -0.000000 -0.560080 -0.828439
vn -0.414220 -0.560079 -0.717449
vn -0.717449 -0.560078 -0.414222
vn -0.828439 -0.560079 -0.000001
vn -0.717449 -0.560079 0.414221
vn -0.414220 -0.560080 0.717449
vn 0.000000 -0.560080 0.828439
vn 0.780234 0.433951 0.450468
vn 0.450470 0.433942 0.780238
vn 0.354734 -0.704738 0.614417
vn 0.614411 -0.704745 0.354730
vn 0.900934 0.433957 -0.000000
vn 0.709455 -0.704751 0.000006
vn 0.780235 0.433951 -0.450466
vn 0.614412 -0.704744 -0.354730
vn 0.450472 0.433946 -0.780235
vn 0.354731 -0.704733 -0.614424
vn -0.000000 0.433942 -0.900941
vn 0.000000 -0.704727 -0.709478
vn -0.450468 0.433947 -0.780237
vn -0.354734 -0.704739 -0.614416
vn -0.780233 0.433955 -0.450466
vn -0.614407 -0.704750 -0.354729
vn -0.900933 0.433958 -0.000000
vn -0.709454 -0.704752 -0.000005
vn -0.780233 0.433956 0.450466
vn -0.614409 -0.704749 0.354727
vn -0.450472 0.433946 0.780234
vn -0.354728 -0.704738 0.614421
vn 0.000000 0.433939 0.900942
vn -0.000001 -0.704730 0.709475
vn 0.000000 -1.000000 0.000000
vn 0.000000 -1.000000 0.000000
vn 0.000000 -1.000000 -0.000000
vn 0.000000 -1.000000 0.000000
vn 0.000000 -1.000000 0.000000
vn 0.000000 -1.000000 -0.000000
vn 0.000000 -1.000000 -0.000000
vn 0.000000 -1.000000 0.000000
vn 0.000000 -1.000000 0.000000
vn 0.000000 -1.000000 0.000000
vn 0.000000 -1.000000 0.000000
vn 0.000000 -1.000000 -0.000000
vn 0.000000 -1.000000 -0.000000
s 1
g polySurface78 polySurface34
f 1/92/1 2/141/2 14/130/3 13/118/4
f 2/141/2 3/140/5 15/129/6 14/130/3
f 3/140/5 4/139/7 16/128/8 15/129/6
f 4/139/7 5/138/9 17/127/10 16/128/8
f 5/138/9 6/137/11 18/126/12 17/127/10
f 6/137/11 7/136/13 19/125/14 18/126/12
f 7/136/13 8/135/15 20/124/16 19/125/14
f 8/135/15 9/134/17 21/123/18 20/124/16
f 9/134/17 10/133/19 22/122/20 21/123/18
f 10/133/19 11/132/21 23/121/22 22/122/20
f 11/132/21 12/131/23 24/120/24 23/121/22
f 12/131/23 1/91/1 13/119/4 24/120/24
s 2
f 13/4/25 14/3/26 25/25/27
f 14/3/26 15/6/28 25/25/27
f 15/6/28 16/8/29 25/25/27
f 16/8/29 17/10/30 25/25/27
f 17/10/30 18/12/31 25/25/27
f 18/12/31 19/14/32 25/25/27
f 19/14/32 20/16/33 25/25/27
f 20/16/33 21/18/34 25/25/27
f 21/18/34 22/20/35 25/25/27
f 22/20/35 23/22/36 25/25/27
f 23/22/36 24/24/37 25/25/27
f 24/24/37 13/4/25 25/25/27
s 3
f 63/26/38 62/86/39 64/87/40 65/29/41
f 66/30/42 63/26/38 65/29/41 67/31/43
f 68/32/44 66/30/42 67/31/43 69/33/45
f 70/34/46 68/32/44 69/33/45 71/35/47
f 72/36/48 70/34/46 71/35/47 73/37/49
f 74/38/50 72/36/48 73/37/49 75/39/51
f 76/40/52 74/38/50 75/39/51 77/41/53
f 78/42/54 76/40/52 77/41/53 79/43/55
f 80/44/56 78/42/54 79/43/55 81/45/57
f 82/46/58 80/44/56 81/45/57 83/47/59
f 84/48/60 82/46/58 83/47/59 85/49/61
f 62/27/39 84/48/60 85/49/61 64/28/40
s 4
f 27/117/62 26/88/63 38/96/64 39/106/65
f 28/116/66 27/117/62 39/106/65 40/105/67
f 29/115/68 28/116/66 40/105/67 41/104/69
f 30/114/70 29/115/68 41/104/69 42/103/71
f 31/113/72 30/114/70 42/103/71 43/102/73
f 32/112/74 31/113/72 43/102/73 44/101/75
f 33/111/76 32/112/74 44/101/75 45/100/77
f 34/110/78 33/111/76 45/100/77 46/99/79
f 35/109/80 34/110/78 46/99/79 47/98/81
f 36/108/82 35/109/80 47/98/81 48/97/83
f 37/107/84 36/108/82 48/97/83 49/94/85
f 26/89/63 37/107/84 49/94/85 38/95/64
f 39/52/65 38/53/64 50/55/86 51/57/87
f 40/59/67 39/52/65 51/57/87 52/61/88
f 41/63/69 40/59/67 52/61/88 53/65/89
f 42/67/71 41/63/69 53/65/89 54/69/90
f 43/71/73 42/67/71 54/69/90 55/73/91
f 44/74/75 43/71/73 55/73/91 56/75/92
f 45/76/77 44/74/75 56/75/92 57/77/93
f 46/78/79 45/76/77 57/77/93 58/79/94
f 47/80/81 46/78/79 58/79/94 59/81/95
f 48/82/83 47/80/81 59/81/95 60/83/96
f 49/84/85 48/82/83 60/83/96 61/85/97
f 38/53/64 49/84/85 61/85/97 50/55/86
s 3
f 2/2/98 1/93/99 62/86/39 63/26/38
f 26/51/100 27/50/101 65/29/41 64/87/40
f 3/5/102 2/2/98 63/26/38 66/30/42
f 27/50/101 28/54/103 67/31/43 65/29/41
f 4/7/104 3/5/102 66/30/42 68/32/44
f 28/54/103 29/56/105 69/33/45 67/31/43
f 5/9/106 4/7/104 68/32/44 70/34/46
f 29/56/105 30/58/107 71/35/47 69/33/45
f 6/11/108 5/9/106 70/34/46 72/36/48
f 30/58/107 31/60/109 73/37/49 71/35/47
f 7/13/110 6/11/108 72/36/48 74/38/50
f 31/60/109 32/62/111 75/39/51 73/37/49
f 8/15/112 7/13/110 74/38/50 76/40/52
f 32/62/111 33/64/113 77/41/53 75/39/51
f 9/17/114 8/15/112 76/40/52 78/42/54
f 33/64/113 34/66/115 79/43/55 77/41/53
f 10/19/116 9/17/114 78/42/54 80/44/56
f 34/66/115 35/68/117 81/45/57 79/43/55
f 11/21/118 10/19/116 80/44/56 82/46/58
f 35/68/117 36/70/119 83/47/59 81/45/57
f 12/23/120 11/21/118 82/46/58 84/48/60
f 36/70/119 37/72/121 85/49/61 83/47/59
f 1/1/99 12/23/120 84/48/60 62/27/39
f 37/72/121 26/90/100 64/28/40 85/49/61
s 5
f 51/57/122 50/55/123 86/142/124
f 52/61/125 51/57/122 86/142/124
f 53/65/126 52/61/125 86/142/124
f 54/69/127 53/65/126 86/142/124
f 55/73/128 54/69/127 86/142/124
f 56/75/129 55/73/128 86/142/124
f 57/77/130 56/75/129 86/142/124
f 58/79/131 57/77/130 86/142/124
f 59/81/132 58/79/131 86/142/124
f 60/83/133 59/81/132 86/142/124
f 61/85/134 60/83/133 86/142/124
f 50/55/123 61/85/134 86/142/124
