# This file uses centimeters as units for non-parametric coordinates.

g default
v 1.157774 -0.541450 0.613800
v 1.281736 -0.541450 0.613800
v 1.157774 0.439731 0.613800
v 1.281736 0.439731 0.613800
v 1.157774 0.439731 0.489838
v 1.281736 0.439731 0.489838
v 1.157774 -0.541450 0.489838
v 1.281736 -0.541450 0.489838
v -1.261851 -0.541450 0.613800
v -1.137888 -0.541450 0.613800
v -1.261851 0.439731 0.613800
v -1.137888 0.439731 0.613800
v -1.261851 0.439731 0.489838
v -1.137888 0.439731 0.489838
v -1.261851 -0.541450 0.489838
v -1.137888 -0.541450 0.489838
v -1.306845 0.433407 0.650328
v 1.306845 0.433407 0.650328
v -1.306845 0.677976 0.650328
v 1.306845 0.677976 0.650328
v -1.306845 0.677976 -0.650328
v 1.306845 0.677976 -0.650328
v -1.306845 0.433407 -0.650328
v 1.306845 0.433407 -0.650328
v 1.157774 -0.541450 -0.500559
v 1.281736 -0.541450 -0.500559
v 1.157774 0.439731 -0.500559
v 1.281736 0.439731 -0.500559
v 1.157774 0.439731 -0.624521
v 1.281736 0.439731 -0.624521
v 1.157774 -0.541450 -0.624521
v 1.281736 -0.541450 -0.624521
v -1.261851 -0.541450 -0.500559
v -1.137888 -0.541450 -0.500559
v -1.261851 0.439731 -0.500559
v -1.137888 0.439731 -0.500559
v -1.261851 0.439731 -0.624521
v -1.137888 0.439731 -0.624521
v -1.261851 -0.541450 -0.624521
v -1.137888 -0.541450 -0.624521
vt 0.111785 0.214236
vt 0.111803 0.116594
vt 0.884388 0.116594
vt 0.982000 0.116594
vt 0.884416 0.311879
vt 0.884367 0.018951
vt 0.111823 0.018951
vt 0.014220 0.018951
vt 0.111775 0.311879
vt 0.014190 0.116594
vt 0.884419 0.409521
vt 0.111772 0.409521
vt 0.884405 0.214236
vt 0.981971 0.018951
vt 0.111785 0.214236
vt 0.111803 0.116594
vt 0.884388 0.116594
vt 0.884405 0.214236
vt 0.884416 0.311879
vt 0.884419 0.409521
vt 0.111772 0.409521
vt 0.111775 0.311879
vt 0.111823 0.018951
vt 0.884367 0.018951
vt 0.014190 0.116594
vt 0.014220 0.018951
vt 0.981971 0.018951
vt 0.982000 0.116594
vt 0.091573 0.506217
vt 0.091579 0.429674
vt 0.909523 0.429674
vt 0.909529 0.506218
vt 0.909539 0.913287
vt 0.091563 0.913287
vt 0.091562 0.989830
vt 0.909540 0.989830
vt 0.895914 0.168736
vt 0.990579 0.168736
vt 0.990575 0.358951
vt 0.895918 0.358951
vt 0.986073 0.506218
vt 0.986082 0.913287
vt 0.015020 0.913287
vt 0.015029 0.506218
vt 0.111785 0.214236
vt 0.111803 0.116594
vt 0.884388 0.116594
vt 0.884405 0.214236
vt 0.884416 0.311879
vt 0.884419 0.409521
vt 0.111772 0.409521
vt 0.111775 0.311879
vt 0.111823 0.018951
vt 0.884367 0.018951
vt 0.014190 0.116594
vt 0.014220 0.018951
vt 0.981971 0.018951
vt 0.982000 0.116594
vt 0.111785 0.214236
vt 0.111803 0.116594
vt 0.884388 0.116594
vt 0.884405 0.214236
vt 0.884416 0.311879
vt 0.884419 0.409521
vt 0.111772 0.409521
vt 0.111775 0.311879
vt 0.111823 0.018951
vt 0.884367 0.018951
vt 0.014190 0.116594
vt 0.014220 0.018951
vt 0.981971 0.018951
vt 0.982000 0.116594
vn 0.000000 0.000000 1.000000
vn 0.000000 0.000000 1.000000
vn 0.000000 0.000000 1.000000
vn 0.000000 0.000000 1.000000
vn 0.000000 0.000000 -1.000000
vn 0.000000 0.000000 -1.000000
vn 0.000000 0.000000 -1.000000
vn 0.000000 0.000000 -1.000000
vn 1.000000 0.000000 0.000000
vn 1.000000 0.000000 0.000000
vn 1.000000 0.000000 0.000000
vn 1.000000 0.000000 0.000000
vn -1.000000 0.000000 0.000000
vn -1.000000 0.000000 0.000000
vn -1.000000 0.000000 0.000000
vn -1.000000 0.000000 0.000000
vn 0.000000 -1.000000 0.000000
vn 0.000000 -1.000000 0.000000
vn 0.000000 -1.000000 0.000000
vn 0.000000 -1.000000 0.000000
vn 0.000000 1.000000 0.000000
vn 0.000000 1.000000 0.000000
vn 0.000000 1.000000 0.000000
vn 0.000000 1.000000 0.000000
vn 0.000000 0.000000 1.000000
vn 0.000000 0.000000 1.000000
vn 0.000000 0.000000 1.000000
vn 0.000000 0.000000 1.000000
vn 0.000000 0.000000 -1.000000
vn 0.000000 0.000000 -1.000000
vn 0.000000 0.000000 -1.000000
vn 0.000000 0.000000 -1.000000
vn 1.000000 0.000000 0.000000
vn 1.000000 0.000000 0.000000
vn 1.000000 0.000000 0.000000
vn 1.000000 0.000000 0.000000
vn -1.000000 0.000000 0.000000
vn -1.000000 0.000000 0.000000
vn -1.000000 0.000000 0.000000
vn -1.000000 0.000000 0.000000
vn 0.000000 -1.000000 0.000000
vn 0.000000 -1.000000 0.000000
vn 0.000000 -1.000000 0.000000
vn 0.000000 -1.000000 0.000000
vn 0.000000 1.000000 0.000000
vn 0.000000 1.000000 0.000000
vn 0.000000 1.000000 0.000000
vn 0.000000 1.000000 0.000000
vn 0.000000 0.000000 1.000000
vn 0.000000 0.000000 1.000000
vn 0.000000 0.000000 1.000000
vn 0.000000 0.000000 1.000000
vn 0.000000 1.000000 0.000000
vn 0.000000 1.000000 0.000000
vn 0.000000 1.000000 0.000000
vn 0.000000 1.000000 0.000000
vn 0.000000 0.000000 -1.000000
vn 0.000000 0.000000 -1.000000
vn 0.000000 0.000000 -1.000000
vn 0.000000 0.000000 -1.000000
vn 0.000000 -1.000000 0.000000
vn 0.000000 -1.000000 0.000000
vn 0.000000 -1.000000 0.000000
vn 0.000000 -1.000000 0.000000
vn 1.000000 0.000000 0.000000
vn 1.000000 0.000000 0.000000
vn 1.000000 0.000000 0.000000
vn 1.000000 0.000000 0.000000
vn -1.000000 0.000000 0.000000
vn -1.000000 0.000000 0.000000
vn -1.000000 0.000000 0.000000
vn -1.000000 0.000000 0.000000
vn 0.000000 0.000000 1.000000
vn 0.000000 0.000000 1.000000
vn 0.000000 0.000000 1.000000
vn 0.000000 0.000000 1.000000
vn 0.000000 0.000000 -1.000000
vn 0.000000 0.000000 -1.000000
vn 0.000000 0.000000 -1.000000
vn 0.000000 0.000000 -1.000000
vn 1.000000 0.000000 0.000000
vn 1.000000 0.000000 0.000000
vn 1.000000 0.000000 0.000000
vn 1.000000 0.000000 0.000000
vn -1.000000 0.000000 0.000000
vn -1.000000 0.000000 0.000000
vn -1.000000 0.000000 0.000000
vn -1.000000 0.000000 0.000000
vn 0.000000 -1.000000 0.000000
vn 0.000000 -1.000000 0.000000
vn 0.000000 -1.000000 0.000000
vn 0.000000 -1.000000 0.000000
vn 0.000000 1.000000 0.000000
vn 0.000000 1.000000 0.000000
vn 0.000000 1.000000 0.000000
vn 0.000000 1.000000 0.000000
vn 0.000000 0.000000 1.000000
vn 0.000000 0.000000 1.000000
vn 0.000000 0.000000 1.000000
vn 0.000000 0.000000 1.000000
vn 0.000000 0.000000 -1.000000
vn 0.000000 0.000000 -1.000000
vn 0.000000 0.000000 -1.000000
vn 0.000000 0.000000 -1.000000
vn 1.000000 0.000000 0.000000
vn 1.000000 0.000000 0.000000
vn 1.000000 0.000000 0.000000
vn 1.000000 0.000000 0.000000
vn -1.000000 0.000000 0.000000
vn -1.000000 0.000000 0.000000
vn -1.000000 0.000000 0.000000
vn -1.000000 0.000000 0.000000
vn 0.000000 -1.000000 0.000000
vn 0.000000 -1.000000 0.000000
vn 0.000000 -1.000000 0.000000
vn 0.000000 -1.000000 0.000000
vn 0.000000 1.000000 0.000000
vn 0.000000 1.000000 0.000000
vn 0.000000 1.000000 0.000000
vn 0.000000 1.000000 0.000000
s off
g polySurface193
f 1/1/1 2/2/2 4/3/3 3/13/4
f 5/5/5 6/11/6 8/12/7 7/9/8
f 2/2/9 8/7/10 6/6/11 4/3/12
f 7/9/13 1/1/14 3/13/15 5/5/16
f 2/2/17 1/10/18 7/8/19 8/7/20
f 4/3/21 6/6/22 5/14/23 3/4/24
f 9/15/25 10/16/26 12/17/27 11/18/28
f 13/19/29 14/20/30 16/21/31 15/22/32
f 10/16/33 16/23/34 14/24/35 12/17/36
f 15/22/37 9/15/38 11/18/39 13/19/40
f 10/16/41 9/25/42 15/26/43 16/23/44
f 12/17/45 14/24/46 13/27/47 11/28/48
f 19/29/49 17/30/50 18/31/51 20/32/52
f 22/33/53 21/34/54 19/29/55 20/32/56
f 23/35/57 21/34/58 22/33/59 24/36/60
f 17/37/61 23/38/62 24/39/63 18/40/64
f 18/41/65 24/42/66 22/33/67 20/32/68
f 23/43/69 17/44/70 19/29/71 21/34/72
f 25/45/73 26/46/74 28/47/75 27/48/76
f 29/49/77 30/50/78 32/51/79 31/52/80
f 26/46/81 32/53/82 30/54/83 28/47/84
f 31/52/85 25/45/86 27/48/87 29/49/88
f 26/46/89 25/55/90 31/56/91 32/53/92
f 28/47/93 30/54/94 29/57/95 27/58/96
f 33/59/97 34/60/98 36/61/99 35/62/100
f 37/63/101 38/64/102 40/65/103 39/66/104
f 34/60/105 40/67/106 38/68/107 36/61/108
f 39/66/109 33/59/110 35/62/111 37/63/112
f 34/60/113 33/69/114 39/70/115 40/67/116
f 36/61/117 38/68/118 37/71/119 35/72/120
