# This file uses centimeters as units for non-parametric coordinates.

g default
v 1.135537 0.766562 0.493774
v -0.017538 0.370071 0.573439
v 0.854342 0.507998 0.921993
v 0.213914 -0.463744 1.164330
v 0.720862 -0.261640 1.256366
v -0.763602 -0.138182 0.491333
v -0.537410 -0.766561 0.852376
v -1.152347 -0.292118 0.326458
v -1.234856 -0.766561 0.383637
v -0.119273 0.240601 -0.286835
v -0.828167 0.122524 -0.106023
v -0.189131 0.126930 -0.990001
v -0.620912 -0.164902 -0.974591
v 0.733482 0.509652 -0.198503
v 1.156222 0.556605 -0.093145
v 1.365446 0.570769 0.532526
v 1.284659 0.161197 -0.024381
v 1.405653 0.265997 0.513306
v 1.114833 -0.251033 0.510163
v 1.106037 -0.353014 -0.119560
v 0.866436 -0.766562 0.318538
v 0.345578 -0.766562 0.735113
v 1.042721 -0.766560 -0.149207
v 0.792783 -0.766561 -0.595284
v 0.912307 -0.312858 -0.762104
v 0.983345 0.052179 -0.542332
v 0.434600 -0.378087 -0.952076
v 0.331294 0.105630 -0.966945
v 0.476785 -0.766561 -0.880206
v -0.122434 -0.766560 -1.123545
v -0.019554 -0.429799 -1.166573
v -0.581877 -0.439007 -1.205702
v -0.603928 -0.766561 -1.256366
v -1.017671 -0.766561 -0.798779
v -0.967731 -0.493748 -0.760751
v -1.405653 -0.766561 -0.366895
v -1.342261 -0.488460 -0.391298
vt 0.803844 0.520607
vt 0.563998 0.324010
vt 0.768674 0.378439
vt 0.693788 0.127425
vt 0.503306 0.025096
vt 0.401890 0.172407
vt 0.296454 0.143940
vt 0.250664 0.025096
vt 0.318972 0.298009
vt 0.415624 0.443993
vt 0.289297 0.539557
vt 0.189726 0.470077
vt 0.588162 0.568410
vt 0.830569 0.604122
vt 0.672244 0.621255
vt 0.898266 0.468626
vt 0.789854 0.197732
vt 0.816765 0.693483
vt 0.679183 0.718815
vt 0.764899 0.856439
vt 0.598217 0.837832
vt 0.962384 0.207439
vt 0.946149 0.387951
vt 0.779141 0.025096
vt 0.954802 0.025096
vt 0.660106 0.980368
vt 0.539613 0.925301
vt 0.395917 0.875784
vt 0.443191 0.769114
vt 0.529596 0.709362
vt 0.319081 0.724876
vt 0.366520 0.626055
vt 0.279490 0.810516
vt 0.207152 0.646991
vt 0.126554 0.676866
vt 0.125133 0.523081
vt 0.049175 0.539306
vt 0.114554 0.362826
vt 0.046060 0.354671
vt 0.131375 0.228458
vt 0.081840 0.184459
vn -0.068310 0.995691 0.062716
vn -0.414159 0.807133 0.420724
vn -0.037311 0.621374 0.782625
vn -0.293308 0.044861 0.954965
vn -0.037311 0.621374 0.782625
vn -0.414159 0.807133 0.420724
vn -0.455319 0.154566 0.876809
vn -0.293308 0.044861 0.954965
vn -0.508866 0.485743 0.710710
vn -0.455319 0.154566 0.876809
vn -0.508866 0.485743 0.710710
vn -0.745104 0.405356 0.529628
vn -0.765348 0.246580 0.594509
vn -0.529311 0.845462 -0.070883
vn -0.414159 0.807133 0.420724
vn -0.256057 0.958379 -0.126270
vn -0.529311 0.845462 -0.070883
vn -0.745104 0.405356 0.529628
vn -0.508866 0.485743 0.710710
vn -0.529311 0.845462 -0.070883
vn -0.211539 0.815913 -0.538086
vn -0.577962 0.660548 -0.479204
vn -0.256057 0.958379 -0.126270
vn -0.068310 0.995691 0.062716
vn -0.081426 0.924246 -0.373015
vn 0.897708 0.363411 0.249104
vn 0.605352 0.615839 -0.504272
vn -0.068310 0.995691 0.062716
vn -0.037311 0.621374 0.782625
vn 0.897708 0.363411 0.249104
vn -0.068310 0.995691 0.062716
vn 0.423635 -0.335243 0.841514
vn 0.897708 0.363411 0.249104
vn -0.037311 0.621374 0.782625
vn 0.978019 -0.142029 0.152666
vn 0.961010 -0.154528 -0.229306
vn 0.605352 0.615839 -0.504272
vn 0.897708 0.363411 0.249104
vn 0.961010 -0.154528 -0.229306
vn 0.978019 -0.142029 0.152666
vn 0.791992 -0.536141 0.292064
vn 0.940763 -0.317633 -0.118639
vn 0.791992 -0.536141 0.292064
vn 0.978019 -0.142029 0.152666
vn 0.423635 -0.335243 0.841514
vn 0.423635 -0.335243 0.841514
vn 0.978019 -0.142029 0.152666
vn 0.897708 0.363411 0.249104
vn 0.446384 -0.733084 0.513156
vn 0.726726 -0.580189 0.367765
vn 0.791992 -0.536141 0.292064
vn 0.423635 -0.335243 0.841514
vn 0.940763 -0.317633 -0.118639
vn 0.791992 -0.536141 0.292064
vn 0.726726 -0.580189 0.367765
vn 0.944176 -0.309494 -0.112893
vn 0.944176 -0.309494 -0.112893
vn 0.771395 -0.271103 -0.575719
vn 0.742738 -0.081794 -0.664568
vn 0.940763 -0.317633 -0.118639
vn 0.677227 0.380552 -0.629717
vn 0.961010 -0.154528 -0.229306
vn 0.940763 -0.317633 -0.118639
vn 0.677227 0.380552 -0.629717
vn 0.605352 0.615839 -0.504272
vn 0.961010 -0.154528 -0.229306
vn 0.677227 0.380552 -0.629717
vn -0.081426 0.924246 -0.373015
vn 0.605352 0.615839 -0.504272
vn 0.742738 -0.081794 -0.664568
vn 0.434080 -0.121170 -0.892688
vn 0.243345 0.620861 -0.745195
vn 0.771395 -0.271103 -0.575719
vn 0.461896 -0.232600 -0.855891
vn 0.434080 -0.121170 -0.892688
vn 0.742738 -0.081794 -0.664568
vn 0.250579 0.040880 -0.967233
vn 0.434080 -0.121170 -0.892688
vn 0.461896 -0.232600 -0.855891
vn 0.277387 -0.094127 -0.956136
vn 0.434080 -0.121170 -0.892688
vn 0.250579 0.040880 -0.967233
vn 0.243345 0.620861 -0.745195
vn -0.081426 0.924246 -0.373015
vn 0.677227 0.380552 -0.629717
vn 0.243345 0.620861 -0.745195
vn -0.081426 0.924246 -0.373015
vn 0.243345 0.620861 -0.745195
vn -0.211539 0.815913 -0.538086
vn 0.250579 0.040880 -0.967233
vn -0.320503 0.219136 -0.921552
vn -0.211539 0.815913 -0.538086
vn 0.277387 -0.094127 -0.956136
vn -0.351789 0.099167 -0.930812
vn -0.320503 0.219136 -0.921552
vn 0.250579 0.040880 -0.967233
vn -0.716338 0.214832 -0.663858
vn -0.320503 0.219136 -0.921552
vn -0.351789 0.099167 -0.930812
vn -0.728917 0.174824 -0.661904
vn -0.876841 0.442856 -0.187160
vn -0.716338 0.214832 -0.663858
vn -0.728917 0.174824 -0.661904
vn -0.973917 0.214593 -0.073725
vn -0.716338 0.214832 -0.663858
vn -0.577962 0.660548 -0.479204
vn -0.320503 0.219136 -0.921552
vn -0.876841 0.442856 -0.187160
vn -0.577962 0.660548 -0.479204
vn -0.716338 0.214832 -0.663858
vn -0.529311 0.845462 -0.070883
vn -0.577962 0.660548 -0.479204
vn -0.876841 0.442856 -0.187160
vn -0.973917 0.214593 -0.073725
vn -0.765348 0.246580 0.594509
vn -0.745104 0.405356 0.529628
vn -0.876841 0.442856 -0.187160
vn 0.423635 -0.335243 0.841514
vn -0.293308 0.044861 0.954965
vn 0.446384 -0.733084 0.513156
vn -0.455319 0.154566 0.876809
vn 0.446384 -0.733084 0.513156
vn -0.293308 0.044861 0.954965
vn -0.529311 0.845462 -0.070883
vn -0.876841 0.442856 -0.187160
vn -0.745104 0.405356 0.529628
vn -0.508866 0.485743 0.710710
vn -0.414159 0.807133 0.420724
vn -0.529311 0.845462 -0.070883
vn -0.414159 0.807133 0.420724
vn -0.068310 0.995691 0.062716
vn -0.256057 0.958379 -0.126270
vn -0.529311 0.845462 -0.070883
vn -0.256057 0.958379 -0.126270
vn -0.211539 0.815913 -0.538086
vn -0.081426 0.924246 -0.373015
vn -0.211539 0.815913 -0.538086
vn -0.256057 0.958379 -0.126270
vn 0.243345 0.620861 -0.745195
vn 0.250579 0.040880 -0.967233
vn -0.211539 0.815913 -0.538086
vn 0.742738 -0.081794 -0.664568
vn 0.243345 0.620861 -0.745195
vn 0.677227 0.380552 -0.629717
vn -0.211539 0.815913 -0.538086
vn -0.320503 0.219136 -0.921552
vn -0.577962 0.660548 -0.479204
vn 0.677227 0.380552 -0.629717
vn 0.940763 -0.317633 -0.118639
vn 0.742738 -0.081794 -0.664568
vn -0.068310 0.995691 0.062716
vn 0.605352 0.615839 -0.504272
vn -0.081426 0.924246 -0.373015
vn -0.508866 0.485743 0.710710
vn -0.293308 0.044861 0.954965
vn -0.414159 0.807133 0.420724
vn 0.423635 -0.335243 0.841514
vn -0.037311 0.621374 0.782625
vn -0.293308 0.044861 0.954965
s off
g polySurface4
f 1/1/1 2/2/2 3/3/3
f 4/4/4 3/3/5 2/2/6
f 7/5/7 4/4/8 6/6/9
f 7/5/10 6/6/11 8/7/12 9/8/13
f 11/9/14 2/2/15 10/10/16
f 11/9/17 8/7/18 6/6/19
f 11/9/20 12/11/21 13/12/22
f 10/10/23 1/1/24 14/13/25
f 16/14/26 15/15/27 1/1/28
f 3/3/29 16/16/30 1/1/31
f 5/17/32 16/16/33 3/3/34
f 18/18/35 17/19/36 15/15/37 16/14/38
f 17/19/39 18/18/40 19/20/41 20/21/42
f 19/22/43 18/23/44 5/17/45
f 5/17/46 18/23/47 16/16/48
f 22/24/49 21/25/50 19/22/51 5/17/52
f 20/21/53 19/20/54 21/26/55 23/27/56
f 23/27/57 24/28/58 25/29/59 20/21/60
f 26/30/61 17/19/62 20/21/63
f 26/30/64 15/15/65 17/19/66
f 26/30/67 14/13/68 15/15/69
f 25/29/70 27/31/71 28/32/72
f 24/28/73 29/33/74 27/31/75 25/29/76
f 31/34/77 27/31/78 29/33/79 30/35/80
f 27/31/81 31/34/82 28/32/83
f 14/13/84 26/30/85 28/32/86
f 14/13/87 28/32/88 12/11/89
f 31/34/90 32/36/91 12/11/92
f 30/35/93 33/37/94 32/36/95 31/34/96
f 35/38/97 32/36/98 33/37/99 34/39/100
f 37/40/101 35/38/102 34/39/103 36/41/104
f 35/38/105 13/12/106 32/36/107
f 37/40/108 13/12/109 35/38/110
f 11/9/111 13/12/112 37/40/113
f 36/41/114 9/8/115 8/7/116 37/40/117
f 5/17/118 4/4/119 22/24/120
f 7/5/121 22/24/122 4/4/123
f 11/9/124 37/40/125 8/7/126
f 6/6/127 2/2/128 11/9/129
f 2/2/130 1/1/131 10/10/132
f 11/9/133 10/10/134 12/11/135
f 14/13/136 12/11/137 10/10/138
f 28/32/139 31/34/140 12/11/141
f 25/29/142 28/32/143 26/30/144
f 12/11/145 32/36/146 13/12/147
f 26/30/148 20/21/149 25/29/150
f 1/1/151 15/15/152 14/13/153
f 6/6/154 4/4/155 2/2/156
f 5/17/157 3/3/158 4/4/159
