# This file uses centimeters as units for non-parametric coordinates.

g default
v -0.067347 -1.008863 -1.333698
v -0.067347 -1.008863 1.333698
v -0.067347 1.186193 -1.333698
v -0.067347 1.186193 1.333698
v 0.067347 1.186193 -1.333698
v 0.067347 1.186193 1.333698
v 0.067347 -1.008863 -1.333698
v 0.067347 -1.008863 1.333698
v 0.067347 -0.687722 1.333698
v 0.067347 -0.687722 -1.333698
v -0.067347 -0.687722 -1.333698
v -0.067347 -0.687722 1.333698
v 0.067347 -1.008863 -1.546355
v -0.067347 -1.008863 -1.546355
v -0.067347 -0.687722 -1.546355
v 0.067347 -0.687722 -1.546355
v 0.067347 -1.008863 1.546355
v -0.067347 -1.008863 1.546355
v 0.067347 -0.687722 1.546355
v -0.067347 -0.687722 1.546355
v 0.067347 -1.186193 -1.333698
v 0.067347 -1.186193 1.333698
v -0.067347 -1.186193 1.333698
v -0.067347 -1.186193 -1.333698
v -0.067347 1.186193 -0.000000
v 0.067347 1.186193 -0.000000
v 0.067347 -0.687722 -0.000000
v 0.067347 -1.008863 -0.000000
v 0.067347 -1.123282 -0.000000
v -0.067347 -1.123282 -0.000000
v -0.067347 -1.008863 -0.000000
v -0.067347 -0.687722 -0.000000
vt 0.735582 0.710852
vt 0.265387 0.602513
vt 0.265387 0.981334
vt 0.987797 0.308552
vt 0.265387 0.018130
vt 0.014987 0.018130
vt 0.265387 0.396691
vt 0.014987 0.389384
vt 0.014987 0.486868
vt 0.265387 0.485670
vt 0.265387 0.513298
vt 0.734288 0.019243
vt 0.515786 0.610376
vt 0.752980 0.791024
vt 0.515786 0.018130
vt 0.987797 0.695774
vt 0.265387 0.462192
vt 0.014987 0.452335
vt 0.616218 0.981118
vt 0.614828 0.521141
vt 0.614868 0.711414
vt 0.615093 0.791230
vt 0.734288 0.264119
vt 0.265387 0.536763
vt 0.947625 0.981118
vt 0.869415 0.981118
vt 0.868534 0.790526
vt 0.868378 0.710856
vt 0.515786 0.547687
vt 0.515786 0.452335
vt 0.515786 0.513141
vt 0.515786 0.486868
vt 0.966909 0.502163
vt 0.966909 0.695774
vt 0.987797 0.502163
vt 0.515786 0.981334
vt 0.546322 0.019243
vt 0.014987 0.513141
vt 0.735582 0.520846
vt 0.014987 0.547687
vt 0.947339 0.019243
vt 0.762353 0.019243
vt 0.752729 0.521064
vt 0.764326 0.264119
vt 0.947339 0.264119
vt 0.752764 0.441245
vt 0.753665 0.981118
vt 0.735582 0.981118
vt 0.735582 0.441245
vt 0.546322 0.264119
vt 0.868410 0.520874
vt 0.946661 0.790257
vt 0.868629 0.441245
vt 0.533638 0.791595
vt 0.534852 0.981118
vt 0.615113 0.441245
vt 0.987797 0.986385
vt 0.752850 0.711246
vt 0.966909 0.986385
vt 0.515786 0.389384
vt 0.966909 0.017941
vt 0.735582 0.790532
vt 0.987796 0.017941
vt 0.014987 0.610376
vt 0.014987 0.981334
vt 0.966909 0.308552
vn -1.000000 0.000000 0.000000
vn -1.000000 0.000000 0.000000
vn -1.000000 0.000000 0.000000
vn -1.000000 0.000000 0.000000
vn 0.000000 1.000000 0.000000
vn 0.000000 1.000000 0.000000
vn 0.000000 1.000000 0.000000
vn 0.000000 1.000000 0.000000
vn 1.000000 0.000000 0.000000
vn 1.000000 0.000000 0.000000
vn 1.000000 0.000000 0.000000
vn 1.000000 0.000000 0.000000
vn 0.000000 -0.998889 0.047118
vn 0.000000 -1.000000 0.000000
vn 0.000000 -1.000000 0.000000
vn 0.000000 -0.998889 0.047118
vn 0.000000 0.000000 1.000000
vn 0.000000 0.000000 1.000000
vn 0.000000 0.000000 1.000000
vn 0.000000 0.000000 1.000000
vn 0.000000 0.000000 -1.000000
vn 0.000000 0.000000 -1.000000
vn 0.000000 0.000000 -1.000000
vn 0.000000 0.000000 -1.000000
vn 1.000000 0.000000 0.000000
vn 1.000000 0.000000 0.000000
vn 0.000000 0.000000 -1.000000
vn 0.000000 0.000000 -1.000000
vn 0.000000 0.000000 -1.000000
vn 0.000000 0.000000 -1.000000
vn -1.000000 0.000000 0.000000
vn -1.000000 0.000000 0.000000
vn 0.000000 0.000000 1.000000
vn 0.000000 0.000000 1.000000
vn 0.000000 0.000000 1.000000
vn 0.000000 0.000000 1.000000
vn 0.000000 -1.000000 0.000000
vn 0.000000 -1.000000 0.000000
vn 0.000000 -1.000000 0.000000
vn 0.000000 -1.000000 0.000000
vn -1.000000 0.000000 0.000000
vn -1.000000 0.000000 0.000000
vn 0.000000 1.000000 0.000000
vn 0.000000 1.000000 0.000000
vn 0.000000 1.000000 0.000000
vn 0.000000 1.000000 0.000000
vn 1.000000 0.000000 0.000000
vn 1.000000 0.000000 0.000000
vn 0.000000 -1.000000 0.000000
vn 0.000000 -1.000000 0.000000
vn 0.000000 -1.000000 0.000000
vn 0.000000 -1.000000 0.000000
vn 1.000000 0.000000 0.000000
vn 1.000000 0.000000 0.000000
vn 1.000000 0.000000 0.000000
vn 1.000000 0.000000 0.000000
vn 0.000000 1.000000 0.000000
vn 0.000000 1.000000 0.000000
vn 0.000000 1.000000 0.000000
vn 0.000000 1.000000 0.000000
vn -1.000000 0.000000 0.000000
vn -1.000000 0.000000 0.000000
vn -1.000000 0.000000 0.000000
vn -1.000000 0.000000 0.000000
vn 1.000000 0.000000 0.000000
vn 1.000000 0.000000 0.000000
vn 1.000000 0.000000 0.000000
vn 1.000000 0.000000 0.000000
vn 0.000000 0.000000 1.000000
vn 0.000000 0.000000 1.000000
vn 0.000000 0.000000 1.000000
vn 0.000000 0.000000 1.000000
vn -1.000000 0.000000 0.000000
vn -1.000000 0.000000 0.000000
vn -1.000000 0.000000 0.000000
vn -1.000000 0.000000 0.000000
vn 0.000000 0.000000 -1.000000
vn 0.000000 0.000000 -1.000000
vn 0.000000 0.000000 -1.000000
vn 0.000000 0.000000 -1.000000
vn 0.000000 1.000000 0.000000
vn 0.000000 1.000000 0.000000
vn 1.000000 0.000000 0.000000
vn 1.000000 0.000000 0.000000
vn 1.000000 0.000000 0.000000
vn 0.000000 -0.998889 -0.047118
vn 0.000000 -0.998889 -0.047118
vn -1.000000 0.000000 0.000000
vn -1.000000 0.000000 0.000000
vn -1.000000 0.000000 0.000000
s 1
g polySurface78 polySurface34
f 11/64/1 32/2/2 25/3/3 3/65/4
s 2
f 3/4/5 25/35/6 26/33/7 5/66/8
s 3
f 5/6/9 26/5/10 27/7/11 10/8/12
s 4
f 21/9/13 29/10/14 30/11/15 24/38/16
s off
f 12/57/17 9/59/18 6/34/19 4/16/20
f 10/61/21 11/63/22 3/4/23 5/66/24
s 3
f 10/8/12 27/7/11 28/17/25 7/18/26
s off
f 13/19/27 14/55/28 15/54/29 16/22/30
s 1
f 1/40/31 31/24/32 32/2/2 11/64/1
s off
f 18/25/33 17/26/34 19/27/35 20/52/36
f 7/49/37 1/39/38 14/20/39 13/56/40
s 1
f 1/39/31 11/1/1 15/21/41 14/20/42
s off
f 11/1/43 10/62/44 16/22/45 15/21/46
s 3
f 10/62/12 7/48/26 13/19/47 16/22/48
s off
f 2/43/49 8/46/50 17/53/51 18/51/52
s 3
f 8/47/53 9/14/54 19/27/55 17/26/56
s off
f 9/14/57 12/58/58 20/28/59 19/27/60
s 1
f 12/58/61 2/43/62 18/51/63 20/28/64
s 5
f 7/18/65 28/17/66 29/10/67 21/9/68
s off
f 8/45/69 2/44/70 23/42/71 22/41/72
s 6
f 31/24/73 1/40/74 24/38/75 30/11/76
s off
f 1/23/77 7/50/78 21/37/79 24/12/80
s 2
f 25/35/6 4/16/81 6/34/82 26/33/7
s 3
f 27/7/11 26/5/10 6/15/83 9/60/54
f 28/17/25 27/7/11 9/60/54 8/30/53
s 5
f 29/10/67 28/17/66 8/30/84 22/32/85
s 4
f 30/11/15 29/10/14 22/32/86 23/31/87
s 6
f 2/29/88 31/24/73 30/11/76 23/31/89
s 1
f 32/2/2 31/24/32 2/29/62 12/13/61
f 25/3/3 32/2/2 12/13/61 4/36/90
