# This file uses centimeters as units for non-parametric coordinates.

g default
v 66.498775 118.509259 61.293418
v 89.295624 118.509259 61.293418
v 77.897200 118.509259 72.691842
v 66.498775 118.509259 66.992630
v 72.197988 118.509259 72.691842
v 83.596412 118.509259 72.691842
v 83.596412 118.509259 66.992630
v 83.596412 118.509259 61.293418
v 66.498775 118.509259 64.143024
v 83.596412 118.509259 64.143024
v 89.295624 118.509259 64.143024
v 66.498775 118.509259 69.842236
v 72.197988 118.509259 69.842236
v 83.596412 118.509259 69.842236
v 69.348381 118.509259 72.691842
v 69.348381 118.509259 69.842236
v 69.348381 118.509259 66.992630
v 69.348381 118.509259 64.143024
v 69.348381 118.509259 61.293418
v 75.047594 118.509259 72.691842
v 86.446018 118.509259 72.691842
v 86.446018 118.509259 69.842236
v 86.446018 118.509259 64.143024
v 86.446018 118.509259 61.293418
v 80.746806 118.509259 72.691842
v 67.923578 118.509259 61.293418
v 67.923578 118.509259 64.143024
v 67.923578 118.509259 66.992630
v 67.923578 118.509259 69.842236
v 70.773184 118.509259 69.842236
v 70.773184 118.509259 72.691842
v 73.622791 118.509259 69.842236
v 73.622791 118.509259 72.691842
v 76.472397 118.509259 72.691842
v 79.322003 118.509259 72.691842
v 82.171609 118.509259 61.293418
v 82.171609 118.509259 64.143024
v 82.171609 118.509259 69.842236
v 82.171609 118.509259 72.691842
v 85.021215 118.509259 61.293418
v 85.021215 118.509259 64.143024
v 85.021215 118.509259 66.992630
v 85.021215 118.509259 69.842236
v 85.021215 118.509259 72.691842
v 87.870821 118.509259 61.293418
v 87.870821 118.509259 64.143024
v 66.498775 118.509259 62.718221
v 67.923578 118.509259 62.718221
v 69.348381 118.509259 62.718221
v 82.171609 118.509259 62.718221
v 83.596412 118.509259 62.718221
v 85.021215 118.509259 62.718221
v 86.446018 118.509259 62.718221
v 87.870821 118.509259 62.718221
v 89.295624 118.509259 62.718221
v 66.498775 118.509259 65.567827
v 67.923578 118.509259 65.567827
v 69.348381 118.509259 65.567827
v 82.171609 118.509259 65.567827
v 83.596412 118.509259 65.567827
v 85.021215 118.509259 65.567827
v 86.446018 118.509259 65.567827
v 66.498775 118.509259 68.417433
v 67.923578 118.509259 68.417433
v 69.348381 118.509259 68.417433
v 70.773184 118.509259 68.417433
v 72.197988 118.509259 68.417433
v 73.622791 118.509259 68.417433
v 83.596412 118.509259 68.417433
v 85.021215 118.509259 68.417433
v 69.348381 118.509259 71.267039
v 70.773184 118.509259 71.267039
v 72.197988 118.509259 71.267039
v 73.622791 118.509259 71.267039
v 75.047594 118.509259 71.267039
v 76.472397 118.509259 71.267039
v 77.897200 118.509259 71.267039
v 79.322003 118.509259 71.267039
v 80.746806 118.509259 71.267039
v 82.171609 118.509259 71.267039
v 83.596412 118.509259 71.267039
v 85.021215 118.509259 71.267039
v 86.446018 118.509259 71.267039
v 82.171609 118.509259 74.116645
v 83.596412 118.509259 74.116645
v 85.021215 118.509259 74.116645
v 86.446018 118.509259 74.116645
vt 0.013551 0.770720
vt 0.986449 0.770720
vt 0.500000 0.284272
vt 0.013551 0.527496
vt 0.256776 0.284272
vt 0.743224 0.284272
vt 0.743224 0.527496
vt 0.743224 0.770720
vt 0.013551 0.649108
vt 0.743224 0.649108
vt 0.986449 0.649108
vt 0.013551 0.405884
vt 0.256776 0.405884
vt 0.743224 0.405884
vt 0.135164 0.284272
vt 0.135164 0.405884
vt 0.135164 0.527496
vt 0.135164 0.649108
vt 0.135164 0.770720
vt 0.378388 0.284272
vt 0.864836 0.284272
vt 0.864836 0.405884
vt 0.864836 0.649108
vt 0.864836 0.770720
vt 0.621612 0.284272
vt 0.074357 0.770720
vt 0.074357 0.649108
vt 0.074357 0.527496
vt 0.074357 0.405884
vt 0.195970 0.405884
vt 0.195970 0.284272
vt 0.317582 0.405884
vt 0.317582 0.284272
vt 0.439194 0.284272
vt 0.560806 0.284272
vt 0.682418 0.770720
vt 0.682418 0.649108
vt 0.682418 0.405884
vt 0.682418 0.284272
vt 0.804030 0.770720
vt 0.804030 0.649108
vt 0.804030 0.527496
vt 0.804030 0.405884
vt 0.804030 0.284272
vt 0.925643 0.770720
vt 0.925643 0.649108
vt 0.013551 0.709914
vt 0.074357 0.709914
vt 0.135164 0.709914
vt 0.682418 0.709914
vt 0.743224 0.709914
vt 0.804030 0.709914
vt 0.864836 0.709914
vt 0.925643 0.709914
vt 0.986449 0.709914
vt 0.013551 0.588302
vt 0.074357 0.588302
vt 0.135164 0.588302
vt 0.682418 0.588302
vt 0.743224 0.588302
vt 0.804030 0.588302
vt 0.864836 0.588302
vt 0.013551 0.466690
vt 0.074357 0.466690
vt 0.135164 0.466690
vt 0.195970 0.466690
vt 0.256776 0.466690
vt 0.317582 0.466690
vt 0.743224 0.466690
vt 0.804030 0.466690
vt 0.135164 0.345078
vt 0.195970 0.345078
vt 0.256776 0.345078
vt 0.317582 0.345078
vt 0.378388 0.345078
vt 0.439194 0.345078
vt 0.500000 0.345078
vt 0.560806 0.345078
vt 0.621612 0.345078
vt 0.682418 0.345078
vt 0.743224 0.345078
vt 0.804030 0.345078
vt 0.864836 0.345078
vt 0.682418 0.223466
vt 0.743224 0.223466
vt 0.804030 0.223466
vt 0.864836 0.223466
vn 0.000000 1.000000 0.000000
vn 0.000000 1.000000 0.000000
vn 0.000000 1.000000 0.000000
vn 0.000000 1.000000 0.000000
vn 0.000000 1.000000 0.000000
vn 0.000000 1.000000 0.000000
vn 0.000000 1.000000 0.000000
vn 0.000000 1.000000 0.000000
vn 0.000000 1.000000 0.000000
vn 0.000000 1.000000 0.000000
vn 0.000000 1.000000 0.000000
vn 0.000000 1.000000 0.000000
vn 0.000000 1.000000 0.000000
vn 0.000000 1.000000 0.000000
vn 0.000000 1.000000 0.000000
vn 0.000000 1.000000 0.000000
vn 0.000000 1.000000 0.000000
vn 0.000000 1.000000 0.000000
vn 0.000000 1.000000 0.000000
vn 0.000000 1.000000 0.000000
vn 0.000000 1.000000 0.000000
vn 0.000000 1.000000 0.000000
vn 0.000000 1.000000 0.000000
vn 0.000000 1.000000 0.000000
vn 0.000000 1.000000 0.000000
vn 0.000000 1.000000 0.000000
vn 0.000000 1.000000 0.000000
vn 0.000000 1.000000 0.000000
vn 0.000000 1.000000 0.000000
vn 0.000000 1.000000 0.000000
vn 0.000000 1.000000 0.000000
vn 0.000000 1.000000 0.000000
vn 0.000000 1.000000 0.000000
vn 0.000000 1.000000 0.000000
vn 0.000000 1.000000 0.000000
vn 0.000000 1.000000 0.000000
vn 0.000000 1.000000 0.000000
vn 0.000000 1.000000 0.000000
vn 0.000000 1.000000 0.000000
vn 0.000000 1.000000 0.000000
vn 0.000000 1.000000 0.000000
vn 0.000000 1.000000 0.000000
vn 0.000000 1.000000 0.000000
vn 0.000000 1.000000 0.000000
vn 0.000000 1.000000 0.000000
vn 0.000000 1.000000 0.000000
vn 0.000000 1.000000 0.000000
vn 0.000000 1.000000 0.000000
vn 0.000000 1.000000 0.000000
vn 0.000000 1.000000 0.000000
vn 0.000000 1.000000 0.000000
vn 0.000000 1.000000 0.000000
vn 0.000000 1.000000 0.000000
vn 0.000000 1.000000 0.000000
vn 0.000000 1.000000 0.000000
vn 0.000000 1.000000 0.000000
vn 0.000000 1.000000 0.000000
vn 0.000000 1.000000 0.000000
vn 0.000000 1.000000 0.000000
vn 0.000000 1.000000 0.000000
vn 0.000000 1.000000 0.000000
vn 0.000000 1.000000 0.000000
vn 0.000000 1.000000 0.000000
vn 0.000000 1.000000 0.000000
vn 0.000000 1.000000 0.000000
vn 0.000000 1.000000 0.000000
vn 0.000000 1.000000 0.000000
vn 0.000000 1.000000 0.000000
vn 0.000000 1.000000 0.000000
vn 0.000000 1.000000 0.000000
vn 0.000000 1.000000 0.000000
vn 0.000000 1.000000 0.000000
vn 0.000000 1.000000 0.000000
vn 0.000000 1.000000 0.000000
vn 0.000000 1.000000 0.000000
vn 0.000000 1.000000 0.000000
vn 0.000000 1.000000 0.000000
vn 0.000000 1.000000 0.000000
vn 0.000000 1.000000 0.000000
vn 0.000000 1.000000 0.000000
vn 0.000000 1.000000 0.000000
vn 0.000000 1.000000 0.000000
vn 0.000000 1.000000 0.000000
vn 0.000000 1.000000 0.000000
vn 0.000000 1.000000 0.000000
vn 0.000000 1.000000 0.000000
vn 0.000000 1.000000 0.000000
s 1
g pCube113
f 48/48/1 49/49/2 19/19/3 26/26/4
f 64/64/5 65/65/6 17/17/7 28/28/8
f 44/44/9 86/86/10 87/87/11 21/21/12
f 40/40/13 52/52/14 53/53/15 24/24/16
f 57/57/17 58/58/18 18/18/19 27/27/20
f 23/23/21 41/41/22 61/61/23 62/62/24
f 22/22/25 43/43/26 82/82/27 83/83/28
f 30/30/29 72/72/30 73/73/31 13/13/32
f 45/45/33 54/54/34 55/55/35 2/2/36
f 39/39/37 84/84/38 85/85/39 6/6/40
f 38/38/41 80/80/42 81/81/43 14/14/44
f 37/37/45 59/59/46 60/60/47 10/10/48
f 36/36/49 50/50/50 51/51/51 8/8/52
f 47/47/53 48/48/1 26/26/4 1/1/54
f 56/56/55 57/57/17 27/27/20 9/9/56
f 63/63/57 64/64/5 28/28/8 4/4/58
f 16/16/59 71/71/60 72/72/30 30/30/29
f 74/74/61 32/32/62 13/13/32 73/73/31
f 8/8/52 51/51/51 52/52/14 40/40/13
f 61/61/23 41/41/22 10/10/48 60/60/47
f 7/7/63 69/69/64 70/70/65 42/42/66
f 82/82/27 43/43/26 14/14/44 81/81/43
f 6/6/40 85/85/39 86/86/10 44/44/9
f 24/24/16 53/53/15 54/54/34 45/45/33
f 9/9/56 27/27/20 48/48/1 47/47/53
f 27/27/20 18/18/19 49/49/2 48/48/1
f 51/51/51 50/50/50 37/37/45 10/10/48
f 52/52/14 51/51/51 10/10/48 41/41/22
f 53/53/15 52/52/14 41/41/22 23/23/21
f 54/54/34 53/53/15 23/23/21 46/46/67
f 55/55/35 54/54/34 46/46/67 11/11/68
f 4/4/58 28/28/8 57/57/17 56/56/55
f 28/28/8 17/17/7 58/58/18 57/57/17
f 42/42/66 61/61/23 60/60/47 7/7/63
f 12/12/69 29/29/70 64/64/5 63/63/57
f 29/29/70 16/16/59 65/65/6 64/64/5
f 66/66/71 65/65/6 16/16/59 30/30/29
f 67/67/72 66/66/71 30/30/29 13/13/32
f 68/68/73 67/67/72 13/13/32 32/32/62
f 70/70/65 69/69/64 14/14/44 43/43/26
f 72/72/30 71/71/60 15/15/74 31/31/75
f 73/73/31 72/72/30 31/31/75 5/5/76
f 33/33/77 74/74/61 73/73/31 5/5/76
f 75/75/78 74/74/61 33/33/77 20/20/79
f 34/34/80 76/76/81 75/75/78 20/20/79
f 77/77/82 76/76/81 34/34/80 3/3/83
f 3/3/83 35/35/84 78/78/85 77/77/82
f 35/35/84 25/25/86 79/79/87 78/78/85
f 80/80/42 79/79/87 25/25/86 39/39/37
f 81/81/43 80/80/42 39/39/37 6/6/40
f 44/44/9 82/82/27 81/81/43 6/6/40
f 83/83/28 82/82/27 44/44/9 21/21/12
