# This file uses centimeters as units for non-parametric coordinates.

g guanqia_007_qiang:default1
v -13.869625 4.388688 -5.286439
v -13.869625 4.388688 -6.868306
v 13.869625 4.388688 -5.286439
v 13.869625 4.388688 -6.868306
g guanqia_007_qiang:default2
v -13.869625 -4.388688 -5.286439
v -13.869625 -4.388688 -6.868306
v 13.869625 -4.388688 -5.286439
v 13.869625 -4.388688 -6.868306
v -6.764445 4.388688 -5.286439
v -6.764445 -4.388688 -5.286439
v -6.764445 -4.388688 -6.868306
v -6.764445 4.388688 -6.868306
v 4.505453 4.388688 -5.286439
v 4.505453 -4.388688 -5.286439
v 4.505453 -4.388688 -6.868306
v 4.505453 4.388688 -6.868306
v 4.505453 4.388688 -4.416193
v 4.505453 -4.388688 -4.416193
v 13.869625 -4.388688 -4.416193
v 13.869625 4.388688 -4.416193
v -13.869625 4.388688 -4.416193
v -13.869625 -4.388688 -4.416193
v -6.764445 -4.388688 -4.416193
v -6.764445 4.388688 -4.416193
v 12.464309 4.388688 -4.416193
v 12.464309 -4.388688 -4.416193
v 12.464309 -4.388688 -5.286439
v 12.464309 -4.388688 -6.868306
v 12.464309 4.388688 -6.868306
v 12.464309 4.388688 -5.286439
v 12.464309 4.388688 6.868306
v 12.464309 -4.388688 6.868306
v 13.869625 -4.388688 6.868306
v 13.869625 4.388688 6.868306
g default
v -6.764446 -1.359550 -4.416193
v -13.869625 -1.359550 -4.416193
v -13.869625 -1.359550 -5.286439
v -13.869625 -1.359550 -6.868306
v -6.764446 -1.359550 -6.868306
v 4.505453 -1.359550 -6.868306
v 12.464309 -1.359550 -6.868306
v 13.869625 -1.359550 -6.868306
v 13.869625 -1.359550 -5.286439
v 13.869625 -1.359550 -4.416193
v 13.869625 -1.359550 6.868306
v 12.464309 -1.359550 6.868306
v 12.464309 -1.359550 -4.416193
v 4.505453 -1.359550 -4.416193
v 4.505453 -1.359550 -5.286439
v -6.764446 -1.359550 -5.286439
vt 0.348436 0.573124
vt 0.012620 0.452950
vt 0.282047 0.573110
vt 0.057136 0.402836
vt 0.938432 0.554082
vt 0.938432 0.498195
vt 0.988082 0.498195
vt 0.317209 0.768221
vt 0.008058 0.554082
vt 0.933693 0.573114
vt 0.891333 0.402836
vt 0.968855 0.768186
vt 0.891303 0.982181
vt 0.057137 0.017764
vt 0.011918 0.572775
vt 0.988081 0.068768
vt 0.011918 0.982087
vt 0.891333 0.375266
vt 0.170667 0.786083
vt 0.259083 0.467449
vt 0.775784 0.573119
vt 0.190110 0.786078
vt 0.259083 0.554082
vt 0.259083 0.498195
vt 0.309254 0.402836
vt 0.657247 0.498195
vt 0.525317 0.573125
vt 0.657247 0.554082
vt 0.309254 0.375266
vt 0.461354 0.982180
vt 0.262707 0.573103
vt 0.057136 0.375266
vt 0.988082 0.467449
vt 0.639177 0.982181
vt 0.011918 0.768580
vt 0.922701 0.982181
vt 0.938431 0.068768
vt 0.012615 0.017764
vt 0.922701 0.786070
vt 0.262712 0.768243
vt 0.891303 0.786070
vt 0.012615 0.375265
vt 0.639177 0.786071
vt 0.938432 0.467449
vt 0.348441 0.768213
vt 0.525323 0.768200
vt 0.057137 0.452950
vt 0.309254 0.452950
vt 0.461354 0.786071
vt 0.657247 0.467449
vt 0.170667 0.982166
vt 0.988196 0.768185
vt 0.008058 0.467449
vt 0.190110 0.982171
vt 0.666255 0.375266
vt 0.988190 0.573113
vt 0.011918 0.786164
vt 0.666256 0.402836
vt 0.968849 0.573113
vt 0.008058 0.498195
vt 0.282053 0.768234
vt 0.012616 0.402836
vt 0.441911 0.786071
vt 0.441911 0.982180
vt 0.775790 0.768191
vt 0.666256 0.452950
vt 0.933699 0.768187
vt 0.891330 0.452950
vt 0.317204 0.573119
vt 0.988082 0.554082
vt 0.170667 0.853755
vt 0.011918 0.853779
vt 0.988192 0.640434
vt 0.968851 0.640434
vt 0.933695 0.640435
vt 0.775786 0.640440
vt 0.525319 0.640446
vt 0.348438 0.640448
vt 0.317206 0.640446
vt 0.282050 0.640443
vt 0.262709 0.640440
vt 0.922701 0.853750
vt 0.011918 0.640339
vt 0.891303 0.853750
vt 0.639177 0.853750
vt 0.461354 0.853750
vt 0.441911 0.853750
vt 0.190110 0.853754
vn 0.000000 -1.000000 0.000000
vn 0.000000 -1.000000 0.000000
vn 0.000000 -1.000000 0.000000
vn 0.000000 -1.000000 0.000000
vn 0.000000 1.000000 0.000000
vn 0.000000 1.000000 0.000000
vn 0.000000 1.000000 0.000000
vn 0.000000 1.000000 0.000000
vn -1.000000 0.000000 0.000000
vn -1.000000 0.000000 0.000000
vn -1.000000 0.000000 0.000000
vn -1.000000 0.000000 0.000000
vn 0.000000 0.000000 1.000000
vn 0.000000 0.000000 1.000000
vn 0.000000 0.000000 1.000000
vn 0.000000 0.000000 1.000000
vn 1.000000 0.000000 0.000000
vn 1.000000 0.000000 0.000000
vn 1.000000 0.000000 0.000000
vn 1.000000 0.000000 0.000000
vn 0.000000 0.000000 -1.000000
vn 0.000000 0.000000 -1.000000
vn 0.000000 0.000000 -1.000000
vn 0.000000 0.000000 -1.000000
vn 0.000000 0.000000 1.000000
vn 0.000000 0.000000 1.000000
vn 0.000000 0.000000 1.000000
vn 0.000000 0.000000 1.000000
vn 0.000000 -1.000000 0.000000
vn 0.000000 -1.000000 0.000000
vn 0.000000 -1.000000 0.000000
vn 0.000000 -1.000000 0.000000
vn 0.000000 0.000000 -1.000000
vn 0.000000 0.000000 -1.000000
vn 0.000000 0.000000 -1.000000
vn 0.000000 0.000000 -1.000000
vn 0.000000 1.000000 0.000000
vn 0.000000 1.000000 0.000000
vn 0.000000 1.000000 0.000000
vn 0.000000 1.000000 0.000000
vn 0.000000 0.000000 1.000000
vn 0.000000 0.000000 1.000000
vn 0.000000 0.000000 1.000000
vn 0.000000 0.000000 1.000000
vn 0.000000 -1.000000 0.000000
vn 0.000000 -1.000000 0.000000
vn 0.000000 -1.000000 0.000000
vn 0.000000 -1.000000 0.000000
vn 0.000000 0.000000 -1.000000
vn 0.000000 0.000000 -1.000000
vn 0.000000 0.000000 -1.000000
vn 0.000000 0.000000 -1.000000
vn 0.000000 1.000000 0.000000
vn 0.000000 1.000000 0.000000
vn 0.000000 1.000000 0.000000
vn 0.000000 1.000000 0.000000
vn -1.000000 0.000000 0.000000
vn -1.000000 0.000000 0.000000
vn -1.000000 0.000000 0.000000
vn -1.000000 0.000000 0.000000
vn 0.000000 -1.000000 0.000000
vn 0.000000 -1.000000 0.000000
vn 0.000000 -1.000000 0.000000
vn 0.000000 -1.000000 0.000000
vn 1.000000 0.000000 0.000000
vn 1.000000 0.000000 0.000000
vn 1.000000 0.000000 0.000000
vn 1.000000 0.000000 0.000000
vn 0.000000 1.000000 0.000000
vn 0.000000 1.000000 0.000000
vn 0.000000 1.000000 0.000000
vn 0.000000 1.000000 0.000000
vn -1.000000 0.000000 0.000000
vn -1.000000 0.000000 0.000000
vn -1.000000 0.000000 0.000000
vn -1.000000 0.000000 0.000000
vn 0.000000 -1.000000 0.000000
vn 0.000000 -1.000000 0.000000
vn 0.000000 -1.000000 0.000000
vn 0.000000 -1.000000 0.000000
vn 1.000000 0.000000 0.000000
vn 1.000000 0.000000 0.000000
vn 1.000000 0.000000 0.000000
vn 1.000000 0.000000 0.000000
vn 0.000000 1.000000 0.000000
vn 0.000000 1.000000 0.000000
vn 0.000000 1.000000 0.000000
vn 0.000000 1.000000 0.000000
vn 0.000000 0.000000 1.000000
vn 0.000000 0.000000 1.000000
vn 0.000000 0.000000 1.000000
vn 0.000000 0.000000 1.000000
vn 0.000000 -1.000000 0.000000
vn 0.000000 -1.000000 0.000000
vn 0.000000 -1.000000 0.000000
vn 0.000000 -1.000000 0.000000
vn 0.000000 -1.000000 0.000000
vn 0.000000 -1.000000 0.000000
vn 0.000000 -1.000000 0.000000
vn 0.000000 -1.000000 0.000000
vn 0.000000 0.000000 -1.000000
vn 0.000000 0.000000 -1.000000
vn 0.000000 0.000000 -1.000000
vn 0.000000 0.000000 -1.000000
vn 0.000000 1.000000 0.000000
vn 0.000000 1.000000 0.000000
vn 0.000000 1.000000 0.000000
vn 0.000000 1.000000 0.000000
vn 0.000000 1.000000 0.000000
vn 0.000000 1.000000 0.000000
vn 0.000000 1.000000 0.000000
vn 0.000000 1.000000 0.000000
vn -1.000000 0.000000 0.000000
vn -1.000000 0.000000 0.000000
vn -1.000000 0.000000 0.000000
vn -1.000000 0.000000 0.000000
vn 0.000000 -1.000000 0.000000
vn 0.000000 -1.000000 0.000000
vn 0.000000 -1.000000 0.000000
vn 0.000000 -1.000000 0.000000
vn 1.000000 0.000000 0.000000
vn 1.000000 0.000000 0.000000
vn 1.000000 0.000000 0.000000
vn 1.000000 0.000000 0.000000
vn 0.000000 1.000000 0.000000
vn 0.000000 1.000000 0.000000
vn 0.000000 1.000000 0.000000
vn 0.000000 1.000000 0.000000
vn 0.000000 0.000000 1.000000
vn 0.000000 0.000000 1.000000
vn -1.000000 0.000000 0.000000
vn -1.000000 0.000000 0.000000
vn -1.000000 0.000000 0.000000
vn -1.000000 0.000000 0.000000
vn 0.000000 0.000000 -1.000000
vn 0.000000 0.000000 -1.000000
vn 0.000000 0.000000 -1.000000
vn 0.000000 0.000000 -1.000000
vn 0.000000 0.000000 -1.000000
vn 0.000000 0.000000 -1.000000
vn 0.000000 0.000000 -1.000000
vn 0.000000 0.000000 -1.000000
vn 1.000000 0.000000 0.000000
vn 1.000000 0.000000 0.000000
vn 1.000000 0.000000 0.000000
vn 1.000000 0.000000 0.000000
vn 1.000000 0.000000 0.000000
vn 1.000000 0.000000 0.000000
vn 0.000000 0.000000 1.000000
vn 0.000000 0.000000 1.000000
vn -1.000000 0.000000 0.000000
vn -1.000000 0.000000 0.000000
vn 0.000000 0.000000 1.000000
vn 0.000000 0.000000 1.000000
vn -1.000000 0.000000 0.000000
vn -1.000000 0.000000 0.000000
vn 0.000000 0.000000 1.000000
vn 0.000000 0.000000 1.000000
vn 1.000000 0.000000 0.000000
vn 1.000000 0.000000 0.000000
s off
g guanqia_007_qiang:pCube201 guanqia_007_qiang:polySurface928 guanqia_007_qiang:polySurface930 guanqia_007_qiang:polySurface931
f 28/47/1 8/2/2 7/62/3 27/4/4
f 29/5/5 30/6/6 3/7/7 4/70/8
s 1
f 38/75/9 6/10/10 5/59/11 37/74/12
s 2
f 46/84/13 32/41/14 33/39/15 45/82/16
s 3
f 43/80/17 7/3/18 8/69/19 42/79/20
s 4
f 42/79/21 8/69/22 28/1/23 41/78/24
s 5
f 36/72/25 22/57/26 23/19/27 35/71/28
s off
f 6/68/29 11/66/30 10/58/31 5/11/32
s 6
f 39/76/33 11/21/34 6/10/35 38/75/36
s off
f 2/9/37 1/60/38 9/24/39 12/23/40
s 7
f 50/88/41 10/22/42 14/63/43 49/87/44
s off
f 11/66/45 15/48/46 14/25/47 10/58/48
s 8
f 40/77/49 15/27/50 11/21/51 39/76/52
s off
f 12/23/53 9/24/54 13/26/55 16/28/56
s 9
f 49/87/57 14/63/58 18/49/59 48/86/60
s off
f 27/4/61 7/62/62 19/42/63 26/32/64
s 10
f 7/3/65 43/80/66 44/81/67 19/31/68
s off
f 3/7/69 30/6/70 25/44/71 20/33/72
s 11
f 37/74/73 5/59/74 22/56/75 36/73/76
s off
f 5/11/77 10/58/78 23/55/79 22/18/80
s 12
f 10/22/81 50/88/82 35/71/83 23/19/84
s off
f 9/24/85 1/60/86 21/53/87 24/20/88
s 13
f 48/86/89 18/49/90 26/43/91 47/85/92
s off
f 14/25/93 27/4/94 26/32/95 18/29/96
f 15/48/97 28/47/98 27/4/99 14/25/100
s 14
f 41/78/101 28/1/102 15/27/103 40/77/104
s off
f 16/28/105 13/26/106 30/6/107 29/5/108
f 25/44/109 30/6/110 13/26/111 17/50/112
s 15
f 47/85/113 26/43/114 32/41/115 46/84/116
s off
f 26/32/117 19/42/118 33/38/119 32/14/120
s 16
f 19/31/121 44/81/122 45/83/123 33/15/124
s off
f 20/33/125 25/44/126 31/37/127 34/16/128
s 5
f 21/17/129 36/72/25 35/71/28 24/51/130
s 11
f 1/12/131 37/74/73 36/73/76 21/52/132
s 1
f 2/67/133 38/75/9 37/74/12 1/12/134
s 6
f 12/65/135 39/76/33 38/75/36 2/67/136
s 8
f 16/46/137 40/77/49 39/76/52 12/65/138
s 14
f 29/45/139 41/78/101 40/77/104 16/46/140
s 4
f 4/8/141 42/79/21 41/78/24 29/45/142
s 3
f 3/61/143 43/80/17 42/79/20 4/8/144
s 10
f 44/81/67 43/80/66 3/61/145 20/40/146
s 16
f 45/83/123 44/81/122 20/40/147 34/35/148
s 2
f 31/13/149 46/84/13 45/82/16 34/36/150
s 15
f 25/34/151 47/85/113 46/84/116 31/13/152
s 13
f 17/30/153 48/86/89 47/85/92 25/34/154
s 9
f 13/64/155 49/87/57 48/86/60 17/30/156
s 7
f 9/54/157 50/88/41 49/87/44 13/64/158
s 12
f 35/71/83 50/88/82 9/54/159 24/51/160
