# This file uses centimeters as units for non-parametric coordinates.

g default
v 1.359554 -0.757745 -0.108436
v 1.359554 -0.757745 -0.258750
v 1.359554 0.730554 -0.108436
v 1.359554 0.730554 -0.258750
v 1.106660 0.730554 -0.108436
v 1.106660 0.730554 -0.258750
v 1.106660 -0.757745 -0.108436
v 1.106660 -0.757745 -0.258750
v 1.359554 -0.757745 -1.068467
v 1.359554 -0.757745 -1.218782
v 1.359554 0.730554 -1.068467
v 1.359554 0.730554 -1.218782
v 1.106660 0.730554 -1.068467
v 1.106660 0.730554 -1.218782
v 1.106660 -0.757745 -1.068467
v 1.106660 -0.757745 -1.218782
v -1.553216 -0.171301 0.179301
v -1.409940 0.757745 -0.179297
v 0.376620 0.757745 -1.329778
v 0.683657 -0.456213 -1.329778
v 0.087823 -0.171301 0.010798
v -0.040260 -0.171301 0.138883
v 0.036462 0.757745 0.062159
v 0.011101 0.757745 0.087522
v -1.409940 0.757745 -1.201695
v -1.281857 0.757745 -1.329778
v -1.482606 -0.171301 -1.267272
v -1.281857 -0.171301 -1.422977
v -0.040260 -0.171301 1.218903
v -0.168343 -0.171301 1.346987
v -0.168343 0.757745 1.346987
v -0.040260 0.757745 1.218903
v -1.281857 -0.171301 1.346987
v -1.409940 -0.171301 1.218903
v -1.281857 0.757745 1.346987
v -1.324363 0.757745 1.218903
v 1.270308 -0.171301 -1.329778
v 1.499102 -0.298692 -1.201695
v 1.398391 0.757745 -1.201695
v 1.270308 0.757745 -1.329778
v 1.398391 -0.171301 -0.117285
v 1.074473 -0.171301 0.010798
v 1.398391 0.757745 -0.117285
v 1.270308 0.757745 0.010798
v -1.363135 0.757745 1.179670
v -1.409940 -0.171301 1.056721
v -0.675551 -0.171301 -1.380352
v -0.782253 0.757745 -1.329778
v -0.781723 0.757745 -0.713549
v -0.780769 0.757745 0.395437
v -0.450569 0.757745 1.346987
v -0.760264 -0.171301 1.346987
v -1.409940 -0.171301 0.012978
v -0.686885 -0.257037 1.422977
v -1.490521 0.117177 0.085310
v -1.409940 0.134515 -0.040449
v -0.040260 0.757745 0.855715
v -0.040260 -0.171301 0.558475
v 0.054164 -0.231110 0.470706
v 0.227116 -0.236521 0.121920
v 0.740651 0.757745 0.010798
v 0.556764 -0.171301 0.015267
v -1.409940 -0.171301 -1.063458
v -0.875703 0.757745 -1.401496
v -0.989241 -0.171301 -1.330955
v 0.475233 -0.229687 -1.340065
v -0.104368 0.757745 -1.329778
v 0.261372 0.757745 0.017168
v 0.341366 0.757745 0.058754
v 1.398391 0.757745 -0.530036
v 1.553216 -0.218351 -0.517795
v 1.458651 -0.247525 -0.673030
v 0.971501 -0.171301 -0.032964
v -1.317161 -0.749118 -0.007658
v -0.078341 -0.749118 -0.007658
v -1.317161 0.723539 -0.007658
v -0.078341 0.723539 -0.007658
v -1.317161 0.723539 -1.246477
v -0.078341 0.723539 -1.246477
v -1.317161 -0.749118 -1.246477
v -0.078341 -0.749118 -1.246477
v -0.303733 -0.757745 1.304549
v -0.153418 -0.757745 1.304549
v -0.303733 0.730554 1.304549
v -0.153418 0.730554 1.304549
v -0.303733 0.730554 1.051656
v -0.153418 0.730554 1.051656
v -0.303733 -0.757745 1.051656
v -0.153418 -0.757745 1.051656
v -1.218283 -0.757745 1.304549
v -1.067968 -0.757745 1.304549
v -1.218283 0.730554 1.304549
v -1.067968 0.730554 1.304549
v -1.218283 0.730554 1.051656
v -1.067968 0.730554 1.051656
v -1.218283 -0.757745 1.051656
v -1.067968 -0.757745 1.051656
vt 0.689218 0.037353
vt 0.689361 0.011799
vt 0.942383 0.013207
vt 0.942241 0.038762
vt 0.985377 0.013446
vt 0.985235 0.039001
vt 0.942002 0.081756
vt 0.941859 0.107310
vt 0.688837 0.105902
vt 0.688979 0.080347
vt 0.646225 0.037114
vt 0.646367 0.011559
vt 0.688597 0.148896
vt 0.941620 0.150304
vt 0.689218 0.037353
vt 0.689361 0.011799
vt 0.942383 0.013207
vt 0.942241 0.038762
vt 0.985377 0.013446
vt 0.985235 0.039001
vt 0.942002 0.081756
vt 0.941859 0.107310
vt 0.688837 0.105902
vt 0.688979 0.080347
vt 0.646225 0.037114
vt 0.646367 0.011559
vt 0.688597 0.148896
vt 0.941620 0.150304
vt 0.647432 0.794802
vt 0.800249 0.935472
vt 0.715258 0.961464
vt 0.624684 0.436269
vt 0.443420 0.605976
vt 0.434908 0.602008
vt 0.672601 0.163994
vt 0.644912 0.325759
vt 0.529182 0.318189
vt 0.525864 0.119952
vt 0.236462 0.317365
vt 0.109735 0.180990
vt 0.147596 0.095174
vt 0.303120 0.206674
vt 0.872926 0.520768
vt 0.861695 0.499814
vt 0.919545 0.503029
vt 0.931623 0.524621
vt 0.472462 0.820739
vt 0.574539 0.730153
vt 0.486432 0.832962
vt 0.812472 0.704371
vt 0.973640 0.657870
vt 0.980006 0.685919
vt 0.813894 0.713048
vt 0.519830 0.071119
vt 0.451298 0.295315
vt 0.332031 0.188291
vt 0.422545 0.052789
vt 0.368957 0.556068
vt 0.291897 0.494100
vt 0.357192 0.632170
vt 0.404065 0.802531
vt 0.274531 0.667711
vt 0.642110 0.617189
vt 0.440591 0.797636
vt 0.423379 0.792858
vt 0.758165 0.331060
vt 0.730852 0.323726
vt 0.820891 0.182651
vt 0.685129 0.977481
vt 0.617431 0.793388
vt 0.985115 0.718204
vt 0.823051 0.734017
vt 0.188584 0.070299
vt 0.182281 0.723481
vt 0.230933 0.886644
vt 0.156835 0.748616
vt 0.690463 0.778466
vt 0.776064 0.171539
vt 0.663176 0.319223
vt 0.744467 0.499711
vt 0.896568 0.886858
vt 0.809591 0.914674
vt 0.930491 0.345028
vt 0.574157 0.897123
vt 0.303952 0.850386
vt 0.360276 0.817651
vt 0.935105 0.305750
vt 0.724762 0.163534
vt 0.388173 0.560670
vt 0.377954 0.623172
vt 0.197047 0.414207
vt 0.188107 0.380148
vt 0.091947 0.206154
vt 0.044004 0.260430
vt 0.286728 0.860236
vt 0.327461 0.630578
vt 0.248003 0.630578
vt 0.248003 0.536122
vt 0.327461 0.536122
vt 0.009631 0.536122
vt 0.009633 0.456664
vt 0.089086 0.456664
vt 0.089087 0.536122
vt 0.168545 0.536122
vt 0.168545 0.630578
vt 0.089088 0.630578
vt 0.089088 0.710035
vt 0.009630 0.710035
vt 0.009630 0.630578
vt 0.689218 0.037353
vt 0.689361 0.011799
vt 0.942383 0.013207
vt 0.942241 0.038762
vt 0.985377 0.013446
vt 0.985235 0.039001
vt 0.942002 0.081756
vt 0.941859 0.107310
vt 0.688837 0.105902
vt 0.688979 0.080347
vt 0.646225 0.037114
vt 0.646367 0.011559
vt 0.688597 0.148896
vt 0.941620 0.150304
vt 0.689218 0.037353
vt 0.689361 0.011799
vt 0.942383 0.013207
vt 0.942241 0.038762
vt 0.985377 0.013446
vt 0.985235 0.039001
vt 0.942002 0.081756
vt 0.941859 0.107310
vt 0.688837 0.105902
vt 0.688979 0.080347
vt 0.646225 0.037114
vt 0.646367 0.011559
vt 0.688597 0.148896
vt 0.941620 0.150304
vn 1.000000 0.000000 0.000000
vn 1.000000 0.000000 0.000000
vn 1.000000 0.000000 0.000000
vn 1.000000 0.000000 0.000000
vn 0.000000 1.000000 0.000000
vn 0.000000 1.000000 0.000000
vn 0.000000 1.000000 0.000000
vn 0.000000 1.000000 0.000000
vn -1.000000 0.000000 -0.000000
vn -1.000000 0.000000 -0.000000
vn -1.000000 0.000000 -0.000000
vn -1.000000 0.000000 -0.000000
vn 0.000000 -1.000000 0.000000
vn 0.000000 -1.000000 0.000000
vn 0.000000 -1.000000 0.000000
vn 0.000000 -1.000000 0.000000
vn 0.000000 0.000000 -1.000000
vn 0.000000 0.000000 -1.000000
vn 0.000000 0.000000 -1.000000
vn 0.000000 0.000000 -1.000000
vn -0.000000 0.000000 1.000000
vn -0.000000 0.000000 1.000000
vn -0.000000 0.000000 1.000000
vn -0.000000 0.000000 1.000000
vn 1.000000 0.000000 0.000000
vn 1.000000 0.000000 0.000000
vn 1.000000 0.000000 0.000000
vn 1.000000 0.000000 0.000000
vn 0.000000 1.000000 0.000000
vn 0.000000 1.000000 0.000000
vn 0.000000 1.000000 0.000000
vn 0.000000 1.000000 0.000000
vn -1.000000 0.000000 -0.000000
vn -1.000000 0.000000 -0.000000
vn -1.000000 0.000000 -0.000000
vn -1.000000 0.000000 -0.000000
vn 0.000000 -1.000000 0.000000
vn 0.000000 -1.000000 0.000000
vn 0.000000 -1.000000 0.000000
vn 0.000000 -1.000000 0.000000
vn 0.000000 0.000000 -1.000000
vn 0.000000 0.000000 -1.000000
vn 0.000000 0.000000 -1.000000
vn 0.000000 0.000000 -1.000000
vn -0.000000 0.000000 1.000000
vn -0.000000 0.000000 1.000000
vn -0.000000 0.000000 1.000000
vn -0.000000 0.000000 1.000000
vn 0.061628 0.043180 0.997165
vn -0.009111 0.047170 0.998845
vn 0.144998 0.000000 0.989432
vn 0.000000 1.000000 0.000000
vn 0.000000 1.000000 0.000000
vn 0.000000 1.000000 0.000000
vn 0.004581 0.029132 -0.999565
vn 0.062605 0.045406 -0.997005
vn 0.020509 0.036527 -0.999122
vn 0.029894 0.033108 -0.999005
vn 0.995097 0.097783 0.014868
vn 0.996344 0.081823 -0.024555
vn 0.996668 0.075710 0.030360
vn 0.996668 0.075710 0.030360
vn -0.995543 0.091269 0.023751
vn -0.998817 -0.008119 -0.047938
vn -0.998398 -0.006259 -0.056228
vn -0.994462 0.079159 0.069131
vn 0.999808 -0.007413 0.018145
vn 0.999417 0.022199 0.025951
vn 0.988747 -0.045587 0.142485
vn -0.990111 0.094582 0.103610
vn -0.989598 0.083103 0.117429
vn -0.980355 0.057360 0.188715
vn -0.980355 0.057360 0.188715
vn 0.002677 0.000677 -0.999996
vn 0.000623 0.002934 -0.999996
vn 0.000000 0.000000 -1.000000
vn 0.000000 0.000000 -1.000000
vn 0.000000 1.000000 0.000000
vn 0.000000 1.000000 0.000000
vn 0.000000 1.000000 0.000000
vn 0.023587 0.060683 0.997878
vn 0.003993 -0.027771 0.999606
vn 0.074952 -0.013212 0.997100
vn 0.000000 1.000000 0.000000
vn 0.000000 1.000000 0.000000
vn 0.000000 1.000000 0.000000
vn 0.707111 0.000000 0.707103
vn 0.707111 0.000000 0.707103
vn 0.707111 0.000000 0.707103
vn 0.707111 0.000000 0.707103
vn -0.703222 0.104641 -0.703227
vn -0.684301 0.099261 -0.722413
vn -0.619795 0.081412 -0.780529
vn 0.707110 0.000000 0.707104
vn 0.707110 0.000000 0.707104
vn 0.707110 0.000000 0.707104
vn 0.707110 0.000000 0.707104
vn -0.831724 0.038306 0.553867
vn -0.831724 0.038306 0.553867
vn -0.831724 0.038306 0.553867
vn -0.831724 0.038306 0.553867
vn 0.519145 0.008815 -0.854641
vn 0.488483 0.000000 -0.872574
vn 0.668826 0.054964 -0.741385
vn 0.602693 -0.026859 0.797521
vn 0.391448 -0.072501 0.917340
vn 0.707106 0.000000 0.707108
vn 0.000000 1.000000 0.000000
vn 0.000000 1.000000 0.000000
vn 0.000000 1.000000 0.000000
vn 0.000000 1.000000 0.000000
vn 0.000000 1.000000 0.000000
vn 0.000000 1.000000 0.000000
vn 0.000000 1.000000 0.000000
vn -0.990111 0.094582 0.103610
vn -0.995543 0.091269 0.023751
vn -0.994462 0.079159 0.069131
vn -0.989598 0.083103 0.117429
vn 0.000000 1.000000 0.000000
vn 0.000000 1.000000 0.000000
vn 0.000000 1.000000 0.000000
vn 0.000000 1.000000 0.000000
vn 0.149830 -0.042663 -0.987791
vn -0.173049 0.098311 -0.979994
vn 0.033957 0.062227 -0.997484
vn 0.000000 1.000000 0.000000
vn 0.000000 1.000000 0.000000
vn 0.000000 1.000000 0.000000
vn 0.000000 1.000000 0.000000
vn 0.000000 1.000000 0.000000
vn 0.000000 1.000000 0.000000
vn 0.000000 1.000000 0.000000
vn 0.000000 1.000000 0.000000
vn 0.000000 1.000000 0.000000
vn 0.000000 1.000000 0.000000
vn 0.000000 1.000000 0.000000
vn 0.000000 1.000000 0.000001
vn 0.000000 1.000000 0.000000
vn 0.000000 1.000000 0.000001
vn 0.000000 1.000000 0.000000
vn 0.000000 1.000000 0.000000
vn 0.000000 1.000000 0.000000
vn 0.000000 1.000000 0.000000
vn 0.000000 1.000000 0.000000
vn 0.000000 0.000000 1.000000
vn 0.000000 0.000000 1.000000
vn -0.055198 0.018400 0.998306
vn -0.003974 0.019726 0.999798
vn 0.000000 1.000000 0.000000
vn 0.000000 1.000000 0.000000
vn 0.000000 1.000000 0.000000
vn -0.999951 0.001464 0.009841
vn -0.999262 0.005652 0.037984
vn -0.998398 -0.006259 -0.056228
vn -0.998817 -0.008119 -0.047938
vn -0.003974 0.019726 0.999798
vn -0.055198 0.018400 0.998306
vn -0.009111 0.047170 0.998845
vn -0.997829 0.064856 0.011465
vn -0.995543 0.091269 0.023751
vn -0.990111 0.094582 0.103610
vn -0.997829 0.064856 0.011465
vn -0.998817 -0.008119 -0.047938
vn -0.995543 0.091269 0.023751
vn -0.999951 0.001464 0.009841
vn -0.998817 -0.008119 -0.047938
vn -0.997829 0.064856 0.011465
vn 0.000000 1.000000 0.000000
vn 0.000000 1.000000 0.000000
vn 0.000000 1.000000 0.000000
vn 0.988747 -0.045587 0.142485
vn 0.999417 0.022199 0.025951
vn 1.000000 0.000000 0.000000
vn 1.000000 0.000000 0.000000
vn 0.999808 -0.007413 0.018145
vn 0.997988 0.055406 0.030826
vn 0.999417 0.022199 0.025951
vn 0.956228 -0.068590 -0.284471
vn 0.997988 0.055406 0.030826
vn 0.999808 -0.007413 0.018145
vn -0.003974 0.019726 0.999798
vn -0.009111 0.047170 0.998845
vn 0.061628 0.043180 0.997165
vn 0.129119 0.084145 0.988053
vn -0.643715 -0.077674 0.761313
vn 0.003993 -0.027771 0.999606
vn 0.074952 -0.013212 0.997100
vn 0.008627 -0.012468 0.999885
vn -0.007256 -0.044722 0.998973
vn 0.000000 1.000000 0.000000
vn 0.000000 1.000000 0.000000
vn 0.000000 1.000000 0.000000
vn 0.000000 1.000000 0.000000
vn 0.074952 -0.013212 0.997100
vn 0.003993 -0.027771 0.999606
vn 0.224125 -0.039677 0.973752
vn -0.999951 0.001464 0.009841
vn -0.940750 0.049908 0.335408
vn -0.999262 0.005652 0.037984
vn -0.619795 0.081412 -0.780529
vn -0.684301 0.099261 -0.722413
vn -0.610962 0.079021 -0.787706
vn 0.000000 1.000000 0.000000
vn 0.000000 1.000000 0.000000
vn 0.000000 1.000000 0.000000
vn 0.086745 -0.085963 -0.992515
vn 0.033957 0.062227 -0.997484
vn 0.004581 0.029132 -0.999565
vn 0.004581 0.029132 -0.999565
vn 0.033957 0.062227 -0.997484
vn 0.062605 0.045406 -0.997005
vn 0.149830 -0.042663 -0.987791
vn 0.033957 0.062227 -0.997484
vn 0.086745 -0.085963 -0.992515
vn 0.029894 0.033108 -0.999005
vn 0.000623 0.002934 -0.999996
vn 0.002677 0.000677 -0.999996
vn 0.000000 1.000000 0.000000
vn 0.000000 1.000000 0.000000
vn 0.000000 1.000000 0.000000
vn 0.029894 0.033108 -0.999005
vn 0.020509 0.036527 -0.999122
vn 0.000623 0.002934 -0.999996
vn 0.000000 1.000000 0.000000
vn 0.000000 1.000000 0.000000
vn 0.000000 1.000000 0.000000
vn 0.129119 0.084145 0.988053
vn 0.003993 -0.027771 0.999606
vn 0.007817 0.104507 0.994493
vn 0.000000 1.000000 0.000000
vn 0.000000 1.000000 0.000000
vn 0.000000 1.000000 0.000000
vn 0.007817 0.104507 0.994493
vn 0.003993 -0.027771 0.999606
vn 0.023587 0.060683 0.997878
vn 0.519145 0.008815 -0.854641
vn 0.668826 0.054964 -0.741385
vn 0.705502 0.067256 -0.705509
vn 0.000000 1.000000 0.000000
vn 0.000000 1.000000 0.000000
vn 0.000000 1.000000 -0.000001
vn 0.000000 1.000000 -0.000001
vn 0.988561 0.118540 0.093253
vn 0.996870 0.078460 -0.009752
vn 0.995097 0.097783 0.014868
vn 0.000000 1.000000 0.000000
vn 0.000000 1.000000 0.000000
vn 0.000000 1.000000 0.000000
vn 0.995097 0.097783 0.014868
vn 0.996870 0.078460 -0.009752
vn 0.996344 0.081823 -0.024555
vn 0.988561 0.118540 0.093253
vn 0.932733 0.000000 0.360567
vn 0.996870 0.078460 -0.009752
vn 0.366612 -0.077279 0.927159
vn 0.391448 -0.072501 0.917340
vn 0.602693 -0.026859 0.797521
vn 0.074952 -0.013212 0.997100
vn 0.224125 -0.039677 0.973752
vn 0.008627 -0.012468 0.999885
vn -0.007256 -0.044722 0.998973
vn 0.008627 -0.012468 0.999885
vn -0.389802 0.082168 0.917226
vn 0.000000 0.000000 1.000000
vn 0.000000 0.000000 1.000000
vn 0.000000 0.000000 1.000000
vn 0.000000 0.000000 1.000000
vn 0.000000 1.000000 0.000000
vn 0.000000 1.000000 0.000000
vn 0.000000 1.000000 0.000000
vn 0.000000 1.000000 0.000000
vn 0.000000 0.000000 -1.000000
vn 0.000000 0.000000 -1.000000
vn 0.000000 0.000000 -1.000000
vn 0.000000 0.000000 -1.000000
vn 0.000000 -1.000000 0.000000
vn 0.000000 -1.000000 0.000000
vn 0.000000 -1.000000 0.000000
vn 0.000000 -1.000000 0.000000
vn 1.000000 0.000000 0.000000
vn 1.000000 0.000000 0.000000
vn 1.000000 0.000000 0.000000
vn 1.000000 0.000000 0.000000
vn -1.000000 0.000000 0.000000
vn -1.000000 0.000000 0.000000
vn -1.000000 0.000000 0.000000
vn -1.000000 0.000000 0.000000
vn 0.000000 0.000000 1.000000
vn 0.000000 0.000000 1.000000
vn 0.000000 0.000000 1.000000
vn 0.000000 0.000000 1.000000
vn 0.000000 1.000000 0.000000
vn 0.000000 1.000000 0.000000
vn 0.000000 1.000000 0.000000
vn 0.000000 1.000000 0.000000
vn 0.000000 0.000000 -1.000000
vn 0.000000 0.000000 -1.000000
vn 0.000000 0.000000 -1.000000
vn 0.000000 0.000000 -1.000000
vn 0.000000 -1.000000 0.000000
vn 0.000000 -1.000000 0.000000
vn 0.000000 -1.000000 0.000000
vn 0.000000 -1.000000 0.000000
vn 1.000000 0.000000 0.000000
vn 1.000000 0.000000 0.000000
vn 1.000000 0.000000 0.000000
vn 1.000000 0.000000 0.000000
vn -1.000000 0.000000 0.000000
vn -1.000000 0.000000 0.000000
vn -1.000000 0.000000 0.000000
vn -1.000000 0.000000 0.000000
vn 0.000000 0.000000 1.000000
vn 0.000000 0.000000 1.000000
vn 0.000000 0.000000 1.000000
vn 0.000000 0.000000 1.000000
vn 0.000000 1.000000 0.000000
vn 0.000000 1.000000 0.000000
vn 0.000000 1.000000 0.000000
vn 0.000000 1.000000 0.000000
vn 0.000000 0.000000 -1.000000
vn 0.000000 0.000000 -1.000000
vn 0.000000 0.000000 -1.000000
vn 0.000000 0.000000 -1.000000
vn 0.000000 -1.000000 0.000000
vn 0.000000 -1.000000 0.000000
vn 0.000000 -1.000000 0.000000
vn 0.000000 -1.000000 0.000000
vn 1.000000 0.000000 0.000000
vn 1.000000 0.000000 0.000000
vn 1.000000 0.000000 0.000000
vn 1.000000 0.000000 0.000000
vn -1.000000 0.000000 0.000000
vn -1.000000 0.000000 0.000000
vn -1.000000 0.000000 0.000000
vn -1.000000 0.000000 0.000000
s off
g polySurface946
f 1/1/1 2/2/2 4/3/3 3/4/4
f 3/4/5 4/3/6 6/5/7 5/6/8
f 5/7/9 6/8/10 8/9/11 7/10/12
f 7/11/13 8/12/14 2/2/15 1/1/16
f 2/13/17 8/9/18 6/8/19 4/14/20
f 7/10/21 1/1/22 3/4/23 5/7/24
f 9/15/25 10/16/26 12/17/27 11/18/28
f 11/18/29 12/17/30 14/19/31 13/20/32
f 13/21/33 14/22/34 16/23/35 15/24/36
f 15/25/37 16/26/38 10/16/39 9/15/40
f 10/27/41 16/23/42 14/22/43 12/28/44
f 15/24/45 9/15/46 11/18/47 13/21/48
f 31/29/49 54/30/50 30/31/51
f 49/32/52 24/33/53 23/34/54
f 47/35/55 48/36/56 67/37/57 66/38/58
f 70/39/59 72/40/60 38/41/61 39/42/62
f 55/43/63 56/44/64 53/45/65 17/46/66
f 59/47/67 57/48/68 58/49/69
f 45/50/70 46/51/71 34/52/72 36/53/73
f 20/54/74 19/55/75 40/56/76 37/57/77
f 19/55/78 69/58/79 61/59/80
f 69/60/81 60/61/82 61/62/83
f 24/33/84 50/63/85 57/48/86
f 22/64/87 21/65/88 23/34/89 24/33/90
f 25/66/91 26/67/92 27/68/93
f 30/31/94 29/69/95 32/70/96 31/29/97
f 34/52/98 33/71/99 35/72/100 36/53/101
f 38/41/102 37/73/103 40/56/104
f 44/74/105 41/75/106 43/76/107
f 49/32/108 50/63/109 24/33/110
f 48/36/111 49/32/112 23/34/113 67/37/114
f 45/50/115 55/43/116 17/46/117 46/51/118
f 32/70/119 50/63/120 51/77/121 31/29/122
f 28/78/123 26/67/124 64/79/125
f 26/67/126 49/32/127 64/79/128
f 25/66/129 49/32/130 26/67/131
f 18/80/132 50/63/133 49/32/134
f 50/63/135 18/80/136 45/50/137
f 50/63/138 45/50/139 36/53/140
f 51/77/141 50/63/142 36/53/143 35/72/144
f 35/72/145 33/81/146 52/82/147 51/77/148
f 18/80/149 49/32/150 25/66/151
f 25/66/152 63/83/153 53/45/154 56/44/155
f 51/77/156 52/82/157 54/30/158
f 18/80/159 55/43/160 45/50/161
f 18/80/162 56/44/163 55/43/164
f 25/66/165 56/44/166 18/80/167
f 57/48/168 50/63/169 32/70/170
f 58/49/171 57/48/172 32/70/173 29/84/174
f 59/47/175 24/33/176 57/48/177
f 22/64/178 24/33/179 59/47/180
f 51/77/181 54/30/182 31/29/183
f 23/34/184 21/65/185 60/61/186
f 61/62/187 73/85/188 44/74/189
f 19/55/190 70/39/191 39/42/192 40/56/193
f 61/62/194 60/61/195 62/86/196
f 25/66/197 27/87/198 63/83/199
f 27/68/200 26/67/201 28/78/202
f 64/79/203 49/32/204 48/36/205
f 65/88/206 64/79/207 47/35/208
f 47/35/209 64/79/210 48/36/211
f 28/78/212 64/79/213 65/88/214
f 66/38/215 19/55/216 20/54/217
f 67/37/218 23/34/219 19/55/220
f 66/38/221 67/37/222 19/55/223
f 19/55/224 23/34/225 68/89/226
f 23/34/227 60/61/228 68/90/229
f 19/55/230 68/89/231 69/58/232
f 68/90/233 60/61/234 69/60/235
f 38/41/236 40/56/237 39/42/238
f 70/39/239 61/59/240 44/91/241 43/92/242
f 43/92/243 71/93/244 70/39/245
f 19/55/246 61/59/247 70/39/248
f 70/39/249 71/93/250 72/40/251
f 43/92/252 41/94/253 71/93/254
f 42/95/255 41/75/256 44/74/257
f 61/62/258 62/86/259 73/85/260
f 44/74/261 73/85/262 42/95/263
f 74/96/264 75/97/265 77/98/266 76/99/267
f 76/100/268 77/101/269 79/102/270 78/103/271
f 78/103/272 79/104/273 81/105/274 80/106/275
f 80/106/276 81/107/277 75/108/278 74/109/279
f 75/97/280 81/105/281 79/104/282 77/98/283
f 80/106/284 74/109/285 76/100/286 78/103/287
f 82/110/288 83/111/289 85/112/290 84/113/291
f 84/113/292 85/112/293 87/114/294 86/115/295
f 86/116/296 87/117/297 89/118/298 88/119/299
f 88/120/300 89/121/301 83/111/302 82/110/303
f 83/122/304 89/118/305 87/117/306 85/123/307
f 88/119/308 82/110/309 84/113/310 86/116/311
f 90/124/312 91/125/313 93/126/314 92/127/315
f 92/127/316 93/126/317 95/128/318 94/129/319
f 94/130/320 95/131/321 97/132/322 96/133/323
f 96/134/324 97/135/325 91/125/326 90/124/327
f 91/136/328 97/132/329 95/131/330 93/137/331
f 96/133/332 90/124/333 92/127/334 94/130/335
