# This file uses centimeters as units for non-parametric coordinates.

g default
v 0.523217 -0.456860 0.932853
v 0.818672 -0.565300 0.671971
v 0.717368 0.287515 0.251332
v 0.417176 0.135229 0.768757
v 1.272869 -0.627461 0.380124
v 1.043357 -0.215773 0.301520
v 1.111211 -0.834551 -0.015278
v 0.978130 -0.834553 0.419271
v 1.222702 -0.411347 -0.125001
v 0.860612 -0.064750 -0.257336
v 0.651404 0.193698 -0.295478
v 0.223366 0.334475 -0.305827
v 0.181674 0.448108 -0.064961
v 0.391337 0.588206 0.366979
v 0.090254 0.618876 0.045798
v -0.123792 0.814511 0.265115
v -0.346502 0.464997 0.767244
v -0.237766 0.020899 1.087534
v -0.242580 -0.592952 1.272242
v -0.402473 0.221935 1.057218
v -0.732805 0.425023 0.680203
v -0.677624 0.157490 1.001046
v -0.654240 -0.071140 1.085931
v -0.558162 -0.607881 1.098162
v -0.704368 -0.353809 0.806736
v -0.896403 -0.091999 0.616282
v -1.063989 -0.310745 0.312553
v -0.697058 -0.641716 0.671163
v -0.375748 -0.834552 0.977328
v -0.612582 -0.834552 0.741213
v -0.186406 -0.834552 1.207238
v 0.033713 -0.834552 1.158078
v 0.723830 -0.834552 0.655168
v 0.872077 -0.834551 -0.503229
v 0.971838 -0.459184 -0.495129
v 0.545958 -0.157398 -0.751859
v -0.006025 -0.157954 -0.998874
v 0.593701 -0.834551 -0.747806
v 0.239286 -0.834552 -1.013516
v -0.229732 -0.834552 -0.968221
v -0.712773 -0.834552 -1.049471
v -0.679564 -0.415710 -1.233507
v -1.215951 -0.580456 -1.001020
v -1.075479 -0.834552 -1.020410
v -0.270326 0.021376 -0.667502
v -0.901785 -0.112062 -0.703466
v -0.790071 0.412734 -0.580061
v -0.543930 0.460614 -0.532117
v -0.278809 0.553053 -0.151818
v -0.173510 0.794571 0.033209
v -0.406811 0.767443 -0.042371
v -0.658038 0.635872 -0.326055
v -0.875684 0.370384 -0.435618
v -0.844144 0.834553 0.132365
v -0.366781 0.726082 0.394584
v -0.891759 0.005882 0.129572
v -1.272869 -0.612219 0.030606
v -1.196590 -0.333756 -0.322213
v -1.217971 -0.834551 -0.677004
v -1.101734 -0.834552 0.196966
v -0.637587 -0.676765 -1.255367
v -0.754595 -0.720448 -1.272242
vt 0.748381 0.799415
vt 0.685114 0.871463
vt 0.547738 0.718164
vt 0.669093 0.700045
vt 0.562262 0.833085
vt 0.582788 0.917163
vt 0.487837 0.970670
vt 0.472060 0.874188
vt 0.442219 0.780457
vt 0.438412 0.714277
vt 0.424811 0.622703
vt 0.476809 0.605114
vt 0.507968 0.574931
vt 0.571411 0.635553
vt 0.686475 0.529264
vt 0.779132 0.606525
vt 0.905553 0.664590
vt 0.756441 0.557649
vt 0.707198 0.452567
vt 0.775633 0.509874
vt 0.818575 0.533571
vt 0.914352 0.573276
vt 0.858500 0.352311
vt 0.874304 0.486399
vt 0.816146 0.422625
vt 0.936406 0.471120
vt 0.974686 0.500816
vt 0.974686 0.588767
vt 0.974686 0.658919
vt 0.894067 0.762048
vt 0.930631 0.720884
vt 0.728519 0.918491
vt 0.632841 0.961529
vt 0.339380 0.919800
vt 0.380570 0.856070
vt 0.324909 0.742074
vt 0.245310 0.642193
vt 0.251222 0.865920
vt 0.166085 0.785731
vt 0.098244 0.685406
vt 0.090150 0.563704
vt 0.137452 0.536683
vt 0.077255 0.544409
vt 0.072096 0.426288
vt 0.229258 0.424033
vt 0.301519 0.551637
vt 0.356853 0.413505
vt 0.381507 0.458565
vt 0.459250 0.506844
vt 0.561755 0.528824
vt 0.521605 0.512567
vt 0.510072 0.466618
vt 0.438479 0.422483
vt 0.365534 0.375906
vt 0.571423 0.368404
vt 0.600817 0.489111
vt 0.667403 0.214832
vt 0.769327 0.320975
vt 0.922413 0.282518
vt 0.858805 0.212276
vt 0.773976 0.134130
vt 0.974686 0.130753
vt 0.911147 0.063248
vt 0.974686 0.051084
vt 0.974686 0.328826
vt 0.034970 0.572669
vt 0.023447 0.480870
vn 0.566905 0.171073 0.805824
vn 0.675182 0.083494 0.732911
vn 0.761136 0.620813 0.187786
vn 0.524131 0.406604 0.748305
vn 0.798481 0.520881 0.301846
vn 0.675182 0.083494 0.732911
vn 0.957496 0.044024 0.285067
vn 0.761136 0.620813 0.187786
vn 0.675182 0.083494 0.732911
vn 0.798481 0.520881 0.301846
vn 0.957496 0.044024 0.285067
vn 0.927842 -0.245544 -0.280745
vn 0.798481 0.520881 0.301846
vn 0.927842 -0.245544 -0.280745
vn 0.951136 0.162315 -0.262669
vn 0.798481 0.520881 0.301846
vn 0.951136 0.162315 -0.262669
vn 0.760345 0.559587 -0.329756
vn 0.798481 0.520881 0.301846
vn 0.511421 0.750541 -0.418493
vn 0.761136 0.620813 0.187786
vn 0.798481 0.520881 0.301846
vn 0.760345 0.559587 -0.329756
vn 0.761136 0.620813 0.187786
vn 0.511421 0.750541 -0.418493
vn 0.246415 0.811954 -0.529160
vn 0.382727 0.844547 -0.374513
vn 0.449816 0.751302 -0.482919
vn 0.761136 0.620813 0.187786
vn 0.382727 0.844547 -0.374513
vn 0.474458 0.792491 0.383206
vn 0.524131 0.406604 0.748305
vn 0.761136 0.620813 0.187786
vn 0.031848 0.757800 0.651710
vn 0.524131 0.406604 0.748305
vn 0.474458 0.792491 0.383206
vn 0.524131 0.406604 0.748305
vn 0.210676 0.277253 0.937415
vn 0.105218 0.138295 0.984786
vn 0.566905 0.171073 0.805824
vn 0.524131 0.406604 0.748305
vn 0.009286 0.598885 0.800781
vn 0.210676 0.277253 0.937415
vn 0.031848 0.757800 0.651710
vn 0.009286 0.598885 0.800781
vn 0.524131 0.406604 0.748305
vn 0.009286 0.598885 0.800781
vn 0.031848 0.757800 0.651710
vn -0.636571 0.577298 0.511376
vn -0.525682 0.467447 0.710741
vn 0.009286 0.598885 0.800781
vn -0.525682 0.467447 0.710741
vn -0.514686 0.067859 0.854689
vn 0.210676 0.277253 0.937415
vn -0.514686 0.067859 0.854689
vn -0.622285 -0.148119 0.768650
vn 0.105218 0.138295 0.984786
vn 0.210676 0.277253 0.937415
vn -0.885454 0.287044 0.365481
vn -0.877462 -0.206918 0.432719
vn -0.943064 0.140695 0.301388
vn -0.622285 -0.148119 0.768650
vn -0.514686 0.067859 0.854689
vn -0.877462 -0.206918 0.432719
vn -0.786350 -0.224475 0.575556
vn -0.760395 -0.322913 0.563495
vn -0.629088 -0.531579 0.567162
vn -0.622285 -0.148119 0.768650
vn -0.786350 -0.224475 0.575556
vn -0.629088 -0.531579 0.567162
vn -0.354694 -0.481195 0.801650
vn 0.105218 0.138295 0.984786
vn -0.622285 -0.148119 0.768650
vn 0.463233 -0.095938 0.881028
vn 0.105218 0.138295 0.984786
vn -0.354694 -0.481195 0.801650
vn 0.463233 -0.095938 0.881028
vn 0.559889 -0.304046 0.770766
vn 0.675182 0.083494 0.732911
vn 0.566905 0.171073 0.805824
vn 0.559889 -0.304046 0.770766
vn 0.567479 -0.521628 0.637081
vn 0.957496 0.044024 0.285067
vn 0.675182 0.083494 0.732911
vn 0.567479 -0.521628 0.637081
vn 0.927842 -0.245544 -0.280745
vn 0.957496 0.044024 0.285067
vn 0.927842 -0.245544 -0.280745
vn 0.707501 -0.136750 -0.693356
vn 0.746689 0.125439 -0.653239
vn 0.951136 0.162315 -0.262669
vn 0.746689 0.125439 -0.653239
vn 0.452012 0.498574 -0.739668
vn 0.760345 0.559587 -0.329756
vn 0.951136 0.162315 -0.262669
vn 0.452012 0.498574 -0.739668
vn 0.511421 0.750541 -0.418493
vn 0.760345 0.559587 -0.329756
vn 0.215080 0.494886 -0.841919
vn 0.246415 0.811954 -0.529160
vn 0.511421 0.750541 -0.418493
vn 0.452012 0.498574 -0.739668
vn 0.583013 -0.001582 -0.812461
vn 0.452012 0.498574 -0.739668
vn 0.746689 0.125439 -0.653239
vn 0.707501 -0.136750 -0.693356
vn 0.289557 0.063616 -0.955044
vn 0.452012 0.498574 -0.739668
vn 0.583013 -0.001582 -0.812461
vn 0.215080 0.494886 -0.841919
vn 0.289557 0.063616 -0.955044
vn 0.271817 -0.113061 -0.955684
vn 0.271817 -0.113061 -0.955684
vn 0.403400 -0.197329 -0.893493
vn 0.062127 0.384941 -0.920848
vn 0.215080 0.494886 -0.841919
vn 0.403400 -0.197329 -0.893493
vn -0.330091 -0.194213 -0.923754
vn 0.062127 0.384941 -0.920848
vn -0.330091 -0.194213 -0.923754
vn -0.803528 0.369785 -0.466478
vn 0.062127 0.384941 -0.920848
vn -0.531115 0.649851 -0.543702
vn -0.007390 0.698897 -0.715184
vn 0.062127 0.384941 -0.920848
vn -0.531115 0.649851 -0.543702
vn 0.062127 0.384941 -0.920848
vn -0.803528 0.369785 -0.466478
vn -0.531115 0.649851 -0.543702
vn -0.212844 0.426787 -0.878948
vn 0.258131 0.475594 -0.840939
vn -0.007390 0.698897 -0.715184
vn 0.322572 0.665888 -0.672712
vn 0.246415 0.811954 -0.529160
vn -0.007390 0.698897 -0.715184
vn -0.007390 0.698897 -0.715184
vn 0.246415 0.811954 -0.529160
vn 0.215080 0.494886 -0.841919
vn 0.382727 0.844547 -0.374513
vn 0.322572 0.665888 -0.672712
vn 0.449816 0.751302 -0.482919
vn 0.214739 0.947881 0.235390
vn 0.474458 0.792491 0.383206
vn 0.449816 0.751302 -0.482919
vn 0.208068 0.878688 -0.429668
vn 0.208068 0.878688 -0.429668
vn 0.449816 0.751302 -0.482919
vn 0.322572 0.665888 -0.672712
vn 0.171260 0.909021 -0.379936
vn -0.133109 0.821600 -0.554307
vn 0.171260 0.909021 -0.379936
vn 0.322572 0.665888 -0.672712
vn 0.258131 0.475594 -0.840939
vn -0.212844 0.426787 -0.878948
vn -0.133109 0.821600 -0.554307
vn 0.258131 0.475594 -0.840939
vn -0.950682 0.263694 -0.163310
vn -0.764258 0.609302 0.211332
vn -0.133109 0.821600 -0.554307
vn -0.212844 0.426787 -0.878948
vn -0.764258 0.609302 0.211332
vn 0.171260 0.909021 -0.379936
vn -0.133109 0.821600 -0.554307
vn 0.214739 0.947881 0.235390
vn 0.208068 0.878688 -0.429668
vn 0.171260 0.909021 -0.379936
vn -0.119441 0.865637 0.486217
vn -0.764258 0.609302 0.211332
vn -0.119441 0.865637 0.486217
vn 0.171260 0.909021 -0.379936
vn -0.764258 0.609302 0.211332
vn -0.636571 0.577298 0.511376
vn 0.031848 0.757800 0.651710
vn -0.119441 0.865637 0.486217
vn -0.119441 0.865637 0.486217
vn 0.031848 0.757800 0.651710
vn 0.214739 0.947881 0.235390
vn -0.764258 0.609302 0.211332
vn -0.950682 0.263694 -0.163310
vn -0.958268 0.274453 0.079983
vn -0.943064 0.140695 0.301388
vn -0.958268 0.274453 0.079983
vn -0.885454 0.287044 0.365481
vn -0.958268 0.274453 0.079983
vn -0.636571 0.577298 0.511376
vn -0.764258 0.609302 0.211332
vn -0.525682 0.467447 0.710741
vn -0.943064 0.140695 0.301388
vn -0.514686 0.067859 0.854689
vn -0.525682 0.467447 0.710741
vn -0.636571 0.577298 0.511376
vn -0.943064 0.140695 0.301388
vn -0.877462 -0.206918 0.432719
vn -0.885454 0.287044 0.365481
vn -0.961942 -0.076794 0.262242
vn -0.961942 -0.076794 0.262242
vn -0.885454 0.287044 0.365481
vn -0.868441 0.490987 -0.068864
vn -0.958268 0.274453 0.079983
vn -0.531115 0.649851 -0.543702
vn -0.868441 0.490987 -0.068864
vn -0.531115 0.649851 -0.543702
vn -0.950682 0.263694 -0.163310
vn -0.212844 0.426787 -0.878948
vn -0.996656 -0.067629 -0.045858
vn -0.868441 0.490987 -0.068864
vn -0.803528 0.369785 -0.466478
vn -0.620974 -0.435668 -0.651602
vn -0.996656 -0.067629 -0.045858
vn -0.803528 0.369785 -0.466478
vn -0.996656 -0.067629 -0.045858
vn -0.799667 -0.194135 0.568194
vn -0.961942 -0.076794 0.262242
vn -0.799667 -0.194135 0.568194
vn -0.760395 -0.322913 0.563495
vn -0.786350 -0.224475 0.575556
vn -0.961942 -0.076794 0.262242
vn 0.271817 -0.113061 -0.955684
vn 0.056648 -0.847094 -0.528416
vn 0.403400 -0.197329 -0.893493
vn 0.056648 -0.847094 -0.528416
vn -0.330091 -0.194213 -0.923754
vn 0.403400 -0.197329 -0.893493
vn -0.620974 -0.435668 -0.651602
vn -0.330091 -0.194213 -0.923754
vn 0.056648 -0.847094 -0.528416
vn -0.620974 -0.435668 -0.651602
vn -0.803528 0.369785 -0.466478
vn -0.330091 -0.194213 -0.923754
vn 0.322572 0.665888 -0.672712
vn -0.007390 0.698897 -0.715184
vn 0.258131 0.475594 -0.840939
vn 0.246415 0.811954 -0.529160
vn 0.322572 0.665888 -0.672712
vn 0.382727 0.844547 -0.374513
vn 0.449816 0.751302 -0.482919
vn 0.474458 0.792491 0.383206
vn 0.761136 0.620813 0.187786
vn -0.958268 0.274453 0.079983
vn -0.950682 0.263694 -0.163310
vn -0.531115 0.649851 -0.543702
vn -0.803528 0.369785 -0.466478
vn -0.868441 0.490987 -0.068864
vn -0.531115 0.649851 -0.543702
vn -0.996656 -0.067629 -0.045858
vn -0.961942 -0.076794 0.262242
vn -0.868441 0.490987 -0.068864
vn -0.877462 -0.206918 0.432719
vn -0.961942 -0.076794 0.262242
vn -0.786350 -0.224475 0.575556
vn -0.943064 0.140695 0.301388
vn -0.877462 -0.206918 0.432719
vn -0.514686 0.067859 0.854689
vn 0.031848 0.757800 0.651710
vn 0.474458 0.792491 0.383206
vn 0.214739 0.947881 0.235390
vn 0.452012 0.498574 -0.739668
vn 0.289557 0.063616 -0.955044
vn 0.215080 0.494886 -0.841919
vn 0.062127 0.384941 -0.920848
vn -0.007390 0.698897 -0.715184
vn 0.215080 0.494886 -0.841919
vn -0.868441 0.490987 -0.068864
vn -0.885454 0.287044 0.365481
vn -0.958268 0.274453 0.079983
vn -0.636571 0.577298 0.511376
vn -0.958268 0.274453 0.079983
vn -0.943064 0.140695 0.301388
vn 0.463233 -0.095938 0.881028
vn 0.566905 0.171073 0.805824
vn 0.105218 0.138295 0.984786
s off
g polySurface1441
f 1/1/1 2/2/2 3/3/3 4/4/4
f 6/5/5 2/2/6 5/6/7
f 3/3/8 2/2/9 6/5/10
f 5/6/11 7/7/12 6/5/13
f 7/7/14 9/8/15 6/5/16
f 9/8/17 10/9/18 6/5/19
f 11/10/20 3/3/21 6/5/22 10/9/23
f 3/3/24 11/10/25 12/11/26 13/12/27
f 15/13/28 3/3/29 13/12/30
f 14/14/31 4/4/32 3/3/33
f 17/15/34 4/4/35 14/14/36
f 4/4/37 18/16/38 19/17/39 1/1/40
f 4/4/41 20/18/42 18/16/43
f 17/15/44 20/18/45 4/4/46
f 20/18/47 17/15/48 21/19/49 22/20/50
f 20/18/51 22/20/52 23/21/53 18/16/54
f 23/21/55 24/22/56 19/17/57 18/16/58
f 27/23/59 25/24/60 26/25/61
f 24/22/62 23/21/63 25/24/64 28/26/65
f 30/27/66 29/28/67 24/22/68 28/26/69
f 29/28/70 31/29/71 19/17/72 24/22/73
f 32/30/74 19/17/75 31/31/76
f 32/30/77 33/32/78 2/2/79 1/1/80
f 33/32/81 8/33/82 5/6/83 2/2/84
f 8/33/85 7/7/86 5/6/87
f 7/7/88 34/34/89 35/35/90 9/8/91
f 35/35/92 36/36/93 10/9/94 9/8/95
f 36/36/96 11/10/97 10/9/98
f 37/37/99 12/11/100 11/10/101 36/36/102
f 38/38/103 36/36/104 35/35/105 34/34/106
f 39/39/107 36/36/108 38/38/109
f 37/37/110 39/39/111 40/40/112
f 40/40/113 61/41/114 42/42/115 37/37/116
f 61/41/117 62/43/118 42/42/119
f 62/43/120 43/44/121 42/42/122
f 46/45/123 45/46/124 42/42/125
f 46/45/126 42/42/127 43/44/128
f 46/45/129 47/47/130 48/48/131 45/46/132
f 49/49/133 12/11/134 45/46/135
f 45/46/136 12/11/137 37/37/138
f 13/12/139 49/49/140 15/13/141
f 16/50/142 14/14/143 15/13/144 50/51/145
f 50/51/146 15/13/147 49/49/148 51/52/149
f 52/53/150 51/52/151 49/49/152 48/48/153
f 47/47/154 52/53/155 48/48/156
f 53/54/157 54/55/158 52/53/159 47/47/160
f 54/55/161 51/52/162 52/53/163
f 16/50/164 50/51/165 51/52/166 55/56/167
f 54/55/168 55/56/169 51/52/170
f 54/55/171 21/19/172 17/15/173 55/56/174
f 55/56/175 17/15/176 16/50/177
f 54/55/178 53/57/179 56/58/180
f 26/25/181 56/58/182 27/23/183
f 56/58/184 21/19/185 54/55/186
f 22/20/187 26/25/188 23/21/189
f 22/20/190 21/19/191 26/25/192
f 25/24/193 27/23/194 57/59/195
f 57/59/196 27/23/197 58/60/198
f 56/58/199 46/61/200 58/60/201
f 46/45/202 53/54/203 47/47/204
f 59/62/205 58/60/206 43/63/207
f 44/64/208 59/62/209 43/63/210
f 59/62/211 60/65/212 57/59/213
f 60/65/214 30/27/215 28/26/216 57/59/217
f 40/40/218 41/66/219 61/41/220
f 41/66/221 62/43/222 61/41/223
f 44/67/224 62/43/225 41/66/226
f 44/67/227 43/44/228 62/43/229
f 49/49/230 45/46/231 48/48/232
f 12/11/233 49/49/234 13/12/235
f 15/13/236 14/14/237 3/3/238
f 56/58/239 53/57/240 46/61/241
f 43/63/242 58/60/243 46/61/244
f 59/62/245 57/59/246 58/60/247
f 25/24/248 57/59/249 28/26/250
f 26/25/251 25/24/252 23/21/253
f 17/15/254 14/14/255 16/50/256
f 36/36/257 39/39/258 37/37/259
f 42/42/260 45/46/261 37/37/262
f 58/60/263 27/23/264 56/58/265
f 21/19/266 56/58/267 26/25/268
f 32/30/269 1/1/270 19/17/271
