# This file uses centimeters as units for non-parametric coordinates.

g guanqia_004_gezi:default1
v -22.420169 1.279056 6.905673
v -16.774526 1.279056 6.905673
v -11.128882 1.279056 6.905673
v -5.483271 1.279056 6.905673
v -22.420169 1.279056 4.082851
v -16.774526 1.279056 4.082851
v -11.128882 1.279056 4.082851
v -5.483271 1.279056 4.082851
v -13.951715 1.279056 6.905673
v -13.951715 1.279056 4.082851
v -19.597358 1.279056 6.905673
v -19.597358 1.279056 4.082851
v -25.243003 1.279056 6.905673
v -25.243003 1.279056 4.082851
v -8.306071 1.279056 6.905673
v -8.306071 1.279056 4.082851
v -16.774526 1.279056 2.671445
v -13.951715 1.279056 2.671445
v -11.128882 1.279056 2.671445
v -25.243003 1.279056 5.494278
v -22.420169 1.279056 5.494278
v -19.597358 1.279056 5.494278
v -16.774526 1.279056 5.494278
v -13.951715 1.279056 5.494278
v -11.128882 1.279056 5.494278
v -8.306071 1.279056 5.494278
v -5.483271 1.279056 5.494278
v -25.243003 1.279056 8.317111
v -22.420169 1.279056 8.317111
v -19.597358 1.279056 8.317111
v -16.774526 1.279056 8.317111
v -8.306071 1.279056 8.317111
v -5.483271 1.279056 8.317111
v -23.831597 1.279056 8.317111
v -23.831597 1.279056 6.905673
v -23.831597 1.279056 5.494278
v -23.831597 1.279056 4.082851
v -18.185953 1.279056 8.317111
v -18.185953 1.279056 6.905673
v -18.185953 1.279056 5.494278
v -18.185953 1.279056 4.082851
v -21.008764 1.279056 8.317111
v -21.008764 1.279056 6.905673
v -21.008764 1.279056 5.494278
v -21.008764 1.279056 4.082851
v -15.363120 1.279056 8.317111
v -15.363120 1.279056 6.905673
v -15.363120 1.279056 5.494278
v -15.363120 1.279056 4.082851
v -15.363120 1.279056 2.671445
v -12.540309 1.279056 6.905673
v -12.540309 1.279056 5.494278
v -12.540309 1.279056 4.082851
v -12.540309 1.279056 2.671445
v -9.717477 1.279056 6.905673
v -9.717477 1.279056 5.494278
v -9.717477 1.279056 4.082851
v -6.894665 1.279056 8.317111
v -6.894665 1.279056 6.905673
v -6.894665 1.279056 5.494278
v -6.894665 1.279056 4.082851
vt 0.148304 0.400393
vt 0.218322 0.400393
vt 0.218322 0.470413
vt 0.148304 0.470413
vt 0.428377 0.400393
vt 0.498395 0.400393
vt 0.498394 0.470413
vt 0.428377 0.470413
vt 0.778465 0.470413
vt 0.708447 0.470413
vt 0.148304 0.540430
vt 0.218322 0.540430
vt 0.218322 0.610449
vt 0.148304 0.610449
vt 0.428376 0.540430
vt 0.498394 0.540430
vt 0.498394 0.610449
vt 0.428376 0.610449
vt 0.708448 0.540430
vt 0.778465 0.540430
vt 0.778465 0.610449
vt 0.708448 0.610449
vt 0.568411 0.470413
vt 0.638429 0.470413
vt 0.568411 0.610449
vt 0.568411 0.540430
vt 0.638429 0.540430
vt 0.638429 0.610449
vt 0.288340 0.470413
vt 0.288340 0.400393
vt 0.358358 0.400393
vt 0.358358 0.470413
vt 0.288340 0.610449
vt 0.288340 0.540430
vt 0.358358 0.540430
vt 0.358357 0.610449
vt 0.008267 0.470413
vt 0.008267 0.400393
vt 0.078285 0.400393
vt 0.078285 0.470413
vt 0.008267 0.610449
vt 0.008267 0.540430
vt 0.078285 0.540430
vt 0.078285 0.610449
vt 0.848483 0.470413
vt 0.848483 0.400393
vt 0.918501 0.400393
vt 0.918501 0.470413
vt 0.848483 0.610449
vt 0.848483 0.540430
vt 0.918501 0.540430
vt 0.918501 0.610449
vt 0.498394 0.680467
vt 0.428376 0.680467
vt 0.638429 0.680467
vt 0.568411 0.680467
vt 0.708448 0.680467
vt 0.988518 0.400393
vt 0.988518 0.470413
vt 0.988518 0.540430
vt 0.988518 0.610449
vn 0.000000 1.000000 0.000000
vn 0.000000 1.000000 0.000000
vn 0.000000 1.000000 0.000000
vn 0.000000 1.000000 0.000000
vn 0.000000 1.000000 0.000000
vn 0.000000 1.000000 0.000000
vn 0.000000 1.000000 0.000000
vn 0.000000 1.000000 0.000000
vn 0.000000 1.000000 0.000000
vn 0.000000 1.000000 0.000000
vn 0.000000 1.000000 0.000000
vn 0.000000 1.000000 0.000000
vn 0.000000 1.000000 0.000000
vn 0.000000 1.000000 0.000000
vn 0.000000 1.000000 0.000000
vn 0.000000 1.000000 0.000000
vn 0.000000 1.000000 0.000000
vn 0.000000 1.000000 0.000000
vn 0.000000 1.000000 0.000000
vn 0.000000 1.000000 0.000000
vn 0.000000 1.000000 0.000000
vn 0.000000 1.000000 0.000000
vn 0.000000 1.000000 0.000000
vn 0.000000 1.000000 0.000000
vn 0.000000 1.000000 0.000000
vn 0.000000 1.000000 0.000000
vn 0.000000 1.000000 0.000000
vn 0.000000 1.000000 0.000000
vn 0.000000 1.000000 0.000000
vn 0.000000 1.000000 0.000000
vn 0.000000 1.000000 0.000000
vn 0.000000 1.000000 0.000000
vn 0.000000 1.000000 0.000000
vn 0.000000 1.000000 0.000000
vn 0.000000 1.000000 0.000000
vn 0.000000 1.000000 0.000000
vn 0.000000 1.000000 0.000000
vn 0.000000 1.000000 0.000000
vn 0.000000 1.000000 0.000000
vn 0.000000 1.000000 0.000000
vn 0.000000 1.000000 0.000000
vn 0.000000 1.000000 0.000000
vn 0.000000 1.000000 0.000000
vn 0.000000 1.000000 0.000000
vn 0.000000 1.000000 0.000000
vn 0.000000 1.000000 0.000000
vn 0.000000 1.000000 0.000000
vn 0.000000 1.000000 0.000000
vn 0.000000 1.000000 0.000000
vn 0.000000 1.000000 0.000000
vn 0.000000 1.000000 0.000000
vn 0.000000 1.000000 0.000000
vn 0.000000 1.000000 0.000000
vn 0.000000 1.000000 0.000000
vn 0.000000 1.000000 0.000000
vn 0.000000 1.000000 0.000000
vn 0.000000 1.000000 0.000000
vn 0.000000 1.000000 0.000000
vn 0.000000 1.000000 0.000000
vn 0.000000 1.000000 0.000000
vn 0.000000 1.000000 0.000000
vn 0.000000 1.000000 0.000000
vn 0.000000 1.000000 0.000000
vn 0.000000 1.000000 0.000000
vn 0.000000 1.000000 0.000000
vn 0.000000 1.000000 0.000000
vn 0.000000 1.000000 0.000000
vn 0.000000 1.000000 0.000000
vn 0.000000 1.000000 0.000000
vn 0.000000 1.000000 0.000000
vn 0.000000 1.000000 0.000000
vn 0.000000 1.000000 0.000000
vn 0.000000 1.000000 0.000000
vn 0.000000 1.000000 0.000000
vn 0.000000 1.000000 0.000000
vn 0.000000 1.000000 0.000000
vn 0.000000 1.000000 0.000000
vn 0.000000 1.000000 0.000000
vn 0.000000 1.000000 0.000000
vn 0.000000 1.000000 0.000000
vn 0.000000 1.000000 0.000000
vn 0.000000 1.000000 0.000000
vn 0.000000 1.000000 0.000000
vn 0.000000 1.000000 0.000000
vn 0.000000 1.000000 0.000000
vn 0.000000 1.000000 0.000000
vn 0.000000 1.000000 0.000000
vn 0.000000 1.000000 0.000000
vn 0.000000 1.000000 0.000000
vn 0.000000 1.000000 0.000000
vn 0.000000 1.000000 0.000000
vn 0.000000 1.000000 0.000000
vn 0.000000 1.000000 0.000000
vn 0.000000 1.000000 0.000000
vn 0.000000 1.000000 0.000000
vn 0.000000 1.000000 0.000000
vn 0.000000 1.000000 0.000000
vn 0.000000 1.000000 0.000000
vn 0.000000 1.000000 0.000000
vn 0.000000 1.000000 0.000000
vn 0.000000 1.000000 0.000000
vn 0.000000 1.000000 0.000000
vn 0.000000 1.000000 0.000000
vn 0.000000 1.000000 0.000000
vn 0.000000 1.000000 0.000000
vn 0.000000 1.000000 0.000000
vn 0.000000 1.000000 0.000000
vn 0.000000 1.000000 0.000000
vn 0.000000 1.000000 0.000000
vn 0.000000 1.000000 0.000000
vn 0.000000 1.000000 0.000000
vn 0.000000 1.000000 0.000000
vn 0.000000 1.000000 0.000000
vn 0.000000 1.000000 0.000000
vn 0.000000 1.000000 0.000000
vn 0.000000 1.000000 0.000000
vn 0.000000 1.000000 0.000000
vn 0.000000 1.000000 0.000000
vn 0.000000 1.000000 0.000000
vn 0.000000 1.000000 0.000000
vn 0.000000 1.000000 0.000000
vn 0.000000 1.000000 0.000000
vn 0.000000 1.000000 0.000000
vn 0.000000 1.000000 0.000000
vn 0.000000 1.000000 0.000000
vn 0.000000 1.000000 0.000000
vn 0.000000 1.000000 0.000000
vn 0.000000 1.000000 0.000000
vn 0.000000 1.000000 0.000000
vn 0.000000 1.000000 0.000000
vn 0.000000 1.000000 0.000000
vn 0.000000 1.000000 0.000000
vn 0.000000 1.000000 0.000000
vn 0.000000 1.000000 0.000000
vn 0.000000 1.000000 0.000000
vn 0.000000 1.000000 0.000000
vn 0.000000 1.000000 0.000000
vn 0.000000 1.000000 0.000000
vn 0.000000 1.000000 0.000000
vn 0.000000 1.000000 0.000000
vn 0.000000 1.000000 0.000000
vn 0.000000 1.000000 0.000000
vn 0.000000 1.000000 0.000000
vn 0.000000 1.000000 0.000000
vn 0.000000 1.000000 0.000000
vn 0.000000 1.000000 0.000000
vn 0.000000 1.000000 0.000000
vn 0.000000 1.000000 0.000000
vn 0.000000 1.000000 0.000000
vn 0.000000 1.000000 0.000000
vn 0.000000 1.000000 0.000000
vn 0.000000 1.000000 0.000000
s off
g guanqia_004_gezi:pCube201 guanqia_004_gezi:polySurface927 guanqia_004_gezi:polySurface929 guanqia_004_gezi:polySurface930 guanqia_004_gezi:polySurface1
f 29/1/1 42/2/2 43/3/3 1/4/4
f 31/5/5 46/6/6 47/7/7 2/8/8
f 21/11/9 44/12/10 45/13/11 5/14/12
f 23/15/13 48/16/14 49/17/15 6/18/16
f 25/19/17 56/20/18 57/21/19 7/22/20
f 10/25/21 24/26/22 52/27/23 53/28/24
f 11/29/25 30/30/26 38/31/27 39/32/28
f 12/33/29 22/34/30 40/35/31 41/36/32
f 13/37/33 28/38/34 34/39/35 35/40/36
f 14/41/37 20/42/38 36/43/39 37/44/40
f 15/45/41 32/46/42 58/47/43 59/48/44
f 16/49/45 26/50/46 60/51/47 61/52/48
f 6/18/49 49/17/50 50/53/51 17/54/52
f 54/55/53 18/56/54 10/25/55 53/28/56
f 36/43/57 20/42/58 13/37/59 35/40/60
f 40/35/61 22/34/62 11/29/63 39/32/64
f 2/8/65 47/7/66 48/16/67 23/15/68
f 52/27/69 24/26/70 9/23/71 51/24/72
f 60/51/73 26/50/74 15/45/75 59/48/76
f 35/40/77 34/39/78 29/1/79 1/4/80
f 21/11/81 36/43/82 35/40/83 1/4/84
f 37/44/85 36/43/86 21/11/87 5/14/88
f 39/32/89 38/31/90 31/5/91 2/8/92
f 23/15/93 40/35/94 39/32/95 2/8/96
f 41/36/97 40/35/98 23/15/99 6/18/100
f 43/3/101 42/2/102 30/30/103 11/29/104
f 44/12/105 43/3/106 11/29/107 22/34/108
f 45/13/109 44/12/110 22/34/111 12/33/112
f 48/16/113 47/7/114 9/23/115 24/26/116
f 50/53/117 49/17/118 10/25/119 18/56/120
f 25/19/121 52/27/122 51/24/123 3/10/124
f 53/28/125 52/27/126 25/19/127 7/22/128
f 19/57/129 54/55/130 53/28/131 7/22/132
f 56/20/133 55/9/134 15/45/135 26/50/136
f 57/21/137 56/20/138 26/50/139 16/49/140
f 59/48/141 58/47/142 33/58/143 4/59/144
f 27/60/145 60/51/146 59/48/147 4/59/148
f 61/52/149 60/51/150 27/60/151 8/61/152
