# This file uses centimeters as units for non-parametric coordinates.

g default
v -0.395657 -0.177766 4.382382
v 0.395657 -0.177766 4.382382
v -0.395657 0.177766 4.382382
v 0.395657 0.177766 4.382382
v -0.333368 0.177766 -4.382382
v 0.395657 0.177766 -4.382382
v -0.395657 -0.177766 -4.382382
v 0.395657 -0.177766 -4.382382
v 0.395657 0.177766 4.186625
v -0.395657 0.177766 4.186625
v -0.395657 -0.177766 4.186625
v 0.395657 -0.177766 4.186625
v 0.468165 0.080312 4.382382
v -0.395657 0.091893 4.382382
v 0.395657 -0.031797 4.296701
v -0.429903 -0.115111 4.296701
v 0.471184 0.068495 4.186625
v 0.412637 -0.024137 4.186625
v -0.195295 0.177766 4.503445
v -0.179610 0.088996 4.503445
v 0.395657 0.177766 3.656207
v 0.467451 0.073896 3.763047
v 0.412144 -0.018271 3.937623
v 0.067092 -0.177766 4.448326
v 0.395657 0.177766 -4.176875
v -0.395657 0.177766 -4.163315
v -0.395657 -0.177766 -4.163314
v 0.395657 -0.177766 -4.163314
v 0.396079 0.172754 -4.169681
v -0.395657 0.026366 -4.439758
v 0.395657 0.109108 -4.439758
v 0.397504 0.175093 -4.172825
v -0.326168 -0.036508 -4.393607
v 0.208934 0.177766 -4.382382
v 0.174097 0.085941 -4.439758
v 0.171940 0.030361 -4.427299
v 0.040722 0.177766 -4.382382
v 0.073528 0.075425 -4.496722
v 0.083170 -0.049418 -4.479319
v 0.001216 0.067864 -4.466517
v 0.000630 -0.041311 -4.442026
v -0.449185 0.090439 4.186625
v -0.410210 0.028419 -4.163315
vt 0.380334 0.938874
vt 0.423716 0.937951
vt 0.456214 0.955869
vt 0.376071 0.950167
vt 0.570351 0.915704
vt 0.551167 0.946575
vt 0.493764 0.935184
vt 0.493619 0.916143
vt 0.579414 0.085193
vt 0.571646 0.051313
vt 0.582919 0.049824
vt 0.587241 0.082125
vt 0.378231 0.917375
vt 0.455153 0.915983
vt 0.454236 0.936690
vt 0.468803 0.927488
vt 0.606863 0.915717
vt 0.606715 0.935007
vt 0.599820 0.926629
vt 0.493217 0.864399
vt 0.489745 0.104180
vt 0.566303 0.108220
vt 0.580297 0.915452
vt 0.580820 0.107918
vt 0.600806 0.106487
vt 0.378231 0.105149
vt 0.455077 0.105346
vt 0.481044 0.874861
vt 0.489431 0.104570
vt 0.399558 0.986287
vt 0.401073 0.977757
vt 0.463284 0.969764
vt 0.457448 0.980145
vt 0.481943 0.935356
vt 0.480746 0.916269
vt 0.578943 0.934778
vt 0.470092 0.916409
vt 0.470672 0.891855
vt 0.570540 0.934745
vt 0.378286 0.973222
vt 0.376961 0.981583
vt 0.525818 0.084996
vt 0.563456 0.086481
vt 0.378231 0.083873
vt 0.455315 0.084056
vt 0.483547 0.078629
vt 0.489163 0.104871
vt 0.557341 0.049393
vt 0.490231 0.084280
vt 0.601945 0.085933
vt 0.509027 0.084609
vt 0.566886 0.033828
vt 0.556134 0.031518
vt 0.554600 0.013203
vt 0.563312 0.012243
vt 0.572297 0.032840
vt 0.592876 0.011009
vt 0.570278 0.044117
vt 0.580355 0.041624
vn -0.082170 0.796823 0.598599
vn -0.061526 0.778344 0.624816
vn 0.086309 -0.280679 0.955913
vn -0.063773 0.290204 0.954838
vn 0.000000 1.000000 0.000000
vn 0.000000 1.000000 0.000000
vn 0.000000 1.000000 0.000000
vn 0.000000 1.000000 0.000000
vn -0.071289 0.134543 -0.988340
vn -0.116315 0.223912 -0.967644
vn -0.083466 -0.426835 -0.900469
vn -0.102671 -0.264311 -0.958957
vn 0.000000 -1.000000 0.000000
vn 0.000000 -1.000000 0.000000
vn 0.000000 -1.000000 0.000000
vn 0.000000 -1.000000 0.000000
vn 1.000000 0.000000 0.000000
vn 0.994922 -0.100651 0.000065
vn 0.969566 -0.207260 0.130326
vn -0.989685 -0.143251 -0.001929
vn -0.877480 -0.479613 0.000000
vn -0.968819 -0.185794 -0.163922
vn 0.000000 1.000000 0.000000
vn 0.000000 1.000000 0.000000
vn 0.000000 1.000000 0.000000
vn 0.000000 1.000000 0.000000
vn -0.999722 0.023560 0.000155
vn -0.999834 -0.017620 -0.004630
vn -0.990424 -0.138040 -0.002285
vn -0.989685 -0.143251 -0.001929
vn 0.000000 -1.000000 0.000000
vn 0.000000 -1.000000 0.000000
vn 0.000000 -1.000000 0.000000
vn 0.000000 -1.000000 0.000000
vn 0.822623 0.568587 0.000000
vn 0.999908 -0.012807 -0.004413
vn 0.996112 0.088021 -0.003696
vn 0.822623 0.568587 0.000000
vn -0.005418 0.055193 0.998461
vn 0.019608 -0.475014 0.879760
vn 0.176660 -0.285567 0.941936
vn 0.191655 0.090765 0.977256
vn 0.866989 0.498296 -0.005626
vn 0.999774 0.021261 0.000448
vn 0.819884 0.572520 -0.003252
vn 0.812986 0.582174 -0.011303
vn 0.019608 -0.475014 0.879760
vn 0.086309 -0.280679 0.955913
vn 0.176660 -0.285567 0.941936
vn -0.964954 0.171253 0.198835
vn -0.999722 0.023560 0.000155
vn -0.968819 -0.185794 -0.163922
vn 0.969566 -0.207260 0.130326
vn 0.930468 -0.365887 0.018856
vn 0.866989 0.498296 -0.005626
vn 0.992809 -0.119635 -0.004179
vn 0.991252 -0.131915 -0.004277
vn 0.994922 -0.100651 0.000065
vn 0.969566 -0.207260 0.130326
vn 0.994922 -0.100651 0.000065
vn 0.930468 -0.365887 0.018856
vn 0.866989 0.498296 -0.005626
vn 0.930468 -0.365887 0.018856
vn 0.999774 0.021261 0.000448
vn 0.000000 1.000000 0.000000
vn 0.000000 1.000000 0.000000
vn 0.000000 1.000000 0.000000
vn -0.489319 -0.171878 0.855000
vn 0.019608 -0.475014 0.879760
vn -0.005418 0.055193 0.998461
vn -0.502387 -0.045120 0.863465
vn -0.063773 0.290204 0.954838
vn 0.019608 -0.475014 0.879760
vn -0.489319 -0.171878 0.855000
vn 0.000000 1.000000 0.000000
vn 0.000000 1.000000 0.000000
vn 0.000000 1.000000 0.000000
vn 0.819884 0.572520 -0.003252
vn 0.999774 0.021261 0.000448
vn 0.999908 -0.012807 -0.004413
vn 0.822623 0.568587 0.000000
vn 0.991252 -0.131915 -0.004277
vn 0.999908 -0.012807 -0.004413
vn 0.999774 0.021261 0.000448
vn 0.930468 -0.365887 0.018856
vn 0.994922 -0.100651 0.000065
vn 0.991252 -0.131915 -0.004277
vn 0.930468 -0.365887 0.018856
vn 0.000000 -1.000000 0.000000
vn 0.000000 -1.000000 0.000000
vn 0.000000 -1.000000 0.000000
vn 0.086309 -0.280679 0.955913
vn -0.061526 0.778344 0.624816
vn 0.170551 0.498801 0.849771
vn -0.063773 0.290204 0.954838
vn 0.086309 -0.280679 0.955913
vn 0.019608 -0.475014 0.879760
vn 0.000000 1.000000 0.000000
vn 0.000000 1.000000 0.000000
vn 0.000000 1.000000 0.000000
vn -0.987875 0.075609 -0.135598
vn -0.990424 -0.138040 -0.002285
vn -0.999834 -0.017620 -0.004630
vn 0.000000 -1.000000 0.000000
vn 0.000000 -1.000000 0.000000
vn 0.000000 -1.000000 0.000000
vn 0.000000 -1.000000 0.000000
vn 0.999999 -0.000727 -0.000771
vn 0.991666 -0.128738 -0.004995
vn 0.992809 -0.119635 -0.004179
vn 0.999999 -0.000738 -0.000766
vn -0.056650 0.492424 -0.868510
vn -0.051727 0.546503 -0.835858
vn -0.116315 0.223912 -0.967644
vn -0.071289 0.134543 -0.988340
vn 0.999987 0.004633 -0.002025
vn 0.991666 -0.128738 -0.004995
vn 0.999999 -0.000727 -0.000771
vn 0.999987 0.004633 -0.002025
vn 0.996112 0.088021 -0.003696
vn 0.991666 -0.128738 -0.004995
vn 0.822623 0.568587 0.000000
vn 0.996112 0.088021 -0.003696
vn 0.999987 0.004633 -0.002025
vn 0.991666 -0.128738 -0.004995
vn 0.996112 0.088021 -0.003696
vn 0.999908 -0.012807 -0.004413
vn 0.991252 -0.131915 -0.004277
vn 0.992809 -0.119635 -0.004179
vn -0.102671 -0.264311 -0.958957
vn -0.083466 -0.426835 -0.900469
vn -0.072184 -0.374610 -0.924368
vn -0.897304 0.441414 0.000000
vn -0.990424 -0.138040 -0.002285
vn -0.347289 -0.749023 -0.564230
vn -0.347289 -0.749023 -0.564230
vn -0.990424 -0.138040 -0.002285
vn -0.987875 0.075609 -0.135598
vn 0.000000 1.000000 0.000000
vn 0.000000 1.000000 0.000000
vn 0.000000 1.000000 0.000000
vn 0.214437 0.250272 -0.944130
vn -0.006165 0.625643 -0.780086
vn -0.033257 0.586094 -0.809560
vn -0.011264 0.234114 -0.972144
vn 0.213369 -0.117438 -0.969888
vn 0.214437 0.250272 -0.944130
vn -0.011264 0.234114 -0.972144
vn 0.012807 -0.377102 -0.926083
vn 0.213369 -0.117438 -0.969888
vn -0.011264 0.234114 -0.972144
vn 0.000000 1.000000 0.000000
vn 0.000000 1.000000 0.000000
vn 0.000000 1.000000 0.000000
vn 0.067281 0.212413 -0.974861
vn -0.051727 0.546503 -0.835858
vn -0.006165 0.625643 -0.780086
vn 0.016485 -0.381742 -0.924122
vn 0.067281 0.212413 -0.974861
vn 0.214437 0.250272 -0.944130
vn 0.213369 -0.117438 -0.969888
vn 0.012807 -0.377102 -0.926083
vn 0.016485 -0.381742 -0.924122
vn 0.213369 -0.117438 -0.969888
vn 0.000000 1.000000 0.000000
vn 0.000000 1.000000 0.000000
vn 0.000000 1.000000 0.000000
vn -0.116315 0.223912 -0.967644
vn -0.051727 0.546503 -0.835858
vn 0.067281 0.212413 -0.974861
vn -0.083466 -0.426835 -0.900469
vn -0.116315 0.223912 -0.967644
vn 0.067281 0.212413 -0.974861
vn 0.016485 -0.381742 -0.924122
vn -0.072184 -0.374610 -0.924368
vn -0.083466 -0.426835 -0.900469
vn 0.016485 -0.381742 -0.924122
vn 0.012807 -0.377102 -0.926083
vn -0.960937 0.276765 -0.001017
vn -0.999722 0.023560 0.000155
vn -0.964954 0.171253 0.198835
vn -0.947499 0.292824 0.128453
vn -0.961015 0.276357 -0.008739
vn -0.999834 -0.017620 -0.004630
vn -0.999722 0.023560 0.000155
vn -0.960937 0.276765 -0.001017
vn -0.987875 0.075609 -0.135598
vn -0.999834 -0.017620 -0.004630
vn -0.961015 0.276357 -0.008739
vn -0.950949 0.271322 -0.148595
vn -0.968819 -0.185794 -0.163922
vn -0.999722 0.023560 0.000155
vn -0.989685 -0.143251 -0.001929
vn 0.067281 0.212413 -0.974861
vn -0.006165 0.625643 -0.780086
vn 0.214437 0.250272 -0.944130
s off
g guanqia_002_muban_001:pCube1
f 1/1/1 24/2/2 15/3/3 16/4/4
f 10/5/5 19/6/6 4/7/7 9/8/8
f 30/9/9 40/10/10 41/11/11 33/12/12
f 11/13/13 12/14/14 24/2/15 1/1/16
f 2/15/17 12/14/18 15/16/19
f 11/17/20 1/18/21 16/19/22
f 10/5/23 21/20/24 25/21/25 26/22/26
f 42/23/27 43/24/28 27/25/29 11/17/30
f 27/26/31 28/27/32 12/14/33 11/13/34
f 21/20/35 22/28/36 32/29/37 25/21/38
f 19/30/39 20/31/40 13/32/41 4/33/42
f 13/34/43 17/35/44 9/8/45 4/7/46
f 20/31/47 15/3/48 13/32/49
f 14/36/50 42/23/51 16/19/52
f 15/16/53 18/37/54 13/34/55
f 28/27/56 23/38/57 12/14/58
f 15/16/59 12/14/60 18/37/61
f 13/34/62 18/37/63 17/35/64
f 3/39/65 19/6/66 10/5/67
f 14/40/68 20/31/69 19/30/70 3/41/71
f 16/4/72 20/31/73 14/40/74
f 10/5/75 9/8/76 21/20/77
f 9/8/78 17/35/79 22/28/80 21/20/81
f 23/38/82 22/28/83 17/35/84 18/37/85
f 12/14/86 23/38/87 18/37/88
f 24/2/89 12/14/90 2/15/91
f 15/3/92 24/2/93 2/15/94
f 16/4/95 15/3/96 20/31/97
f 26/22/98 37/42/99 5/43/100
f 30/9/101 27/25/102 43/24/103
f 7/44/104 8/45/105 28/27/106 27/26/107
f 31/46/108 29/47/109 28/27/110 8/45/111
f 5/43/112 37/48/113 40/10/114 30/9/115
f 6/49/116 29/47/117 31/46/118
f 6/49/119 32/29/120 29/47/121
f 25/21/122 32/29/123 6/49/124
f 29/47/125 32/29/126 22/28/127 23/38/128 28/27/129
f 33/12/130 41/11/131 7/50/132
f 7/50/133 27/25/134 33/12/135
f 33/12/136 27/25/137 30/9/138
f 34/51/139 25/21/140 6/49/141
f 35/52/142 34/53/143 6/54/144 31/55/145
f 36/56/146 35/52/147 31/55/148
f 8/57/149 36/56/150 31/55/151
f 37/42/152 25/21/153 34/51/154
f 38/58/155 37/48/156 34/53/157
f 39/59/158 38/58/159 35/52/160 36/56/161
f 8/57/162 39/59/163 36/56/164
f 26/22/165 25/21/166 37/42/167
f 40/10/168 37/48/169 38/58/170
f 41/11/171 40/10/172 38/58/173 39/59/174
f 7/50/175 41/11/176 39/59/177 8/57/178
f 10/5/179 42/23/180 14/36/181 3/39/182
f 26/22/183 43/24/184 42/23/185 10/5/186
f 30/9/187 43/24/188 26/22/189 5/43/190
f 16/19/191 42/23/192 11/17/193
f 38/58/194 34/53/195 35/52/196
