# This file uses centimeters as units for non-parametric coordinates.

g default
v -0.344930 -0.237090 -0.552030
v -0.344930 -0.237090 0.552030
v -0.344930 0.237090 -0.552030
v -0.344930 0.237090 0.552030
v 0.344930 0.237090 -0.552030
v 0.344930 0.237090 0.552030
v 0.344930 -0.237090 -0.552030
v 0.344930 -0.237090 0.552030
vt 0.015520 0.678459
vt 0.641642 0.678459
vt 0.641643 0.947375
vt 0.015519 0.947375
vt 0.658028 0.762143
vt 0.658028 0.237269
vt 0.985989 0.237269
vt 0.985989 0.762143
vt 0.015543 0.018313
vt 0.641619 0.018313
vt 0.641635 0.287229
vt 0.015527 0.287229
vt 0.658029 0.011842
vt 0.985987 0.011842
vt 0.985989 0.987570
vt 0.658027 0.987570
vn -1.000000 0.000000 0.000000
vn -1.000000 0.000000 0.000000
vn -1.000000 0.000000 0.000000
vn -1.000000 0.000000 0.000000
vn 0.000000 1.000000 0.000000
vn 0.000000 1.000000 0.000000
vn 0.000000 1.000000 0.000000
vn 0.000000 1.000000 0.000000
vn 1.000000 0.000000 0.000000
vn 1.000000 0.000000 0.000000
vn 1.000000 0.000000 0.000000
vn 1.000000 0.000000 0.000000
vn 0.000000 -1.000000 0.000000
vn 0.000000 -1.000000 0.000000
vn 0.000000 -1.000000 0.000000
vn 0.000000 -1.000000 0.000000
vn 0.000000 0.000000 1.000000
vn 0.000000 0.000000 1.000000
vn 0.000000 0.000000 1.000000
vn 0.000000 0.000000 1.000000
vn -0.000000 0.000000 -1.000000
vn -0.000000 0.000000 -1.000000
vn -0.000000 0.000000 -1.000000
vn -0.000000 0.000000 -1.000000
s off
g pCube34
f 1/1/1 2/2/2 4/3/3 3/4/4
f 3/5/5 4/6/6 6/7/7 5/8/8
f 5/9/9 6/10/10 8/11/11 7/12/12
f 7/12/13 8/11/14 2/2/15 1/1/16
f 2/13/17 8/14/18 6/7/19 4/6/20
f 7/15/21 1/16/22 3/5/23 5/8/24
