# This file uses centimeters as units for non-parametric coordinates.

g default
v 0.000000 -0.449532 0.000000
v 0.000000 0.274058 0.072064
v -0.036032 0.274058 0.062409
v -0.062409 0.274058 0.036032
v -0.072064 0.274058 0.000000
v -0.062409 0.274058 -0.036032
v -0.036032 0.274058 -0.062409
v 0.000000 0.274058 -0.072064
v 0.036032 0.274058 -0.062409
v 0.062409 0.274058 -0.036032
v 0.072064 0.274058 0.000000
v 0.062409 0.274058 0.036032
v 0.036032 0.274058 0.062409
v 0.035790 0.449532 0.061990
v 0.061990 0.449532 0.035790
v 0.071580 0.449532 0.000000
v 0.061990 0.449532 -0.035790
v 0.035790 0.449532 -0.061990
v 0.000000 0.449532 -0.071580
v -0.035790 0.449532 -0.061990
v -0.061990 0.449532 -0.035790
v -0.071580 0.449532 0.000000
v -0.061990 0.449532 0.035790
v -0.035790 0.449532 0.061990
v 0.000000 0.449532 0.071580
v 0.033013 0.282038 0.057180
v 0.057180 0.282038 0.033013
v 0.066026 0.282038 0.000000
v 0.057180 0.282038 -0.033013
v 0.033013 0.282038 -0.057180
v 0.000000 0.282038 -0.066026
v -0.033013 0.282038 -0.057180
v -0.057180 0.282038 -0.033013
v -0.066026 0.282038 0.000000
v -0.057180 0.282038 0.033013
v -0.033013 0.282038 0.057180
v 0.000000 0.282038 0.066026
v 0.063590 -0.406624 0.110141
v 0.110141 -0.406624 0.063590
v 0.127180 -0.406624 0.000000
v 0.110141 -0.406624 -0.063590
v 0.063590 -0.406624 -0.110141
v 0.000000 -0.406624 -0.127180
v -0.063590 -0.406624 -0.110141
v -0.110141 -0.406624 -0.063590
v -0.127180 -0.406624 0.000000
v -0.110141 -0.406624 0.063590
v -0.063590 -0.406624 0.110141
v 0.000000 -0.406624 0.127180
v 0.000000 -0.406624 0.000000
v 0.111065 -0.382250 0.192369
v 0.083532 -0.449532 0.144682
v 0.192370 -0.382250 0.111064
v 0.144683 -0.449532 0.083532
v 0.222129 -0.382250 0.000000
v 0.167065 -0.449532 0.000000
v 0.192370 -0.382250 -0.111064
v 0.144683 -0.449532 -0.083532
v 0.111065 -0.382250 -0.192369
v 0.083532 -0.449532 -0.144682
v 0.000000 -0.382250 -0.222129
v 0.000000 -0.449532 -0.167065
v -0.111064 -0.382250 -0.192369
v -0.083532 -0.449532 -0.144682
v -0.192369 -0.382250 -0.111064
v -0.144682 -0.449532 -0.083532
v -0.222129 -0.382250 0.000000
v -0.167065 -0.449532 0.000000
v -0.192369 -0.382250 0.111064
v -0.144682 -0.449532 0.083532
v -0.111064 -0.382250 0.192369
v -0.083532 -0.449532 0.144682
v 0.000000 -0.382250 0.222129
v 0.000000 -0.449532 0.167065
v 0.054666 0.437106 0.094684
v 0.049499 0.449532 0.085735
v 0.094684 0.437106 0.054666
v 0.085735 0.449532 0.049499
v 0.109332 0.437106 0.000000
v 0.098998 0.449532 0.000000
v 0.094684 0.437106 -0.054666
v 0.085735 0.449532 -0.049499
v 0.054666 0.437106 -0.094684
v 0.049499 0.449532 -0.085735
v 0.000000 0.437106 -0.109332
v 0.000000 0.449532 -0.098998
v -0.054666 0.437106 -0.094684
v -0.049499 0.449532 -0.085735
v -0.094684 0.437106 -0.054666
v -0.085735 0.449532 -0.049499
v -0.109331 0.437106 0.000000
v -0.098998 0.449532 0.000000
v -0.094684 0.437106 0.054666
v -0.085735 0.449532 0.049499
v -0.054666 0.437106 0.094684
v -0.049499 0.449532 0.085735
v 0.000000 0.437106 0.109332
v 0.000000 0.449532 0.098998
vt 0.374466 0.568710
vt 0.396736 0.568372
vt 0.758496 0.538896
vt 0.736382 0.539288
vt 0.419043 0.569454
vt 0.780555 0.537909
vt 0.441638 0.571941
vt 0.802515 0.536327
vt 0.464721 0.575768
vt 0.824329 0.534147
vt 0.488334 0.580877
vt 0.845949 0.531361
vt 0.511990 0.587526
vt 0.605153 0.529124
vt 0.532902 0.597846
vt 0.626610 0.532340
vt 0.282060 0.583361
vt 0.648301 0.534926
vt 0.305603 0.577602
vt 0.670172 0.536907
vt 0.329040 0.573393
vt 0.692174 0.538293
vt 0.351967 0.570424
vt 0.714260 0.539087
vt 0.975903 0.233283
vt 0.936907 0.185716
vt 0.985891 0.293977
vt 0.964194 0.351533
vt 0.916626 0.390529
vt 0.855933 0.400516
vt 0.798377 0.378819
vt 0.759381 0.331251
vt 0.749393 0.270558
vt 0.771090 0.213002
vt 0.818658 0.174006
vt 0.879351 0.164019
vt 0.867642 0.282267
vt 0.330102 0.021699
vt 0.321865 0.884377
vt 0.352819 0.827326
vt 0.398246 0.018302
vt 0.262431 0.031740
vt 0.266532 0.918306
vt 0.351102 0.762442
vt 0.466349 0.021506
vt 0.317172 0.707110
vt 0.533904 0.031296
vt 0.260123 0.676155
vt 0.600393 0.047694
vt 0.195239 0.677873
vt 0.665267 0.070754
vt 0.139907 0.711801
vt 0.727919 0.100557
vt 0.108952 0.768850
vt 0.008373 0.140424
vt 0.110669 0.833734
vt 0.068013 0.102663
vt 0.144597 0.889067
vt 0.130749 0.072097
vt 0.201647 0.920023
vt 0.195780 0.048503
vt 0.399725 0.439805
vt 0.374254 0.440764
vt 0.425229 0.440636
vt 0.450520 0.443229
vt 0.475355 0.447532
vt 0.499478 0.453468
vt 0.522620 0.460918
vt 0.256383 0.470663
vt 0.277767 0.461909
vt 0.300542 0.454219
vt 0.324401 0.448026
vt 0.349060 0.443515
vt 0.230886 0.798090
vt 0.374612 0.542644
vt 0.374818 0.552434
vt 0.351516 0.554197
vt 0.350905 0.544479
vt 0.398048 0.542293
vt 0.397858 0.552106
vt 0.421496 0.543467
vt 0.420913 0.553263
vt 0.445238 0.546170
vt 0.444256 0.555902
vt 0.469616 0.550411
vt 0.468183 0.560000
vt 0.495111 0.556313
vt 0.493024 0.565614
vt 0.522402 0.564352
vt 0.519078 0.573206
vt 0.552410 0.575586
vt 0.248595 0.578522
vt 0.273565 0.559149
vt 0.276276 0.568068
vt 0.301054 0.552528
vt 0.302693 0.561816
vt 0.326562 0.547761
vt 0.327611 0.557322
vt 0.546058 0.585243
vt 0.625498 0.427947
vt 0.260606 0.592669
vt 0.242745 0.568886
vt 0.544496 0.469672
vt 0.045402 0.751930
vt 0.787661 0.137201
vt 0.283655 0.981801
vt 0.184728 0.983573
vt 0.098169 0.935642
vt 0.047173 0.850855
vt 0.093331 0.665373
vt 0.178116 0.614377
vt 0.277040 0.612605
vt 0.363598 0.660532
vt 0.414596 0.745317
vt 0.416370 0.844242
vt 0.368443 0.930802
vt 0.696976 0.978617
vt 0.738104 0.979354
vt 0.655900 0.976161
vt 0.614920 0.971973
vt 0.574085 0.966032
vt 0.533446 0.958304
vt 0.493066 0.948746
vt 0.983311 0.946909
vt 0.942898 0.956866
vt 0.867326 0.527951
vt 0.902220 0.964942
vt 0.861346 0.971191
vt 0.820335 0.975656
vt 0.779238 0.978370
vt 0.869787 0.427612
vt 0.602222 0.427453
vt 0.714623 0.431242
vt 0.736418 0.431463
vt 0.692724 0.430670
vt 0.670636 0.429825
vt 0.648262 0.428845
vt 0.846776 0.428165
vt 0.824221 0.429061
vt 0.802006 0.430006
vt 0.780027 0.430798
vt 0.758192 0.431308
vn -0.499724 0.033140 -0.865551
vn -0.865548 0.033142 -0.499728
vn -0.863853 -0.070754 -0.498751
vn -0.498745 -0.070754 -0.863856
vn -0.999451 0.033141 -0.000000
vn -0.997494 -0.070753 -0.000000
vn -0.865549 0.033141 0.499727
vn -0.863853 -0.070754 0.498751
vn -0.499724 0.033141 0.865550
vn -0.498745 -0.070754 0.863856
vn -0.000000 0.033141 0.999451
vn -0.000000 -0.070754 0.997494
vn 0.499726 0.033141 0.865549
vn 0.498746 -0.070754 0.863856
vn 0.865548 0.033141 0.499728
vn 0.863853 -0.070754 0.498751
vn 0.999451 0.033142 0.000000
vn 0.997494 -0.070753 -0.000000
vn 0.865549 0.033142 -0.499727
vn 0.863853 -0.070754 -0.498751
vn 0.499726 0.033141 -0.865549
vn 0.498746 -0.070754 -0.863856
vn 0.000000 0.033139 -0.999451
vn 0.000000 -0.070754 -0.997494
vn -0.865938 0.014001 -0.499955
vn -0.499950 0.014001 -0.865941
vn -0.999902 0.014001 -0.000000
vn -0.865938 0.014000 0.499955
vn -0.499950 0.014000 0.865941
vn 0.000000 0.014001 0.999902
vn 0.499950 0.014000 0.865941
vn 0.865938 0.013999 0.499955
vn 0.999902 0.014001 -0.000000
vn 0.865938 0.014001 -0.499955
vn 0.499950 0.014001 -0.865941
vn -0.000000 0.014001 -0.999902
vn 0.000000 1.000000 0.000000
vn 0.386936 -0.633343 0.670192
vn 0.386936 -0.633343 0.670192
vn 0.670193 -0.633342 0.386935
vn 0.670193 -0.633342 0.386935
vn -0.000000 -0.633341 0.773873
vn -0.000000 -0.633341 0.773873
vn 0.773872 -0.633342 -0.000000
vn 0.773872 -0.633342 -0.000000
vn 0.670194 -0.633341 -0.386936
vn 0.670194 -0.633341 -0.386936
vn 0.386937 -0.633339 -0.670195
vn 0.386938 -0.633339 -0.670194
vn 0.000000 -0.633339 -0.773875
vn 0.000000 -0.633339 -0.773875
vn -0.386937 -0.633340 -0.670194
vn -0.386937 -0.633340 -0.670194
vn -0.670192 -0.633342 -0.386937
vn -0.670192 -0.633342 -0.386937
vn -0.773871 -0.633343 -0.000000
vn -0.773871 -0.633343 -0.000000
vn -0.670192 -0.633342 0.386937
vn -0.670192 -0.633342 0.386937
vn -0.386936 -0.633340 0.670194
vn -0.386936 -0.633340 0.670195
vn 0.487421 0.222899 0.844237
vn 0.844238 0.222899 0.487420
vn 0.854069 0.165599 0.493096
vn 0.493097 0.165599 0.854068
vn 0.974842 0.222898 0.000000
vn 0.986193 0.165599 0.000000
vn 0.844238 0.222898 -0.487420
vn 0.854069 0.165598 -0.493096
vn 0.487422 0.222898 -0.844238
vn 0.493097 0.165598 -0.854068
vn 0.000000 0.222897 -0.974842
vn 0.000000 0.165598 -0.986193
vn -0.487420 0.222897 -0.844238
vn -0.493096 0.165598 -0.854069
vn -0.844238 0.222898 -0.487420
vn -0.854069 0.165599 -0.493096
vn -0.974842 0.222898 0.000000
vn -0.986193 0.165599 -0.000000
vn -0.844238 0.222898 0.487420
vn -0.854069 0.165599 0.493096
vn -0.487420 0.222898 0.844238
vn -0.493096 0.165599 0.854069
vn -0.000000 0.222898 0.974842
vn -0.000000 0.165598 0.986193
vn 0.000000 -1.000000 0.000000
vn 0.000000 -1.000000 0.000000
vn 0.000000 -1.000000 0.000000
vn 0.000000 -1.000000 0.000000
vn 0.000000 -1.000000 0.000000
vn 0.000000 -1.000000 0.000000
vn 0.000000 -1.000000 0.000000
vn 0.000000 -1.000000 0.000000
vn 0.000000 -1.000000 0.000000
vn 0.000000 -1.000000 0.000000
vn 0.000000 -1.000000 0.000000
vn 0.000000 -1.000000 0.000000
vn 0.000000 -1.000000 0.000000
vn 0.384437 0.639415 0.665850
vn 0.384436 0.639415 0.665851
vn 0.000000 0.639427 0.768852
vn 0.000000 0.639427 0.768852
vn 0.665861 0.639405 0.384435
vn 0.665862 0.639405 0.384433
vn 0.768867 0.639408 -0.000001
vn 0.768867 0.639408 -0.000001
vn 0.665857 0.639412 -0.384430
vn 0.665858 0.639412 -0.384429
vn 0.384434 0.639421 -0.665847
vn 0.384433 0.639421 -0.665848
vn 0.000000 0.639427 -0.768852
vn 0.000000 0.639427 -0.768852
vn -0.384434 0.639420 -0.665848
vn -0.384433 0.639420 -0.665848
vn -0.665859 0.639410 -0.384431
vn -0.665860 0.639410 -0.384429
vn -0.768870 0.639406 0.000001
vn -0.768870 0.639406 0.000001
vn -0.665862 0.639405 0.384433
vn -0.665863 0.639405 0.384431
vn -0.384437 0.639414 0.665851
vn -0.384435 0.639414 0.665852
vn -0.000000 -0.222825 0.974859
vn -0.487429 -0.222824 0.844253
vn -0.844255 -0.222822 0.487426
vn -0.974860 -0.222819 -0.000000
vn -0.844255 -0.222822 -0.487426
vn -0.487429 -0.222824 -0.844253
vn 0.000000 -0.222823 -0.974859
vn 0.487429 -0.222825 -0.844252
vn 0.844254 -0.222825 -0.487426
vn 0.974859 -0.222823 -0.000000
vn 0.844255 -0.222822 0.487426
vn 0.487429 -0.222824 0.844253
vn -0.000000 1.000000 0.000000
vn 0.000002 1.000000 -0.000000
vn 0.000002 1.000000 -0.000000
vn 0.000000 1.000000 -0.000000
vn -0.000002 1.000000 0.000000
vn -0.000002 1.000000 0.000000
vn 0.000005 1.000000 -0.000000
vn 0.000005 1.000000 -0.000000
vn 0.000002 1.000000 -0.000000
vn 0.000002 1.000000 -0.000000
vn 0.000000 1.000000 -0.000000
vn 0.000000 1.000000 -0.000000
vn 0.000000 1.000000 -0.000000
vn 0.000000 1.000000 0.000000
vn -0.000002 1.000000 0.000000
vn -0.000002 1.000000 0.000000
vn 0.000002 1.000000 -0.000000
vn 0.000002 1.000000 -0.000000
vn -0.000005 1.000000 0.000000
vn -0.000005 1.000000 0.000000
vn -0.000002 1.000000 0.000000
vn -0.000002 1.000000 0.000000
vn -0.000000 1.000000 0.000000
vn -0.000000 1.000000 0.000000
s 1
g polySurface73 pCube18
f 14/134/1 15/142/2 27/3/3 26/4/4
f 15/142/2 16/141/5 28/6/6 27/3/3
f 16/141/5 17/140/7 29/8/8 28/6/6
f 17/140/7 18/139/9 30/10/10 29/8/8
f 18/139/9 19/138/11 31/12/12 30/10/10
f 19/138/11 20/131/13 32/126/14 31/12/12
f 20/132/13 21/100/15 33/16/16 32/14/14
f 21/100/15 22/137/17 34/18/18 33/16/16
f 22/137/17 23/136/19 35/20/20 34/18/18
f 23/136/19 24/135/21 36/22/22 35/20/20
f 24/135/21 25/133/23 37/24/24 36/22/22
f 25/133/23 14/134/1 26/4/4 37/24/24
f 26/4/4 27/3/3 39/130/25 38/118/26
f 27/3/3 28/6/6 40/129/27 39/130/25
f 28/6/6 29/8/8 41/128/28 40/129/27
f 29/8/8 30/10/10 42/127/29 41/128/28
f 30/10/10 31/12/12 43/125/30 42/127/29
f 31/12/12 32/126/14 44/124/31 43/125/30
f 32/14/14 33/16/16 45/122/32 44/123/31
f 33/16/16 34/18/18 46/121/33 45/122/32
f 34/18/18 35/20/20 47/120/34 46/121/33
f 35/20/20 36/22/22 48/119/35 47/120/34
f 36/22/22 37/24/24 49/117/36 48/119/35
f 37/24/24 26/4/4 38/118/26 49/117/36
f 38/26/26 39/25/25 50/37/37
f 39/25/25 40/27/27 50/37/37
f 40/27/27 41/28/28 50/37/37
f 41/28/28 42/29/29 50/37/37
f 42/29/29 43/30/30 50/37/37
f 43/30/30 44/31/31 50/37/37
f 44/31/31 45/32/32 50/37/37
f 45/32/32 46/33/33 50/37/37
f 46/33/33 47/34/34 50/37/37
f 47/34/34 48/35/35 50/37/37
f 48/35/35 49/36/36 50/37/37
f 49/36/36 38/26/26 50/37/37
s 2
f 51/116/38 52/39/39 54/40/40 53/115/41
f 52/39/39 51/116/38 73/106/42 74/43/43
f 53/115/41 54/40/40 56/44/44 55/114/45
f 55/114/45 56/44/44 58/46/46 57/113/47
f 57/113/47 58/46/46 60/48/48 59/112/49
f 59/112/49 60/48/48 62/50/50 61/111/51
f 61/111/51 62/50/50 64/52/52 63/110/53
f 63/110/53 64/52/52 66/54/54 65/104/55
f 65/104/55 66/54/54 68/56/56 67/109/57
f 67/109/57 68/56/56 70/58/58 69/108/59
f 69/108/59 70/58/58 72/60/60 71/107/61
f 71/107/61 72/60/60 74/43/43 73/106/42
s 3
f 51/38/62 53/41/63 12/62/64 13/63/65
f 53/41/63 55/45/66 11/64/67 12/62/64
f 55/45/66 57/47/68 10/65/69 11/64/67
f 57/47/68 59/49/70 9/66/71 10/65/69
f 59/49/70 61/51/72 8/67/73 9/66/71
f 61/51/72 63/53/74 7/68/75 8/67/73
f 63/53/74 65/105/76 6/103/77 7/68/75
f 65/55/76 67/57/78 5/70/79 6/69/77
f 67/57/78 69/59/80 4/71/81 5/70/79
f 69/59/80 71/61/82 3/72/83 4/71/81
f 71/61/82 73/42/84 2/73/85 3/72/83
f 73/42/84 51/38/62 13/63/65 2/73/85
s 4
f 54/40/86 52/39/87 1/74/88
f 56/44/89 54/40/86 1/74/88
f 58/46/90 56/44/89 1/74/88
f 60/48/91 58/46/90 1/74/88
f 62/50/92 60/48/91 1/74/88
f 64/52/93 62/50/92 1/74/88
f 66/54/94 64/52/93 1/74/88
f 68/56/95 66/54/94 1/74/88
f 70/58/96 68/56/95 1/74/88
f 72/60/97 70/58/96 1/74/88
f 74/43/98 72/60/97 1/74/88
f 52/39/87 74/43/98 1/74/88
s 5
f 75/75/99 76/76/100 98/77/101 97/78/102
f 76/76/100 75/75/99 77/79/103 78/80/104
f 78/80/104 77/79/103 79/81/105 80/82/106
f 80/82/106 79/81/105 81/83/107 82/84/108
f 82/84/108 81/83/107 83/85/109 84/86/110
f 84/86/110 83/85/109 85/87/111 86/88/112
f 86/88/112 85/87/111 87/89/113 88/90/114
f 88/90/114 87/89/113 89/91/115 90/99/116
f 90/92/116 89/102/115 91/93/117 92/94/118
f 92/94/118 91/93/117 93/95/119 94/96/120
f 94/96/120 93/95/119 95/97/121 96/98/122
f 96/98/122 95/97/121 97/78/102 98/77/101
s 3
f 3/72/83 2/73/85 97/78/123 95/97/124
f 4/71/81 3/72/83 95/97/124 93/95/125
f 5/70/79 4/71/81 93/95/125 91/93/126
f 6/69/77 5/70/79 91/93/126 89/102/127
f 7/68/75 6/103/77 89/91/127 87/89/128
f 8/67/73 7/68/75 87/89/128 85/87/129
f 9/66/71 8/67/73 85/87/129 83/85/130
f 10/65/69 9/66/71 83/85/130 81/83/131
f 11/64/67 10/65/69 81/83/131 79/81/132
f 12/62/64 11/64/67 79/81/132 77/79/133
f 13/63/65 12/62/64 77/79/133 75/75/134
f 2/73/85 13/63/65 75/75/134 97/78/123
s 6
f 76/76/135 78/80/136 15/2/137 14/1/138
f 78/80/136 80/82/139 16/5/140 15/2/137
f 80/82/139 82/84/141 17/7/142 16/5/140
f 82/84/141 84/86/143 18/9/144 17/7/142
f 84/86/143 86/88/145 19/11/146 18/9/144
f 86/88/145 88/90/147 20/13/148 19/11/146
f 88/90/147 90/99/149 21/15/150 20/13/148
f 90/92/149 92/94/151 22/17/152 21/101/150
f 92/94/151 94/96/153 23/19/154 22/17/152
f 94/96/153 96/98/155 24/21/156 23/19/154
f 96/98/155 98/77/157 25/23/158 24/21/156
f 98/77/157 76/76/135 14/1/138 25/23/158
