# This file uses centimeters as units for non-parametric coordinates.

g default
v 2.100523 2.042862 -1.030629
v 2.336728 2.718157 -0.956692
v 2.972190 2.720650 -0.325155
v 2.400101 2.062452 -0.400400
v 2.246219 1.558507 -0.138611
v 2.466002 1.521027 -0.590392
v 1.858875 2.708296 -1.298291
v 1.789661 2.094881 -1.220187
v 1.825893 1.409207 -1.349366
v 2.110439 0.898592 -0.405089
v 1.883197 0.829294 -0.859091
v 1.786050 1.252163 0.045605
v 2.118644 1.868800 0.089026
v 2.293769 2.190458 -0.129324
v 2.496090 2.793971 -0.047326
v 2.083747 0.209878 -0.218216
v 1.776076 0.209879 -0.794984
v 2.110387 0.425399 0.037833
v 2.016732 0.209878 0.015761
v 2.071660 0.674523 0.135269
v 1.626348 1.539565 0.290293
v 1.972257 2.057592 0.585703
v 1.784629 0.688773 0.454024
v 1.603978 1.108655 0.319398
v 1.232213 1.662978 0.480618
v 1.159494 1.335080 0.774005
v 1.255096 0.972419 1.302455
v 1.348459 0.209878 1.695463
v 1.539505 0.209878 0.644789
v 1.762675 0.251433 0.247347
v 1.292672 0.209879 -1.324206
v 1.295179 1.035294 -1.320894
v 1.386916 2.216418 0.808879
v 2.171727 2.793243 0.816028
v 1.618090 2.924238 0.819338
v 0.608222 2.813470 1.254395
v 0.323983 2.192223 1.032807
v 0.289244 1.808396 0.786639
v 0.543771 1.365863 1.059579
v 0.642390 0.957336 1.549122
v 0.774133 0.350202 2.095269
v 1.094077 0.209878 2.048121
v -0.328402 3.014931 1.252571
v -0.337121 2.526907 1.157722
v -0.064029 1.889257 0.513864
v -0.392553 2.082844 0.575072
v -0.697327 3.058560 0.898385
v -0.325652 1.469698 0.596217
v -0.643474 1.697687 0.418790
v -0.212420 0.649542 1.065513
v -0.484452 0.850176 0.812401
v -0.617406 1.365242 0.569645
v -0.699809 2.102036 0.292559
v -0.816904 3.005348 0.440612
v -0.978623 2.072529 -0.154237
v -1.525916 2.911701 -1.237707
v -0.903685 1.437564 0.164396
v -0.859184 1.124755 0.375812
v -0.704226 0.607377 0.541348
v -0.240084 0.209879 0.864473
v -0.554649 0.209879 0.466481
v 0.742006 0.209878 1.971667
v 1.149759 0.411572 1.993879
v 1.451457 0.488226 1.630321
v 0.068177 0.209879 -1.419085
v 0.142902 1.038494 -1.771550
v -1.046438 0.209879 -1.470961
v -1.035798 0.973871 -1.581912
v -1.483950 0.782149 -1.396763
v -1.527080 0.209879 -1.248677
v -0.891315 0.557589 0.159331
v -0.650996 0.209879 0.171842
v -0.984098 1.089111 -0.076899
v -1.118858 1.683519 -0.695548
v -1.095831 1.859475 -1.247755
v -1.308867 2.612517 -1.620508
v -1.245805 2.891698 -1.669577
v -0.858072 1.103611 -0.488164
v -0.506020 0.209879 -0.218144
v -0.870164 0.209879 -0.698210
v -1.450422 0.950055 -1.064771
v -1.641416 0.683233 -1.201725
v -1.218355 1.290651 -0.798103
v 0.888407 1.932842 -1.338334
v 0.896388 2.668061 -1.518207
v -0.225874 1.769967 -1.540455
v -0.047296 2.711307 -1.701483
v -1.206366 1.485858 -1.261355
v 0.253790 2.999631 -1.319250
v -0.968605 2.999632 -1.162443
v -0.285712 3.095168 0.282258
v 0.707328 3.026377 0.391388
v 1.423431 3.037461 -0.053155
v 2.470823 2.997878 -0.416925
v 1.681513 3.012771 -0.831784
v -1.180491 2.881867 -1.671316
vt 0.913410 0.834235
vt 0.237624 0.106447
vt 0.824705 0.868035
vt 0.830570 0.795746
vt 0.847311 0.978459
vt 0.774581 0.804705
vt 0.017795 0.900364
vt 0.300631 0.150346
vt 0.936534 0.743611
vt 0.797391 0.710679
vt 0.861148 0.684841
vt 0.719028 0.756087
vt 0.744862 0.845442
vt 0.785859 0.885726
vt 0.105981 0.131953
vt 0.844363 0.608358
vt 0.771919 0.620711
vt 0.743601 0.619073
vt 0.744496 0.647671
vt 0.730435 0.676341
vt 0.686139 0.878661
vt 0.679819 0.792563
vt 0.676248 0.736002
vt 0.678181 0.674046
vt 0.982351 0.227973
vt 0.982351 0.277369
vt 0.547054 0.696090
vt 0.531385 0.623198
vt 0.521763 0.586804
vt 0.652611 0.603665
vt 0.703093 0.617201
vt 0.926127 0.579099
vt 0.070308 0.746322
vt 0.982351 0.352406
vt 0.674180 0.977779
vt 0.604556 0.969176
vt 0.861735 0.416483
vt 0.840181 0.326668
vt 0.840491 0.262925
vt 0.886089 0.197985
vt 0.914142 0.123407
vt 0.473143 0.610966
vt 0.946452 0.035243
vt 0.982351 0.017457
vt 0.757741 0.371723
vt 0.075062 0.545789
vt 0.776008 0.260680
vt 0.729293 0.283768
vt 0.688291 0.419532
vt 0.700638 0.225126
vt 0.756429 0.203449
vt 0.795464 0.081272
vt 0.721967 0.180562
vt 0.754200 0.109788
vt 0.672515 0.275923
vt 0.640488 0.392980
vt 0.447612 0.569766
vt 0.603421 0.259142
vt 0.657903 0.185169
vt 0.686304 0.146224
vt 0.713492 0.077491
vt 0.771369 0.017457
vt 0.936717 0.017457
vt 0.234585 0.740073
vt 0.383870 0.711624
vt 0.372403 0.604823
vt 0.441860 0.598037
vt 0.438653 0.674862
vt 0.675888 0.017457
vt 0.712933 0.017457
vt 0.667351 0.073453
vt 0.629154 0.137571
vt 0.503692 0.805201
vt 0.436070 0.956485
vt 0.432933 0.838215
vt 0.470443 0.511016
vt 0.626438 0.017457
vt 0.475455 0.702843
vt 0.555010 0.017457
vt 0.576799 0.126657
vt 0.442898 0.081355
vt 0.498740 0.756863
vt 0.365119 0.262346
vt 0.140039 0.871811
vt 0.427267 0.370284
vt 0.298185 0.838493
vt 0.468448 0.504507
vt 0.434553 0.781576
vt 0.398781 0.508814
vt 0.190201 0.496837
vt 0.131343 0.377736
vt 0.153461 0.268503
vt 0.355478 0.357819
vt 0.159531 0.125970
vt 0.239804 0.202014
vt 0.229026 0.618832
vt 0.508671 0.511664
vt 0.013828 0.984158
vt 0.990500 0.888326
vt 0.541329 0.198894
vt 0.519047 0.154068
vt 0.473166 0.114240
vt 0.452101 0.017457
vt 0.468961 0.656532
vt 0.423271 0.329001
vt 0.498113 0.978386
vt 0.198857 0.570413
vt 0.136109 0.575112
vt 0.749433 0.434641
vt 0.027270 0.428207
vt 0.784904 0.967793
vt 0.013907 0.210649
vt 0.465169 0.585045
vt 0.982351 0.049543
vt 0.982351 0.159862
vt 0.982352 0.445381
vt 0.038523 0.281792
vt 0.959750 0.671502
vt 0.009445 0.807074
vt 0.066089 0.634752
vt 0.594205 0.758872
vt 0.128944 0.058543
vt 0.958952 0.822057
vt 0.926343 0.917830
vt 0.274447 0.969938
vt 0.146700 0.972931
vt 0.605434 0.877516
vt 0.623264 0.801108
vn 0.874885 -0.261373 -0.407750
vn 0.733589 -0.397032 -0.551556
vn 0.733791 -0.396878 -0.551397
vn 0.988098 0.141468 -0.060415
vn 0.623088 -0.470111 -0.625106
vn 0.896834 -0.045257 0.440046
vn 0.641744 -0.073999 -0.763341
vn 0.641744 -0.073999 -0.763341
vn 0.701720 -0.118702 -0.702495
vn 0.732256 -0.403972 -0.548277
vn 0.732256 -0.403972 -0.548277
vn 0.707056 -0.385003 0.593165
vn 0.537287 -0.344019 0.770048
vn 0.876770 -0.072956 0.475343
vn 0.540129 -0.422246 0.727990
vn 0.874643 -0.204501 -0.439522
vn 0.874643 -0.204501 -0.439522
vn 0.810276 -0.555624 0.186373
vn 0.810276 -0.555624 0.186373
vn 0.987367 0.108223 0.115736
vn 0.600964 -0.536329 0.592616
vn 0.600964 -0.536329 0.592616
vn 0.690528 0.382476 0.613908
vn 0.653200 0.443335 0.613828
vn 0.651355 0.226192 0.724275
vn 0.651355 0.226192 0.724275
vn 0.754206 0.558651 0.345084
vn 0.955376 -0.184448 0.230729
vn 0.879132 -0.448195 0.162012
vn 0.879132 -0.448195 0.162012
vn 0.761648 -0.331194 0.556958
vn 0.603843 -0.163590 -0.780136
vn 0.603843 -0.163590 -0.780136
vn 0.181768 -0.556731 0.810562
vn 0.169022 -0.241808 0.955490
vn 0.169022 -0.241808 0.955490
vn 0.288037 -0.302350 0.908636
vn 0.288037 -0.302350 0.908636
vn 0.184242 -0.540403 0.820987
vn 0.340931 0.607699 0.717264
vn 0.250130 0.794135 0.553881
vn 0.243627 0.692849 0.678680
vn 0.181505 0.717109 0.672912
vn 0.549096 -0.058417 0.833715
vn -0.016522 -0.270247 0.962649
vn -0.016522 -0.270247 0.962649
vn -0.365635 -0.658478 0.657812
vn -0.324032 -0.737314 0.592766
vn -0.809165 -0.302514 0.503723
vn -0.166970 0.015779 0.985836
vn -0.166970 0.015779 0.985836
vn -0.462628 0.494473 0.735847
vn -0.355658 0.387888 0.850324
vn -0.355658 0.387888 0.850324
vn -0.665913 0.136205 0.733490
vn -0.818683 -0.305744 0.486085
vn -0.922042 -0.131095 0.364215
vn -0.877910 -0.139832 0.457953
vn -0.812101 0.139906 0.566496
vn -0.770442 0.245953 0.588155
vn -0.738653 0.059549 0.671450
vn -0.674950 -0.343326 0.653123
vn -0.717029 -0.350737 0.602372
vn 0.130365 -0.079446 -0.988278
vn 0.057612 -0.142052 -0.988181
vn 0.057612 -0.142052 -0.988181
vn -0.599480 -0.126080 0.790397
vn -0.265701 -0.117844 -0.956826
vn -0.696407 -0.621115 0.359490
vn -0.696407 -0.621115 0.359490
vn -0.696407 -0.621115 0.359490
vn -0.930623 -0.083302 0.356372
vn -0.872427 -0.438151 -0.216551
vn -0.910313 -0.370313 -0.184930
vn -0.910313 -0.370313 -0.184930
vn -0.833422 0.092492 -0.544842
vn -0.805450 -0.432048 -0.405691
vn -0.718885 -0.148934 0.678987
vn -0.718885 -0.148934 0.678987
vn -0.805450 -0.432048 -0.405691
vn -0.599480 -0.126080 0.790397
vn -0.677068 -0.094898 0.729776
vn 0.214948 0.089230 -0.972541
vn 0.179818 0.004736 -0.983689
vn 0.120882 0.046734 -0.991566
vn -0.003094 -0.014685 -0.999887
vn -0.029441 0.754837 -0.655252
vn -0.645624 0.390397 -0.656323
vn -0.065327 0.994824 -0.077831
vn -0.003989 0.999980 -0.004933
vn 0.039232 0.997651 0.056156
vn 0.064526 0.996992 0.042927
vn 0.045866 0.982047 -0.182976
vn 0.294089 0.950005 -0.104892
vn 0.105684 0.962559 -0.249623
vn 0.130365 -0.079446 -0.988278
s 1
g _polySurface2
f 1/1/1 2/124/2 4/3/3
f 6/4/4 1/1/1 4/3/3
f 4/3/3 2/124/2 3/5/5
f 6/4/4 4/3/3 5/6/6
f 8/123/7 7/99/8 2/124/2 1/1/1
f 1/1/1 6/4/4 9/9/9
f 6/4/4 10/10/10 11/11/11
f 10/10/10 6/4/4 5/6/6 12/12/12
f 12/12/12 5/6/6 13/13/13
f 5/6/6 14/14/14 13/13/13
f 15/111/15 14/14/14 3/5/5
f 17/16/16 11/11/11 10/10/10 16/17/17
f 19/18/18 16/17/17 18/19/19
f 10/10/10 20/20/20 18/19/19
f 10/10/10 18/19/19 16/17/17
f 12/12/12 20/20/20 10/10/10
f 22/21/21 21/22/22 13/13/13
f 12/12/12 24/23/23 23/24/24 20/20/20
f 21/22/22 24/23/23 12/12/12
f 26/121/25 24/23/23 21/22/22 25/128/26
f 24/23/23 26/121/25 27/27/27 23/24/24
f 23/24/24 64/28/28 28/29/29 29/30/30
f 23/24/24 29/30/30 30/31/31 20/20/20
f 30/31/31 19/18/18 18/19/19 20/20/20
f 17/16/16 31/32/32 11/11/11
f 9/9/9 11/11/11 32/118/33
f 33/127/34 25/128/26 21/22/22 22/21/21
f 22/21/21 34/35/35 35/36/36
f 33/34/34 36/37/37 37/38/38
f 38/39/39 33/34/34 37/38/38
f 39/40/40 26/25/25 25/26/26 38/39/39
f 39/40/40 40/41/41 27/115/27 26/25/25
f 63/114/42 27/115/27 40/41/41 41/43/43
f 42/44/44 63/114/42 41/43/43
f 15/111/15 34/35/35 22/21/21 14/14/14
f 22/21/21 13/13/13 14/14/14
f 44/45/45 37/38/38 36/37/37 43/109/46
f 44/45/45 45/47/47 38/39/39
f 46/48/48 45/47/47 44/45/45
f 46/48/48 44/45/45 47/49/49
f 47/49/49 44/45/45 43/109/46
f 49/50/50 48/51/51 46/48/48
f 38/39/39 45/47/47 48/51/51 39/40/40
f 50/52/52 40/41/41 48/51/51
f 50/52/52 41/43/43 40/41/41
f 52/53/53 51/54/54 50/52/52 48/51/51
f 49/50/50 52/53/53 48/51/51
f 53/55/55 49/50/50 46/48/48
f 53/55/55 47/49/49 54/56/56
f 56/105/57 55/58/58 54/56/56
f 57/59/59 49/50/50 53/55/55 55/58/58
f 58/60/60 52/53/53 49/50/50 57/59/59
f 58/60/60 59/61/61 51/54/54 52/53/53
f 59/61/61 60/62/62 51/54/54
f 60/62/62 62/63/63 50/52/52
f 50/52/52 51/54/54 60/62/62
f 62/63/63 42/44/44 41/43/43
f 28/29/29 63/42/42 42/113/44
f 28/29/29 64/28/28 63/42/42
f 23/24/24 27/27/27 64/28/28
f 63/42/42 64/28/28 27/27/27
f 31/120/32 66/64/64 32/33/33
f 68/65/65 66/64/64 67/66/66
f 70/67/67 69/68/68 67/66/66
f 72/69/69 61/70/70 59/61/61 71/71/71
f 59/61/61 58/60/60 73/72/72 71/71/71
f 74/100/73 73/72/72 57/59/59 55/58/58
f 73/72/72 58/60/60 57/59/59
f 56/105/57 74/100/73 55/58/58
f 76/74/74 75/75/75 74/73/73 56/106/57
f 76/97/74 56/57/57 77/76/76
f 71/71/71 73/72/72 79/77/77
f 79/77/77 72/69/69 71/71/71
f 81/102/78 80/79/79 78/80/80
f 80/79/79 82/81/81 70/103/67
f 70/67/67 82/104/81 69/68/68
f 83/101/82 81/102/78 78/80/80
f 74/100/73 83/101/82 78/80/80
f 78/80/80 73/72/72 74/100/73
f 66/64/64 9/119/9 32/33/33
f 85/126/83 7/98/8 8/7/7 84/84/84
f 84/84/84 8/7/7 9/119/9
f 87/125/85 85/126/83 84/84/84 86/86/86
f 86/86/86 84/84/84 66/64/64
f 86/86/86 76/74/74 87/125/85
f 77/76/76 96/87/87 87/85/85 76/97/74
f 75/75/75 86/86/86 88/88/88
f 88/88/88 86/86/86 68/65/65
f 88/88/88 68/65/65 69/68/68
f 88/88/88 74/73/73 75/75/75
f 81/78/78 88/88/88 69/68/68
f 82/104/81 81/78/78 69/68/68
f 81/78/78 83/82/82 88/88/88
f 81/102/78 82/81/81 80/79/79
f 78/80/80 80/79/79 79/77/77
f 61/70/70 60/62/62 59/61/61
f 48/51/51 40/41/41 39/40/40
f 56/57/57 90/89/89 77/76/76
f 91/90/90 90/89/89 54/107/56
f 54/107/56 90/89/89 56/57/57
f 43/46/46 91/90/90 47/108/49
f 91/90/90 54/107/56 47/108/49
f 43/46/46 36/110/37 92/91/91
f 36/110/37 35/117/36 93/92/92 92/91/91
f 91/90/90 92/91/91 93/92/92 89/93/93
f 15/15/15 93/92/92 35/117/36 34/112/35
f 93/92/92 94/94/94 95/95/95
f 3/122/5 2/2/2 94/94/94
f 95/95/95 89/93/93 93/92/92
f 15/15/15 94/94/94 93/92/92
f 3/122/5 94/94/94 15/15/15
f 95/95/95 94/94/94 2/2/2 7/8/8
f 95/95/95 85/83/83 89/93/93
f 85/83/83 87/85/85 89/93/93
f 87/85/85 96/87/87 89/93/93
f 35/116/36 36/37/37 33/34/34
f 50/52/52 62/63/63 41/43/43
f 3/5/5 14/14/14 4/3/3
f 86/86/86 66/64/64 68/65/65
f 84/84/84 9/119/9 66/64/64
f 1/1/1 9/9/9 8/123/7
f 6/4/4 11/11/11 9/9/9
f 86/86/86 75/75/75 76/74/74
f 79/77/77 73/72/72 78/80/80
f 38/39/39 25/26/26 33/34/34
f 44/45/45 38/39/39 37/38/38
f 7/8/8 85/83/83 95/95/95
f 13/13/13 21/22/22 12/12/12
f 5/6/6 4/3/3 14/14/14
f 88/88/88 83/82/82 74/73/73
f 11/11/11 31/32/32 32/118/33
f 31/120/32 65/96/96 66/64/64
f 67/66/66 69/68/68 68/65/65
f 67/66/66 66/64/64 65/96/96
f 46/48/48 48/51/51 45/47/47
f 46/48/48 47/49/49 53/55/55
f 22/21/21 35/36/36 33/127/34
f 54/56/56 55/58/58 53/55/55
f 92/91/91 91/90/90 43/46/46
f 91/90/90 89/93/93 90/89/89
f 89/93/93 96/87/87 77/76/76 90/89/89
