# This file uses centimeters as units for non-parametric coordinates.

mtllib stone_001.mtl
g default
v 0.521276 0.282526 1.512363
v 0.791519 0.002102 1.446363
v 1.210915 0.255892 1.109691
v 1.027880 0.442078 1.217814
v 1.606382 0.198110 0.601057
v 1.596500 0.789355 0.415703
v 1.060009 0.990872 0.815523
v 0.536986 0.848797 1.047276
v 1.285099 1.212364 -0.260346
v 1.052499 1.475792 0.092574
v 0.348318 1.153128 1.117321
v 0.013263 1.050118 0.915101
v 0.061606 0.901109 1.031588
v 0.155529 0.419461 1.155977
v 0.628213 1.610408 0.265014
v 1.753270 0.244370 0.514167
v 1.988472 0.231537 0.229472
v 1.998309 0.753595 0.119356
v 1.976935 0.821117 -0.322598
v 1.980587 0.067786 -0.018547
v 1.923972 0.332538 -0.624939
v 1.655658 0.002102 0.259417
v 1.457263 0.002102 0.543274
v 1.786381 0.002103 -0.414001
v 1.413153 0.002103 -1.300821
v 1.629979 0.351704 -1.313355
v 1.511742 0.868706 -0.819596
v 1.191024 0.297530 -2.219810
v 0.878439 0.520067 -2.208524
v 1.098594 0.002104 -2.395846
v 0.980952 0.002104 -2.922990
v 0.940299 0.287006 -2.700593
v 0.697990 0.422475 -2.615346
v 1.079920 1.116871 -0.822752
v 0.379553 0.933833 -1.383594
v 0.819553 1.439216 -0.245986
v 0.537714 1.499498 -0.186840
v -0.026647 1.259280 0.508999
v -0.038325 1.254539 -0.157468
v 0.368412 0.098467 1.475590
v 0.337118 0.002103 1.210104
v 0.172809 0.002104 0.715803
v -0.120461 0.671378 0.417295
v -0.305170 0.536984 -0.233055
v -0.327353 1.128717 -0.666205
v -0.083045 0.002103 0.259815
v -0.486560 0.146098 -0.299686
v 0.113430 0.669486 -1.477852
v -0.362501 0.649806 -0.623639
v -0.323240 0.271162 -1.023855
v 0.124631 0.132986 -1.822317
v 0.473200 0.409245 -2.514069
v 0.452852 0.132058 -2.426553
v 0.729005 0.002104 -2.910623
v 0.603350 1.267386 -0.597471
v 0.173939 1.240824 -0.855597
v -0.224801 0.002102 -0.451635
v 0.015972 0.002102 -0.977263
v 0.381405 0.002103 -1.680480
vt 0.755631 0.885694
vt 0.723370 0.977496
vt 0.573297 0.934018
vt 0.624798 0.897924
vt 0.409802 0.926002
vt 0.418465 0.801134
vt 0.564052 0.791391
vt 0.692384 0.779584
vt 0.405070 0.623945
vt 0.489377 0.647213
vt 0.755980 0.705082
vt 0.693407 0.724573
vt 0.735421 0.674062
vt 0.830867 0.776099
vt 0.564044 0.627254
vt 0.371162 0.902209
vt 0.287827 0.855852
vt 0.325042 0.774888
vt 0.286523 0.696003
vt 0.210696 0.841896
vt 0.187621 0.672294
vt 0.307878 0.950594
vt 0.410021 0.984977
vt 0.159592 0.922084
vt 0.133954 0.745538
vt 0.162622 0.487813
vt 0.075156 0.482957
vt 0.283524 0.555338
vt 0.165926 0.250872
vt 0.247507 0.221435
vt 0.108941 0.196226
vt 0.142479 0.065568
vt 0.186059 0.128108
vt 0.245350 0.128211
vt 0.438293 0.323708
vt 0.376614 0.508443
vt 0.484914 0.573316
vt 0.535718 0.556244
vt 0.695454 0.603128
vt 0.638735 0.497071
vt 0.797732 0.890721
vt 0.854535 0.893268
vt 0.951830 0.831477
vt 0.939467 0.635181
vt 0.801400 0.564739
vt 0.758529 0.417633
vt 0.621064 0.396921
vt 0.801606 0.348939
vt 0.917618 0.485942
vt 0.486877 0.251431
vt 0.684733 0.349483
vt 0.665161 0.241950
vt 0.485136 0.121285
vt 0.329687 0.066474
vt 0.296443 0.117547
vt 0.198183 0.035249
vt 0.524064 0.412368
vt 0.478507 0.491553
vt 0.823616 0.286422
vt 0.704645 0.165369
vt 0.522907 0.063317
vt 0.500542 0.015651
vn 0.054732 0.430942 0.900718
vn 0.474170 -0.070907 0.877573
vn 0.733412 -0.024285 0.679350
vn 0.382419 0.460041 0.801323
vn 0.733412 -0.024285 0.679350
vn 0.747288 -0.019079 0.664226
vn 0.666307 0.573525 0.476555
vn 0.545433 0.619347 0.564723
vn 0.158619 0.458995 0.874165
vn 0.054732 0.430942 0.900718
vn 0.382419 0.460041 0.801323
vn 0.545433 0.619347 0.564723
vn 0.545433 0.619347 0.564723
vn 0.382419 0.460041 0.801323
vn 0.733412 -0.024285 0.679350
vn 0.666307 0.573525 0.476555
vn 0.538076 0.842057 -0.037602
vn 0.534211 0.808387 0.247242
vn 0.545433 0.619347 0.564723
vn -0.837521 -0.115158 0.534132
vn 0.050244 0.788674 0.612755
vn -0.588174 0.704354 0.397412
vn -0.837521 -0.115158 0.534132
vn -0.881435 -0.092140 0.463230
vn 0.158619 0.458995 0.874165
vn 0.158619 0.458995 0.874165
vn -0.881435 -0.092140 0.463230
vn 0.054732 0.430942 0.900718
vn 0.545433 0.619347 0.564723
vn 0.050244 0.788674 0.612755
vn 0.158619 0.458995 0.874165
vn 0.057104 0.949862 0.307412
vn 0.050244 0.788674 0.612755
vn 0.545433 0.619347 0.564723
vn 0.534211 0.808387 0.247242
vn 0.747288 -0.019079 0.664226
vn 0.679277 -0.096476 0.727513
vn 0.666307 0.573525 0.476555
vn 0.666307 0.573525 0.476555
vn 0.679277 -0.096476 0.727513
vn 0.903007 -0.113659 0.414319
vn 0.750013 0.576195 0.324777
vn 0.750013 0.576195 0.324777
vn 0.755340 0.642019 -0.131428
vn 0.538076 0.842057 -0.037602
vn 0.666307 0.573525 0.476555
vn 0.750013 0.576195 0.324777
vn 0.903007 -0.113659 0.414319
vn 0.898552 -0.437608 0.033228
vn 0.755340 0.642019 -0.131428
vn 0.898552 -0.437608 0.033228
vn 0.911742 -0.019087 -0.410319
vn 0.755340 0.642019 -0.131428
vn 0.504647 -0.766135 0.397956
vn 0.898552 -0.437608 0.033228
vn 0.903007 -0.113659 0.414319
vn 0.679277 -0.096476 0.727513
vn 0.747288 -0.019079 0.664226
vn 0.655956 -0.551967 0.514835
vn 0.504647 -0.766135 0.397956
vn 0.679277 -0.096476 0.727513
vn 0.747288 -0.019079 0.664226
vn 0.733412 -0.024285 0.679350
vn 0.474170 -0.070907 0.877573
vn 0.655956 -0.551967 0.514835
vn 0.504647 -0.766135 0.397956
vn 0.755418 -0.582021 -0.300991
vn 0.898552 -0.437608 0.033228
vn 0.858988 0.229645 -0.457605
vn 0.911742 -0.019087 -0.410319
vn 0.755418 -0.582021 -0.300991
vn 0.844104 -0.421408 -0.331517
vn 0.858988 0.229645 -0.457605
vn 0.510291 0.749992 -0.420851
vn 0.755340 0.642019 -0.131428
vn 0.911742 -0.019087 -0.410319
vn 0.858988 0.229645 -0.457605
vn 0.844959 0.322849 -0.426396
vn 0.263374 0.861124 -0.434857
vn 0.510291 0.749992 -0.420851
vn 0.844959 0.322849 -0.426396
vn 0.858988 0.229645 -0.457605
vn 0.844104 -0.421408 -0.331517
vn 0.933465 -0.107458 -0.342194
vn 0.933465 -0.107458 -0.342194
vn 0.563503 0.449193 -0.693318
vn 0.605058 0.577847 -0.547721
vn 0.844959 0.322849 -0.426396
vn 0.844959 0.322849 -0.426396
vn 0.605058 0.577847 -0.547721
vn 0.138595 0.833997 -0.534079
vn 0.263374 0.861124 -0.434857
vn 0.005657 0.880114 -0.474728
vn 0.276432 0.874628 -0.398261
vn 0.510291 0.749992 -0.420851
vn 0.263374 0.861124 -0.434857
vn 0.538076 0.842057 -0.037602
vn 0.755340 0.642019 -0.131428
vn 0.510291 0.749992 -0.420851
vn 0.276432 0.874628 -0.398261
vn 0.538076 0.842057 -0.037602
vn 0.276432 0.874628 -0.398261
vn 0.277129 0.901221 -0.333167
vn 0.534211 0.808387 0.247242
vn 0.534211 0.808387 0.247242
vn 0.277129 0.901221 -0.333167
vn -0.239138 0.954257 -0.179461
vn 0.057104 0.949862 0.307412
vn 0.057104 0.949862 0.307412
vn -0.697605 0.689777 0.193789
vn -0.588174 0.704354 0.397412
vn 0.050244 0.788674 0.612755
vn -0.239138 0.954257 -0.179461
vn -0.704159 0.709775 0.019494
vn -0.697605 0.689777 0.193789
vn 0.057104 0.949862 0.307412
vn -0.881435 -0.092140 0.463230
vn -0.657323 -0.330842 0.677104
vn 0.474170 -0.070907 0.877573
vn 0.054732 0.430942 0.900718
vn 0.474170 -0.070907 0.877573
vn -0.657323 -0.330842 0.677104
vn -0.850198 -0.435064 0.296450
vn -0.881435 -0.092140 0.463230
vn -0.917894 -0.228431 0.324485
vn -0.850198 -0.435064 0.296450
vn -0.657323 -0.330842 0.677104
vn -0.917894 -0.228431 0.324485
vn -0.881435 -0.092140 0.463230
vn -0.837521 -0.115158 0.534132
vn -0.964942 0.049421 0.257767
vn -0.964942 0.049421 0.257767
vn -0.837521 -0.115158 0.534132
vn -0.588174 0.704354 0.397412
vn -0.921827 0.172140 0.347280
vn -0.964942 0.049421 0.257767
vn -0.697605 0.689777 0.193789
vn -0.704159 0.709775 0.019494
vn -0.772395 0.579086 -0.260894
vn -0.921827 0.172140 0.347280
vn -0.704159 0.709775 0.019494
vn -0.936494 -0.295675 0.188560
vn -0.891261 -0.089561 0.444559
vn -0.964942 0.049421 0.257767
vn -0.921827 0.172140 0.347280
vn -0.891261 -0.089561 0.444559
vn -0.917894 -0.228431 0.324485
vn -0.964942 0.049421 0.257767
vn -0.772395 0.579086 -0.260894
vn -0.624303 0.584155 -0.518661
vn -0.903128 0.153661 -0.400934
vn -0.936494 -0.295675 0.188560
vn -0.772395 0.579086 -0.260894
vn -0.903128 0.153661 -0.400934
vn -0.921827 0.172140 0.347280
vn -0.772395 0.579086 -0.260894
vn -0.936494 -0.295675 0.188560
vn -0.886581 -0.124005 -0.445642
vn -0.936494 -0.295675 0.188560
vn -0.903128 0.153661 -0.400934
vn -0.903128 0.153661 -0.400934
vn -0.624303 0.584155 -0.518661
vn -0.878515 -0.234170 -0.416385
vn -0.886581 -0.124005 -0.445642
vn -0.906275 -0.180960 -0.381993
vn -0.878515 -0.234170 -0.416385
vn -0.624303 0.584155 -0.518661
vn -0.649491 0.577412 -0.494730
vn -0.326698 0.387957 -0.861834
vn -0.906275 -0.180960 -0.381993
vn -0.649491 0.577412 -0.494730
vn 0.138595 0.833997 -0.534079
vn 0.605058 0.577847 -0.547721
vn 0.563503 0.449193 -0.693318
vn -0.326698 0.387957 -0.861834
vn -0.649491 0.577412 -0.494730
vn -0.624303 0.584155 -0.518661
vn 0.005657 0.880114 -0.474728
vn 0.263374 0.861124 -0.434857
vn 0.263374 0.861124 -0.434857
vn 0.138595 0.833997 -0.534079
vn -0.649491 0.577412 -0.494730
vn -0.171813 0.878109 -0.446547
vn -0.704159 0.709775 0.019494
vn -0.239138 0.954257 -0.179461
vn 0.006888 0.927091 -0.374774
vn 0.006888 0.927091 -0.374774
vn -0.239138 0.954257 -0.179461
vn 0.277129 0.901221 -0.333167
vn -0.171813 0.878109 -0.446547
vn 0.006888 0.927091 -0.374774
vn 0.276432 0.874628 -0.398261
vn 0.005657 0.880114 -0.474728
vn -0.171813 0.878109 -0.446547
vn 0.005657 0.880114 -0.474728
vn -0.624303 0.584155 -0.518661
vn -0.772395 0.579086 -0.260894
vn -0.772395 0.579086 -0.260894
vn -0.704159 0.709775 0.019494
vn -0.171813 0.878109 -0.446547
vn -0.555650 -0.808972 -0.191881
vn -0.891261 -0.089561 0.444559
vn -0.936494 -0.295675 0.188560
vn -0.530050 -0.819051 -0.219553
vn -0.555650 -0.808972 -0.191881
vn -0.936494 -0.295675 0.188560
vn -0.886581 -0.124005 -0.445642
vn -0.484672 -0.852652 -0.195136
vn -0.530050 -0.819051 -0.219553
vn -0.886581 -0.124005 -0.445642
vn -0.878515 -0.234170 -0.416385
vn -0.878515 -0.234170 -0.416385
vn -0.906275 -0.180960 -0.381993
vn -0.484672 -0.852652 -0.195136
vn -0.484672 -0.852652 -0.195136
vn -0.906275 -0.180960 -0.381993
vn -0.326698 0.387957 -0.861834
vn -0.326698 0.387957 -0.861834
vn -0.649491 0.577412 -0.494730
vn 0.138595 0.833997 -0.534079
vn 0.158619 0.458995 0.874165
vn 0.050244 0.788674 0.612755
vn -0.837521 -0.115158 0.534132
vn -0.964942 0.049421 0.257767
vn -0.588174 0.704354 0.397412
vn -0.697605 0.689777 0.193789
vn 0.898552 -0.437608 0.033228
vn 0.755418 -0.582021 -0.300991
vn 0.911742 -0.019087 -0.410319
vn 0.006888 0.927091 -0.374774
vn 0.277129 0.901221 -0.333167
vn 0.276432 0.874628 -0.398261
s off
g stone_001:polySurface1
usemtl lambert2SG
f 1/1/1 2/2/2 3/3/3 4/4/4
f 3/3/5 5/5/6 6/6/7 7/7/8
f 8/8/9 1/1/10 4/4/11 7/7/12
f 7/7/13 4/4/14 3/3/15
f 6/6/16 9/9/17 10/10/18 7/7/19
f 13/11/20 11/12/21 12/13/22
f 13/11/23 14/14/24 8/8/25
f 8/8/26 14/14/27 1/1/28
f 7/7/29 11/12/30 8/8/31
f 15/15/32 11/12/33 7/7/34 10/10/35
f 5/5/36 16/16/37 6/6/38
f 6/6/39 16/16/40 17/17/41 18/18/42
f 18/18/43 19/19/44 9/9/45 6/6/46
f 18/18/47 17/17/48 20/20/49 19/19/50
f 20/20/51 21/21/52 19/19/53
f 22/22/54 20/20/55 17/17/56 16/16/57
f 5/5/58 23/23/59 22/22/60 16/16/61
f 5/5/62 3/3/63 2/2/64 23/23/65
f 22/24/66 24/25/67 20/20/68
f 26/26/69 21/21/70 24/25/71 25/27/72
f 26/26/73 27/28/74 19/19/75 21/21/76
f 26/26/77 28/29/78 29/30/79 27/28/80
f 28/29/81 26/26/82 25/27/83 30/31/84
f 30/31/85 31/32/86 32/33/87 28/29/88
f 28/29/89 32/33/90 33/34/91 29/30/92
f 35/35/93 34/36/94 27/28/95 29/30/96
f 9/9/97 19/19/98 27/28/99 34/36/100
f 9/9/101 34/36/102 36/37/103 10/10/104
f 10/10/105 36/37/106 37/38/107 15/15/108
f 15/15/109 38/39/110 12/13/111 11/12/112
f 37/38/113 39/40/114 38/39/115 15/15/116
f 14/14/117 40/41/118 2/2/119 1/1/120
f 2/2/121 40/41/122 41/42/123
f 14/14/124 42/43/125 41/42/126 40/41/127
f 42/44/128 14/14/129 13/11/130 43/45/131
f 43/45/132 13/11/133 12/13/134
f 44/46/135 43/45/136 38/39/137 39/40/138
f 45/47/139 44/46/140 39/40/141
f 47/48/142 46/49/143 43/45/144 44/46/145
f 46/49/146 42/44/147 43/45/148
f 45/47/149 48/50/150 49/51/151
f 47/48/152 45/47/153 49/51/154
f 44/46/155 45/47/156 47/48/157
f 50/52/158 47/48/159 49/51/160
f 49/51/161 48/50/162 51/53/163 50/52/164
f 53/54/165 51/53/166 48/50/167 52/55/168
f 54/56/169 53/54/170 52/55/171
f 33/34/172 32/33/173 31/32/174 54/56/175
f 52/55/176 48/50/177 35/35/178 29/30/179
f 29/30/180 33/34/181 52/55/182
f 56/57/183 39/40/184 37/38/185 55/58/186
f 55/58/187 37/38/188 36/37/189
f 56/57/190 55/58/191 34/36/192 35/35/193
f 56/57/194 35/35/195 48/50/196 45/47/197
f 45/47/198 39/40/199 56/57/200
f 57/59/201 46/49/202 47/48/203
f 58/60/204 57/59/205 47/48/206 50/52/207
f 59/61/208 58/60/209 50/52/210 51/53/211
f 51/53/212 53/54/213 59/61/214
f 59/62/215 53/54/216 54/56/217
f 54/56/218 52/55/219 33/34/220
f 8/8/221 11/12/222 13/11/223
f 43/45/224 12/13/225 38/39/226
f 20/20/227 24/25/228 21/21/229
f 55/58/230 36/37/231 34/36/232
