# This file uses centimeters as units for non-parametric coordinates.

mtllib stone_da_002.mtl
g default
v -5.117022 2.058730 -0.734441
v -5.117301 2.406306 -0.441619
v -5.950418 2.486509 -1.058736
v -6.068409 2.003176 -1.106339
v -6.241110 1.443828 -0.950354
v -5.856781 1.228678 -0.567186
v -5.033219 1.114301 -0.378729
v -5.732338 0.087407 -0.346158
v -4.772821 0.073792 -0.611097
v -6.272255 0.730541 -1.292373
v -6.237067 0.100545 -1.065234
v -6.434071 1.327524 -1.566229
v -6.614690 1.993997 -1.805908
v -6.445269 2.500610 -1.847513
v -4.707631 2.456443 -0.633140
v -4.530955 1.699800 -0.476655
v -4.370061 0.982390 -0.842425
v -4.066674 1.529573 -0.614103
v -3.694802 2.121299 -0.924688
v -4.007593 2.353717 -0.701271
v -4.280214 2.748602 -0.963039
v -3.968016 2.661582 -1.589040
v -3.779354 1.977493 -1.793673
v -3.751564 2.527062 -2.186373
v -4.171252 2.905763 -2.315105
v -4.308587 3.134788 -1.685432
v -4.816123 3.028579 -1.090417
v -5.080516 3.079169 -1.402144
v -5.394988 2.761234 -0.869909
v -5.874936 2.745238 -1.221060
v -5.560355 3.018290 -1.759755
v -5.927529 2.787313 -2.214484
v -4.766794 3.105316 -2.296255
v -4.969570 2.996705 -2.519620
v -4.634548 2.781598 -2.812422
v -5.386362 2.550962 -2.890882
v -6.249967 2.089701 -2.507023
v -6.240157 1.362451 -2.412481
v -6.112012 0.672238 -2.329822
v -5.983298 0.160890 -2.140563
v -5.728857 0.611137 -3.220082
v -5.746755 0.127060 -3.215338
v -5.767684 1.245961 -2.962556
v -5.635001 2.016689 -3.074379
v -4.648938 1.793166 -3.406900
v -4.901595 1.023367 -3.088790
v -4.916859 0.156724 -3.065559
v -4.196365 1.137129 -2.781926
v -4.487270 0.164798 -2.611367
v -3.850342 0.847874 -1.996056
v -4.038489 0.205887 -2.166152
v -4.233148 1.891013 -3.228235
v -4.070559 1.555510 -1.427553
v -3.770143 0.033364 -0.908996
vt 0.571330 0.935300
vt 0.629750 0.426743
vt 0.511184 0.353149
vt 0.525759 0.283838
vt 0.535815 0.201203
vt 0.616767 0.179595
vt 0.486679 0.792605
vt 0.678916 0.020208
vt 0.537449 0.020208
vt 0.492075 0.100839
vt 0.444950 0.175599
vt 0.412820 0.251768
vt 0.405556 0.310331
vt 0.819777 0.020208
vt 0.593084 0.824518
vt 0.664670 0.934905
vt 0.572461 0.688704
vt 0.634175 0.764722
vt 0.706600 0.847852
vt 0.756790 0.901586
vt 0.725175 0.793610
vt 0.834223 0.829807
vt 0.804457 0.717271
vt 0.885425 0.904894
vt 0.891848 0.761092
vt 0.478781 0.536476
vt 0.529598 0.435494
vt 0.432427 0.499659
vt 0.478829 0.384687
vt 0.394689 0.430100
vt 0.347745 0.367383
vt 0.277963 0.499888
vt 0.261904 0.458439
vt 0.956632 0.814054
vt 0.192725 0.456305
vt 0.233209 0.365350
vt 0.314637 0.267263
vt 0.313644 0.177690
vt 0.317828 0.088393
vt 0.340975 0.020208
vt 0.161218 0.087225
vt 0.149060 0.020208
vt 0.200722 0.173456
vt 0.212157 0.281844
vt 0.058391 0.175249
vt 0.082004 0.319885
vt 0.865244 0.333937
vt 0.789926 0.390947
vt 0.868238 0.527574
vt 0.725802 0.548533
vt 0.710999 0.447293
vt 0.039448 0.372400
vt 0.715212 0.681110
vt 0.523111 0.521356
vt 0.206587 0.558981
vt 0.987919 0.596809
vt 0.943999 0.438096
vt 0.023029 0.020208
vt 0.778224 0.986761
vt 0.620946 0.988267
vt 0.336140 0.591851
vt 0.423808 0.640797
vt 0.741474 0.186230
vt 0.654437 0.347776
vn -0.345017 0.144068 0.927474
vn -0.242828 0.107124 0.964136
vn -0.647648 0.264642 0.714505
vn -0.594842 0.331503 0.732304
vn -0.645436 0.248584 0.722231
vn -0.461998 0.256522 0.848972
vn 0.120769 0.035717 0.992038
vn -0.366295 -0.004081 0.930490
vn -0.976726 -0.079908 0.199050
vn -0.986123 -0.165333 0.015065
vn -0.970397 -0.220475 -0.098596
vn -0.999778 0.015777 0.013986
vn -0.800809 0.598782 -0.012875
vn 0.338667 -0.030673 0.940406
vn 0.159459 -0.045289 0.986165
vn 0.113327 0.378988 0.918436
vn 0.708713 0.009648 0.705431
vn 0.714976 -0.426844 0.553727
vn 0.423576 0.373737 0.825169
vn 0.466159 0.723852 0.508659
vn 0.972477 -0.169218 0.160166
vn 0.849342 0.503261 0.159205
vn 0.959246 -0.249284 -0.133063
vn 0.279488 0.955192 0.097440
vn 0.951610 0.078919 -0.297001
vn 0.034484 0.929681 0.366747
vn -0.349695 0.745849 0.566942
vn -0.486117 0.805340 0.339291
vn -0.351311 0.935862 0.027253
vn -0.159401 0.974948 0.155141
vn -0.525258 0.761647 -0.379471
vn -0.018931 0.973532 -0.227764
vn -0.192995 0.865876 -0.461533
vn 0.537398 0.707747 -0.458582
vn 0.132900 0.657494 -0.741646
vn -0.273715 0.608508 -0.744848
vn -0.780252 0.177348 -0.599795
vn -0.888664 -0.164008 -0.428227
vn -0.946127 -0.213291 -0.243619
vn -0.955404 -0.190375 -0.225744
vn -0.611935 -0.025730 -0.790490
vn -0.790042 -0.151051 -0.594153
vn -0.483900 -0.017525 -0.874948
vn -0.462949 0.043543 -0.885315
vn 0.145509 -0.177713 -0.973265
vn -0.052149 0.127357 -0.990485
vn 0.441256 -0.130699 -0.887812
vn 0.601586 -0.222818 -0.767102
vn 0.831551 -0.206279 -0.515725
vn 0.981382 0.174636 -0.079954
vn 0.880169 -0.234838 -0.412496
vn 0.712247 0.087730 -0.696425
vn 0.930483 -0.355188 0.089683
vn 0.794562 0.301351 0.527122
s 1
g polySurface2
usemtl lambert6SG
f 1/64/1 2/2/2 3/3/3
f 3/3/3 4/4/4 1/64/1
f 1/64/1 4/4/4 5/5/5 6/6/6
f 7/63/7 1/64/1 6/6/6
f 8/8/8 7/63/7 6/6/6
f 8/8/8 6/6/6 11/9/9
f 10/10/10 6/6/6 5/5/5
f 12/11/11 5/5/5 13/12/12
f 3/3/3 14/13/13 13/12/12 4/4/4
f 13/12/12 5/5/5 4/4/4
f 10/10/10 5/5/5 12/11/11
f 9/14/14 7/63/7 8/8/8
f 16/15/15 15/16/16 1/1/1
f 7/7/7 17/17/17 18/18/18 16/15/15
f 20/19/19 16/15/15 18/18/18
f 15/16/16 20/19/19 21/20/20
f 19/21/21 22/22/22 21/20/20
f 19/21/21 23/23/23 22/22/22
f 26/24/24 22/22/22 24/25/25
f 26/24/24 21/20/20 22/22/22
f 27/59/26 15/16/16 21/20/20
f 1/1/1 15/16/16 2/60/2
f 29/27/27 2/2/2 27/26/26
f 29/27/27 30/29/28 3/3/3 2/2/2
f 31/30/29 30/29/28 29/27/27 28/28/30
f 14/13/13 30/29/28 31/30/29 32/31/31
f 30/29/28 14/13/13 3/3/3
f 33/32/32 28/28/30 27/26/26 26/61/24
f 34/33/33 32/31/31 31/30/29 33/32/32
f 33/32/32 31/30/29 28/28/30
f 25/55/34 35/35/35 34/33/33 33/32/32
f 26/61/24 25/55/34 33/32/32
f 32/31/31 34/33/33 35/35/35 36/36/36
f 36/36/36 37/37/37 14/13/13 32/31/31
f 38/38/38 12/11/11 13/12/12 37/37/37
f 37/37/37 13/12/12 14/13/13
f 39/39/39 10/10/10 12/11/11 38/38/38
f 40/40/40 11/9/9 10/10/10 39/39/39
f 39/39/39 41/41/41 42/42/42 40/40/40
f 38/38/38 43/43/43 41/41/41
f 37/37/37 44/44/44 43/43/43 38/38/38
f 46/45/45 43/43/43 44/44/44 45/46/46
f 41/41/41 46/45/45 47/58/47
f 47/58/47 42/42/42 41/41/41
f 49/48/48 47/47/47 46/57/45 48/49/49
f 48/49/49 50/50/50 51/51/51
f 52/52/52 46/45/45 45/46/46
f 52/56/52 48/49/49 46/57/45
f 36/36/36 44/44/44 37/37/37
f 35/35/35 52/52/52 45/46/46 36/36/36
f 45/46/46 44/44/44 36/36/36
f 35/35/35 25/55/34 52/52/52
f 52/56/52 24/25/25 23/23/23 48/49/49
f 18/18/18 53/53/53 23/23/23 19/21/21
f 48/49/49 23/23/23 53/53/53
f 48/49/49 53/53/53 50/50/50
f 48/49/49 51/51/51 49/48/48
f 53/53/53 18/18/18 17/17/17
f 17/17/17 50/50/50 53/53/53
f 17/17/17 54/54/54 50/50/50
f 54/54/54 51/51/51 50/50/50
f 9/62/14 17/17/17 7/7/7
f 54/54/54 17/17/17 9/62/14
f 16/15/15 1/1/1 7/7/7
f 20/19/19 18/18/18 19/21/21
f 11/9/9 6/6/6 10/10/10
f 38/38/38 41/41/41 39/39/39
f 43/43/43 46/45/45 41/41/41
f 52/56/52 25/34/34 24/25/25
f 22/22/22 23/23/23 24/25/25
f 26/24/24 24/25/25 25/34/34
f 19/21/21 21/20/20 20/19/19
f 27/59/26 2/60/2 15/16/16
f 16/15/15 20/19/19 15/16/16
f 26/24/24 27/59/26 21/20/20
f 29/27/27 27/26/26 28/28/30
