# This file uses centimeters as units for non-parametric coordinates.

mtllib stone_xiao_003.mtl
g default
v 0.226314 1.733840 0.972756
v -0.362503 1.425723 0.775607
v 0.363290 0.803545 1.429936
v 0.936440 1.264769 1.414396
v 0.363390 0.525543 1.385450
v -0.346879 0.525544 1.190104
v 1.011510 0.650538 1.771806
v 1.379434 1.165549 1.030699
v 1.328099 0.531274 1.554378
v 1.599589 0.699164 1.110232
v 1.549916 0.525543 1.263445
v 1.409902 0.823872 1.340828
v 1.122842 1.354790 0.658317
v 0.084229 1.838741 0.423158
v 0.953925 1.656565 0.011412
v 1.121608 1.412894 -0.263264
v 1.254810 1.186823 0.135141
v 1.347660 0.648323 0.508360
v 1.360976 0.706979 0.284177
v 1.338284 0.525544 0.526035
v 1.543747 0.525542 1.025093
v 1.333578 0.525543 0.306956
v 1.294358 0.525543 0.025341
v 1.181658 0.740741 -0.326690
v 1.017154 1.088636 -0.506837
v 1.067389 0.525544 -0.307710
v 0.866825 0.525544 -0.479279
v 0.677628 1.154675 -0.661363
v 0.343983 0.525544 -0.630003
v 0.510549 1.231770 -0.767377
v -0.217868 0.525544 -0.891616
v 0.508059 1.610218 -0.348955
v 0.306986 1.803234 -0.092641
v 0.045817 1.885012 0.214029
v -0.452958 1.582227 -0.029879
v -0.072424 1.486653 -0.670089
v -0.450336 1.394052 -0.473177
v -0.138512 1.178256 -0.850071
v -0.430557 0.525545 -0.966087
v -0.973308 0.525545 -0.373474
v -1.215875 0.525545 -0.084233
v -0.957705 1.086185 0.315535
v -1.038880 0.525543 0.673783
v -0.768132 0.912023 0.737660
vt 0.635605 0.456282
vt 0.581827 0.306528
vt 0.877762 0.388564
vt 0.791574 0.169105
vt 0.947541 0.363563
vt 0.942574 0.544680
vt 0.804095 0.571848
vt 0.994114 0.656776
vt 0.899864 0.704066
vt 0.878276 0.790622
vt 0.947882 0.775573
vt 0.777294 0.727128
vt 0.659275 0.704981
vt 0.509559 0.458257
vt 0.554434 0.795248
vt 0.485374 0.675597
vt 0.625067 0.906700
vt 0.701563 0.907082
vt 0.726095 0.931081
vt 0.883029 0.839888
vt 0.636390 0.952121
vt 0.538794 0.956062
vt 0.425481 0.897749
vt 0.373133 0.798383
vt 0.443897 0.747064
vt 0.397870 0.949896
vt 0.305935 0.925412
vt 0.149616 0.841563
vt 0.290015 0.736917
vt 0.255229 0.689219
vt 0.009432 0.727743
vt 0.358352 0.613072
vt 0.404315 0.540333
vt 0.460075 0.464559
vt 0.374341 0.353952
vt 0.214214 0.497434
vt 0.255096 0.365433
vt 0.127478 0.579612
vt 0.037524 0.242886
vt 0.220413 0.093021
vt 0.313819 0.027161
vt 0.445777 0.166096
vt 0.553267 0.023499
vt 0.004843 0.295002
vt 0.132089 0.420561
vt 0.707404 0.939410
vt 0.577660 0.151824
vn -0.070295 0.812133 0.579223
vn -0.555532 0.578835 0.596937
vn -0.383770 0.295540 0.874858
vn -0.458064 0.336743 0.822667
vn -0.341331 -0.286754 0.895135
vn 0.023207 -0.088881 0.995772
vn 0.137231 0.702858 0.697967
vn 0.536943 -0.241452 0.808327
vn 0.654976 0.449263 0.607593
vn 0.950278 0.283485 -0.128876
vn 0.854194 0.150257 0.497771
vn 0.771673 0.635922 0.011170
vn 0.613319 0.779207 0.129134
vn -0.052392 0.974431 0.218496
vn 0.949204 0.310183 -0.052898
vn 0.464533 0.882714 0.070886
vn 0.983827 0.117464 -0.135226
vn 0.950890 0.249038 -0.183815
vn 0.950159 -0.114313 -0.290053
vn 0.937400 -0.147637 -0.315411
vn 0.986071 -0.149934 -0.072001
vn 0.948415 -0.056842 -0.311893
vn 0.856088 -0.043473 -0.514998
vn 0.589355 0.090988 -0.802734
vn 0.714197 0.520983 -0.467438
vn 0.681810 -0.415163 -0.602307
vn 0.361230 -0.192957 -0.912294
vn 0.365022 -0.242623 -0.898829
vn 0.414924 0.174413 -0.892983
vn 0.335110 0.258276 -0.906088
vn 0.300821 -0.087910 -0.949620
vn 0.244324 0.767239 -0.593001
vn 0.017603 0.962727 -0.269902
vn -0.276616 0.948455 -0.154653
vn -0.578418 0.811711 -0.080983
vn -0.149061 0.791935 -0.592131
vn -0.677101 0.545042 -0.494433
vn -0.199283 0.298093 -0.933503
vn -0.582650 0.332969 -0.741384
vn -0.702542 0.352037 -0.618469
vn -0.861744 0.459331 -0.215434
vn -0.813418 0.579708 0.047855
vn -0.618812 0.388603 0.682685
vn -0.813502 0.320492 0.485283
s 1
g polySurface5
usemtl lambert9SG
f 1/1/1 2/2/2 3/3/3
f 6/4/4 5/5/5 3/3/3
f 6/4/4 3/3/3 2/2/2
f 5/5/5 7/6/6 3/3/3
f 4/7/7 3/3/3 7/6/6
f 9/8/8 12/9/9 7/6/6
f 7/6/6 12/9/9 4/7/7
f 10/10/10 12/9/9 11/11/11
f 11/11/11 12/9/9 9/8/8
f 12/9/9 10/10/10 8/12/12
f 4/7/7 12/9/9 8/12/12
f 13/13/13 1/1/1 4/7/7
f 13/13/13 14/14/14 1/1/1
f 17/15/15 15/16/16 13/13/13
f 19/17/17 17/15/15 18/18/18
f 18/18/18 17/15/15 13/13/13
f 8/12/12 18/18/18 13/13/13
f 10/10/10 18/18/18 8/12/12
f 20/19/19 18/18/18 21/20/20
f 21/20/20 18/18/18 10/10/10
f 10/10/10 11/11/11 21/20/20
f 19/17/17 18/18/18 22/21/21
f 22/21/21 18/18/18 20/46/19
f 22/21/21 23/22/22 19/17/17
f 17/15/15 19/17/17 24/23/23
f 24/23/23 19/17/17 23/22/22
f 25/24/24 16/25/25 24/23/23
f 24/23/23 16/25/25 17/15/15
f 26/26/26 24/23/23 23/22/22
f 25/24/24 24/23/23 27/27/27
f 27/27/27 24/23/23 26/26/26
f 29/28/28 28/29/29 27/27/27
f 27/27/27 28/29/29 25/24/24
f 29/28/28 30/30/30 28/29/29
f 31/31/31 30/30/30 29/28/28
f 28/29/29 16/25/25 25/24/24
f 15/16/16 16/25/25 32/32/32
f 32/32/32 16/25/25 28/29/29
f 30/30/30 32/32/32 28/29/29
f 33/33/33 15/16/16 32/32/32
f 34/34/34 14/14/14 33/33/33
f 33/33/33 14/14/14 15/16/16
f 2/2/2 14/14/14 35/35/35
f 35/35/35 14/14/14 34/34/34
f 14/14/14 2/2/2 1/1/1
f 33/33/33 36/36/36 35/35/35
f 35/35/35 36/36/36 37/37/37
f 35/35/35 34/34/34 33/33/33
f 32/32/32 30/30/30 36/36/36
f 30/30/30 38/38/38 36/36/36
f 30/30/30 31/31/31 38/38/38
f 38/45/38 31/44/31 39/39/39
f 38/45/38 37/37/37 36/36/36
f 40/40/40 37/37/37 39/39/39
f 39/39/39 37/37/37 38/45/38
f 41/41/41 37/37/37 40/40/40
f 35/35/35 37/37/37 42/42/42
f 42/42/42 37/37/37 41/41/41
f 2/2/2 35/35/35 42/42/42
f 2/2/2 44/47/43 6/4/4
f 41/41/41 43/43/44 42/42/42
f 5/5/5 9/8/8 7/6/6
f 43/43/44 6/4/4 44/47/43
f 1/1/1 3/3/3 4/7/7
f 15/16/16 14/14/14 13/13/13
f 13/13/13 4/7/7 8/12/12
f 17/15/15 16/25/25 15/16/16
f 32/32/32 36/36/36 33/33/33
f 42/42/42 44/47/43 2/2/2
f 43/43/44 44/47/43 42/42/42
