# This file uses centimeters as units for non-parametric coordinates.

mtllib stone_002.mtl
g default
v -2.341835 0.468542 -0.503141
v -3.473209 0.278589 -0.562178
v -3.755309 0.056167 0.548632
v -3.255087 0.280598 0.790478
v -2.060118 0.481713 0.862982
v -1.865556 0.477557 0.158807
v -2.162825 0.351145 0.970753
v -2.894607 0.172796 1.041707
v -3.285710 0.075171 0.692486
v -3.411771 -0.268056 1.071718
v -3.009093 -0.406775 1.237221
v -2.769061 0.005441 0.857998
v -3.878332 -0.201339 0.611780
v -2.054949 0.183901 1.005846
v -2.417442 -0.124029 1.263610
v -2.036236 -0.087464 1.145649
v -2.323194 -0.291222 1.318236
v -1.387211 0.385380 0.893639
v -1.518731 0.546576 0.733689
v -1.671450 0.480985 0.370345
v -1.415378 0.310039 0.489130
v -1.318615 0.251232 0.713324
v -1.937344 -0.153973 1.043350
v -2.275794 -0.340851 1.230488
v -1.758506 0.151222 0.093840
v -1.769780 0.102449 -0.288566
v -1.860539 0.217808 -0.190871
v -2.128432 0.229982 -0.690877
v -2.777724 0.381292 -0.750194
v -3.294605 0.149943 -0.898438
v -2.234026 -0.004732 -0.622497
v -2.068373 -0.174737 -0.963708
v -2.301608 -0.150188 -0.981994
v -2.045884 -0.117950 -0.722631
v -2.699876 0.186790 -0.865073
v -2.968732 -0.025538 -0.997019
v -2.305694 -0.384844 -0.843569
v -2.850225 -0.279433 -0.907437
v -3.180081 -0.324568 -0.969264
v -3.528781 -0.290693 -0.854661
v -3.794622 0.016359 -0.560860
v -3.727326 -0.295749 -0.597713
v -4.042519 -0.100043 -0.030765
v -3.823419 -0.345301 -0.040981
v -3.876102 -0.393233 0.365723
v -3.699230 0.292047 0.073656
v -3.400349 -0.427237 1.024160
v -3.396940 -0.654442 1.143582
v -3.792589 -0.655250 0.668722
v -3.751298 -0.660145 0.070922
v -3.552924 -0.664247 -0.274671
v -3.429130 -0.666299 -1.124947
v -3.523521 -0.665597 -0.844262
v -3.178776 -0.669047 -1.110784
v -2.855713 -0.672156 -0.973777
v -2.611203 -0.676938 -0.849828
v -2.349810 -0.683890 -0.595628
v -2.169676 -0.321195 -0.622505
v -1.854639 -0.037412 -0.253241
v -1.853144 -0.098418 0.096225
v -1.999383 -0.398356 -0.271215
v -1.919148 -0.676458 -0.152970
v -1.985263 -0.338258 0.302521
v -1.857642 -0.670174 0.363447
v -1.783923 -0.132421 0.501654
v -2.107911 -0.251370 0.529292
v -2.185050 -0.368960 0.456696
v -1.830113 -0.667454 0.632908
v -1.958576 -0.665212 0.835845
v -2.507466 -0.661642 1.028566
v -2.619717 -0.478123 1.210119
v -2.829780 -0.659535 1.068068
v -3.129308 -0.656214 1.176269
vt 0.525244 0.637183
vt 0.668114 0.737248
vt 0.557741 0.765420
vt 0.672244 0.321470
vt 0.743328 0.478415
vt 0.499669 0.376754
vt 0.460378 0.572453
vt 0.460465 0.408640
vt 0.488820 0.677892
vt 0.390833 0.757325
vt 0.299713 0.683411
vt 0.405211 0.575878
vt 0.531633 0.826227
vt 0.414787 0.388620
vt 0.313289 0.497136
vt 0.267558 0.482388
vt 0.337210 0.011747
vt 0.128100 0.011747
vt 0.527106 0.252221
vt 0.619696 0.275868
vt 0.097053 0.100041
vt 0.132896 0.061257
vt 0.317554 0.045275
vt 0.442797 0.041883
vt 0.120518 0.217816
vt 0.821656 0.317523
vt 0.081732 0.280334
vt 0.866562 0.566746
vt 0.848248 0.392568
vt 0.813044 0.714634
vt 0.904260 0.707766
vt 0.907583 0.399332
vt 0.077992 0.377967
vt 0.988409 0.366006
vt 0.920235 0.558334
vt 0.047301 0.475111
vt 0.008656 0.661337
vt 0.114117 0.473651
vt 0.076277 0.633041
vt 0.076908 0.719524
vt 0.902560 0.836193
vt 0.796280 0.807482
vt 0.820588 0.870671
vt 0.670521 0.850533
vt 0.675676 0.913664
vt 0.565394 0.896278
vt 0.369760 0.791618
vt 0.466139 0.923626
vt 0.316441 0.822984
vt 0.638527 0.987252
vt 0.757637 0.987252
vt 0.917623 0.929916
vt 0.152079 0.802136
vt 0.164978 0.740607
vt 0.171168 0.653723
vt 0.205079 0.492646
vt 0.181341 0.582082
vt 0.134924 0.409380
vt 0.119922 0.295033
vt 0.178803 0.246760
vt 0.195700 0.353641
vt 0.264845 0.375869
vt 0.267967 0.237964
vt 0.343224 0.292350
vt 0.224048 0.160349
vt 0.299198 0.173252
vt 0.316999 0.199348
vt 0.408020 0.260020
vt 0.540692 0.110038
vt 0.439207 0.205037
vt 0.552235 0.046591
vt 0.620133 0.090166
vt 0.276012 0.757851
vt 0.658738 0.011747
vt 0.699282 0.065567
vt 0.455540 0.011747
vt 0.988409 0.778661
vt 0.988409 0.905608
vt 0.988409 0.659326
vt 0.988409 0.432641
vt 0.835483 0.288840
vt 0.936392 0.349920
vt 0.046205 0.418586
vt 0.738542 0.263708
vt 0.335639 0.392735
vt 0.472656 0.216158
vt 0.593509 0.195401
vn -0.178615 0.971141 0.158057
vn -0.353045 0.935486 0.015035
vn -0.557707 0.669579 0.490537
vn -0.014975 0.996572 -0.081361
vn -0.042867 0.996922 -0.065635
vn -0.122896 0.985980 0.112872
vn -0.208827 0.428100 0.879273
vn -0.086499 0.646191 0.758258
vn -0.282336 0.533703 0.797150
vn -0.374950 0.478266 0.794150
vn -0.146507 0.445681 0.883122
vn -0.220847 0.459129 0.860481
vn -0.754365 0.151433 0.638750
vn -0.004320 0.426457 0.904498
vn -0.167119 0.642929 0.747472
vn 0.172060 -0.045353 0.984042
vn 0.421526 0.068929 0.904193
vn 0.710572 0.112132 0.694632
vn 0.287943 0.957611 0.008397
vn 0.272579 0.902680 -0.332972
vn 0.875119 0.032327 -0.482827
vn 0.786614 -0.550613 0.279400
vn 0.600783 -0.705250 0.376408
vn 0.578171 -0.447956 0.681949
vn 0.887331 -0.123220 -0.444365
vn 0.578598 0.783688 -0.225960
vn 0.926903 -0.073120 -0.368108
vn -0.032490 0.851788 -0.522879
vn 0.578824 0.233755 -0.781231
vn -0.367325 0.907841 -0.202232
vn -0.346347 0.441172 -0.827896
vn 0.484677 0.394732 -0.780561
vn 0.913519 -0.048215 -0.403928
vn 0.694065 0.128644 -0.708325
vn 0.209102 0.557654 -0.803305
vn 0.176759 0.087965 -0.980316
vn -0.059782 0.152317 -0.986522
vn 0.413132 -0.471714 -0.778978
vn 0.108189 -0.127175 -0.985962
vn -0.059092 0.199655 -0.978083
vn -0.634542 0.124174 -0.762848
vn -0.757759 0.490169 -0.430738
vn -0.854919 -0.190817 -0.482393
vn -0.907948 0.398064 -0.131060
vn -0.831826 -0.511052 -0.216542
vn -0.944520 -0.274472 0.180407
vn -0.737390 0.010508 0.675385
vn -0.847932 0.240694 0.472311
vn -0.630225 0.401775 0.664375
vn -0.893280 -0.405215 -0.194555
vn -0.844390 -0.481093 -0.235704
vn -0.919200 -0.171443 -0.354512
vn -0.561763 0.263277 -0.784287
vn 0.207634 0.295876 -0.932387
vn 0.279933 0.119168 -0.952595
vn 0.700505 -0.426117 -0.572466
vn 0.505808 -0.514197 -0.692647
vn 0.812030 -0.474692 -0.339521
vn 0.871801 -0.442115 -0.210944
vn 0.854673 -0.479898 -0.198072
vn 0.934889 -0.161411 -0.316114
vn 0.947100 0.226840 -0.227038
vn 0.993253 -0.038033 0.109558
vn 0.899865 0.435768 -0.018700
vn 0.669915 -0.738845 -0.072955
vn 0.531899 -0.831266 0.161497
vn 0.817085 0.543483 0.192352
vn 0.724979 0.667545 0.169673
vn 0.294112 -0.578498 0.760814
vn 0.436294 -0.490848 0.754132
vn 0.112965 -0.592926 0.797294
vn 0.127353 -0.542825 0.830133
vn -0.133118 -0.226942 0.964768
s 1
g polySurface1
usemtl lambert4SG
f 4/1/1 46/2/2 3/3/3
f 6/4/4 1/5/5 4/1/1 5/6/6
f 8/7/7 7/8/8 5/6/6 4/1/1
f 8/7/7 4/1/1 9/9/9
f 3/3/3 9/9/9 4/1/1
f 9/9/9 10/10/10 11/11/11 12/12/12
f 13/13/13 10/10/10 9/9/9 3/3/3
f 12/12/12 8/7/7 9/9/9
f 14/14/14 8/7/7 12/12/12
f 11/11/11 15/15/15 12/12/12
f 17/16/16 16/85/17 14/14/14 15/15/15
f 18/86/18 14/14/14 16/85/17
f 7/8/8 18/86/18 5/6/6
f 14/14/14 18/86/18 7/8/8
f 19/19/19 5/6/6 18/86/18
f 19/19/19 20/20/20 6/4/4 5/6/6
f 18/86/18 21/87/21 20/20/20 19/19/19
f 22/22/22 21/21/21 18/18/18
f 23/23/23 22/22/22 18/18/18 16/17/17
f 24/24/24 23/23/23 16/17/17 17/76/16
f 6/4/4 20/20/20 21/87/21 25/84/25
f 25/84/25 1/5/5 6/4/4
f 27/26/26 25/84/25 26/81/27
f 27/26/26 1/5/5 25/84/25
f 29/28/28 1/5/5 28/29/29
f 29/28/28 2/30/30 1/5/5
f 29/28/28 30/31/31 2/30/30
f 27/26/26 28/29/29 1/5/5
f 31/32/32 29/28/28 28/29/29
f 28/29/29 27/26/26 31/32/32
f 34/82/33 32/34/34 31/32/32
f 26/81/27 34/82/33 31/32/32
f 31/32/32 35/35/35 29/28/28
f 33/80/36 35/35/35 31/32/32
f 35/35/35 36/79/37 30/31/31 29/28/28
f 35/35/35 33/80/36 36/79/37
f 32/83/34 37/38/38 33/36/36
f 37/38/38 38/39/39 36/37/37 33/36/36
f 39/40/40 36/37/37 38/39/39
f 40/41/41 30/31/31 36/79/37 39/77/40
f 41/42/42 2/30/30 30/31/31
f 40/41/41 42/43/43 41/42/42 30/31/31
f 46/2/2 43/44/44 3/3/3
f 42/43/43 43/44/44 41/42/42
f 42/43/43 44/45/45 43/44/44
f 45/46/46 43/44/44 44/45/45
f 43/44/44 13/13/13 3/3/3
f 43/44/44 45/46/46 13/13/13
f 1/5/5 2/30/30 46/2/2
f 41/42/42 43/44/44 46/2/2 2/30/30
f 45/46/46 47/47/47 10/10/10 13/13/13
f 49/48/48 48/49/49 47/47/47 45/46/46
f 45/46/46 44/45/45 50/50/50 49/48/48
f 51/51/51 50/50/50 44/45/45 42/43/43
f 53/52/52 42/43/43 40/41/41 52/78/53
f 53/52/52 51/51/51 42/43/43
f 52/78/53 40/41/41 39/77/40
f 52/53/53 39/40/40 54/54/54
f 55/55/55 54/54/54 39/40/40 38/39/39
f 37/38/38 55/55/55 38/39/39
f 57/56/56 56/57/57 55/55/55 37/38/38
f 32/83/34 58/58/58 37/38/38
f 34/33/33 58/58/58 32/83/34
f 59/59/59 58/58/58 34/33/33 26/27/27
f 26/27/27 25/25/25 60/60/60 59/59/59
f 60/60/60 61/61/61 58/58/58 59/59/59
f 37/38/38 58/58/58 61/61/61 57/56/56
f 62/62/62 57/56/56 61/61/61
f 61/61/61 63/63/63 64/64/64 62/62/62
f 63/63/63 60/60/60 65/65/65
f 65/65/65 60/60/60 25/25/25 21/21/21
f 65/65/65 22/22/22 23/23/23
f 63/63/63 66/66/66 67/67/67
f 66/66/66 24/24/24 67/67/67
f 23/23/23 66/66/66 65/65/65
f 64/64/64 67/67/67 68/68/68
f 64/64/64 63/63/63 67/67/67
f 66/66/66 23/23/23 24/24/24
f 63/63/63 61/61/61 60/60/60
f 65/65/65 21/21/21 22/22/22
f 68/68/68 67/67/67 24/24/24
f 70/69/69 69/70/70 68/68/68 24/24/24
f 11/11/11 17/16/16 15/15/15
f 71/71/71 24/24/24 17/76/16 11/74/11
f 70/69/69 24/24/24 71/71/71 72/72/72
f 73/75/73 72/72/72 71/71/71 11/74/11
f 47/47/47 73/73/73 11/11/11
f 47/47/47 11/11/11 10/10/10
f 48/49/49 73/73/73 47/47/47
f 12/12/12 15/15/15 14/14/14
f 31/32/32 32/34/34 33/80/36
f 65/65/65 66/66/66 63/63/63
f 1/5/5 46/2/2 4/1/1
f 31/32/32 27/26/26 26/81/27
f 7/8/8 8/7/7 14/14/14
